<?xml version="1.0" encoding="UTF-8" standalone="no"?><svg xmlns="http://www.w3.org/2000/svg" xmlns:xlink="http://www.w3.org/1999/xlink" contentStyleType="text/css" height="1028px" preserveAspectRatio="none" style="width:2419px;height:1028px;background:#FFFFFF;" version="1.1" viewBox="0 0 2419 1028" width="2419px" zoomAndPan="magnify"><defs/><g><ellipse cx="2073.8125" cy="20" fill="#222222" rx="10" ry="10" style="stroke:#222222;stroke-width:1.0;"/><rect fill="#F1F1F1" height="34.1328" rx="12.5" ry="12.5" style="stroke:#181818;stroke-width:0.5;" width="117" x="2015.3125" y="50"/><text fill="#000000" font-family="sans-serif" font-size="12" lengthAdjust="spacing" textLength="97" x="2025.3125" y="71.6016">Enter credentials</text><polygon fill="#F1F1F1" points="2019.3125,104.1328,2128.3125,104.1328,2140.3125,116.1328,2128.3125,128.1328,2019.3125,128.1328,2007.3125,116.1328,2019.3125,104.1328" style="stroke:#181818;stroke-width:0.5;"/><text fill="#000000" font-family="sans-serif" font-size="11" lengthAdjust="spacing" textLength="109" x="2019.3125" y="120.29">Credentials are valid</text><text fill="#000000" font-family="sans-serif" font-size="11" lengthAdjust="spacing" textLength="18" x="1989.3125" y="113.8125">yes</text><text fill="#000000" font-family="sans-serif" font-size="11" lengthAdjust="spacing" textLength="14" x="2140.3125" y="113.8125">no</text><rect fill="#F1F1F1" height="34.1328" rx="12.5" ry="12.5" style="stroke:#181818;stroke-width:0.5;" width="117" x="1736.125" y="138.1328"/><text fill="#000000" font-family="sans-serif" font-size="12" lengthAdjust="spacing" textLength="97" x="1746.125" y="159.7344">2FA confirmation</text><polygon fill="#F1F1F1" points="1753.125,192.2656,1836.125,192.2656,1848.125,204.2656,1836.125,216.2656,1753.125,216.2656,1741.125,204.2656,1753.125,192.2656" style="stroke:#181818;stroke-width:0.5;"/><text fill="#000000" font-family="sans-serif" font-size="11" lengthAdjust="spacing" textLength="83" x="1753.125" y="208.4229">User confirmed</text><text fill="#000000" font-family="sans-serif" font-size="11" lengthAdjust="spacing" textLength="18" x="1723.125" y="201.9453">yes</text><text fill="#000000" font-family="sans-serif" font-size="11" lengthAdjust="spacing" textLength="14" x="1848.125" y="201.9453">no</text><polygon fill="#F1F1F1" points="1369.25,226.2656,1503.25,226.2656,1515.25,238.2656,1503.25,250.2656,1369.25,250.2656,1357.25,238.2656,1369.25,226.2656" style="stroke:#181818;stroke-width:0.5;"/><text fill="#000000" font-family="sans-serif" font-size="11" lengthAdjust="spacing" textLength="134" x="1369.25" y="242.4229">User is not administrator</text><text fill="#000000" font-family="sans-serif" font-size="11" lengthAdjust="spacing" textLength="18" x="1339.25" y="235.9453">yes</text><rect fill="#F1F1F1" height="34.1328" rx="12.5" ry="12.5" style="stroke:#181818;stroke-width:0.5;" width="179" x="818" y="260.2656"/><text fill="#000000" font-family="sans-serif" font-size="12" lengthAdjust="spacing" textLength="159" x="828" y="281.8672">Display account information</text><polygon fill="#F1F1F1" points="362,314.3984,474,314.3984,486,326.3984,474,338.3984,362,338.3984,350,326.3984,362,314.3984" style="stroke:#181818;stroke-width:0.5;"/><text fill="#000000" font-family="sans-serif" font-size="11" lengthAdjust="spacing" textLength="18" x="422" y="349.0332">yes</text><text fill="#000000" font-family="sans-serif" font-size="11" lengthAdjust="spacing" textLength="112" x="362" y="330.5557">Perform transaction?</text><rect fill="#F1F1F1" height="34.1328" rx="12.5" ry="12.5" style="stroke:#181818;stroke-width:0.5;" width="149" x="343.5" y="370.5332"/><text fill="#000000" font-family="sans-serif" font-size="12" lengthAdjust="spacing" textLength="129" x="353.5" y="392.1348">Select transaction type</text><polygon fill="#F1F1F1" points="112,449.666,293,449.666,305,461.666,293,473.666,112,473.666,100,461.666,112,449.666" style="stroke:#181818;stroke-width:0.5;"/><text fill="#000000" font-family="sans-serif" font-size="11" lengthAdjust="spacing" textLength="18" x="206.5" y="484.3008">yes</text><text fill="#000000" font-family="sans-serif" font-size="11" lengthAdjust="spacing" textLength="181" x="112" y="465.8232">Transaction is to another account</text><rect fill="#F1F1F1" height="34.1328" rx="12.5" ry="12.5" style="stroke:#181818;stroke-width:0.5;" width="147" x="129" y="506.6211"/><text fill="#000000" font-family="sans-serif" font-size="12" lengthAdjust="spacing" textLength="127" x="139" y="528.2227">Enter account number</text><rect fill="#F1F1F1" height="34.1328" rx="12.5" ry="12.5" style="stroke:#181818;stroke-width:0.5;" width="97" x="154" y="575.7539"/><text fill="#000000" font-family="sans-serif" font-size="12" lengthAdjust="spacing" textLength="77" x="164" y="597.3555">Enter amount</text><rect fill="#F1F1F1" height="34.1328" rx="12.5" ry="12.5" style="stroke:#181818;stroke-width:0.5;" width="132" x="136.5" y="639.4082"/><text fill="#000000" font-family="sans-serif" font-size="12" lengthAdjust="spacing" textLength="112" x="146.5" y="661.0098">Confirm transaction</text><polygon fill="#F1F1F1" points="134.5,693.541,270.5,693.541,282.5,705.541,270.5,717.541,134.5,717.541,122.5,705.541,134.5,693.541" style="stroke:#181818;stroke-width:0.5;"/><text fill="#000000" font-family="sans-serif" font-size="11" lengthAdjust="spacing" textLength="136" x="134.5" y="709.6982">Transaction is successful</text><text fill="#000000" font-family="sans-serif" font-size="11" lengthAdjust="spacing" textLength="18" x="104.5" y="703.2207">yes</text><text fill="#000000" font-family="sans-serif" font-size="11" lengthAdjust="spacing" textLength="14" x="282.5" y="703.2207">no</text><rect fill="#98FB98" height="34.1328" rx="12.5" ry="12.5" style="stroke:#181818;stroke-width:0.5;" width="192" x="11" y="727.541"/><text fill="#000000" font-family="sans-serif" font-size="12" lengthAdjust="spacing" textLength="172" x="21" y="749.1426">Display confirmation message</text><rect fill="#F1F1F1" height="34.1328" rx="12.5" ry="12.5" style="stroke:#181818;stroke-width:0.5;" width="164" x="25" y="781.6738"/><text fill="#000000" font-family="sans-serif" font-size="12" lengthAdjust="spacing" textLength="144" x="35" y="803.2754">Display updated balance</text><rect fill="#FFC0CB" height="34.1328" rx="12.5" ry="12.5" style="stroke:#181818;stroke-width:0.5;" width="150" x="223" y="727.541"/><text fill="#000000" font-family="sans-serif" font-size="12" lengthAdjust="spacing" textLength="130" x="233" y="749.1426">Display error message</text><polygon fill="#F1F1F1" points="202.5,821.8066,214.5,833.8066,202.5,845.8066,190.5,833.8066,202.5,821.8066" style="stroke:#181818;stroke-width:0.5;"/><polygon fill="#F1F1F1" points="528,449.666,681,449.666,693,461.666,681,473.666,528,473.666,516,461.666,528,449.666" style="stroke:#181818;stroke-width:0.5;"/><text fill="#000000" font-family="sans-serif" font-size="11" lengthAdjust="spacing" textLength="18" x="608.5" y="484.3008">yes</text><text fill="#000000" font-family="sans-serif" font-size="11" lengthAdjust="spacing" textLength="153" x="528" y="465.8232">Transaction is to a merchant</text><rect fill="#F1F1F1" height="34.1328" rx="12.5" ry="12.5" style="stroke:#181818;stroke-width:0.5;" width="111" x="549" y="506.6211"/><text fill="#000000" font-family="sans-serif" font-size="12" lengthAdjust="spacing" textLength="91" x="559" y="528.2227">Select merchant</text><rect fill="#F1F1F1" height="34.1328" rx="12.5" ry="12.5" style="stroke:#181818;stroke-width:0.5;" width="97" x="556" y="575.7539"/><text fill="#000000" font-family="sans-serif" font-size="12" lengthAdjust="spacing" textLength="77" x="566" y="597.3555">Enter amount</text><rect fill="#F1F1F1" height="34.1328" rx="12.5" ry="12.5" style="stroke:#181818;stroke-width:0.5;" width="132" x="538.5" y="639.4082"/><text fill="#000000" font-family="sans-serif" font-size="12" lengthAdjust="spacing" textLength="112" x="548.5" y="661.0098">Confirm transaction</text><polygon fill="#F1F1F1" points="536.5,693.541,672.5,693.541,684.5,705.541,672.5,717.541,536.5,717.541,524.5,705.541,536.5,693.541" style="stroke:#181818;stroke-width:0.5;"/><text fill="#000000" font-family="sans-serif" font-size="11" lengthAdjust="spacing" textLength="136" x="536.5" y="709.6982">Transaction is successful</text><text fill="#000000" font-family="sans-serif" font-size="11" lengthAdjust="spacing" textLength="18" x="506.5" y="703.2207">yes</text><text fill="#000000" font-family="sans-serif" font-size="11" lengthAdjust="spacing" textLength="14" x="684.5" y="703.2207">no</text><rect fill="#98FB98" height="34.1328" rx="12.5" ry="12.5" style="stroke:#181818;stroke-width:0.5;" width="192" x="413" y="727.541"/><text fill="#000000" font-family="sans-serif" font-size="12" lengthAdjust="spacing" textLength="172" x="423" y="749.1426">Display confirmation message</text><rect fill="#F1F1F1" height="34.1328" rx="12.5" ry="12.5" style="stroke:#181818;stroke-width:0.5;" width="164" x="427" y="781.6738"/><text fill="#000000" font-family="sans-serif" font-size="12" lengthAdjust="spacing" textLength="144" x="437" y="803.2754">Display updated balance</text><rect fill="#FFC0CB" height="34.1328" rx="12.5" ry="12.5" style="stroke:#181818;stroke-width:0.5;" width="150" x="625" y="727.541"/><text fill="#000000" font-family="sans-serif" font-size="12" lengthAdjust="spacing" textLength="130" x="635" y="749.1426">Display error message</text><polygon fill="#F1F1F1" points="604.5,821.8066,616.5,833.8066,604.5,845.8066,592.5,833.8066,604.5,821.8066" style="stroke:#181818;stroke-width:0.5;"/><polygon fill="#F1F1F1" points="965,314.3984,1111,314.3984,1123,326.3984,1111,338.3984,965,338.3984,953,326.3984,965,314.3984" style="stroke:#181818;stroke-width:0.5;"/><text fill="#000000" font-family="sans-serif" font-size="11" lengthAdjust="spacing" textLength="18" x="1042" y="349.0332">yes</text><text fill="#000000" font-family="sans-serif" font-size="11" lengthAdjust="spacing" textLength="146" x="965" y="330.5557">Create an savings account?</text><rect fill="#F1F1F1" height="34.1328" rx="12.5" ry="12.5" style="stroke:#181818;stroke-width:0.5;" width="180" x="948" y="370.5332"/><text fill="#000000" font-family="sans-serif" font-size="12" lengthAdjust="spacing" textLength="160" x="958" y="392.1348">Enter savings account name</text><rect fill="#F1F1F1" height="34.1328" rx="12.5" ry="12.5" style="stroke:#181818;stroke-width:0.5;" width="209" x="933.5" y="424.666"/><text fill="#000000" font-family="sans-serif" font-size="12" lengthAdjust="spacing" textLength="189" x="943.5" y="446.2676">Confirm savings account creation</text><polygon fill="#F1F1F1" points="967,493.7988,1109,493.7988,1121,505.7988,1109,517.7988,967,517.7988,955,505.7988,967,493.7988" style="stroke:#181818;stroke-width:0.5;"/><text fill="#000000" font-family="sans-serif" font-size="11" lengthAdjust="spacing" textLength="142" x="967" y="509.9561">Savings account is created</text><text fill="#000000" font-family="sans-serif" font-size="11" lengthAdjust="spacing" textLength="18" x="937" y="503.4785">yes</text><text fill="#000000" font-family="sans-serif" font-size="11" lengthAdjust="spacing" textLength="14" x="1121" y="503.4785">no</text><rect fill="#98FB98" height="34.1328" rx="12.5" ry="12.5" style="stroke:#181818;stroke-width:0.5;" width="250" x="803" y="527.7988"/><text fill="#000000" font-family="sans-serif" font-size="12" lengthAdjust="spacing" textLength="230" x="813" y="549.4004">Display updated list of savings accounts</text><rect fill="#FFC0CB" height="34.1328" rx="12.5" ry="12.5" style="stroke:#181818;stroke-width:0.5;" width="150" x="1073" y="527.7988"/><text fill="#000000" font-family="sans-serif" font-size="12" lengthAdjust="spacing" textLength="130" x="1083" y="549.4004">Display error message</text><polygon fill="#F1F1F1" points="1038,567.9316,1050,579.9316,1038,591.9316,1026,579.9316,1038,567.9316" style="stroke:#181818;stroke-width:0.5;"/><polygon fill="#F1F1F1" points="1255,314.3984,1374,314.3984,1386,326.3984,1374,338.3984,1255,338.3984,1243,326.3984,1255,314.3984" style="stroke:#181818;stroke-width:0.5;"/><text fill="#000000" font-family="sans-serif" font-size="11" lengthAdjust="spacing" textLength="18" x="1318.5" y="349.0332">yes</text><text fill="#000000" font-family="sans-serif" font-size="11" lengthAdjust="spacing" textLength="119" x="1255" y="330.5557">View account balance?</text><rect fill="#F1F1F1" height="34.1328" rx="12.5" ry="12.5" style="stroke:#181818;stroke-width:0.5;" width="159" x="1235" y="370.5332"/><text fill="#000000" font-family="sans-serif" font-size="12" lengthAdjust="spacing" textLength="139" x="1245" y="392.1348">Display account balance</text><polygon fill="#F1F1F1" points="1506.5,314.3984,1637.5,314.3984,1649.5,326.3984,1637.5,338.3984,1506.5,338.3984,1494.5,326.3984,1506.5,314.3984" style="stroke:#181818;stroke-width:0.5;"/><text fill="#000000" font-family="sans-serif" font-size="11" lengthAdjust="spacing" textLength="18" x="1576" y="349.0332">yes</text><text fill="#000000" font-family="sans-serif" font-size="11" lengthAdjust="spacing" textLength="131" x="1506.5" y="330.5557">View account statement?</text><text fill="#000000" font-family="sans-serif" font-size="11" lengthAdjust="spacing" textLength="14" x="1649.5" y="324.0781">no</text><rect fill="#F1F1F1" height="34.1328" rx="12.5" ry="12.5" style="stroke:#181818;stroke-width:0.5;" width="171" x="1486.5" y="370.5332"/><text fill="#000000" font-family="sans-serif" font-size="12" lengthAdjust="spacing" textLength="151" x="1496.5" y="392.1348">Display account statement</text><polygon fill="#F1F1F1" points="1515,424.666,1629,424.666,1641,436.666,1629,448.666,1515,448.666,1503,436.666,1515,424.666" style="stroke:#181818;stroke-width:0.5;"/><text fill="#000000" font-family="sans-serif" font-size="11" lengthAdjust="spacing" textLength="114" x="1515" y="440.8232">Download statement?</text><text fill="#000000" font-family="sans-serif" font-size="11" lengthAdjust="spacing" textLength="18" x="1485" y="434.3457">yes</text><text fill="#000000" font-family="sans-serif" font-size="11" lengthAdjust="spacing" textLength="14" x="1641" y="434.3457">no</text><rect fill="#98FB98" height="34.1328" rx="12.5" ry="12.5" style="stroke:#181818;stroke-width:0.5;" width="138" x="1424" y="458.666"/><text fill="#000000" font-family="sans-serif" font-size="12" lengthAdjust="spacing" textLength="118" x="1434" y="480.2676">Download statement</text><rect fill="#F1F1F1" height="34.1328" rx="12.5" ry="12.5" style="stroke:#181818;stroke-width:0.5;" width="118" x="1592" y="458.666"/><text fill="#000000" font-family="sans-serif" font-size="12" lengthAdjust="spacing" textLength="98" x="1602" y="480.2676">Nothing happens</text><polygon fill="#F1F1F1" points="1572,498.7988,1584,510.7988,1572,522.7988,1560,510.7988,1572,498.7988" style="stroke:#181818;stroke-width:0.5;"/><rect fill="#F1F1F1" height="34.1328" rx="12.5" ry="12.5" style="stroke:#181818;stroke-width:0.5;" width="118" x="1720" y="629.8867"/><text fill="#000000" font-family="sans-serif" font-size="12" lengthAdjust="spacing" textLength="98" x="1730" y="651.4883">Nothing happens</text><rect fill="#FF69B4" height="34.1328" rx="12.5" ry="12.5" style="stroke:#181818;stroke-width:0.5;" width="210" x="1858" y="260.2656"/><text fill="#000000" font-family="sans-serif" font-size="12" lengthAdjust="spacing" textLength="190" x="1868" y="281.8672">Display administrator dashboard</text><polygon fill="#F1F1F1" points="1436.25,891.8066,1448.25,903.8066,1436.25,915.8066,1424.25,903.8066,1436.25,891.8066" style="stroke:#181818;stroke-width:0.5;"/><rect fill="#FFC0CB" height="34.1328" rx="12.5" ry="12.5" style="stroke:#181818;stroke-width:0.5;" width="150" x="2098" y="226.2656"/><text fill="#000000" font-family="sans-serif" font-size="12" lengthAdjust="spacing" textLength="130" x="2108" y="247.8672">Display error message</text><polygon fill="#F1F1F1" points="1794.625,921.8066,1806.625,933.8066,1794.625,945.8066,1782.625,933.8066,1794.625,921.8066" style="stroke:#181818;stroke-width:0.5;"/><rect fill="#FFC0CB" height="34.1328" rx="12.5" ry="12.5" style="stroke:#181818;stroke-width:0.5;" width="150" x="2258" y="138.1328"/><text fill="#000000" font-family="sans-serif" font-size="12" lengthAdjust="spacing" textLength="130" x="2268" y="159.7344">Display error message</text><polygon fill="#F1F1F1" points="2073.8125,951.8066,2085.8125,963.8066,2073.8125,975.8066,2061.8125,963.8066,2073.8125,951.8066" style="stroke:#181818;stroke-width:0.5;"/><ellipse cx="2073.8125" cy="1006.8066" fill="none" rx="11" ry="11" style="stroke:#222222;stroke-width:1.0;"/><ellipse cx="2073.8125" cy="1006.8066" fill="#222222" rx="6" ry="6" style="stroke:#111111;stroke-width:1.0;"/><line style="stroke:#181818;stroke-width:1.0;" x1="2073.8125" x2="2073.8125" y1="30" y2="50"/><polygon fill="#181818" points="2069.8125,40,2073.8125,50,2077.8125,40,2073.8125,44" style="stroke:#181818;stroke-width:1.0;"/><line style="stroke:#181818;stroke-width:1.0;" x1="202.5" x2="202.5" y1="540.7539" y2="575.7539"/><polygon fill="#181818" points="198.5,565.7539,202.5,575.7539,206.5,565.7539,202.5,569.7539" style="stroke:#181818;stroke-width:1.0;"/><line style="stroke:#181818;stroke-width:1.0;" x1="202.5" x2="202.5" y1="609.8867" y2="639.4082"/><polygon fill="#181818" points="198.5,629.4082,202.5,639.4082,206.5,629.4082,202.5,633.4082" style="stroke:#181818;stroke-width:1.0;"/><line style="stroke:#181818;stroke-width:1.0;" x1="107" x2="107" y1="761.6738" y2="781.6738"/><polygon fill="#181818" points="103,771.6738,107,781.6738,111,771.6738,107,775.6738" style="stroke:#181818;stroke-width:1.0;"/><line style="stroke:#181818;stroke-width:1.0;" x1="122.5" x2="107" y1="705.541" y2="705.541"/><line style="stroke:#181818;stroke-width:1.0;" x1="107" x2="107" y1="705.541" y2="727.541"/><polygon fill="#181818" points="103,717.541,107,727.541,111,717.541,107,721.541" style="stroke:#181818;stroke-width:1.0;"/><line style="stroke:#181818;stroke-width:1.0;" x1="282.5" x2="298" y1="705.541" y2="705.541"/><line style="stroke:#181818;stroke-width:1.0;" x1="298" x2="298" y1="705.541" y2="727.541"/><polygon fill="#181818" points="294,717.541,298,727.541,302,717.541,298,721.541" style="stroke:#181818;stroke-width:1.0;"/><line style="stroke:#181818;stroke-width:1.0;" x1="107" x2="107" y1="815.8066" y2="833.8066"/><line style="stroke:#181818;stroke-width:1.0;" x1="107" x2="190.5" y1="833.8066" y2="833.8066"/><polygon fill="#181818" points="180.5,829.8066,190.5,833.8066,180.5,837.8066,184.5,833.8066" style="stroke:#181818;stroke-width:1.0;"/><line style="stroke:#181818;stroke-width:1.0;" x1="298" x2="298" y1="761.6738" y2="833.8066"/><line style="stroke:#181818;stroke-width:1.0;" x1="298" x2="214.5" y1="833.8066" y2="833.8066"/><polygon fill="#181818" points="224.5,829.8066,214.5,833.8066,224.5,837.8066,220.5,833.8066" style="stroke:#181818;stroke-width:1.0;"/><line style="stroke:#181818;stroke-width:1.0;" x1="202.5" x2="202.5" y1="673.541" y2="693.541"/><polygon fill="#181818" points="198.5,683.541,202.5,693.541,206.5,683.541,202.5,687.541" style="stroke:#181818;stroke-width:1.0;"/><line style="stroke:#181818;stroke-width:1.0;" x1="604.5" x2="604.5" y1="540.7539" y2="575.7539"/><polygon fill="#181818" points="600.5,565.7539,604.5,575.7539,608.5,565.7539,604.5,569.7539" style="stroke:#181818;stroke-width:1.0;"/><line style="stroke:#181818;stroke-width:1.0;" x1="604.5" x2="604.5" y1="609.8867" y2="639.4082"/><polygon fill="#181818" points="600.5,629.4082,604.5,639.4082,608.5,629.4082,604.5,633.4082" style="stroke:#181818;stroke-width:1.0;"/><line style="stroke:#181818;stroke-width:1.0;" x1="509" x2="509" y1="761.6738" y2="781.6738"/><polygon fill="#181818" points="505,771.6738,509,781.6738,513,771.6738,509,775.6738" style="stroke:#181818;stroke-width:1.0;"/><line style="stroke:#181818;stroke-width:1.0;" x1="524.5" x2="509" y1="705.541" y2="705.541"/><line style="stroke:#181818;stroke-width:1.0;" x1="509" x2="509" y1="705.541" y2="727.541"/><polygon fill="#181818" points="505,717.541,509,727.541,513,717.541,509,721.541" style="stroke:#181818;stroke-width:1.0;"/><line style="stroke:#181818;stroke-width:1.0;" x1="684.5" x2="700" y1="705.541" y2="705.541"/><line style="stroke:#181818;stroke-width:1.0;" x1="700" x2="700" y1="705.541" y2="727.541"/><polygon fill="#181818" points="696,717.541,700,727.541,704,717.541,700,721.541" style="stroke:#181818;stroke-width:1.0;"/><line style="stroke:#181818;stroke-width:1.0;" x1="509" x2="509" y1="815.8066" y2="833.8066"/><line style="stroke:#181818;stroke-width:1.0;" x1="509" x2="592.5" y1="833.8066" y2="833.8066"/><polygon fill="#181818" points="582.5,829.8066,592.5,833.8066,582.5,837.8066,586.5,833.8066" style="stroke:#181818;stroke-width:1.0;"/><line style="stroke:#181818;stroke-width:1.0;" x1="700" x2="700" y1="761.6738" y2="833.8066"/><line style="stroke:#181818;stroke-width:1.0;" x1="700" x2="616.5" y1="833.8066" y2="833.8066"/><polygon fill="#181818" points="626.5,829.8066,616.5,833.8066,626.5,837.8066,622.5,833.8066" style="stroke:#181818;stroke-width:1.0;"/><line style="stroke:#181818;stroke-width:1.0;" x1="604.5" x2="604.5" y1="673.541" y2="693.541"/><polygon fill="#181818" points="600.5,683.541,604.5,693.541,608.5,683.541,604.5,687.541" style="stroke:#181818;stroke-width:1.0;"/><line style="stroke:#181818;stroke-width:1.0;" x1="202.5" x2="202.5" y1="473.666" y2="506.6211"/><polygon fill="#181818" points="198.5,496.6211,202.5,506.6211,206.5,496.6211,202.5,500.6211" style="stroke:#181818;stroke-width:1.0;"/><line style="stroke:#181818;stroke-width:1.0;" x1="202.5" x2="202.5" y1="845.8066" y2="865.8066"/><polygon fill="#181818" points="198.5,855.8066,202.5,865.8066,206.5,855.8066,202.5,859.8066" style="stroke:#181818;stroke-width:1.0;"/><line style="stroke:#181818;stroke-width:1.0;" x1="604.5" x2="604.5" y1="473.666" y2="506.6211"/><polygon fill="#181818" points="600.5,496.6211,604.5,506.6211,608.5,496.6211,604.5,500.6211" style="stroke:#181818;stroke-width:1.0;"/><line style="stroke:#181818;stroke-width:1.0;" x1="604.5" x2="604.5" y1="845.8066" y2="865.8066"/><polygon fill="#181818" points="600.5,855.8066,604.5,865.8066,608.5,855.8066,604.5,859.8066" style="stroke:#181818;stroke-width:1.0;"/><line style="stroke:#181818;stroke-width:1.0;" x1="305" x2="516" y1="461.666" y2="461.666"/><polygon fill="#181818" points="506,457.666,516,461.666,506,465.666,510,461.666" style="stroke:#181818;stroke-width:1.0;"/><line style="stroke:#181818;stroke-width:1.0;" x1="418" x2="418" y1="404.666" y2="424.666"/><line style="stroke:#181818;stroke-width:1.0;" x1="418" x2="202.5" y1="424.666" y2="424.666"/><line style="stroke:#181818;stroke-width:1.0;" x1="202.5" x2="202.5" y1="424.666" y2="449.666"/><polygon fill="#181818" points="198.5,439.666,202.5,449.666,206.5,439.666,202.5,443.666" style="stroke:#181818;stroke-width:1.0;"/><line style="stroke:#181818;stroke-width:1.0;" x1="693" x2="789" y1="461.666" y2="461.666"/><line style="stroke:#181818;stroke-width:1.0;" x1="789" x2="789" y1="461.666" y2="865.8066"/><polygon fill="#181818" points="785,855.8066,789,865.8066,793,855.8066,789,859.8066" style="stroke:#181818;stroke-width:1.0;"/><line style="stroke:#181818;stroke-width:1.0;" x1="202.5" x2="789" y1="865.8066" y2="865.8066"/><line style="stroke:#181818;stroke-width:1.0;" x1="1038" x2="1038" y1="404.666" y2="424.666"/><polygon fill="#181818" points="1034,414.666,1038,424.666,1042,414.666,1038,418.666" style="stroke:#181818;stroke-width:1.0;"/><line style="stroke:#181818;stroke-width:1.0;" x1="955" x2="928" y1="505.7988" y2="505.7988"/><line style="stroke:#181818;stroke-width:1.0;" x1="928" x2="928" y1="505.7988" y2="527.7988"/><polygon fill="#181818" points="924,517.7988,928,527.7988,932,517.7988,928,521.7988" style="stroke:#181818;stroke-width:1.0;"/><line style="stroke:#181818;stroke-width:1.0;" x1="1121" x2="1148" y1="505.7988" y2="505.7988"/><line style="stroke:#181818;stroke-width:1.0;" x1="1148" x2="1148" y1="505.7988" y2="527.7988"/><polygon fill="#181818" points="1144,517.7988,1148,527.7988,1152,517.7988,1148,521.7988" style="stroke:#181818;stroke-width:1.0;"/><line style="stroke:#181818;stroke-width:1.0;" x1="928" x2="928" y1="561.9316" y2="579.9316"/><line style="stroke:#181818;stroke-width:1.0;" x1="928" x2="1026" y1="579.9316" y2="579.9316"/><polygon fill="#181818" points="1016,575.9316,1026,579.9316,1016,583.9316,1020,579.9316" style="stroke:#181818;stroke-width:1.0;"/><line style="stroke:#181818;stroke-width:1.0;" x1="1148" x2="1148" y1="561.9316" y2="579.9316"/><line style="stroke:#181818;stroke-width:1.0;" x1="1148" x2="1050" y1="579.9316" y2="579.9316"/><polygon fill="#181818" points="1060,575.9316,1050,579.9316,1060,583.9316,1056,579.9316" style="stroke:#181818;stroke-width:1.0;"/><line style="stroke:#181818;stroke-width:1.0;" x1="1038" x2="1038" y1="458.7988" y2="493.7988"/><polygon fill="#181818" points="1034,483.7988,1038,493.7988,1042,483.7988,1038,487.7988" style="stroke:#181818;stroke-width:1.0;"/><line style="stroke:#181818;stroke-width:1.0;" x1="1503" x2="1493" y1="436.666" y2="436.666"/><line style="stroke:#181818;stroke-width:1.0;" x1="1493" x2="1493" y1="436.666" y2="458.666"/><polygon fill="#181818" points="1489,448.666,1493,458.666,1497,448.666,1493,452.666" style="stroke:#181818;stroke-width:1.0;"/><line style="stroke:#181818;stroke-width:1.0;" x1="1641" x2="1651" y1="436.666" y2="436.666"/><line style="stroke:#181818;stroke-width:1.0;" x1="1651" x2="1651" y1="436.666" y2="458.666"/><polygon fill="#181818" points="1647,448.666,1651,458.666,1655,448.666,1651,452.666" style="stroke:#181818;stroke-width:1.0;"/><line style="stroke:#181818;stroke-width:1.0;" x1="1493" x2="1493" y1="492.7988" y2="510.7988"/><line style="stroke:#181818;stroke-width:1.0;" x1="1493" x2="1560" y1="510.7988" y2="510.7988"/><polygon fill="#181818" points="1550,506.7988,1560,510.7988,1550,514.7988,1554,510.7988" style="stroke:#181818;stroke-width:1.0;"/><line style="stroke:#181818;stroke-width:1.0;" x1="1651" x2="1651" y1="492.7988" y2="510.7988"/><line style="stroke:#181818;stroke-width:1.0;" x1="1651" x2="1584" y1="510.7988" y2="510.7988"/><polygon fill="#181818" points="1594,506.7988,1584,510.7988,1594,514.7988,1590,510.7988" style="stroke:#181818;stroke-width:1.0;"/><line style="stroke:#181818;stroke-width:1.0;" x1="1572" x2="1572" y1="404.666" y2="424.666"/><polygon fill="#181818" points="1568,414.666,1572,424.666,1576,414.666,1572,418.666" style="stroke:#181818;stroke-width:1.0;"/><line style="stroke:#181818;stroke-width:1.0;" x1="418" x2="418" y1="338.3984" y2="370.5332"/><polygon fill="#181818" points="414,360.5332,418,370.5332,422,360.5332,418,364.5332" style="stroke:#181818;stroke-width:1.0;"/><line style="stroke:#181818;stroke-width:1.0;" x1="418" x2="418" y1="865.8066" y2="885.8066"/><polygon fill="#181818" points="414,875.8066,418,885.8066,422,875.8066,418,879.8066" style="stroke:#181818;stroke-width:1.0;"/><line style="stroke:#181818;stroke-width:1.0;" x1="1038" x2="1038" y1="338.3984" y2="370.5332"/><polygon fill="#181818" points="1034,360.5332,1038,370.5332,1042,360.5332,1038,364.5332" style="stroke:#181818;stroke-width:1.0;"/><line style="stroke:#181818;stroke-width:1.0;" x1="1038" x2="1038" y1="591.9316" y2="885.8066"/><polygon fill="#181818" points="1034,875.8066,1038,885.8066,1042,875.8066,1038,879.8066" style="stroke:#181818;stroke-width:1.0;"/><line style="stroke:#181818;stroke-width:1.0;" x1="1314.5" x2="1314.5" y1="338.3984" y2="370.5332"/><polygon fill="#181818" points="1310.5,360.5332,1314.5,370.5332,1318.5,360.5332,1314.5,364.5332" style="stroke:#181818;stroke-width:1.0;"/><line style="stroke:#181818;stroke-width:1.0;" x1="1314.5" x2="1314.5" y1="404.666" y2="885.8066"/><polygon fill="#181818" points="1310.5,875.8066,1314.5,885.8066,1318.5,875.8066,1314.5,879.8066" style="stroke:#181818;stroke-width:1.0;"/><line style="stroke:#181818;stroke-width:1.0;" x1="1572" x2="1572" y1="338.3984" y2="370.5332"/><polygon fill="#181818" points="1568,360.5332,1572,370.5332,1576,360.5332,1572,364.5332" style="stroke:#181818;stroke-width:1.0;"/><line style="stroke:#181818;stroke-width:1.0;" x1="1572" x2="1572" y1="522.7988" y2="885.8066"/><polygon fill="#181818" points="1568,875.8066,1572,885.8066,1576,875.8066,1572,879.8066" style="stroke:#181818;stroke-width:1.0;"/><line style="stroke:#181818;stroke-width:1.0;" x1="486" x2="953" y1="326.3984" y2="326.3984"/><polygon fill="#181818" points="943,322.3984,953,326.3984,943,330.3984,947,326.3984" style="stroke:#181818;stroke-width:1.0;"/><line style="stroke:#181818;stroke-width:1.0;" x1="1123" x2="1243" y1="326.3984" y2="326.3984"/><polygon fill="#181818" points="1233,322.3984,1243,326.3984,1233,330.3984,1237,326.3984" style="stroke:#181818;stroke-width:1.0;"/><line style="stroke:#181818;stroke-width:1.0;" x1="1386" x2="1494.5" y1="326.3984" y2="326.3984"/><polygon fill="#181818" points="1484.5,322.3984,1494.5,326.3984,1484.5,330.3984,1488.5,326.3984" style="stroke:#181818;stroke-width:1.0;"/><line style="stroke:#181818;stroke-width:1.0;" x1="907.5" x2="907.5" y1="294.3984" y2="299.3984"/><line style="stroke:#181818;stroke-width:1.0;" x1="907.5" x2="418" y1="299.3984" y2="299.3984"/><line style="stroke:#181818;stroke-width:1.0;" x1="418" x2="418" y1="299.3984" y2="314.3984"/><polygon fill="#181818" points="414,304.3984,418,314.3984,422,304.3984,418,308.3984" style="stroke:#181818;stroke-width:1.0;"/><line style="stroke:#181818;stroke-width:1.0;" x1="1649.5" x2="1779" y1="326.3984" y2="326.3984"/><line style="stroke:#181818;stroke-width:1.0;" x1="1779" x2="1779" y1="326.3984" y2="629.8867"/><polygon fill="#181818" points="1775,619.8867,1779,629.8867,1783,619.8867,1779,623.8867" style="stroke:#181818;stroke-width:1.0;"/><line style="stroke:#181818;stroke-width:1.0;" x1="1779" x2="1779" y1="664.0195" y2="885.8066"/><polygon fill="#181818" points="1775,875.8066,1779,885.8066,1783,875.8066,1779,879.8066" style="stroke:#181818;stroke-width:1.0;"/><line style="stroke:#181818;stroke-width:1.0;" x1="418" x2="1779" y1="885.8066" y2="885.8066"/><line style="stroke:#181818;stroke-width:1.0;" x1="1357.25" x2="907.5" y1="238.2656" y2="238.2656"/><line style="stroke:#181818;stroke-width:1.0;" x1="907.5" x2="907.5" y1="238.2656" y2="260.2656"/><polygon fill="#181818" points="903.5,250.2656,907.5,260.2656,911.5,250.2656,907.5,254.2656" style="stroke:#181818;stroke-width:1.0;"/><line style="stroke:#181818;stroke-width:1.0;" x1="1515.25" x2="1963" y1="238.2656" y2="238.2656"/><line style="stroke:#181818;stroke-width:1.0;" x1="1963" x2="1963" y1="238.2656" y2="260.2656"/><polygon fill="#181818" points="1959,250.2656,1963,260.2656,1967,250.2656,1963,254.2656" style="stroke:#181818;stroke-width:1.0;"/><line style="stroke:#181818;stroke-width:1.0;" x1="907.5" x2="907.5" y1="885.8066" y2="903.8066"/><line style="stroke:#181818;stroke-width:1.0;" x1="907.5" x2="1424.25" y1="903.8066" y2="903.8066"/><polygon fill="#181818" points="1414.25,899.8066,1424.25,903.8066,1414.25,907.8066,1418.25,903.8066" style="stroke:#181818;stroke-width:1.0;"/><line style="stroke:#181818;stroke-width:1.0;" x1="1963" x2="1963" y1="294.3984" y2="903.8066"/><line style="stroke:#181818;stroke-width:1.0;" x1="1963" x2="1448.25" y1="903.8066" y2="903.8066"/><polygon fill="#181818" points="1458.25,899.8066,1448.25,903.8066,1458.25,907.8066,1454.25,903.8066" style="stroke:#181818;stroke-width:1.0;"/><line style="stroke:#181818;stroke-width:1.0;" x1="1741.125" x2="1436.25" y1="204.2656" y2="204.2656"/><line style="stroke:#181818;stroke-width:1.0;" x1="1436.25" x2="1436.25" y1="204.2656" y2="226.2656"/><polygon fill="#181818" points="1432.25,216.2656,1436.25,226.2656,1440.25,216.2656,1436.25,220.2656" style="stroke:#181818;stroke-width:1.0;"/><line style="stroke:#181818;stroke-width:1.0;" x1="1848.125" x2="2173" y1="204.2656" y2="204.2656"/><line style="stroke:#181818;stroke-width:1.0;" x1="2173" x2="2173" y1="204.2656" y2="226.2656"/><polygon fill="#181818" points="2169,216.2656,2173,226.2656,2177,216.2656,2173,220.2656" style="stroke:#181818;stroke-width:1.0;"/><line style="stroke:#181818;stroke-width:1.0;" x1="1436.25" x2="1436.25" y1="915.8066" y2="933.8066"/><line style="stroke:#181818;stroke-width:1.0;" x1="1436.25" x2="1782.625" y1="933.8066" y2="933.8066"/><polygon fill="#181818" points="1772.625,929.8066,1782.625,933.8066,1772.625,937.8066,1776.625,933.8066" style="stroke:#181818;stroke-width:1.0;"/><line style="stroke:#181818;stroke-width:1.0;" x1="2173" x2="2173" y1="260.3984" y2="933.8066"/><line style="stroke:#181818;stroke-width:1.0;" x1="2173" x2="1806.625" y1="933.8066" y2="933.8066"/><polygon fill="#181818" points="1816.625,929.8066,1806.625,933.8066,1816.625,937.8066,1812.625,933.8066" style="stroke:#181818;stroke-width:1.0;"/><line style="stroke:#181818;stroke-width:1.0;" x1="1794.625" x2="1794.625" y1="172.2656" y2="192.2656"/><polygon fill="#181818" points="1790.625,182.2656,1794.625,192.2656,1798.625,182.2656,1794.625,186.2656" style="stroke:#181818;stroke-width:1.0;"/><line style="stroke:#181818;stroke-width:1.0;" x1="2007.3125" x2="1794.625" y1="116.1328" y2="116.1328"/><line style="stroke:#181818;stroke-width:1.0;" x1="1794.625" x2="1794.625" y1="116.1328" y2="138.1328"/><polygon fill="#181818" points="1790.625,128.1328,1794.625,138.1328,1798.625,128.1328,1794.625,132.1328" style="stroke:#181818;stroke-width:1.0;"/><line style="stroke:#181818;stroke-width:1.0;" x1="2140.3125" x2="2333" y1="116.1328" y2="116.1328"/><line style="stroke:#181818;stroke-width:1.0;" x1="2333" x2="2333" y1="116.1328" y2="138.1328"/><polygon fill="#181818" points="2329,128.1328,2333,138.1328,2337,128.1328,2333,132.1328" style="stroke:#181818;stroke-width:1.0;"/><line style="stroke:#181818;stroke-width:1.0;" x1="1794.625" x2="1794.625" y1="945.8066" y2="963.8066"/><line style="stroke:#181818;stroke-width:1.0;" x1="1794.625" x2="2061.8125" y1="963.8066" y2="963.8066"/><polygon fill="#181818" points="2051.8125,959.8066,2061.8125,963.8066,2051.8125,967.8066,2055.8125,963.8066" style="stroke:#181818;stroke-width:1.0;"/><line style="stroke:#181818;stroke-width:1.0;" x1="2333" x2="2333" y1="172.2656" y2="963.8066"/><line style="stroke:#181818;stroke-width:1.0;" x1="2333" x2="2085.8125" y1="963.8066" y2="963.8066"/><polygon fill="#181818" points="2095.8125,959.8066,2085.8125,963.8066,2095.8125,967.8066,2091.8125,963.8066" style="stroke:#181818;stroke-width:1.0;"/><line style="stroke:#181818;stroke-width:1.0;" x1="2073.8125" x2="2073.8125" y1="84.1328" y2="104.1328"/><polygon fill="#181818" points="2069.8125,94.1328,2073.8125,104.1328,2077.8125,94.1328,2073.8125,98.1328" style="stroke:#181818;stroke-width:1.0;"/><line style="stroke:#181818;stroke-width:1.0;" x1="2073.8125" x2="2073.8125" y1="975.8066" y2="995.8066"/><polygon fill="#181818" points="2069.8125,985.8066,2073.8125,995.8066,2077.8125,985.8066,2073.8125,989.8066" style="stroke:#181818;stroke-width:1.0;"/><!--MD5=[54ea385b23f952c8905008880b547bae]
@startuml activity-diagram
start

:Enter credentials;
if (Credentials are valid) then (yes)
    :2FA confirmation;
    if(User confirmed) then (yes)
        if(User is not administrator) then (yes)
            :Display account information;
            if (Perform transaction?) then (yes)
                :Select transaction type;
                if (Transaction is to another account) then (yes)
                    :Enter account number;
                    :Enter amount;
                    :Confirm transaction;
                    if (Transaction is successful) then (yes)
                        #palegreen:Display confirmation message;
                        :Display updated balance;
                    else (no)
                        #pink:Display error message;
                    endif
                elseif (Transaction is to a merchant) then (yes)
                    :Select merchant;
                    :Enter amount;
                    :Confirm transaction;
                    if (Transaction is successful) then (yes)
                        #palegreen:Display confirmation message;
                        :Display updated balance;
                    else (no)
                        #pink:Display error message;
                    endif
                endif
            elseif (Create an savings account?) then (yes)
                :Enter savings account name;
                :Confirm savings account creation;
                if (Savings account is created) then (yes)
                    #palegreen:Display updated list of savings accounts;
                else (no)
                    #pink:Display error message;
                endif
            elseif (View account balance?) then (yes)
                :Display account balance;
            elseif (View account statement?) then (yes)
                :Display account statement;
                if(Download statement?) then (yes)
                    #palegreen:Download statement;
                else (no)
                    :Nothing happens;
                endif
            else (no)
                :Nothing happens;
            endif
        else
            #hotPink:Display administrator dashboard;
        endif
    else (no)
        #pink:Display error message;
    endif
else (no)
    #pink:Display error message;
endif

stop
@enduml

PlantUML version 1.2022.7(Mon Aug 22 20:01:30 EEST 2022)
(GPL source distribution)
Java Runtime: OpenJDK Runtime Environment
JVM: OpenJDK 64-Bit Server VM
Default Encoding: UTF-8
Language: en
Country: RO
--></g></svg>