<svg xmlns="http://www.w3.org/2000/svg" xmlns:xlink="http://www.w3.org/1999/xlink" xmlns:lucid="lucid" width="1748.09" height="1534.43"><g transform="translate(-20 -60)" lucid:page-tab-id="0_0"><path d="M0 0h1870.87v2581.67H0z" fill="#fff"/><path d="M40 106a6 6 0 0 1 6-6h328a6 6 0 0 1 6 6v748a6 6 0 0 1-6 6H46a6 6 0 0 1-6-6zM1380 86a6 6 0 0 1 6-6h356.1a6 6 0 0 1 6 6v528a6 6 0 0 1-6 6H1386a6 6 0 0 1-6-6z" stroke="#3a414a" fill="#fff"/><path d="M40 106a6 6 0 0 1 6-6h328a6 6 0 0 1 6 6v47a6 6 0 0 1-6 6H46a6 6 0 0 1-6-6z" stroke="#3a414a" fill="#fff"/><use xlink:href="#a" transform="matrix(1,0,0,1,48,108) translate(82.1 25.1)"/><use xlink:href="#b" transform="matrix(1,0,0,1,48,108) translate(201.95 25.1)"/><path d="M1379.3 86a6 6 0 0 1 6-6h356.8a6 6 0 0 1 6 6v47a6 6 0 0 1-6 6h-356.8a6 6 0 0 1-6-6z" stroke="#3a414a" fill="#fff"/><use xlink:href="#c" transform="matrix(1,0,0,1,1387.311543726028,88) translate(62.724999999999994 25.1)"/><use xlink:href="#d" transform="matrix(1,0,0,1,1387.311543726028,88) translate(172.575 25.1)"/><path d="M745.42 386a6 6 0 0 1 6-6h294.8a6 6 0 0 1 6 6v168a6 6 0 0 1-6 6h-294.8a6 6 0 0 1-6-6z" stroke="#3a414a" fill="#fff"/><path d="M743.82 386a6 6 0 0 1 6-6h298a6 6 0 0 1 6 6v28a6 6 0 0 1-6 6h-298a6 6 0 0 1-6-6z" stroke="#3a414a" fill="#fff"/><use xlink:href="#a" transform="matrix(1,0,0,1,751.8230874520559,388) translate(22.724999999999994 15.6)"/><use xlink:href="#e" transform="matrix(1,0,0,1,751.8230874520559,388) translate(142.575 15.6)"/><use xlink:href="#f" transform="matrix(1,0,0,1,751.8230874520559,388) translate(222.425 15.6)"/><path d="M299.4 226.68H554a6 6 0 0 1 6 6v254.2a6 6 0 0 0 6 6h146.64" stroke="#3a414a" fill="none"/><path d="M299.4 227.18h-.5v-1h.5z" stroke="#3a414a" stroke-width=".05" fill="#3a414a"/><path d="M727.4 492.88l-14.26 4.64v-9.27z" stroke="#3a414a" fill="#3a414a"/><path d="M490 226.68h-11M445 226.68h-5" stroke="#3a414a" fill="none"/><path d="M465 240.68c-7.73 0-14-6.26-14-14 0-7.73 6.27-14 14-14s14 6.27 14 14c0 7.74-6.27 14-14 14z" stroke="#3a414a" fill="#fff"/><path d="M465 206.68c-11.05 0-20 8.96-20 20 0 11.05 8.95 20 20 20" stroke="#3a414a" fill="none"/><path d="M490 226.68a.8.8 0 0 1-.8.8h-9.4a.8.8 0 0 1-.8-.8.8.8 0 0 1 .8-.8h9.4a.8.8 0 0 1 .8.8z" fill="none"/><path d="M1459 220h-303a6 6 0 0 0-6 6v261.32a6 6 0 0 1-6 6h-133.07" stroke="#3a414a" fill="none"/><path d="M1459.5 220.5h-.5v-1h.5z" stroke="#3a414a" stroke-width=".05" fill="#3a414a"/><path d="M996.16 493.32l14.27-4.64v9.27z" stroke="#3a414a" fill="#3a414a"/><path d="M1258.62 220h11M1303.62 220h5" stroke="#3a414a" fill="none"/><path d="M1283.62 206c7.74 0 14 6.27 14 14s-6.26 14-14 14c-7.73 0-14-6.27-14-14s6.27-14 14-14z" stroke="#3a414a" fill="#fff"/><path d="M1283.62 240c11.05 0 20-8.95 20-20s-8.95-20-20-20" stroke="#3a414a" fill="none"/><path d="M1258.62 220a.8.8 0 0 1 .8-.8h9.4a.8.8 0 0 1 .8.8.8.8 0 0 1-.8.8h-9.4a.8.8 0 0 1-.8-.8z" fill="none"/><path d="M280.42 970.43a6 6 0 0 1 6-6H894a6 6 0 0 1 6 6v598a6 6 0 0 1-6 6H286.42a6 6 0 0 1-6-6z" stroke="#3a414a" fill="#fff"/><path d="M280 962.08a6 6 0 0 1 6-6h608a6 6 0 0 1 6 6v32a6 6 0 0 1-6 6H286a6 6 0 0 1-6-6z" stroke="#3a414a" fill="#fff"/><use xlink:href="#a" transform="matrix(1,0,0,1,288,964.0833333333333) translate(175.725 17.6)"/><use xlink:href="#g" transform="matrix(1,0,0,1,288,964.0833333333333) translate(295.575 17.6)"/><use xlink:href="#h" transform="matrix(1,0,0,1,288,964.0833333333333) translate(380.425 17.6)"/><path d="M1182.98 1047.65a6 6 0 0 1 6-6h322.04a6 6 0 0 1 6 6v288a6 6 0 0 1-6 6h-322.04a6 6 0 0 1-6-6z" stroke="#3a414a" fill="#fff"/><path d="M1182.98 1047.65a6 6 0 0 1 6-6h322.04a6 6 0 0 1 6 6v28a6 6 0 0 1-6 6h-322.04a6 6 0 0 1-6-6z" stroke="#3a414a" fill="#fff"/><use xlink:href="#a" transform="matrix(1,0,0,1,1190.9769125479443,1049.65) translate(64.125 15.6)"/><use xlink:href="#i" transform="matrix(1,0,0,1,1190.9769125479443,1049.65) translate(183.97500000000002 15.6)"/><path d="M994.05 1068.87h-11M949.05 1068.87h-5" stroke="#3a414a" fill="none"/><path d="M969.05 1082.87c-7.74 0-14-6.27-14-14 0-7.74 6.26-14 14-14 7.73 0 14 6.26 14 14 0 7.73-6.27 14-14 14z" stroke="#3a414a" fill="#fff"/><path d="M969.05 1048.87c-11.05 0-20 8.95-20 20 0 11.04 8.95 20 20 20" stroke="#3a414a" fill="none"/><path d="M994.05 1068.87a.8.8 0 0 1-.8.8h-9.4a.8.8 0 0 1-.8-.8.8.8 0 0 1 .8-.8h9.4a.8.8 0 0 1 .8.8z" fill="none"/><path d="M994.55 1068.87H1138a6 6 0 0 1 6 6v79.06" stroke="#3a414a" fill="none"/><path d="M994.56 1069.37h-3.5 3v-1h.5z" stroke="#3a414a" stroke-width=".05" fill="#3a414a"/><path d="M1144 1153.92v.5" stroke="#3a414a" fill="none"/><use xlink:href="#j" transform="matrix(1,0,0,1,983.0293974542974,1043.5346657030886) translate(0 14.222222222222223)"/><path d="M994.05 1220h-11M949.05 1220h-5" stroke="#3a414a" fill="none"/><path d="M969.05 1234c-7.74 0-14-6.27-14-14s6.26-14 14-14c7.73 0 14 6.27 14 14s-6.27 14-14 14z" stroke="#3a414a" fill="#fff"/><path d="M969.05 1200c-11.05 0-20 8.95-20 20s8.95 20 20 20" stroke="#3a414a" fill="none"/><path d="M994.05 1220a.8.8 0 0 1-.8.8h-9.4a.8.8 0 0 1-.8-.8.8.8 0 0 1 .8-.8h9.4a.8.8 0 0 1 .8.8z" fill="none"/><path d="M994.55 1220H1134a6 6 0 0 0 6-6v-53.57a6 6 0 0 1 6-6h100.1" stroke="#3a414a" fill="none"/><path d="M994.56 1220.5h-3.5 3v-1h.5z" stroke="#3a414a" stroke-width=".05" fill="#3a414a"/><path d="M1260.86 1154.43l-14.27 4.64v-9.27z" stroke="#3a414a" fill="#3a414a"/><use xlink:href="#k" transform="matrix(1,0,0,1,985.0599660626635,1194.6679990364219) translate(0 14.222222222222223)"/><path d="M943.55 1068.87H904.6a.57.57 0 0 0-.55.56.57.57 0 0 1-.57.57H652.9a6 6 0 0 1-6-6v-34.63" stroke="#3a414a" fill="none"/><path d="M944.05 1069.37h3-3.52v-1h.52z" stroke="#3a414a" stroke-width=".05" fill="#3a414a"/><path d="M646.9 1029.38v-.5M943.55 1220H801.47a6 6 0 0 1-6-6v-138a6 6 0 0 0-6-6H652.9a6 6 0 0 1-6-6v-34.63" stroke="#3a414a" fill="none"/><path d="M944.05 1220.5h3-3.52v-1h.52z" stroke="#3a414a" stroke-width=".05" fill="#3a414a"/><path d="M646.9 1029.38v-.5M898.82 561v191.04a6 6 0 0 1-6 6H596a6 6 0 0 0-6 6V939.2" stroke="#3a414a" fill="none"/><path d="M899.32 561h-1v-.5h1z" stroke="#3a414a" stroke-width=".05" fill="#3a414a"/><path d="M590 953.97l-4.63-14.27h9.26z" stroke="#3a414a" fill="#3a414a"/><path d="M1180 1406a6 6 0 0 1 6-6h322.05a6 6 0 0 1 6 6v148a6 6 0 0 1-6 6H1186a6 6 0 0 1-6-6z" stroke="#3a414a" fill="#fff"/><path d="M1180 1406a6 6 0 0 1 6-6h322.05a6 6 0 0 1 6 6v28a6 6 0 0 1-6 6H1186a6 6 0 0 1-6-6z" stroke="#3a414a" fill="#fff"/><use xlink:href="#a" transform="matrix(1,0,0,1,1188,1408) translate(59.64999999999999 15.6)"/><use xlink:href="#l" transform="matrix(1,0,0,1,1188,1408) translate(179.5 15.6)"/><path d="M587.02 1489.87V1504a6 6 0 0 0 6 6h619.48a6 6 0 0 0 6-6v-3.57a6 6 0 0 1 6-6h17.24" stroke="#3a414a" fill="none"/><path d="M587.52 1489.88h-1v-.5h1z" stroke="#3a414a" stroke-width=".05" fill="#3a414a"/><path d="M1256.5 1494.43l-14.26 4.64v-9.27z" stroke="#3a414a" fill="#3a414a"/><use xlink:href="#m" transform="matrix(1,0,0,1,970.1777777777779,1484.6666666666667) translate(0 14.222222222222223)"/><use xlink:href="#n" transform="matrix(1,0,0,1,970.1777777777779,1484.6666666666667) translate(57.18518518518519 14.222222222222223)"/><path d="M970 1508.87h-11M925 1508.87h-5" stroke="#3a414a" fill="none"/><path d="M945 1522.87c-7.73 0-14-6.27-14-14 0-7.74 6.27-14 14-14s14 6.26 14 14c0 7.73-6.27 14-14 14z" stroke="#3a414a" fill="#fff"/><path d="M945 1488.87c-11.05 0-20 8.95-20 20 0 11.04 8.95 20 20 20" stroke="#3a414a" fill="none"/><path d="M970 1508.87a.8.8 0 0 1-.8.8h-9.4a.8.8 0 0 1-.8-.8.8.8 0 0 1 .8-.8h9.4a.8.8 0 0 1 .8.8z" fill="none"/><path d="M1225.95 790.43a6 6 0 0 1 6-6h236.1a6 6 0 0 1 6 6v168a6 6 0 0 1-6 6h-236.1a6 6 0 0 1-6-6z" stroke="#3a414a" fill="#fff"/><path d="M1225.95 790.43a6 6 0 0 1 6-6h236.1a6 6 0 0 1 6 6v28a6 6 0 0 1-6 6h-236.1a6 6 0 0 1-6-6z" stroke="#3a414a" fill="#fff"/><use xlink:href="#a" transform="matrix(1,0,0,1,1233.9538250958883,792.4333333333333) translate(31.625 15.6)"/><use xlink:href="#o" transform="matrix(1,0,0,1,1233.9538250958883,792.4333333333333) translate(151.47500000000002 15.6)"/><path d="M1600 1110v11M1600 1155v5" stroke="#3a414a" fill="none"/><path d="M1614 1135c0 7.73-6.27 14-14 14s-14-6.27-14-14 6.27-14 14-14 14 6.27 14 14z" stroke="#3a414a" fill="#fff"/><path d="M1580 1135c0 11.05 8.95 20 20 20s20-8.95 20-20" stroke="#3a414a" fill="none"/><path d="M1600 1110a.8.8 0 0 1 .8.8v9.4a.8.8 0 0 1-.8.8.8.8 0 0 1-.8-.8v-9.4a.8.8 0 0 1 .8-.8z" fill="none"/><path d="M1350 1239v-39.3M1350 1239v.5" stroke="#3a414a" fill="none"/><path d="M1350 1184.92l4.63 14.27h-9.27z" stroke="#3a414a" fill="#3a414a"/><path d="M100 326a6 6 0 0 1 6-6h186.4a6 6 0 0 1 6 6v68a6 6 0 0 1-6 6H106a6 6 0 0 1-6-6z" stroke="#3a414a" fill="#fff"/><path d="M288.4 330h-15v20h15z" stroke="#3a414a" fill="#fff"/><path d="M278.4 333.33h-10v3.34h10zm0 10h-10v3.34h10z" stroke="#3a414a" fill="#fff"/><use xlink:href="#p" transform="matrix(1,0,0,1,100,320) translate(54.4370987654321 45.27777777777778)"/><path d="M100 459.32a6 6 0 0 1 6-6h186.4a6 6 0 0 1 6 6v68a6 6 0 0 1-6 6H106a6 6 0 0 1-6-6z" stroke="#3a414a" fill="#fff"/><path d="M288.4 463.32h-15v20h15z" stroke="#3a414a" fill="#fff"/><path d="M278.4 466.65h-10v3.33h10zm0 10h-10v3.33h10z" stroke="#3a414a" fill="#fff"/><use xlink:href="#q" transform="matrix(1,0,0,1,100,453.3166666666667) translate(38.32598765432098 45.27777777777778)"/><path d="M100 588.75a6 6 0 0 1 6-6h186.4a6 6 0 0 1 6 6v68a6 6 0 0 1-6 6H106a6 6 0 0 1-6-6z" stroke="#3a414a" fill="#fff"/><path d="M288.4 592.75h-15v20h15z" stroke="#3a414a" fill="#fff"/><path d="M278.4 596.08h-10v3.34h10zm0 10h-10v3.34h10z" stroke="#3a414a" fill="#fff"/><use xlink:href="#r" transform="matrix(1,0,0,1,100,582.75) translate(20.91858024691357 45.27777777777778)"/><path d="M100 723.22a6 6 0 0 1 6-6h186.4a6 6 0 0 1 6 6V794a6 6 0 0 1-6 6H106a6 6 0 0 1-6-6z" stroke="#3a414a" fill="#fff"/><path d="M288.4 727.22h-15v20h15z" stroke="#3a414a" fill="#fff"/><path d="M278.4 730.55h-10v3.33h10zm0 10h-10v3.33h10z" stroke="#3a414a" fill="#fff"/><use xlink:href="#s" transform="matrix(1,0,0,1,100,717.2166666666667) translate(43.9124074074074 46.30902777777778)"/><path d="M100 192.68a6 6 0 0 1 6-6h186.4a6 6 0 0 1 6 6v68a6 6 0 0 1-6 6H106a6 6 0 0 1-6-6z" stroke="#3a414a" fill="#fff"/><path d="M288.4 196.68h-15v20h15z" stroke="#3a414a" fill="#fff"/><path d="M278.4 200.02h-10v3.33h10zm0 10h-10v3.33h10z" stroke="#3a414a" fill="#fff"/><use xlink:href="#t" transform="matrix(1,0,0,1,100,186.68333333333328) translate(13.696358024691373 45.27777777777778)"/><path d="M199.2 267.68v35.44" stroke="#3a414a" fill="none"/><path d="M199.7 267.7h-1v-.52h1z" stroke="#3a414a" stroke-width=".05" fill="#3a414a"/><path d="M199.2 317.88l-4.63-14.26h9.27z" stroke="#3a414a" fill="#3a414a"/><path d="M199.2 401v35.43" stroke="#3a414a" fill="none"/><path d="M199.7 401h-1v-.5h1z" stroke="#3a414a" stroke-width=".05" fill="#3a414a"/><path d="M199.2 451.2l-4.63-14.27h9.27z" stroke="#3a414a" fill="#3a414a"/><path d="M299.4 360h258.2a6 6 0 0 1 6 6v126.38" stroke="#3a414a" fill="none"/><path d="M299.4 360.5h-.5v-1h.5z" stroke="#3a414a" stroke-width=".05" fill="#3a414a"/><path d="M563.6 492.37v.5M299.4 493.32h239.38a.22.22 0 0 0 .22-.22.22.22 0 0 1 .22-.22h20.28" stroke="#3a414a" fill="none"/><path d="M299.4 493.82h-.5v-1h.5z" stroke="#3a414a" stroke-width=".05" fill="#3a414a"/><path d="M559.5 492.88h.5M299.4 622.75h258.2a6 6 0 0 0 6-6V493.38" stroke="#3a414a" fill="none"/><path d="M299.4 623.25h-.5v-1h.5z" stroke="#3a414a" stroke-width=".05" fill="#3a414a"/><path d="M563.6 493.4v-.52M299.4 758.6h258.2a6 6 0 0 0 6-6V617.76" stroke="#3a414a" fill="none"/><path d="M299.4 759.1h-.5v-1h.5z" stroke="#3a414a" stroke-width=".05" fill="#3a414a"/><path d="M563.6 617.77v-.52M199.2 534.32v31.55" stroke="#3a414a" fill="none"/><path d="M199.7 534.33h-1v-.5h1z" stroke="#3a414a" stroke-width=".05" fill="#3a414a"/><path d="M199.2 580.63l-4.63-14.26h9.27z" stroke="#3a414a" fill="#3a414a"/><path d="M199.2 663.75v36.58" stroke="#3a414a" fill="none"/><path d="M199.7 663.76h-1v-.5h1z" stroke="#3a414a" stroke-width=".05" fill="#3a414a"/><path d="M199.2 715.1l-4.63-14.27h9.27z" stroke="#3a414a" fill="#3a414a"/><path d="M795.65 459.32a6 6 0 0 1 6-6h186.4a6 6 0 0 1 6 6v68a6 6 0 0 1-6 6h-186.4a6 6 0 0 1-6-6z" stroke="#3a414a" fill="#fff"/><path d="M984.05 463.32h-15v20h15z" stroke="#3a414a" fill="#fff"/><path d="M974.05 466.65h-10v3.33h10zm0 10h-10v3.33h10z" stroke="#3a414a" fill="#fff"/><use xlink:href="#u" transform="matrix(1,0,0,1,795.646174904112,453.3166666666667) translate(40.2087037037037 45.27777777777778)"/><use xlink:href="#v" transform="matrix(1,0,0,1,795.646174904112,453.3166666666667) translate(91.99882716049382 45.27777777777778)"/><path d="M1460 186a6 6 0 0 1 6-6h186.4a6 6 0 0 1 6 6v68a6 6 0 0 1-6 6H1466a6 6 0 0 1-6-6z" stroke="#3a414a" fill="#fff"/><path d="M1648.4 190h-15v20h15z" stroke="#3a414a" fill="#fff"/><path d="M1638.4 193.33h-10v3.34h10zm0 10h-10v3.34h10z" stroke="#3a414a" fill="#fff"/><use xlink:href="#t" transform="matrix(1,0,0,1,1460,180) translate(13.696358024691373 45.27777777777778)"/><path d="M1460 316a6 6 0 0 1 6-6h186.4a6 6 0 0 1 6 6v68a6 6 0 0 1-6 6H1466a6 6 0 0 1-6-6z" stroke="#3a414a" fill="#fff"/><path d="M1648.4 320h-15v20h15z" stroke="#3a414a" fill="#fff"/><path d="M1638.4 323.33h-10v3.34h10zm0 10h-10v3.34h10z" stroke="#3a414a" fill="#fff"/><use xlink:href="#w" transform="matrix(1,0,0,1,1460,310) translate(13.788950617283968 45.27777777777778)"/><path d="M1464.5 456.67a6 6 0 0 1 6-6h186.4a6 6 0 0 1 6 6v68a6 6 0 0 1-6 6h-186.4a6 6 0 0 1-6-6z" stroke="#3a414a" fill="#fff"/><path d="M1652.9 460.67h-15v20h15z" stroke="#3a414a" fill="#fff"/><path d="M1642.9 464h-10v3.33h10zm0 10h-10v3.33h10z" stroke="#3a414a" fill="#fff"/><use xlink:href="#x" transform="matrix(1,0,0,1,1464.501946767126,450.66666666666674) translate(29.74574074074073 45.27777777777778)"/><path d="M490 360h-11M445 360h-5" stroke="#3a414a" fill="none"/><path d="M465 374c-7.73 0-14-6.27-14-14s6.27-14 14-14 14 6.27 14 14-6.27 14-14 14z" stroke="#3a414a" fill="#fff"/><path d="M465 340c-11.05 0-20 8.95-20 20s8.95 20 20 20" stroke="#3a414a" fill="none"/><path d="M490 360a.8.8 0 0 1-.8.8h-9.4a.8.8 0 0 1-.8-.8.8.8 0 0 1 .8-.8h9.4a.8.8 0 0 1 .8.8z" fill="none"/><path d="M496.6 493.32h-11M451.6 493.32h-5" stroke="#3a414a" fill="none"/><path d="M471.6 507.32c-7.73 0-14-6.27-14-14 0-7.74 6.27-14 14-14s14 6.26 14 14c0 7.73-6.27 14-14 14z" stroke="#3a414a" fill="#fff"/><path d="M471.6 473.32c-11.05 0-20 8.95-20 20 0 11.04 8.95 20 20 20" stroke="#3a414a" fill="none"/><path d="M496.6 493.32a.8.8 0 0 1-.8.8h-9.4a.8.8 0 0 1-.8-.8.8.8 0 0 1 .8-.8h9.4a.8.8 0 0 1 .8.8z" fill="none"/><path d="M500 622.75h-11M455 622.75h-5" stroke="#3a414a" fill="none"/><path d="M475 636.75c-7.73 0-14-6.27-14-14s6.27-14 14-14 14 6.27 14 14-6.27 14-14 14z" stroke="#3a414a" fill="#fff"/><path d="M475 602.75c-11.05 0-20 8.95-20 20s8.95 20 20 20" stroke="#3a414a" fill="none"/><path d="M500 622.75a.8.8 0 0 1-.8.8h-9.4a.8.8 0 0 1-.8-.8.8.8 0 0 1 .8-.8h9.4a.8.8 0 0 1 .8.8z" fill="none"/><path d="M496.6 758.6h-11M451.6 758.6h-5" stroke="#3a414a" fill="none"/><path d="M471.6 772.6c-7.73 0-14-6.26-14-14 0-7.72 6.27-14 14-14s14 6.28 14 14c0 7.74-6.27 14-14 14z" stroke="#3a414a" fill="#fff"/><path d="M471.6 738.6c-11.05 0-20 8.96-20 20 0 11.05 8.95 20 20 20" stroke="#3a414a" fill="none"/><path d="M496.6 758.6a.8.8 0 0 1-.8.8h-9.4a.8.8 0 0 1-.8-.8.8.8 0 0 1 .8-.8h9.4a.8.8 0 0 1 .8.8z" fill="none"/><path d="M1459 350h-308.5" stroke="#3a414a" fill="none"/><path d="M1459.5 350.5h-.5v-1h.5z" stroke="#3a414a" stroke-width=".05" fill="#3a414a"/><path d="M1150.5 350h-.5M1463.5 490.67h-313" stroke="#3a414a" fill="none"/><path d="M1464 491.17h-.5v-1h.5z" stroke="#3a414a" stroke-width=".05" fill="#3a414a"/><path d="M1150.5 490.67h-.5M1258.62 350h11M1303.62 350h5" stroke="#3a414a" fill="none"/><path d="M1283.62 336c7.74 0 14 6.27 14 14s-6.26 14-14 14c-7.73 0-14-6.27-14-14s6.27-14 14-14z" stroke="#3a414a" fill="#fff"/><path d="M1283.62 370c11.05 0 20-8.95 20-20s-8.95-20-20-20" stroke="#3a414a" fill="none"/><path d="M1258.62 350a.8.8 0 0 1 .8-.8h9.4a.8.8 0 0 1 .8.8.8.8 0 0 1-.8.8h-9.4a.8.8 0 0 1-.8-.8z" fill="none"/><path d="M1258.62 493.32h11M1303.62 493.32h5" stroke="#3a414a" fill="none"/><path d="M1283.62 479.32c7.74 0 14 6.26 14 14 0 7.73-6.26 14-14 14-7.73 0-14-6.27-14-14 0-7.74 6.27-14 14-14z" stroke="#3a414a" fill="#fff"/><path d="M1283.62 513.32c11.05 0 20-8.96 20-20 0-11.05-8.95-20-20-20" stroke="#3a414a" fill="none"/><path d="M1258.62 493.32a.8.8 0 0 1 .8-.8h9.4a.8.8 0 0 1 .8.8.8.8 0 0 1-.8.8h-9.4a.8.8 0 0 1-.8-.8z" fill="none"/><path d="M1260 866a6 6 0 0 1 6-6h162.05a6 6 0 0 1 6 6v56.87a6 6 0 0 1-6 6H1266a6 6 0 0 1-6-6z" stroke="#3a414a" fill="#fff"/><path d="M1424.05 870h-15v20h15z" stroke="#3a414a" fill="#fff"/><path d="M1414.05 873.33h-10v3.34h10zm0 10h-10v3.34h10z" stroke="#3a414a" fill="#fff"/><use xlink:href="#y" transform="matrix(1,0,0,1,1260,860) translate(5.677839506172839 39.34027777777778)"/><use xlink:href="#z" transform="matrix(1,0,0,1,1260,860) translate(73.02351851851851 39.34027777777778)"/><path d="M1600.5 1268.45l-.08 1-.24 1-.4.93-.52.88-.66.77-.78.66-.87.53-.94.4-.98.22-1 .08H1432.6v-1h161.38l.88-.07.84-.2.8-.33.73-.45.66-.56.55-.65.45-.74.33-.8.2-.84.07-.9v-234.15h1zM1595.02 874l1 .25.93.4.87.52.78.67.66.77.53.88.38.94.24 1 .08 1v132.5h-1V880.45l-.07-.88-.2-.84-.33-.8-.45-.73-.56-.66-.67-.55-.73-.47-.8-.33-.84-.2-.88-.07h-103.05v-1h103.1zM1432.6 1274.93h-.5v-1h.5z" stroke="#3a414a" stroke-width=".05" fill="#3a414a"/><path d="M1490.43 879.07l-14.27-4.64 14.27-4.63z" fill="#3a414a"/><path d="M1490.93 879.76l-16.38-5.33 16.38-5.32zm-13.15-5.33l12.15 3.95v-7.9z" stroke="#3a414a" stroke-width=".05" fill="#3a414a"/><use xlink:href="#A" transform="matrix(1,0,0,1,1548.4444444444443,1012.9209522380505) translate(0 14.222222222222223)"/><use xlink:href="#B" transform="matrix(1,0,0,1,1548.4444444444443,1012.9209522380505) translate(53.87654320987655 14.222222222222223)"/><path d="M500 1026a6 6 0 0 1 6-6h162.05a6 6 0 0 1 6 6v56.87a6 6 0 0 1-6 6H506a6 6 0 0 1-6-6z" stroke="#3a414a" fill="#fff"/><path d="M664.05 1030h-15v20h15z" stroke="#3a414a" fill="#fff"/><path d="M654.05 1033.33h-10v3.34h10zm0 10h-10v3.34h10z" stroke="#3a414a" fill="#fff"/><use xlink:href="#C" transform="matrix(1,0,0,1,500.0000000000001,1020) translate(7.282777777777776 39.34027777777778)"/><path d="M500 1146a6 6 0 0 1 6-6h162.05a6 6 0 0 1 6 6v56.87a6 6 0 0 1-6 6H506a6 6 0 0 1-6-6z" stroke="#3a414a" fill="#fff"/><path d="M664.05 1150h-15v20h15z" stroke="#3a414a" fill="#fff"/><path d="M654.05 1153.33h-10v3.34h10zm0 10h-10v3.34h10z" stroke="#3a414a" fill="#fff"/><use xlink:href="#D" transform="matrix(1,0,0,1,500,1140) translate(49.07907407407408 26.40277777777778)"/><use xlink:href="#E" transform="matrix(1,0,0,1,500,1140) translate(39.16549382716049 53.06944444444445)"/><path d="M297.98 1275.65a6 6 0 0 1 6-6h162.04a6 6 0 0 1 6 6v56.87a6 6 0 0 1-6 6H303.98a6 6 0 0 1-6-6z" stroke="#3a414a" fill="#fff"/><path d="M462.02 1279.65h-15v20h15z" stroke="#3a414a" fill="#fff"/><path d="M452.02 1282.98h-10v3.34h10zm0 10h-10v3.34h10z" stroke="#3a414a" fill="#fff"/><use xlink:href="#r" transform="matrix(1,0,0,1,297.97691254794404,1269.65) translate(8.918580246913573 39.34027777777778)"/><path d="M500 1282.08a6 6 0 0 1 6-6h162.05a6 6 0 0 1 6 6v53.57a6 6 0 0 1-6 6H506a6 6 0 0 1-6-6z" stroke="#3a414a" fill="#fff"/><path d="M664.05 1286.08h-15v20h15z" stroke="#3a414a" fill="#fff"/><path d="M654.05 1289.42h-10v3.33h10zm0 10h-10v3.33h10z" stroke="#3a414a" fill="#fff"/><g><use xlink:href="#F" transform="matrix(1,0,0,1,500.00000000000006,1276.0833333333337) translate(22.097592592592598 38.40277777777778)"/><use xlink:href="#G" transform="matrix(1,0,0,1,500.00000000000006,1276.0833333333337) translate(75.06055555555557 38.40277777777778)"/></g><path d="M702.02 1282.08a6 6 0 0 1 6-6h162.05a6 6 0 0 1 6 6v56.87a6 6 0 0 1-6 6H708.02a6 6 0 0 1-6-6z" stroke="#3a414a" fill="#fff"/><path d="M866.07 1286.08h-15v20h15z" stroke="#3a414a" fill="#fff"/><path d="M856.07 1289.42h-10v3.33h10zm0 10h-10v3.33h10z" stroke="#3a414a" fill="#fff"/><g><use xlink:href="#H" transform="matrix(1,0,0,1,702.0230874520562,1276.0833333333337) translate(5.400061728395068 39.34027777777778)"/><use xlink:href="#G" transform="matrix(1,0,0,1,702.0230874520562,1276.0833333333337) translate(91.7580864197531 39.34027777777778)"/></g><path d="M500 1426a6 6 0 0 1 6-6h162.05a6 6 0 0 1 6 6v56.87a6 6 0 0 1-6 6H506a6 6 0 0 1-6-6z" stroke="#3a414a" fill="#fff"/><path d="M664.05 1430h-15v20h15z" stroke="#3a414a" fill="#fff"/><path d="M654.05 1433.33h-10v3.34h10zm0 10h-10v3.34h10z" stroke="#3a414a" fill="#fff"/><g><use xlink:href="#I" transform="matrix(1,0,0,1,500,1420) translate(9.690185185185195 39.34027777777778)"/><use xlink:href="#J" transform="matrix(1,0,0,1,500,1420) translate(62.71487654320988 39.34027777777778)"/></g><path d="M587.02 1089.87v33.74" stroke="#3a414a" fill="none"/><path d="M587.52 1089.88h-1v-.5h1z" stroke="#3a414a" stroke-width=".05" fill="#3a414a"/><path d="M587.02 1138.38l-4.63-14.27 9.26.02z" stroke="#3a414a" fill="#3a414a"/><path d="M587.02 1209.87v49.33" stroke="#3a414a" fill="none"/><path d="M587.52 1209.88h-1v-.5h1z" stroke="#3a414a" stroke-width=".05" fill="#3a414a"/><path d="M587.02 1273.96l-4.63-14.26h9.26z" stroke="#3a414a" fill="#3a414a"/><path d="M587.02 1209.87v23.4a6 6 0 0 1-6 6H391a6 6 0 0 0-6 6v7.5" stroke="#3a414a" fill="none"/><path d="M587.52 1209.88h-1v-.5h1z" stroke="#3a414a" stroke-width=".05" fill="#3a414a"/><path d="M385 1267.53l-4.63-14.26h9.26z" stroke="#3a414a" fill="#3a414a"/><path d="M789.05 1259.2v-14.27a6 6 0 0 0-6-6H587.52" stroke="#3a414a" fill="none"/><path d="M789.05 1273.96l-4.64-14.26h9.28z" stroke="#3a414a" fill="#3a414a"/><path d="M587.54 1238.93h-.52M385 1339.52v33.74a6 6 0 0 0 6 6h190.02a6 6 0 0 1 6 6v17.86" stroke="#3a414a" fill="none"/><path d="M385.5 1339.53h-1v-.5h1z" stroke="#3a414a" stroke-width=".05" fill="#3a414a"/><path d="M587.02 1417.88l-4.63-14.26h9.26z" stroke="#3a414a" fill="#3a414a"/><path d="M587.02 1342.65v60.47" stroke="#3a414a" fill="none"/><path d="M587.52 1342.66h-1v-.5h1z" stroke="#3a414a" stroke-width=".05" fill="#3a414a"/><path d="M587.02 1417.88l-4.63-14.26h9.26z" stroke="#3a414a" fill="#3a414a"/><path d="M789.05 1345.95v30.52a6 6 0 0 1-6 6H593.02a6 6 0 0 0-6 6v14.65" stroke="#3a414a" fill="none"/><path d="M789.55 1345.96h-1v-.5h1z" stroke="#3a414a" stroke-width=".05" fill="#3a414a"/><path d="M587.02 1417.88l-4.63-14.26h9.26z" stroke="#3a414a" fill="#3a414a"/><path d="M1262.98 1126a6 6 0 0 1 6-6h162.04a6 6 0 0 1 6 6v56.87a6 6 0 0 1-6 6h-162.04a6 6 0 0 1-6-6z" stroke="#3a414a" fill="#fff"/><path d="M1427.02 1130h-15v20h15z" stroke="#3a414a" fill="#fff"/><path d="M1417.02 1133.33h-10v3.34h10zm0 10h-10v3.34h10z" stroke="#3a414a" fill="#fff"/><g><use xlink:href="#K" transform="matrix(1,0,0,1,1262.9769125479443,1120) translate(31.943271604938268 39.34027777777778)"/></g><path d="M1262.98 1246a6 6 0 0 1 6-6h162.04a6 6 0 0 1 6 6v56.87a6 6 0 0 1-6 6h-162.04a6 6 0 0 1-6-6z" stroke="#3a414a" fill="#fff"/><path d="M1427.02 1250h-15v20h15z" stroke="#3a414a" fill="#fff"/><path d="M1417.02 1253.33h-10v3.34h10zm0 10h-10v3.34h10z" stroke="#3a414a" fill="#fff"/><g><use xlink:href="#L" transform="matrix(1,0,0,1,1262.9769125479438,1240) translate(41.20253086419753 39.34027777777778)"/></g><path d="M1258.62 1466a6 6 0 0 1 6-6h162.05a6 6 0 0 1 6 6v56.87a6 6 0 0 1-6 6h-162.05a6 6 0 0 1-6-6z" stroke="#3a414a" fill="#fff"/><path d="M1422.67 1470h-15v20h15z" stroke="#3a414a" fill="#fff"/><path d="M1412.67 1473.33h-10v3.34h10zm0 10h-10v3.34h10z" stroke="#3a414a" fill="#fff"/><g><use xlink:href="#M" transform="matrix(1,0,0,1,1258.6230874520559,1460) translate(5.4617901234567885 39.34027777777778)"/><use xlink:href="#z" transform="matrix(1,0,0,1,1258.6230874520559,1460) translate(73.23956790123457 39.34027777777778)"/></g><path d="M1559.2 261v32.12" stroke="#3a414a" fill="none"/><path d="M1559.7 261h-1v-.5h1z" stroke="#3a414a" stroke-width=".05" fill="#3a414a"/><path d="M1559.2 307.88l-4.63-14.26h9.27z" stroke="#3a414a" fill="#3a414a"/><path d="M1559.2 391v42.78" stroke="#3a414a" fill="none"/><path d="M1559.7 391h-1v-.5h1z" stroke="#3a414a" stroke-width=".05" fill="#3a414a"/><path d="M1559.2 448.55l-4.63-14.27h9.27z" stroke="#3a414a" fill="#3a414a"/><defs><path d="M15-91v-56l181-69v40L49-119l147 57v40" id="N"/><path d="M137-138c1-29-70-34-71-4 15 46 118 7 119 86 1 83-164 76-172 9l43-7c4 19 20 25 44 25 33 8 57-30 24-41C81-84 22-81 20-136c-2-80 154-74 161-7" id="O"/><path d="M85 4C-2 5 27-109 22-190h50c7 57-23 150 33 157 60-5 35-97 40-157h50l1 190h-47c-2-12 1-28-3-38-12 25-28 42-61 42" id="P"/><path d="M135-194c52 0 70 43 70 98 0 56-19 99-73 100-30 1-46-15-58-35L72 0H24l1-261h50v104c11-23 29-37 60-37zM114-30c31 0 40-27 40-66 0-37-7-63-39-63s-41 28-41 65c0 36 8 64 40 64" id="Q"/><path d="M123 10C108 53 80 86 19 72V37c35 8 53-11 59-39L3-190h52l48 148c12-52 28-100 44-148h51" id="R"/><path d="M115-3C79 11 28 4 28-45v-112H4v-33h27l15-45h31v45h36v33H77v99c-1 23 16 31 38 25v30" id="S"/><path d="M185-48c-13 30-37 53-82 52C43 2 14-33 14-96s30-98 90-98c62 0 83 45 84 108H66c0 31 8 55 39 56 18 0 30-7 34-22zm-45-69c5-46-57-63-70-21-2 6-4 13-4 21h74" id="T"/><path d="M220-157c-53 9-28 100-34 157h-49v-107c1-27-5-49-29-50C55-147 81-57 75 0H25l-1-190h47c2 12-1 28 3 38 10-53 101-56 108 0 13-22 24-43 59-42 82 1 51 116 57 194h-49v-107c-1-25-5-48-29-50" id="U"/><path d="M15-22v-40l146-57-146-57v-40l181 69v56" id="V"/><g id="a"><use transform="matrix(0.05,0,0,0.05,0,0)" xlink:href="#N"/><use transform="matrix(0.05,0,0,0.05,10.5,0)" xlink:href="#O"/><use transform="matrix(0.05,0,0,0.05,20.5,0)" xlink:href="#P"/><use transform="matrix(0.05,0,0,0.05,31.450000000000003,0)" xlink:href="#Q"/><use transform="matrix(0.05,0,0,0.05,42.400000000000006,0)" xlink:href="#O"/><use transform="matrix(0.05,0,0,0.05,52.400000000000006,0)" xlink:href="#R"/><use transform="matrix(0.05,0,0,0.05,62.400000000000006,0)" xlink:href="#O"/><use transform="matrix(0.05,0,0,0.05,72.4,0)" xlink:href="#S"/><use transform="matrix(0.05,0,0,0.05,78.35000000000001,0)" xlink:href="#T"/><use transform="matrix(0.05,0,0,0.05,88.35000000000001,0)" xlink:href="#U"/><use transform="matrix(0.05,0,0,0.05,104.35000000000001,0)" xlink:href="#V"/></g><path d="M238-95c0 69-44 99-111 99C63 4 22-25 22-93v-155h51v151c-1 38 19 59 55 60 90 1 49-130 58-211h52v153" id="W"/><path d="M135-150c-39-12-60 13-60 57V0H25l-1-190h47c2 13-1 29 3 40 6-28 27-53 61-41v41" id="X"/><g id="b"><use transform="matrix(0.05,0,0,0.05,0,0)" xlink:href="#W"/><use transform="matrix(0.05,0,0,0.05,12.950000000000001,0)" xlink:href="#O"/><use transform="matrix(0.05,0,0,0.05,22.950000000000003,0)" xlink:href="#T"/><use transform="matrix(0.05,0,0,0.05,32.95,0)" xlink:href="#X"/></g><g id="c"><use transform="matrix(0.05,0,0,0.05,0,0)" xlink:href="#N"/><use transform="matrix(0.05,0,0,0.05,10.5,0)" xlink:href="#O"/><use transform="matrix(0.05,0,0,0.05,20.5,0)" xlink:href="#P"/><use transform="matrix(0.05,0,0,0.05,31.450000000000003,0)" xlink:href="#Q"/><use transform="matrix(0.05,0,0,0.05,42.400000000000006,0)" xlink:href="#O"/><use transform="matrix(0.05,0,0,0.05,52.400000000000006,0)" xlink:href="#R"/><use transform="matrix(0.05,0,0,0.05,62.400000000000006,0)" xlink:href="#S"/><use transform="matrix(0.05,0,0,0.05,68.35000000000001,0)" xlink:href="#T"/><use transform="matrix(0.05,0,0,0.05,78.35000000000001,0)" xlink:href="#U"/><use transform="matrix(0.05,0,0,0.05,94.35000000000001,0)" xlink:href="#V"/></g><path d="M199 0l-22-63H83L61 0H9l90-248h61L250 0h-51zm-33-102l-36-108c-10 38-24 72-36 108h72" id="Y"/><path d="M88-194c31-1 46 15 58 34l-1-101h50l1 261h-48c-2-10 0-23-3-31C134-8 116 4 84 4 32 4 16-41 15-95c0-56 19-97 73-99zm17 164c33 0 40-30 41-66 1-37-9-64-41-64s-38 30-39 65c0 43 13 65 39 65" id="Z"/><path d="M25-224v-37h50v37H25zM25 0v-190h50V0H25" id="aa"/><path d="M135-194c87-1 58 113 63 194h-50c-7-57 23-157-34-157-59 0-34 97-39 157H25l-1-190h47c2 12-1 28 3 38 12-26 28-41 61-42" id="ab"/><path d="M133-34C117-15 103 5 69 4 32 3 11-16 11-54c-1-60 55-63 116-61 1-26-3-47-28-47-18 1-26 9-28 27l-52-2c7-38 36-58 82-57s74 22 75 68l1 82c-1 14 12 18 25 15v27c-30 8-71 5-69-32zm-48 3c29 0 43-24 42-57-32 0-66-3-65 30 0 17 8 27 23 27" id="ac"/><path d="M110-194c64 0 96 36 96 99 0 64-35 99-97 99-61 0-95-36-95-99 0-62 34-99 96-99zm-1 164c35 0 45-28 45-65 0-40-10-65-43-65-34 0-45 26-45 65 0 36 10 65 43 65" id="ad"/><g id="d"><use transform="matrix(0.05,0,0,0.05,0,0)" xlink:href="#Y"/><use transform="matrix(0.05,0,0,0.05,12.950000000000001,0)" xlink:href="#Z"/><use transform="matrix(0.05,0,0,0.05,23.900000000000002,0)" xlink:href="#U"/><use transform="matrix(0.05,0,0,0.05,39.900000000000006,0)" xlink:href="#aa"/><use transform="matrix(0.05,0,0,0.05,44.900000000000006,0)" xlink:href="#ab"/><use transform="matrix(0.05,0,0,0.05,55.85,0)" xlink:href="#aa"/><use transform="matrix(0.05,0,0,0.05,60.85,0)" xlink:href="#O"/><use transform="matrix(0.05,0,0,0.05,70.85000000000001,0)" xlink:href="#S"/><use transform="matrix(0.05,0,0,0.05,76.80000000000001,0)" xlink:href="#X"/><use transform="matrix(0.05,0,0,0.05,83.80000000000001,0)" xlink:href="#ac"/><use transform="matrix(0.05,0,0,0.05,93.80000000000001,0)" xlink:href="#S"/><use transform="matrix(0.05,0,0,0.05,99.75000000000001,0)" xlink:href="#ad"/><use transform="matrix(0.05,0,0,0.05,110.7,0)" xlink:href="#X"/></g><path d="M182-130c37 4 62 22 62 59C244 23 116-4 24 0v-248c84 5 203-23 205 63 0 31-19 50-47 55zM76-148c40-3 101 13 101-30 0-44-60-28-101-31v61zm0 110c48-3 116 14 116-37 0-48-69-32-116-35v72" id="ae"/><path d="M190-63c-7 42-38 67-86 67-59 0-84-38-90-98-12-110 154-137 174-36l-49 2c-2-19-15-32-35-32-30 0-35 28-38 64-6 74 65 87 74 30" id="af"/><path d="M147 0L96-86 75-71V0H25v-261h50v150l67-79h53l-66 74L201 0h-54" id="ag"/><g id="e"><use transform="matrix(0.05,0,0,0.05,0,0)" xlink:href="#ae"/><use transform="matrix(0.05,0,0,0.05,12.950000000000001,0)" xlink:href="#ac"/><use transform="matrix(0.05,0,0,0.05,22.950000000000003,0)" xlink:href="#af"/><use transform="matrix(0.05,0,0,0.05,32.95,0)" xlink:href="#ag"/><use transform="matrix(0.05,0,0,0.05,42.95,0)" xlink:href="#T"/><use transform="matrix(0.05,0,0,0.05,52.95,0)" xlink:href="#ab"/><use transform="matrix(0.05,0,0,0.05,63.900000000000006,0)" xlink:href="#Z"/></g><path d="M67-125c0 53 21 87 73 88 37 1 54-22 65-47l45 17C233-25 199 4 140 4 58 4 20-42 15-125 8-235 124-281 211-232c18 10 29 29 36 50l-46 12c-8-25-30-41-62-41-52 0-71 34-72 86" id="ah"/><path d="M25 0v-261h50V0H25" id="ai"/><g id="f"><use transform="matrix(0.05,0,0,0.05,0,0)" xlink:href="#ah"/><use transform="matrix(0.05,0,0,0.05,12.950000000000001,0)" xlink:href="#ai"/><use transform="matrix(0.05,0,0,0.05,17.950000000000003,0)" xlink:href="#aa"/><use transform="matrix(0.05,0,0,0.05,22.950000000000003,0)" xlink:href="#T"/><use transform="matrix(0.05,0,0,0.05,32.95,0)" xlink:href="#ab"/><use transform="matrix(0.05,0,0,0.05,43.900000000000006,0)" xlink:href="#S"/></g><g id="g"><use transform="matrix(0.05,0,0,0.05,0,0)" xlink:href="#ae"/><use transform="matrix(0.05,0,0,0.05,12.950000000000001,0)" xlink:href="#P"/><use transform="matrix(0.05,0,0,0.05,23.900000000000002,0)" xlink:href="#O"/><use transform="matrix(0.05,0,0,0.05,33.900000000000006,0)" xlink:href="#aa"/><use transform="matrix(0.05,0,0,0.05,38.900000000000006,0)" xlink:href="#ab"/><use transform="matrix(0.05,0,0,0.05,49.85000000000001,0)" xlink:href="#T"/><use transform="matrix(0.05,0,0,0.05,59.85,0)" xlink:href="#O"/><use transform="matrix(0.05,0,0,0.05,69.85000000000001,0)" xlink:href="#O"/></g><path d="M24 0v-248h52v208h133V0H24" id="aj"/><path d="M195-6C206 82 75 100 31 46c-4-6-6-13-8-21l49-6c3 16 16 24 34 25 40 0 42-37 40-79-11 22-30 35-61 35-53 0-70-43-70-97 0-56 18-96 73-97 30 0 46 14 59 34l2-30h47zm-90-29c32 0 41-27 41-63 0-35-9-62-40-62-32 0-39 29-40 63 0 36 9 62 39 62" id="ak"/><g id="h"><use transform="matrix(0.05,0,0,0.05,0,0)" xlink:href="#aj"/><use transform="matrix(0.05,0,0,0.05,10.950000000000001,0)" xlink:href="#ad"/><use transform="matrix(0.05,0,0,0.05,21.900000000000002,0)" xlink:href="#ak"/><use transform="matrix(0.05,0,0,0.05,32.85,0)" xlink:href="#aa"/><use transform="matrix(0.05,0,0,0.05,37.85,0)" xlink:href="#af"/></g><path d="M169-182c-1-43-94-46-97-3 18 66 151 10 154 114 3 95-165 93-204 36-6-8-10-19-12-30l50-8c3 46 112 56 116 5-17-69-150-10-154-114-4-87 153-88 188-35 5 8 8 18 10 28" id="al"/><g id="i"><use transform="matrix(0.05,0,0,0.05,0,0)" xlink:href="#al"/><use transform="matrix(0.05,0,0,0.05,12,0)" xlink:href="#T"/><use transform="matrix(0.05,0,0,0.05,22,0)" xlink:href="#af"/><use transform="matrix(0.05,0,0,0.05,32,0)" xlink:href="#P"/><use transform="matrix(0.05,0,0,0.05,42.95,0)" xlink:href="#X"/><use transform="matrix(0.05,0,0,0.05,49.95,0)" xlink:href="#aa"/><use transform="matrix(0.05,0,0,0.05,54.95,0)" xlink:href="#S"/><use transform="matrix(0.05,0,0,0.05,60.900000000000006,0)" xlink:href="#R"/></g><path fill="#333" d="M67-125c0 53 21 87 73 88 37 1 54-22 65-47l45 17C233-25 199 4 140 4 58 4 20-42 15-125 8-235 124-281 211-232c18 10 29 29 36 50l-46 12c-8-25-30-41-62-41-52 0-71 34-72 86" id="am"/><path fill="#333" d="M135-150c-39-12-60 13-60 57V0H25l-1-190h47c2 13-1 29 3 40 6-28 27-53 61-41v41" id="an"/><path fill="#333" d="M185-48c-13 30-37 53-82 52C43 2 14-33 14-96s30-98 90-98c62 0 83 45 84 108H66c0 31 8 55 39 56 18 0 30-7 34-22zm-45-69c5-46-57-63-70-21-2 6-4 13-4 21h74" id="ao"/><path fill="#333" d="M88-194c31-1 46 15 58 34l-1-101h50l1 261h-48c-2-10 0-23-3-31C134-8 116 4 84 4 32 4 16-41 15-95c0-56 19-97 73-99zm17 164c33 0 40-30 41-66 1-37-9-64-41-64s-38 30-39 65c0 43 13 65 39 65" id="ap"/><path fill="#333" d="M135-194c87-1 58 113 63 194h-50c-7-57 23-157-34-157-59 0-34 97-39 157H25l-1-190h47c2 12-1 28 3 38 12-26 28-41 61-42" id="aq"/><path fill="#333" d="M115-3C79 11 28 4 28-45v-112H4v-33h27l15-45h31v45h36v33H77v99c-1 23 16 31 38 25v30" id="ar"/><path fill="#333" d="M25-224v-37h50v37H25zM25 0v-190h50V0H25" id="as"/><path fill="#333" d="M133-34C117-15 103 5 69 4 32 3 11-16 11-54c-1-60 55-63 116-61 1-26-3-47-28-47-18 1-26 9-28 27l-52-2c7-38 36-58 82-57s74 22 75 68l1 82c-1 14 12 18 25 15v27c-30 8-71 5-69-32zm-48 3c29 0 43-24 42-57-32 0-66-3-65 30 0 17 8 27 23 27" id="at"/><path fill="#333" d="M25 0v-261h50V0H25" id="au"/><path fill="#333" d="M137-138c1-29-70-34-71-4 15 46 118 7 119 86 1 83-164 76-172 9l43-7c4 19 20 25 44 25 33 8 57-30 24-41C81-84 22-81 20-136c-2-80 154-74 161-7" id="av"/><g id="j"><use transform="matrix(0.04938271604938272,0,0,0.04938271604938272,0,0)" xlink:href="#am"/><use transform="matrix(0.04938271604938272,0,0,0.04938271604938272,12.790123456790125,0)" xlink:href="#an"/><use transform="matrix(0.04938271604938272,0,0,0.04938271604938272,19.703703703703706,0)" xlink:href="#ao"/><use transform="matrix(0.04938271604938272,0,0,0.04938271604938272,29.58024691358025,0)" xlink:href="#ap"/><use transform="matrix(0.04938271604938272,0,0,0.04938271604938272,40.39506172839506,0)" xlink:href="#ao"/><use transform="matrix(0.04938271604938272,0,0,0.04938271604938272,50.27160493827161,0)" xlink:href="#aq"/><use transform="matrix(0.04938271604938272,0,0,0.04938271604938272,61.086419753086425,0)" xlink:href="#ar"/><use transform="matrix(0.04938271604938272,0,0,0.04938271604938272,66.96296296296296,0)" xlink:href="#as"/><use transform="matrix(0.04938271604938272,0,0,0.04938271604938272,71.90123456790124,0)" xlink:href="#at"/><use transform="matrix(0.04938271604938272,0,0,0.04938271604938272,81.77777777777779,0)" xlink:href="#au"/><use transform="matrix(0.04938271604938272,0,0,0.04938271604938272,86.71604938271605,0)" xlink:href="#av"/></g><path fill="#333" d="M182-182c0 78-84 86-111 141h115V0H12c-6-101 99-100 120-180 1-22-12-31-33-32-23 0-32 14-35 34l-49-3c5-45 32-70 84-70 51 0 83 22 83 69" id="aw"/><path fill="#333" d="M76-208v77h127v40H76V0H24v-248h183v40H76" id="ax"/><path fill="#333" d="M199 0l-22-63H83L61 0H9l90-248h61L250 0h-51zm-33-102l-36-108c-10 38-24 72-36 108h72" id="ay"/><g id="k"><use transform="matrix(0.04938271604938272,0,0,0.04938271604938272,0,0)" xlink:href="#aw"/><use transform="matrix(0.04938271604938272,0,0,0.04938271604938272,9.876543209876544,0)" xlink:href="#ax"/><use transform="matrix(0.04938271604938272,0,0,0.04938271604938272,19.703703703703702,0)" xlink:href="#ay"/></g><path d="M24-248c120-7 223 5 221 122C244-46 201 0 124 0H24v-248zM76-40c74 7 117-18 117-86 0-67-45-88-117-82v168" id="az"/><g id="l"><use transform="matrix(0.05,0,0,0.05,0,0)" xlink:href="#az"/><use transform="matrix(0.05,0,0,0.05,12.950000000000001,0)" xlink:href="#ac"/><use transform="matrix(0.05,0,0,0.05,22.950000000000003,0)" xlink:href="#S"/><use transform="matrix(0.05,0,0,0.05,28.900000000000002,0)" xlink:href="#ac"/><use transform="matrix(0.05,0,0,0.05,38.900000000000006,0)" xlink:href="#Q"/><use transform="matrix(0.05,0,0,0.05,49.85000000000001,0)" xlink:href="#ac"/><use transform="matrix(0.05,0,0,0.05,59.85,0)" xlink:href="#O"/><use transform="matrix(0.05,0,0,0.05,69.85000000000001,0)" xlink:href="#T"/></g><path fill="#333" d="M230 0l2-204L168 0h-37L68-204 70 0H24v-248h70l56 185 57-185h69V0h-46" id="aA"/><path fill="#333" d="M123 10C108 53 80 86 19 72V37c35 8 53-11 59-39L3-190h52l48 148c12-52 28-100 44-148h51" id="aB"/><path fill="#333" d="M169-182c-1-43-94-46-97-3 18 66 151 10 154 114 3 95-165 93-204 36-6-8-10-19-12-30l50-8c3 46 112 56 116 5-17-69-150-10-154-114-4-87 153-88 188-35 5 8 8 18 10 28" id="aC"/><path fill="#333" d="M84 4C32 4 15-41 15-95c0-55 18-99 73-99 29 0 47 12 58 34l2-30h48l-1 265h-49V-32C136-9 114 4 84 4zm21-34c32 0 41-29 41-66 0-36-9-64-40-64-33 0-39 30-40 65 0 43 13 65 39 65" id="aD"/><g id="m"><use transform="matrix(0.04938271604938272,0,0,0.04938271604938272,0,0)" xlink:href="#aA"/><use transform="matrix(0.04938271604938272,0,0,0.04938271604938272,14.765432098765434,0)" xlink:href="#aB"/><use transform="matrix(0.04938271604938272,0,0,0.04938271604938272,24.641975308641978,0)" xlink:href="#aC"/><use transform="matrix(0.04938271604938272,0,0,0.04938271604938272,36.49382716049383,0)" xlink:href="#aD"/><use transform="matrix(0.04938271604938272,0,0,0.04938271604938272,47.308641975308646,0)" xlink:href="#au"/></g><path fill="#333" d="M240-174c0 40-23 61-54 70L253 0h-59l-57-94H76V0H24v-248c93 4 217-23 216 74zM76-134c48-2 112 12 112-38 0-48-66-32-112-35v73" id="aE"/><path fill="#333" d="M135-194c53 0 70 44 70 98 0 56-19 98-73 100-31 1-45-17-59-34 3 33 2 69 2 105H25l-1-265h48c2 10 0 23 3 31 11-24 29-35 60-35zM114-30c33 0 39-31 40-66 0-38-9-64-40-64-56 0-55 130 0 130" id="aF"/><path fill="#333" d="M110-194c64 0 96 36 96 99 0 64-35 99-97 99-61 0-95-36-95-99 0-62 34-99 96-99zm-1 164c35 0 45-28 45-65 0-40-10-65-43-65-34 0-45 26-45 65 0 36 10 65 43 65" id="aG"/><g id="n"><use transform="matrix(0.04938271604938272,0,0,0.04938271604938272,0,0)" xlink:href="#aE"/><use transform="matrix(0.04938271604938272,0,0,0.04938271604938272,12.790123456790125,0)" xlink:href="#ao"/><use transform="matrix(0.04938271604938272,0,0,0.04938271604938272,22.66666666666667,0)" xlink:href="#aF"/><use transform="matrix(0.04938271604938272,0,0,0.04938271604938272,33.48148148148149,0)" xlink:href="#aG"/><use transform="matrix(0.04938271604938272,0,0,0.04938271604938272,44.296296296296305,0)" xlink:href="#av"/><use transform="matrix(0.04938271604938272,0,0,0.04938271604938272,54.17283950617284,0)" xlink:href="#as"/><use transform="matrix(0.04938271604938272,0,0,0.04938271604938272,59.111111111111114,0)" xlink:href="#ar"/><use transform="matrix(0.04938271604938272,0,0,0.04938271604938272,64.98765432098766,0)" xlink:href="#aG"/><use transform="matrix(0.04938271604938272,0,0,0.04938271604938272,75.80246913580247,0)" xlink:href="#an"/><use transform="matrix(0.04938271604938272,0,0,0.04938271604938272,82.71604938271605,0)" xlink:href="#aB"/></g><path d="M230 0l2-204L168 0h-37L68-204 70 0H24v-248h70l56 185 57-185h69V0h-46" id="aH"/><path d="M136-208V0H84v-208H4v-40h212v40h-80" id="aI"/><path d="M24-248c93 1 206-16 204 79-1 75-69 88-152 82V0H24v-248zm52 121c47 0 100 7 100-41 0-47-54-39-100-39v80" id="aJ"/><g id="o"><use transform="matrix(0.05,0,0,0.05,0,0)" xlink:href="#al"/><use transform="matrix(0.05,0,0,0.05,12,0)" xlink:href="#aH"/><use transform="matrix(0.05,0,0,0.05,26.950000000000003,0)" xlink:href="#aI"/><use transform="matrix(0.05,0,0,0.05,37.900000000000006,0)" xlink:href="#aJ"/></g><path fill="#3a414a" d="M197 0v-115H63V0H30v-248h33v105h134v-105h34V0h-34" id="aK"/><path fill="#3a414a" d="M100-194c62-1 85 37 85 99 1 63-27 99-86 99S16-35 15-95c0-66 28-99 85-99zM99-20c44 1 53-31 53-75 0-43-8-75-51-75s-53 32-53 75 10 74 51 75" id="aL"/><path fill="#3a414a" d="M210-169c-67 3-38 105-44 169h-31v-121c0-29-5-50-35-48C34-165 62-65 56 0H25l-1-190h30c1 10-1 24 2 32 10-44 99-50 107 0 11-21 27-35 58-36 85-2 47 119 55 194h-31v-121c0-29-5-49-35-48" id="aM"/><path fill="#3a414a" d="M100-194c63 0 86 42 84 106H49c0 40 14 67 53 68 26 1 43-12 49-29l28 8c-11 28-37 45-77 45C44 4 14-33 15-96c1-61 26-98 85-98zm52 81c6-60-76-77-97-28-3 7-6 17-6 28h103" id="aN"/><g id="p"><use transform="matrix(0.06172839506172839,0,0,0.06172839506172839,0,0)" xlink:href="#aK"/><use transform="matrix(0.06172839506172839,0,0,0.06172839506172839,15.987654320987653,0)" xlink:href="#aL"/><use transform="matrix(0.06172839506172839,0,0,0.06172839506172839,28.333333333333332,0)" xlink:href="#aM"/><use transform="matrix(0.06172839506172839,0,0,0.06172839506172839,46.79012345679012,0)" xlink:href="#aN"/></g><path fill="#3a414a" d="M205 0l-28-72H64L36 0H1l101-248h38L239 0h-34zm-38-99l-47-123c-12 45-31 82-46 123h93" id="aO"/><path fill="#3a414a" d="M96-169c-40 0-48 33-48 73s9 75 48 75c24 0 41-14 43-38l32 2c-6 37-31 61-74 61-59 0-76-41-82-99-10-93 101-131 147-64 4 7 5 14 7 22l-32 3c-4-21-16-35-41-35" id="aP"/><path fill="#3a414a" d="M84 4C-5 8 30-112 23-190h32v120c0 31 7 50 39 49 72-2 45-101 50-169h31l1 190h-30c-1-10 1-25-2-33-11 22-28 36-60 37" id="aQ"/><path fill="#3a414a" d="M117-194c89-4 53 116 60 194h-32v-121c0-31-8-49-39-48C34-167 62-67 57 0H25l-1-190h30c1 10-1 24 2 32 11-22 29-35 61-36" id="aR"/><path fill="#3a414a" d="M59-47c-2 24 18 29 38 22v24C64 9 27 4 27-40v-127H5v-23h24l9-43h21v43h35v23H59v120" id="aS"/><path fill="#3a414a" d="M135-143c-3-34-86-38-87 0 15 53 115 12 119 90S17 21 10-45l28-5c4 36 97 45 98 0-10-56-113-15-118-90-4-57 82-63 122-42 12 7 21 19 24 35" id="aT"/><g id="q"><use transform="matrix(0.06172839506172839,0,0,0.06172839506172839,0,0)" xlink:href="#aO"/><use transform="matrix(0.06172839506172839,0,0,0.06172839506172839,14.814814814814813,0)" xlink:href="#aP"/><use transform="matrix(0.06172839506172839,0,0,0.06172839506172839,25.925925925925924,0)" xlink:href="#aP"/><use transform="matrix(0.06172839506172839,0,0,0.06172839506172839,37.03703703703704,0)" xlink:href="#aL"/><use transform="matrix(0.06172839506172839,0,0,0.06172839506172839,49.382716049382715,0)" xlink:href="#aQ"/><use transform="matrix(0.06172839506172839,0,0,0.06172839506172839,61.72839506172839,0)" xlink:href="#aR"/><use transform="matrix(0.06172839506172839,0,0,0.06172839506172839,74.07407407407408,0)" xlink:href="#aS"/><use transform="matrix(0.06172839506172839,0,0,0.06172839506172839,80.24691358024691,0)" xlink:href="#aT"/></g><path fill="#3a414a" d="M127-220V0H93v-220H8v-28h204v28h-85" id="aU"/><path fill="#3a414a" d="M114-163C36-179 61-72 57 0H25l-1-190h30c1 12-1 29 2 39 6-27 23-49 58-41v29" id="aV"/><path fill="#3a414a" d="M141-36C126-15 110 5 73 4 37 3 15-17 15-53c-1-64 63-63 125-63 3-35-9-54-41-54-24 1-41 7-42 31l-33-3c5-37 33-52 76-52 45 0 72 20 72 64v82c-1 20 7 32 28 27v20c-31 9-61-2-59-35zM48-53c0 20 12 33 32 33 41-3 63-29 60-74-43 2-92-5-92 41" id="aW"/><path fill="#3a414a" d="M24-231v-30h32v30H24zM24 0v-190h32V0H24" id="aX"/><g id="r"><use transform="matrix(0.06172839506172839,0,0,0.06172839506172839,0,0)" xlink:href="#aU"/><use transform="matrix(0.06172839506172839,0,0,0.06172839506172839,12.716049382716047,0)" xlink:href="#aV"/><use transform="matrix(0.06172839506172839,0,0,0.06172839506172839,20.061728395061728,0)" xlink:href="#aW"/><use transform="matrix(0.06172839506172839,0,0,0.06172839506172839,32.407407407407405,0)" xlink:href="#aR"/><use transform="matrix(0.06172839506172839,0,0,0.06172839506172839,44.75308641975308,0)" xlink:href="#aT"/><use transform="matrix(0.06172839506172839,0,0,0.06172839506172839,55.86419753086419,0)" xlink:href="#aW"/><use transform="matrix(0.06172839506172839,0,0,0.06172839506172839,68.20987654320987,0)" xlink:href="#aP"/><use transform="matrix(0.06172839506172839,0,0,0.06172839506172839,79.32098765432099,0)" xlink:href="#aS"/><use transform="matrix(0.06172839506172839,0,0,0.06172839506172839,85.49382716049382,0)" xlink:href="#aX"/><use transform="matrix(0.06172839506172839,0,0,0.06172839506172839,90.37037037037037,0)" xlink:href="#aL"/><use transform="matrix(0.06172839506172839,0,0,0.06172839506172839,102.71604938271605,0)" xlink:href="#aR"/><use transform="matrix(0.06172839506172839,0,0,0.06172839506172839,115.06172839506173,0)" xlink:href="#aT"/></g><path fill="#3a414a" d="M160-131c35 5 61 23 61 61C221 17 115-2 30 0v-248c76 3 177-17 177 60 0 33-19 50-47 57zm-97-11c50-1 110 9 110-42 0-47-63-36-110-37v79zm0 115c55-2 124 14 124-45 0-56-70-42-124-44v89" id="aY"/><path fill="#3a414a" d="M24 0v-261h32V0H24" id="aZ"/><g id="s"><use transform="matrix(0.06172839506172839,0,0,0.06172839506172839,0,0)" xlink:href="#aY"/><use transform="matrix(0.06172839506172839,0,0,0.06172839506172839,14.814814814814813,0)" xlink:href="#aW"/><use transform="matrix(0.06172839506172839,0,0,0.06172839506172839,27.160493827160494,0)" xlink:href="#aZ"/><use transform="matrix(0.06172839506172839,0,0,0.06172839506172839,32.03703703703704,0)" xlink:href="#aW"/><use transform="matrix(0.06172839506172839,0,0,0.06172839506172839,44.382716049382715,0)" xlink:href="#aR"/><use transform="matrix(0.06172839506172839,0,0,0.06172839506172839,56.72839506172839,0)" xlink:href="#aP"/><use transform="matrix(0.06172839506172839,0,0,0.06172839506172839,67.8395061728395,0)" xlink:href="#aN"/></g><path fill="#3a414a" d="M106-169C34-169 62-67 57 0H25v-261h32l-1 103c12-21 28-36 61-36 89 0 53 116 60 194h-32v-121c2-32-8-49-39-48" id="ba"/><g id="t"><use transform="matrix(0.06172839506172839,0,0,0.06172839506172839,0,0)" xlink:href="#aO"/><use transform="matrix(0.06172839506172839,0,0,0.06172839506172839,14.814814814814813,0)" xlink:href="#aQ"/><use transform="matrix(0.06172839506172839,0,0,0.06172839506172839,27.160493827160494,0)" xlink:href="#aS"/><use transform="matrix(0.06172839506172839,0,0,0.06172839506172839,33.333333333333336,0)" xlink:href="#ba"/><use transform="matrix(0.06172839506172839,0,0,0.06172839506172839,45.67901234567901,0)" xlink:href="#aN"/><use transform="matrix(0.06172839506172839,0,0,0.06172839506172839,58.02469135802469,0)" xlink:href="#aR"/><use transform="matrix(0.06172839506172839,0,0,0.06172839506172839,70.37037037037037,0)" xlink:href="#aS"/><use transform="matrix(0.06172839506172839,0,0,0.06172839506172839,76.5432098765432,0)" xlink:href="#aX"/><use transform="matrix(0.06172839506172839,0,0,0.06172839506172839,81.41975308641975,0)" xlink:href="#aP"/><use transform="matrix(0.06172839506172839,0,0,0.06172839506172839,92.53086419753086,0)" xlink:href="#aW"/><use transform="matrix(0.06172839506172839,0,0,0.06172839506172839,104.87654320987654,0)" xlink:href="#aS"/><use transform="matrix(0.06172839506172839,0,0,0.06172839506172839,111.04938271604938,0)" xlink:href="#aX"/><use transform="matrix(0.06172839506172839,0,0,0.06172839506172839,115.92592592592592,0)" xlink:href="#aL"/><use transform="matrix(0.06172839506172839,0,0,0.06172839506172839,128.2716049382716,0)" xlink:href="#aR"/></g><path fill="#3a414a" d="M233-177c-1 41-23 64-60 70L243 0h-38l-65-103H63V0H30v-248c88 3 205-21 203 71zM63-129c60-2 137 13 137-47 0-61-80-42-137-45v92" id="bb"/><g id="u"><use transform="matrix(0.06172839506172839,0,0,0.06172839506172839,0,0)" xlink:href="#bb"/><use transform="matrix(0.06172839506172839,0,0,0.06172839506172839,15.987654320987653,0)" xlink:href="#aN"/><use transform="matrix(0.06172839506172839,0,0,0.06172839506172839,28.333333333333332,0)" xlink:href="#aT"/><use transform="matrix(0.06172839506172839,0,0,0.06172839506172839,39.44444444444444,0)" xlink:href="#aS"/></g><path fill="#3a414a" d="M30-248c87 1 191-15 191 75 0 78-77 80-158 76V0H30v-248zm33 125c57 0 124 11 124-50 0-59-68-47-124-48v98" id="bc"/><path fill="#3a414a" d="M33 0v-248h34V0H33" id="bd"/><g id="v"><use transform="matrix(0.06172839506172839,0,0,0.06172839506172839,0,0)" xlink:href="#aO"/><use transform="matrix(0.06172839506172839,0,0,0.06172839506172839,14.814814814814813,0)" xlink:href="#bc"/><use transform="matrix(0.06172839506172839,0,0,0.06172839506172839,29.629629629629626,0)" xlink:href="#bd"/></g><path fill="#3a414a" d="M85-194c31 0 48 13 60 33l-1-100h32l1 261h-30c-2-10 0-23-3-31C134-8 116 4 85 4 32 4 16-35 15-94c0-66 23-100 70-100zm9 24c-40 0-46 34-46 75 0 40 6 74 45 74 42 0 51-32 51-76 0-42-9-74-50-73" id="be"/><g id="w"><use transform="matrix(0.06172839506172839,0,0,0.06172839506172839,0,0)" xlink:href="#aO"/><use transform="matrix(0.06172839506172839,0,0,0.06172839506172839,14.814814814814813,0)" xlink:href="#be"/><use transform="matrix(0.06172839506172839,0,0,0.06172839506172839,27.160493827160494,0)" xlink:href="#aM"/><use transform="matrix(0.06172839506172839,0,0,0.06172839506172839,45.61728395061728,0)" xlink:href="#aX"/><use transform="matrix(0.06172839506172839,0,0,0.06172839506172839,50.49382716049382,0)" xlink:href="#aR"/><use transform="matrix(0.06172839506172839,0,0,0.06172839506172839,62.8395061728395,0)" xlink:href="#aX"/><use transform="matrix(0.06172839506172839,0,0,0.06172839506172839,67.71604938271604,0)" xlink:href="#aT"/><use transform="matrix(0.06172839506172839,0,0,0.06172839506172839,78.82716049382715,0)" xlink:href="#aS"/><use transform="matrix(0.06172839506172839,0,0,0.06172839506172839,84.99999999999999,0)" xlink:href="#aV"/><use transform="matrix(0.06172839506172839,0,0,0.06172839506172839,92.34567901234567,0)" xlink:href="#aW"/><use transform="matrix(0.06172839506172839,0,0,0.06172839506172839,104.69135802469135,0)" xlink:href="#aS"/><use transform="matrix(0.06172839506172839,0,0,0.06172839506172839,110.86419753086419,0)" xlink:href="#aX"/><use transform="matrix(0.06172839506172839,0,0,0.06172839506172839,115.74074074074073,0)" xlink:href="#aL"/><use transform="matrix(0.06172839506172839,0,0,0.06172839506172839,128.0864197530864,0)" xlink:href="#aR"/></g><path fill="#3a414a" d="M30-248c118-7 216 8 213 122C240-48 200 0 122 0H30v-248zM63-27c89 8 146-16 146-99s-60-101-146-95v194" id="bf"/><path fill="#3a414a" d="M115-194c53 0 69 39 70 98 0 66-23 100-70 100C84 3 66-7 56-30L54 0H23l1-261h32v101c10-23 28-34 59-34zm-8 174c40 0 45-34 45-75 0-40-5-75-45-74-42 0-51 32-51 76 0 43 10 73 51 73" id="bg"/><g id="x"><use transform="matrix(0.06172839506172839,0,0,0.06172839506172839,0,0)" xlink:href="#bf"/><use transform="matrix(0.06172839506172839,0,0,0.06172839506172839,15.987654320987653,0)" xlink:href="#aW"/><use transform="matrix(0.06172839506172839,0,0,0.06172839506172839,28.333333333333332,0)" xlink:href="#aT"/><use transform="matrix(0.06172839506172839,0,0,0.06172839506172839,39.44444444444444,0)" xlink:href="#ba"/><use transform="matrix(0.06172839506172839,0,0,0.06172839506172839,51.79012345679012,0)" xlink:href="#bg"/><use transform="matrix(0.06172839506172839,0,0,0.06172839506172839,64.1358024691358,0)" xlink:href="#aL"/><use transform="matrix(0.06172839506172839,0,0,0.06172839506172839,76.48148148148148,0)" xlink:href="#aW"/><use transform="matrix(0.06172839506172839,0,0,0.06172839506172839,88.82716049382717,0)" xlink:href="#aV"/><use transform="matrix(0.06172839506172839,0,0,0.06172839506172839,96.17283950617285,0)" xlink:href="#be"/></g><path fill="#3a414a" d="M185-189c-5-48-123-54-124 2 14 75 158 14 163 119 3 78-121 87-175 55-17-10-28-26-33-46l33-7c5 56 141 63 141-1 0-78-155-14-162-118-5-82 145-84 179-34 5 7 8 16 11 25" id="bh"/><path fill="#3a414a" d="M240 0l2-218c-23 76-54 145-80 218h-23L58-218 59 0H30v-248h44l77 211c21-75 51-140 76-211h43V0h-30" id="bi"/><g id="y"><use transform="matrix(0.06172839506172839,0,0,0.06172839506172839,0,0)" xlink:href="#bh"/><use transform="matrix(0.06172839506172839,0,0,0.06172839506172839,14.814814814814813,0)" xlink:href="#bi"/><use transform="matrix(0.06172839506172839,0,0,0.06172839506172839,33.2716049382716,0)" xlink:href="#aU"/><use transform="matrix(0.06172839506172839,0,0,0.06172839506172839,46.79012345679012,0)" xlink:href="#bc"/></g><path fill="#3a414a" d="M108 0H70L1-190h34L89-25l56-165h34" id="bj"/><g id="z"><use transform="matrix(0.06172839506172839,0,0,0.06172839506172839,0,0)" xlink:href="#bh"/><use transform="matrix(0.06172839506172839,0,0,0.06172839506172839,14.814814814814813,0)" xlink:href="#aN"/><use transform="matrix(0.06172839506172839,0,0,0.06172839506172839,27.160493827160494,0)" xlink:href="#aV"/><use transform="matrix(0.06172839506172839,0,0,0.06172839506172839,34.50617283950617,0)" xlink:href="#bj"/><use transform="matrix(0.06172839506172839,0,0,0.06172839506172839,45.61728395061728,0)" xlink:href="#aN"/><use transform="matrix(0.06172839506172839,0,0,0.06172839506172839,57.962962962962955,0)" xlink:href="#aV"/></g><path fill="#333" d="M136-208V0H84v-208H4v-40h212v40h-80" id="bk"/><path fill="#333" d="M24-248c93 1 206-16 204 79-1 75-69 88-152 82V0H24v-248zm52 121c47 0 100 7 100-41 0-47-54-39-100-39v80" id="bl"/><g id="A"><use transform="matrix(0.04938271604938272,0,0,0.04938271604938272,0,0)" xlink:href="#aC"/><use transform="matrix(0.04938271604938272,0,0,0.04938271604938272,11.851851851851853,0)" xlink:href="#aA"/><use transform="matrix(0.04938271604938272,0,0,0.04938271604938272,26.617283950617285,0)" xlink:href="#bk"/><use transform="matrix(0.04938271604938272,0,0,0.04938271604938272,37.4320987654321,0)" xlink:href="#bl"/></g><g id="B"><use transform="matrix(0.04938271604938272,0,0,0.04938271604938272,0,0)" xlink:href="#am"/><use transform="matrix(0.04938271604938272,0,0,0.04938271604938272,12.790123456790125,0)" xlink:href="#au"/><use transform="matrix(0.04938271604938272,0,0,0.04938271604938272,17.7283950617284,0)" xlink:href="#as"/><use transform="matrix(0.04938271604938272,0,0,0.04938271604938272,22.66666666666667,0)" xlink:href="#ao"/><use transform="matrix(0.04938271604938272,0,0,0.04938271604938272,32.543209876543216,0)" xlink:href="#aq"/><use transform="matrix(0.04938271604938272,0,0,0.04938271604938272,43.35802469135803,0)" xlink:href="#ar"/></g><path fill="#3a414a" d="M9 0v-24l116-142H16v-24h144v24L44-24h123V0H9" id="bm"/><g id="C"><use transform="matrix(0.06172839506172839,0,0,0.06172839506172839,0,0)" xlink:href="#aO"/><use transform="matrix(0.06172839506172839,0,0,0.06172839506172839,14.814814814814813,0)" xlink:href="#aQ"/><use transform="matrix(0.06172839506172839,0,0,0.06172839506172839,27.160493827160494,0)" xlink:href="#aS"/><use transform="matrix(0.06172839506172839,0,0,0.06172839506172839,33.333333333333336,0)" xlink:href="#ba"/><use transform="matrix(0.06172839506172839,0,0,0.06172839506172839,45.67901234567901,0)" xlink:href="#aL"/><use transform="matrix(0.06172839506172839,0,0,0.06172839506172839,58.02469135802469,0)" xlink:href="#aV"/><use transform="matrix(0.06172839506172839,0,0,0.06172839506172839,65.37037037037037,0)" xlink:href="#aX"/><use transform="matrix(0.06172839506172839,0,0,0.06172839506172839,70.24691358024691,0)" xlink:href="#bm"/><use transform="matrix(0.06172839506172839,0,0,0.06172839506172839,81.35802469135803,0)" xlink:href="#aW"/><use transform="matrix(0.06172839506172839,0,0,0.06172839506172839,93.70370370370371,0)" xlink:href="#aS"/><use transform="matrix(0.06172839506172839,0,0,0.06172839506172839,99.87654320987654,0)" xlink:href="#aX"/><use transform="matrix(0.06172839506172839,0,0,0.06172839506172839,104.75308641975309,0)" xlink:href="#aL"/><use transform="matrix(0.06172839506172839,0,0,0.06172839506172839,117.09876543209877,0)" xlink:href="#aR"/></g><g id="D"><use transform="matrix(0.06172839506172839,0,0,0.06172839506172839,0,0)" xlink:href="#bf"/><use transform="matrix(0.06172839506172839,0,0,0.06172839506172839,15.987654320987653,0)" xlink:href="#aW"/><use transform="matrix(0.06172839506172839,0,0,0.06172839506172839,28.333333333333332,0)" xlink:href="#aS"/><use transform="matrix(0.06172839506172839,0,0,0.06172839506172839,34.50617283950617,0)" xlink:href="#aW"/></g><path fill="#3a414a" d="M137 0h-34L2-248h35l83 218 83-218h36" id="bn"/><g id="E"><use transform="matrix(0.06172839506172839,0,0,0.06172839506172839,0,0)" xlink:href="#bn"/><use transform="matrix(0.06172839506172839,0,0,0.06172839506172839,13.148148148148147,0)" xlink:href="#aW"/><use transform="matrix(0.06172839506172839,0,0,0.06172839506172839,25.493827160493826,0)" xlink:href="#aZ"/><use transform="matrix(0.06172839506172839,0,0,0.06172839506172839,30.370370370370367,0)" xlink:href="#aX"/><use transform="matrix(0.06172839506172839,0,0,0.06172839506172839,35.24691358024691,0)" xlink:href="#be"/><use transform="matrix(0.06172839506172839,0,0,0.06172839506172839,47.59259259259259,0)" xlink:href="#aW"/><use transform="matrix(0.06172839506172839,0,0,0.06172839506172839,59.938271604938265,0)" xlink:href="#aS"/><use transform="matrix(0.06172839506172839,0,0,0.06172839506172839,66.1111111111111,0)" xlink:href="#aX"/><use transform="matrix(0.06172839506172839,0,0,0.06172839506172839,70.98765432098764,0)" xlink:href="#aL"/><use transform="matrix(0.06172839506172839,0,0,0.06172839506172839,83.33333333333333,0)" xlink:href="#aR"/></g><path fill="#3a414a" d="M232-93c-1 65-40 97-104 97C67 4 28-28 28-90v-158h33c8 89-33 224 67 224 102 0 64-133 71-224h33v155" id="bo"/><g id="F"><use transform="matrix(0.06172839506172839,0,0,0.06172839506172839,0,0)" xlink:href="#bo"/><use transform="matrix(0.06172839506172839,0,0,0.06172839506172839,15.987654320987653,0)" xlink:href="#aT"/><use transform="matrix(0.06172839506172839,0,0,0.06172839506172839,27.098765432098766,0)" xlink:href="#aN"/><use transform="matrix(0.06172839506172839,0,0,0.06172839506172839,39.44444444444444,0)" xlink:href="#aV"/></g><g id="G"><use transform="matrix(0.06172839506172839,0,0,0.06172839506172839,0,0)" xlink:href="#bf"/><use transform="matrix(0.06172839506172839,0,0,0.06172839506172839,15.987654320987653,0)" xlink:href="#aW"/><use transform="matrix(0.06172839506172839,0,0,0.06172839506172839,28.333333333333332,0)" xlink:href="#aS"/><use transform="matrix(0.06172839506172839,0,0,0.06172839506172839,34.50617283950617,0)" xlink:href="#aW"/></g><path fill="#3a414a" d="M143 0L79-87 56-68V0H24v-261h32v163l83-92h37l-77 82L181 0h-38" id="bp"/><path fill="#3a414a" d="M177-190C167-65 218 103 67 71c-23-6-38-20-44-43l32-5c15 47 100 32 89-28v-30C133-14 115 1 83 1 29 1 15-40 15-95c0-56 16-97 71-98 29-1 48 16 59 35 1-10 0-23 2-32h30zM94-22c36 0 50-32 50-73 0-42-14-75-50-75-39 0-46 34-46 75s6 73 46 73" id="bq"/><g id="H"><use transform="matrix(0.06172839506172839,0,0,0.06172839506172839,0,0)" xlink:href="#aY"/><use transform="matrix(0.06172839506172839,0,0,0.06172839506172839,14.814814814814813,0)" xlink:href="#aW"/><use transform="matrix(0.06172839506172839,0,0,0.06172839506172839,27.160493827160494,0)" xlink:href="#aR"/><use transform="matrix(0.06172839506172839,0,0,0.06172839506172839,39.50617283950617,0)" xlink:href="#bp"/><use transform="matrix(0.06172839506172839,0,0,0.06172839506172839,50.61728395061728,0)" xlink:href="#aX"/><use transform="matrix(0.06172839506172839,0,0,0.06172839506172839,55.49382716049382,0)" xlink:href="#aR"/><use transform="matrix(0.06172839506172839,0,0,0.06172839506172839,67.8395061728395,0)" xlink:href="#bq"/></g><g id="I"><use transform="matrix(0.06172839506172839,0,0,0.06172839506172839,0,0)" xlink:href="#bf"/><use transform="matrix(0.06172839506172839,0,0,0.06172839506172839,15.987654320987653,0)" xlink:href="#aW"/><use transform="matrix(0.06172839506172839,0,0,0.06172839506172839,28.333333333333332,0)" xlink:href="#aS"/><use transform="matrix(0.06172839506172839,0,0,0.06172839506172839,34.50617283950617,0)" xlink:href="#aW"/></g><g id="J"><use transform="matrix(0.06172839506172839,0,0,0.06172839506172839,0,0)" xlink:href="#aO"/><use transform="matrix(0.06172839506172839,0,0,0.06172839506172839,14.814814814814813,0)" xlink:href="#aP"/><use transform="matrix(0.06172839506172839,0,0,0.06172839506172839,25.925925925925924,0)" xlink:href="#aP"/><use transform="matrix(0.06172839506172839,0,0,0.06172839506172839,37.03703703703704,0)" xlink:href="#aN"/><use transform="matrix(0.06172839506172839,0,0,0.06172839506172839,49.382716049382715,0)" xlink:href="#aT"/><use transform="matrix(0.06172839506172839,0,0,0.06172839506172839,60.49382716049382,0)" xlink:href="#aT"/></g><path fill="#3a414a" d="M179-190L93 31C79 59 56 82 12 73V49c39 6 53-20 64-50L1-190h34L92-34l54-156h33" id="br"/><g id="K"><use transform="matrix(0.06172839506172839,0,0,0.06172839506172839,0,0)" xlink:href="#bh"/><use transform="matrix(0.06172839506172839,0,0,0.06172839506172839,14.814814814814813,0)" xlink:href="#aN"/><use transform="matrix(0.06172839506172839,0,0,0.06172839506172839,27.160493827160494,0)" xlink:href="#aP"/><use transform="matrix(0.06172839506172839,0,0,0.06172839506172839,38.27160493827161,0)" xlink:href="#aQ"/><use transform="matrix(0.06172839506172839,0,0,0.06172839506172839,50.617283950617285,0)" xlink:href="#aV"/><use transform="matrix(0.06172839506172839,0,0,0.06172839506172839,57.96296296296296,0)" xlink:href="#aX"/><use transform="matrix(0.06172839506172839,0,0,0.06172839506172839,62.839506172839506,0)" xlink:href="#aS"/><use transform="matrix(0.06172839506172839,0,0,0.06172839506172839,69.01234567901234,0)" xlink:href="#br"/></g><g id="L"><use transform="matrix(0.06172839506172839,0,0,0.06172839506172839,0,0)" xlink:href="#bh"/><use transform="matrix(0.06172839506172839,0,0,0.06172839506172839,14.814814814814813,0)" xlink:href="#bi"/><use transform="matrix(0.06172839506172839,0,0,0.06172839506172839,33.2716049382716,0)" xlink:href="#aU"/><use transform="matrix(0.06172839506172839,0,0,0.06172839506172839,46.79012345679012,0)" xlink:href="#bc"/></g><path fill="#3a414a" d="M145-31C134-9 116 4 85 4 32 4 16-35 15-94c0-59 17-99 70-100 32-1 48 14 60 33 0-11-1-24 2-32h30l-1 268h-32zM93-21c41 0 51-33 51-76s-8-73-50-73c-40 0-46 35-46 75s5 74 45 74" id="bs"/><g id="M"><use transform="matrix(0.06172839506172839,0,0,0.06172839506172839,0,0)" xlink:href="#bi"/><use transform="matrix(0.06172839506172839,0,0,0.06172839506172839,18.456790123456788,0)" xlink:href="#br"/><use transform="matrix(0.06172839506172839,0,0,0.06172839506172839,29.5679012345679,0)" xlink:href="#bh"/><use transform="matrix(0.06172839506172839,0,0,0.06172839506172839,44.38271604938271,0)" xlink:href="#bs"/><use transform="matrix(0.06172839506172839,0,0,0.06172839506172839,56.728395061728385,0)" xlink:href="#aZ"/></g></defs></g></svg>