<svg xmlns="http://www.w3.org/2000/svg" xmlns:xlink="http://www.w3.org/1999/xlink" xmlns:lucid="lucid" width="1820" height="1140"><g transform="translate(-20 0)" lucid:page-tab-id="0_0"><path d="M40 26a6 6 0 0 1 6-6h1768a6 6 0 0 1 6 6v1088a6 6 0 0 1-6 6H46a6 6 0 0 1-6-6z" fill-opacity="0"/><path d="M65.98 20h19.97m10 0h19.97m10 0h19.97m9.98 0h19.97m10 0h19.97m10 0h19.97m9.97 0h19.98m10 0h19.97m10 0h19.96m10 0h19.97m10 0h19.97m10 0h19.96m10 0h19.97m10 0h19.96m10 0h19.98m10 0h19.97m9.98 0h19.98m10 0h19.98m10 0h19.97m9.98 0h19.98m10 0h19.98m10 0h19.96m10 0h19.97m10 0h19.97m10 0h19.97m10 0h19.97m10 0h19.97m10 0h19.97m10 0H925m10 0h19.97m10 0h19.97m10 0h19.96m10 0h19.97m10 0h19.97m10 0h19.96m10 0h19.97m10 0h19.96m10 0h19.97m10 0h19.97m9.98 0h19.98m10 0h19.97m10 0h19.97m9.98 0h19.98m10 0h19.97m10 0h19.96m10 0h19.97m10 0h19.96m9.98 0h19.98m10 0h19.97m10 0h19.96m9.98 0h19.98m10 0h19.97m9.98 0h20m9.98 0h19.98m10 0h19.96m10 0h19.97m9.98 0h19.98m10 0H1794m10 0h9.98l.94.07.9.22.88.35.8.5.72.6.6.72.5.8.37.88.23.9.07.95v10.07m0 10.08V66.3m0 10.07v20.15m0 10.07v20.14m0 10.08v20.14m0 10.08v20.15m0 10.06v20.15m0 10.08v20.15m0 10.07v20.15m0 10.08v20.14m0 10.08v20.15m0 10.07v20.15m0 10.07v20.14m0 10.07v20.16m0 10.08v20.14m0 10.08v20.15m0 10.08v20.15m0 10.07v20.15m0 10.08v20.14m0 10.08v20.15m0 10.07v20.15m0 10.07v20.14m0 10.08v20.14m0 10.08v20.14m0 10.08v20.15m0 10.08v20.15m0 10.07v20.15m0 10.08v20.14m0 10.08v20.15m0 10.07v20.15m0 10.07v20.14m0 10.08v20.14m0 10.08v20.14m0 10.08v20.15m0 10.08v20.15m0 10.07v20.15m0 10.08V1114l-.07.94-.22.9-.35.88-.5.8-.6.72-.72.6-.8.5-.88.37-.9.23-.95.07h-10m-9.98 0h-19.97m-10 0h-19.97m-10 0h-19.97m-9.98 0h-19.97m-10 0h-19.97m-10 0h-19.97m-9.97 0h-19.98m-10 0h-19.97m-10 0h-19.96m-10 0h-19.97m-10 0h-19.97m-10 0h-19.96m-10 0h-19.97m-10 0h-19.96m-10 0h-19.98m-10 0h-19.97m-9.98 0h-19.98m-10 0h-19.98m-10 0h-19.96m-10 0h-19.97m-10 0h-19.98m-10 0h-19.96m-10 0h-19.97m-10 0h-19.97m-10 0h-19.97m-10 0h-19.97m-10 0h-19.97m-10 0h-19.97m-10 0H935m-10 0h-19.97m-10 0h-19.97m-10 0H845.1m-10 0h-19.97m-10 0h-19.97m-10 0H755.2m-10 0h-19.97m-10 0h-19.96m-10 0H665.3m-10 0h-19.97m-10 0H605.4m-10 0H575.4m-10 0h-19.97m-9.98 0h-19.98m-10 0H485.5m-10 0h-19.96m-10 0h-19.97m-10 0h-19.96m-9.98 0h-19.98m-10 0h-19.97m-10 0h-19.96m-9.98 0h-19.98m-10 0h-19.97m-10 0h-19.96m-9.98 0h-19.98m-10 0H155.9m-10 0h-19.97m-9.98 0H95.94m-9.98 0H65.97m-10 0H46l-.94-.07-.9-.22-.88-.35-.8-.5-.72-.6-.6-.72-.5-.8-.37-.88-.23-.9-.07-.95v-10.07m0-10.08v-20.15m0-10.07v-20.15m0-10.07v-20.14m0-10.08v-20.14m0-10.08v-20.14m0-10.08V922.6m0-10.08v-20.15m0-10.07v-20.15m0-10.08v-20.14m0-10.08V801.7m0-10.07v-20.15m0-10.07v-20.14m0-10.08v-20.14m0-10.08v-20.14m0-10.08V650.6m0-10.08v-20.15m0-10.07v-20.15m0-10.08v-20.14m0-10.08V529.7m0-10.07v-20.15m0-10.07v-20.14m0-10.07v-20.16m0-10.08v-20.14m0-10.08V378.6m0-10.08v-20.15m0-10.07v-20.15m0-10.08v-20.14m0-10.08V257.7m0-10.07v-20.15m0-10.07v-20.14m0-10.07v-20.16m0-10.08V136.8m0-10.06V106.6m0-10.08V76.37m0-10.07V46.15m0-10.08V26l.07-.94.22-.9.35-.88.5-.8.6-.72.72-.6.8-.5.88-.37.9-.23L46 20h10" stroke="#3a414a" fill="none"/><path d="M1380 30.6h422.4V90H1380z" fill="none"/><use xlink:href="#a" transform="matrix(1,0,0,1,1380,30.600000000000364) translate(54.24034288194446 38.53407118055556)"/><use xlink:href="#b" transform="matrix(1,0,0,1,1380,30.600000000000364) translate(144.30653211805554 38.53407118055556)"/><use xlink:href="#c" transform="matrix(1,0,0,1,1380,30.600000000000364) translate(256.40614149305554 38.53407118055556)"/><path d="M112.25 504.65c0 6.77-5.48 12.25-12.25 12.25s-12.25-5.48-12.25-12.25c0-6.76 5.48-12.25 12.25-12.25s12.25 5.5 12.25 12.25z" stroke="#3a414a" fill="#fff"/><path d="M100 516.9v28.3a14.28 14.28 0 0 0 4.28 10.2l35.72 35m-40-39.2l-40 39.2m0-61.25h80" stroke="#3a414a" fill="none"/><path d="M60 498.4a6 6 0 0 1 6-6h68a6 6 0 0 1 6 6v108a6 6 0 0 1-6 6H66a6 6 0 0 1-6-6z" fill="none"/><use xlink:href="#d" transform="matrix(1,0,0,1,-20,590.4000000000001) translate(96.60493827160494 17.77777777777778)"/><path d="M488 220c17.67 0 32 17.9 32 40s-14.33 40-32 40h-96c-17.67 0-32-17.9-32-40s14.33-40 32-40z" stroke="#3a414a" fill="#fff"/><use xlink:href="#e" transform="matrix(1,0,0,1,365,225) translate(41.73339506172839 26.52777777777778)"/><use xlink:href="#f" transform="matrix(1,0,0,1,365,225) translate(36.11611111111111 53.19444444444445)"/><path d="M1048 760c17.67 0 32 17.9 32 40s-14.33 40-32 40h-96c-17.67 0-32-17.9-32-40s14.33-40 32-40z" stroke="#3a414a" fill="#fff"/><use xlink:href="#g" transform="matrix(1,0,0,1,925,765) translate(47.87037037037037 39.65277777777778)"/><path d="M140.66 552.9h-37.63v-1h37.63zm94.72-292.14h-.06l-.8.34-.74.45-.65.56-.56.67-.45.73-.33.8-.2.84-.08.88v280.4l-.08 1-.24 1-.4.93-.52.87-.66.78-.78.66-.43.26v-1.2l.5-.43.57-.67.45-.73.33-.8.2-.84.07-.88v-280.4l.08-1 .23-1 .4-.93.53-.87.66-.78.78-.66.87-.53.94-.38.38-.1zm107.74-.26h-20v-1h20z" stroke="#3a414a" stroke-width=".05" fill="#3a414a"/><path d="M103.05 552.9h-3.52v-1h3.52z" stroke="#3a414a" stroke-width=".05" fill="#3a414a"/><path d="M357.88 260l-14.26 4.63v-9.26z" fill="#3a414a"/><path d="M359.5 260l-16.38 5.32v-10.64zm-15.38 3.95l12.14-3.95-12.14-3.95z" stroke="#3a414a" stroke-width=".05" fill="#3a414a"/><use xlink:href="#h" transform="matrix(1,0,0,1,235.37630659986218,249.33333333333334) translate(0 14.222222222222223)"/><use xlink:href="#h" transform="matrix(1,0,0,1,140.65846269860242,541.7333333333335) translate(0 14.222222222222223)"/><path d="M777 40c15.46 0 28 13.43 28 30s-12.54 30-28 30h-84c-15.46 0-28-13.43-28-30s12.54-30 28-30z" stroke="#3a414a" fill="#fff"/><use xlink:href="#i" transform="matrix(1,0,0,1,670,45) translate(38.492654320987654 20.90277777777778)"/><use xlink:href="#j" transform="matrix(1,0,0,1,670,45) translate(15.68401234567901 47.56944444444444)"/><path d="M777 140c15.46 0 28 13.43 28 30s-12.54 30-28 30h-84c-15.46 0-28-13.43-28-30s12.54-30 28-30z" stroke="#3a414a" fill="#fff"/><use xlink:href="#i" transform="matrix(1,0,0,1,670,145) translate(38.492654320987654 20.90277777777778)"/><use xlink:href="#k" transform="matrix(1,0,0,1,670,145) translate(17.535864197530856 47.56944444444444)"/><path d="M776 236.2c16.02 0 29 13.43 29 30s-12.98 30-29 30h-87c-16.02 0-29-13.43-29-30s12.98-30 29-30z" stroke="#3a414a" fill="#fff"/><use xlink:href="#l" transform="matrix(1,0,0,1,665,241.1978425863332) translate(11.45061728395062 30.27777777777778)"/><use xlink:href="#m" transform="matrix(1,0,0,1,665,241.1978425863332) translate(70.64814814814815 30.27777777777778)"/><path d="M775 320c16.57 0 30 13.43 30 30s-13.43 30-30 30h-90c-16.57 0-30-13.43-30-30s13.43-30 30-30z" stroke="#3a414a" fill="#fff"/><use xlink:href="#l" transform="matrix(1,0,0,1,660,325) translate(9.542037037037035 20.90277777777778)"/><use xlink:href="#n" transform="matrix(1,0,0,1,660,325) translate(68.73956790123458 20.90277777777778)"/><use xlink:href="#o" transform="matrix(1,0,0,1,660,325) translate(32.4124074074074 47.56944444444444)"/><path d="M531.92 260.5H521v-1h10.92zm14.17 0h-3.27v-1h3.26zm46.9-6.48l-.08 1-.24 1-.4.93-.1.2H591l.4-.65.33-.8.2-.84.07-.88v-9.87h1zm0-19.8h-1v-19.78h1zm0-29.66h-1v-19.78h1zm0-59.34h-1v-19.78h1zm0-29.66h-1V95.78h1zm13.77-45.06h-8.25l-.88.07-.84.2-.8.33-.73.45-.66.56-.55.67-.45.73-.33.8-.2.84-.07.88v9.87h-1v-9.92l.08-1 .24-1 .4-.93.52-.87.66-.78.78-.66.87-.53.94-.38.98-.24 1-.08h8.3zm24.8 0h-16.53v-1h16.54zm16.55 0h-8.27v-1h8.27z" stroke="#3a414a" stroke-width=".05" fill="#3a414a"/><path d="M521 260.5h-.53l.03-.5-.02-.5h.53z" fill="#3a414a"/><path d="M521.04 260.52h-.6l.04-.5-.02-.54h.58zm-.53-1l.03.5-.03.46h.5v-.96z" stroke="#3a414a" stroke-width=".05" fill="#3a414a"/><path d="M662.88 70l-14.26 4.64v-9.28z" fill="#3a414a"/><path d="M664.5 70l-16.38 5.32V64.68zm-15.38 3.95L661.26 70l-12.14-3.95z" stroke="#3a414a" stroke-width=".05" fill="#3a414a"/><use xlink:href="#p" transform="matrix(1,0,0,1,551.0925923209893,154.3333333333334) translate(0 14.222222222222223)"/><path d="M531.92 260.5H521v-1h10.92zm14.17 0h-3.27v-1h3.26zm46.9-6.48l-.08 1-.24 1-.4.93-.1.2H591l.4-.65.33-.8.2-.84.07-.88v-8.65h1zm0-17.35h-1v-17.34h1zm0-26h-1v-17.34h1zm0-34.65v8.65h-1v-8.7l.02-.3h1zm55.12-5.52h-8.27v-1h8.27z" stroke="#3a414a" stroke-width=".05" fill="#3a414a"/><path d="M521 260.5h-.53l.03-.5-.02-.5h.53z" fill="#3a414a"/><path d="M521.04 260.52h-.6l.04-.5-.02-.54h.58zm-.53-1l.03.5-.03.46h.5v-.96z" stroke="#3a414a" stroke-width=".05" fill="#3a414a"/><path d="M662.88 170l-14.26 4.63v-9.26z" fill="#3a414a"/><path d="M664.5 170l-16.38 5.32v-10.64zm-15.38 3.95l12.14-3.95-12.14-3.95zM532.56 260.5H521v-1h11.56zm13.53 0h-2v-1h2zm97.7 0h-8.92v-1h8.9z" stroke="#3a414a" stroke-width=".05" fill="#3a414a"/><path d="M521 260.5h-.53l.03-.5-.02-.5h.53z" fill="#3a414a"/><path d="M521.04 260.52h-.6l.04-.5-.02-.54h.58zm-.53-1l.03.5-.03.46h.5v-.96z" stroke="#3a414a" stroke-width=".05" fill="#3a414a"/><path d="M658.55 260l-14.26 4.63v-9.26z" fill="#3a414a"/><path d="M660.17 260l-16.38 5.32v-10.64zm-15.38 3.95l12.14-3.95-12.15-3.95zM588 343.98l.07.88.2.84.33.8.45.73.56.66.67.55.73.45.8.33.84.2.88.07h14.85v1h-14.9l-1-.08-.98-.24-.95-.4-.87-.52-.78-.66-.66-.78-.53-.87-.38-.94-.24-.98-.08-1v-8.7h1zm50.12 6.52h-14.88v-1h14.88zM588 326.67h-1v-17.34h1zm0-26h-1v-17.34h1zm-56.92-40.17H521v-1h10.08zm15 0h-4.9v-1h4.9z" stroke="#3a414a" stroke-width=".05" fill="#3a414a"/><path d="M521 260.5h-.53l.03-.5-.02-.5h.53z" fill="#3a414a"/><path d="M521.04 260.52h-.6l.04-.5-.02-.54h.58zm-.53-1l.03.5-.03.46h.5v-.96z" stroke="#3a414a" stroke-width=".05" fill="#3a414a"/><path d="M652.88 350l-14.26 4.63v-9.26z" fill="#3a414a"/><path d="M654.5 350l-16.38 5.32v-10.64zm-15.38 3.95l12.14-3.95-12.14-3.95z" stroke="#3a414a" stroke-width=".05" fill="#3a414a"/><use xlink:href="#p" transform="matrix(1,0,0,1,546.0925922162412,257.13628601441246) translate(0 14.222222222222223)"/><path d="M1040 1040c16.57 0 30 13.43 30 30s-13.43 30-30 30h-90c-16.57 0-30-13.43-30-30s13.43-30 30-30z" stroke="#3a414a" fill="#fff"/><use xlink:href="#q" transform="matrix(1,0,0,1,925,1045) translate(4.043209876543216 17.77777777777778)"/><use xlink:href="#r" transform="matrix(1,0,0,1,925,1045) translate(80.46296296296296 17.77777777777778)"/><use xlink:href="#s" transform="matrix(1,0,0,1,925,1045) translate(9.537037037037038 44.44444444444444)"/><path d="M688 920c17.67 0 32 13.43 32 30s-14.33 30-32 30h-96c-17.67 0-32-13.43-32-30s14.33-30 32-30z" stroke="#3a414a" fill="#fff"/><use xlink:href="#i" transform="matrix(1,0,0,1,565,925) translate(48.492654320987654 20.90277777777778)"/><use xlink:href="#j" transform="matrix(1,0,0,1,565,925) translate(25.68401234567901 47.56944444444444)"/><path d="M1392 920c15.46 0 28 14.18 28 31.67 0 17.5-12.54 31.66-28 31.66h-84c-15.46 0-28-14.17-28-31.66 0-17.5 12.54-31.67 28-31.67z" stroke="#3a414a" fill="#fff"/><use xlink:href="#i" transform="matrix(1,0,0,1,1285,925) translate(38.492654320987654 21.15277777777778)"/><use xlink:href="#k" transform="matrix(1,0,0,1,1285,925) translate(17.535864197530856 47.81944444444444)"/><path d="M655.67 880.5h-9.65l-.88.07-.84.2-.8.33-.73.45-.66.56-.55.67-.45.73-.33.8-.2.84-.07.88v17.1h-1v-17.14l.08-1 .24-1 .4-.93.52-.87.66-.78.78-.66.87-.53.94-.38.98-.24 1-.08h9.7zm344.83-6.48l-.08 1-.24 1-.4.93-.52.87-.66.78-.78.66-.87.53-.94.38-.98.24-1 .08h-9.7v-1H994l.88-.07.84-.2.8-.33.73-.45.66-.56.55-.67.45-.73.33-.8.2-.84.07-.88V863h1zm-25.83 6.48h-19.34v-1h19.34zm-29 0h-19.34v-1h19.34zm-29 0h-19.34v-1h19.34zm-29 0h-19.34v-1h19.34zm-29 0h-19.34v-1h19.34zm-29 0h-19.34v-1h19.34zm-116 0h-19.34v-1h19.34zm-29 0h-19.34v-1h19.34zM1000.5 852h-1v-11h1z" stroke="#3a414a" stroke-width=".05" fill="#3a414a"/><path d="M1000.5 841h-1v-.5h1z" fill="#3a414a"/><path d="M1000.52 841.04h-1.04v-.56h1.04zm-1-.5v.45h.96v-.48z" stroke="#3a414a" stroke-width=".05" fill="#3a414a"/><path d="M640 917.88l-4.63-14.26h9.26z" fill="#3a414a"/><path d="M640 919.5l-5.32-16.38h10.64zm-3.95-15.38l3.95 12.14 3.95-12.14z" stroke="#3a414a" stroke-width=".05" fill="#3a414a"/><use xlink:href="#p" transform="matrix(1,0,0,1,720.3739545997611,869.3333333333334) translate(0 14.222222222222223)"/><path d="M1345.02 879.58l1 .24.93.4.87.52.78.66.66.78.53.87.38.94.24.98.08 1v17.14h-1v-17.1l-.07-.88-.2-.84-.33-.8-.45-.73-.56-.66-.67-.55-.73-.45-.8-.33-.84-.2-.88-.07h-10.22v-1h10.26zm-344.52-5.6l.07.88.2.84.33.8.45.73.56.66.67.55.73.45.8.33.84.2.88.07h10.22v1h-10.26l-1-.08-1-.24-.93-.4-.87-.52-.78-.66-.66-.78-.53-.87-.38-.94-.24-.98-.08-1V863h1zm46.47 6.52h-20.5v-1h20.5zm30.73 0h-20.5v-1h20.5zm30.72 0h-20.48v-1h20.48zm30.73 0h-20.48v-1h20.48zm30.73 0h-20.5v-1h20.5zm28.3 0h-18.06v-1h18.07zm125.34 0h-20.5v-1h20.5zm-30.73 0H1281v-1h11.8zM1000.5 852h-1v-11h1z" stroke="#3a414a" stroke-width=".05" fill="#3a414a"/><path d="M1000.5 841h-1v-.5h1z" fill="#3a414a"/><path d="M1000.52 841.04h-1.04v-.56h1.04zm-1-.5v.45h.96v-.48z" stroke="#3a414a" stroke-width=".05" fill="#3a414a"/><path d="M1350 917.88l-4.63-14.26h9.27z" fill="#3a414a"/><path d="M1350 919.5l-5.32-16.38h10.64zm-3.95-15.38l3.95 12.14 3.95-12.14z" stroke="#3a414a" stroke-width=".05" fill="#3a414a"/><use xlink:href="#p" transform="matrix(1,0,0,1,1198.1910481910481,869.3333333333334) translate(0 14.222222222222223)"/><path d="M721 950h10.3m10.3 0h20.6m10.3 0h20.62m10.3 0h20.6m10.3 0h20.6m10.3 0h20.62m10.3 0h20.6m10.3 0h20.6m10.32 0h20.6m10.3 0H999.3l.12.04.12.05.12.06.1.08.08.1.07.12.06.12.03.12v.26l.04.13.05.1.06.12.08.1.1.1.1.06.13.05.13.03H1011.13m10.3 0h20.6m10.32 0h20.6m10.3 0h20.6m10.3 0h20.6m10.32 0h20.6m10.3 0h20.6m10.3 0h20.62m10.3 0h20.6m10.3 0h10.3" stroke="#3a414a" fill="none"/><path d="M721 950.5h-.54l.04-.48v-.28l-.02-.24h.53zM1279.5 951.67l.04.5h-.55v-1h.54zM995.5 1023.12h-1v-12.1h1zm0-24.2h-1v-8.98h1zm0-36.32h-1v-12.1h1z" stroke="#3a414a" stroke-width=".05" fill="#3a414a"/><path d="M995.5 950.5h-1v-.5h1z" stroke="#3a414a" stroke-width=".05" fill="#3a414a"/><path d="M995 1037.88l-4.63-14.26h9.26z" fill="#3a414a"/><path d="M995 1039.5l-5.32-16.38h10.64zm-3.95-15.38l3.95 12.14 3.95-12.14z" stroke="#3a414a" stroke-width=".05" fill="#3a414a"/><use xlink:href="#p" transform="matrix(1,0,0,1,953.5925925925926,968.6037735849058) translate(0 14.222222222222223)"/><path d="M806 70h11.17m11.16 0h11.17l.94.07.9.22.88.35.8.5.72.6.6.72.5.8.37.88.23.9.07.95v9.93m0 9.92v19.85m0 9.93v19.85m0 9.93v19.86m0 9.93v19.84m0 9.92v19.85m0 9.94v19.85m0 9.92v19.85m0 9.93v19.85m0 9.92V344l-.07.94-.22.9-.35.88-.5.8-.6.72-.72.6-.8.5-.88.37-.9.23-.95.07h-11.17m-11.16 0H806" stroke="#3a414a" fill="none"/><path d="M806 70.5h-.54l.04-.5-.02-.5h.53zM806 350.5h-.54l.04-.5-.02-.5h.53z" stroke="#3a414a" stroke-width=".05" fill="#3a414a"/><path d="M806 170h18.52l.18.06.16.07.16.1.14.1.12.15.1.16.06.16.05.18v.38l.06.16.07.17.1.15.1.14.15.1.15.1.17.07.18.04.18.03H845" stroke="#3a414a" fill="none"/><path d="M806 170.5h-.54l.04-.5-.02-.5h.53z" stroke="#3a414a" stroke-width=".05" fill="#3a414a"/><path d="M845 172.33h.5M806 266.2H825.44v.02h.03v.02l.02.02V266.35l.02.03.03.03v.02H845" stroke="#3a414a" fill="none"/><path d="M806 266.7h-.54l.04-.5-.02-.5h.53z" stroke="#3a414a" stroke-width=".05" fill="#3a414a"/><path d="M845 266.43h.5" stroke="#3a414a" fill="none"/><path d="M488 340c17.67 0 32 17.9 32 40s-14.33 40-32 40h-96c-17.67 0-32-17.9-32-40s14.33-40 32-40z" stroke="#3a414a" fill="#fff"/><use xlink:href="#t" transform="matrix(1,0,0,1,365,345) translate(1.018518518518519 35.27777777777778)"/><use xlink:href="#u" transform="matrix(1,0,0,1,365,345) translate(73.73456790123457 35.27777777777778)"/><use xlink:href="#f" transform="matrix(1,0,0,1,365,345) translate(36.11611111111111 61.94444444444445)"/><path d="M488 460c17.67 0 32 17.9 32 40s-14.33 40-32 40h-96c-17.67 0-32-17.9-32-40s14.33-40 32-40z" stroke="#3a414a" fill="#fff"/><use xlink:href="#v" transform="matrix(1,0,0,1,365,465) translate(47.87537037037037 26.52777777777778)"/><use xlink:href="#w" transform="matrix(1,0,0,1,365,465) translate(15.19018518518518 53.19444444444445)"/><path d="M488 700c17.67 0 32 17.9 32 40s-14.33 40-32 40h-96c-17.67 0-32-17.9-32-40s14.33-40 32-40z" stroke="#3a414a" fill="#fff"/><use xlink:href="#x" transform="matrix(1,0,0,1,365,705) translate(9.233395061728396 26.52777777777778)"/><use xlink:href="#y" transform="matrix(1,0,0,1,365,705) translate(62.998827160493825 26.52777777777778)"/><use xlink:href="#z" transform="matrix(1,0,0,1,365,705) translate(26.270432098765426 53.19444444444445)"/><path d="M488 580c17.67 0 32 17.9 32 40s-14.33 40-32 40h-96c-17.67 0-32-17.9-32-40s14.33-40 32-40z" stroke="#3a414a" fill="#fff"/><use xlink:href="#A" transform="matrix(1,0,0,1,365,585) translate(12.098765432098759 39.65277777777778)"/><use xlink:href="#B" transform="matrix(1,0,0,1,365,585) translate(56.54320987654321 39.65277777777778)"/><path d="M748 640c17.67 0 32 17.9 32 40s-14.33 40-32 40h-96c-17.67 0-32-17.9-32-40s14.33-40 32-40z" stroke="#3a414a" fill="#fff"/><use xlink:href="#C" transform="matrix(1,0,0,1,625,645) translate(36.17283950617284 39.65277777777778)"/><use xlink:href="#D" transform="matrix(1,0,0,1,625,645) translate(89.1358024691358 39.65277777777778)"/><path d="M1288 640c17.67 0 32 17.9 32 40s-14.33 40-32 40h-96c-17.67 0-32-17.9-32-40s14.33-40 32-40z" stroke="#3a414a" fill="#fff"/><use xlink:href="#E" transform="matrix(1,0,0,1,1165,645) translate(9.727222222222233 26.52777777777778)"/><use xlink:href="#F" transform="matrix(1,0,0,1,1165,645) translate(62.65932098765432 53.19444444444445)"/><path d="M1015.62 740.5h-9.6l-.88.07-.84.2-.8.33-.73.45-.66.56-.55.67-.45.73-.33.8-.2.84-.07.88V759h-1v-13.02l.08-1 .24-1 .4-.93.52-.87.66-.78.78-.66.87-.53.94-.38.98-.24 1-.08h9.64zm28.86 0h-19.24v-1h19.24zm28.86 0h-19.24v-1h19.24zm115.44 0h-19.24v-1h19.24zm28.86 0h-19.24v-1h19.24zm22.86-3.58l-.04.53-.14.55-.2.53-.3.48-.38.44-.43.37-.47.3-.53.22-.55.14-.55.04h-9.64v-1h9.6l.43-.03.4-.1.37-.16.35-.2.3-.27.28-.3.2-.36.17-.38.1-.4.03-.45z" stroke="#3a414a" stroke-width=".05" fill="#3a414a"/><path d="M1000.5 759.5h-1v-.5h1z" fill="#3a414a"/><path d="M1000.52 759.52h-1.04v-.56h1.04zm-1-.5v.46h.96V759z" stroke="#3a414a" stroke-width=".05" fill="#3a414a"/><path d="M1244.63 736.38h-9.27l4.64-14.26z" fill="#3a414a"/><path d="M1245.32 736.88h-10.64l5.32-16.38zm-9.27-1h7.9l-3.95-12.14z" stroke="#3a414a" stroke-width=".05" fill="#3a414a"/><use xlink:href="#p" transform="matrix(1,0,0,1,1078.5925925925926,729.3333333333334) translate(0 14.222222222222223)"/><path d="M995.02 739.58l1 .24.93.4.87.52.78.66.66.78.53.87.38.94.24.98.08 1V759h-1v-12.98l-.07-.88-.2-.84-.33-.8-.45-.73-.56-.66-.67-.55-.73-.45-.8-.33-.84-.2-.88-.07h-9.68v-1h9.72zm-20.4.92h-19.4v-1h19.4zm-29.1 0h-19.4v-1h19.4zm-29.1 0h-19.38v-1h19.4zm-116.34 0h-19.4v-1h19.4zm-29.1 0H751.6v-1H771zm-29.08 0h-19.4v-1h19.4zm-41.37-3.2l.1.4.16.37.2.35.27.3.3.28.36.2.38.17.4.1.44.03h9.67v1h-9.7l-.55-.04-.55-.14-.53-.2-.48-.3-.44-.38-.37-.43-.3-.47-.22-.53-.14-.55-.04-.53 1-.07z" stroke="#3a414a" stroke-width=".05" fill="#3a414a"/><path d="M1000.5 759.5h-1v-.5h1z" fill="#3a414a"/><path d="M1000.52 759.52h-1.04v-.56h1.04zm-1-.5v.46h.96V759z" stroke="#3a414a" stroke-width=".05" fill="#3a414a"/><path d="M704.63 736.38h-9.26l4.63-14.26z" fill="#3a414a"/><path d="M705.32 736.88h-10.64L700 720.5zm-9.27-1h7.9L700 723.74z" stroke="#3a414a" stroke-width=".05" fill="#3a414a"/><use xlink:href="#p" transform="matrix(1,0,0,1,808.5925925925926,729.3333333333334) translate(0 14.222222222222223)"/><path d="M285.02 551.98l1 .24.93.4.87.52.78.66.66.78.53.87.38.94.24.98.08 1v55.6l.07.88.2.84.33.8.45.73.56.66.67.55.73.45.8.33.84.2.88.07h47.1v1h-47.14l-1-.08-1-.24-.93-.4-.87-.52-.78-.66-.66-.78-.53-.87-.38-.94-.24-.98-.08-1v-55.6l-.07-.88-.2-.84-.33-.8-.45-.73-.56-.66-.67-.55-.73-.45-.8-.33-.84-.2-.88-.07h-52.46v-1h52.5z" stroke="#3a414a" stroke-width=".05" fill="#3a414a"/><path d="M231.53 552.9h-.5v-1h.5z" stroke="#3a414a" stroke-width=".05" fill="#3a414a"/><path d="M357.88 620l-14.26 4.63v-9.26z" fill="#3a414a"/><path d="M359.5 620l-16.38 5.32v-10.64zm-15.38 3.95l12.14-3.95-12.14-3.95z" stroke="#3a414a" stroke-width=".05" fill="#3a414a"/><path d="M235.18 552.9V734a6 6 0 0 0 6 6h101.94M235.18 552.9v-.5" stroke="#3a414a" fill="none"/><path d="M357.88 740l-14.26 4.63v-9.26z" stroke="#3a414a" fill="#3a414a"/><path d="M343.12 380.5H237.04l-.88.07-.84.2-.8.33-.74.45-.65.56-.56.67-.45.73-.33.8-.2.84-.08.88V551.9h-1V385.98l.08-1 .23-1 .4-.93.53-.87.66-.78.78-.66.87-.53.94-.38 1-.24 1-.08h106.12zM231.52 552.4h-1v-.5h1z" stroke="#3a414a" stroke-width=".05" fill="#3a414a"/><path d="M357.88 380l-14.26 4.63v-9.26z" fill="#3a414a"/><path d="M359.5 380l-16.38 5.32v-10.64zm-15.38 3.95l12.14-3.95-12.14-3.95z" stroke="#3a414a" stroke-width=".05" fill="#3a414a"/><path d="M231.52 492.4h112.23M231.53 492.4h-.5" stroke="#3a414a" fill="none"/><path d="M358.52 492.4l-14.27 4.64v-9.28z" stroke="#3a414a" fill="#3a414a"/><path d="M545.53 734.02l-.08 1-.24 1-.38.93-.53.87-.67.78-.78.66-.87.53-.94.38-1 .24-1 .08H521v-1h18l.9-.07.83-.2.8-.33.73-.45.66-.56.56-.67.45-.73.33-.8.2-.84.07-.88V260.5h1zM545.53 260.5h-1v-.5h1z" stroke="#3a414a" stroke-width=".05" fill="#3a414a"/><path d="M521 740.5h-.53l.03-.5-.02-.5h.53z" fill="#3a414a"/><path d="M521.04 740.52h-.6l.04-.5-.02-.54h.58zm-.53-1l.03.5-.03.46h.5v-.96z" stroke="#3a414a" stroke-width=".05" fill="#3a414a"/><path d="M521 380H532.56l.05-.03.04-.03.04-.03.03-.02.03-.05.02-.04v-.1l.02-.05v-.05l.03-.04.02-.04.03-.04.04-.03.03-.02.05-.02h11.55" stroke="#3a414a" fill="none"/><path d="M521 380.5h-.53l.03-.5-.02-.5h.53z" stroke="#3a414a" stroke-width=".05" fill="#3a414a"/><path d="M544.52 379.4h.5M521 500h11.26l.1-.03.07-.04.08-.05.1-.06.05-.07.05-.08.03-.1.03-.08v-.2l.03-.1.03-.08.05-.1.06-.06.08-.06.08-.05.08-.04h.1l.1-.02h11.15" stroke="#3a414a" fill="none"/><path d="M521 500.5h-.53l.03-.5-.02-.5h.53z" stroke="#3a414a" stroke-width=".05" fill="#3a414a"/><path d="M544.52 498.78h.5M521 620H532l.13-.04.14-.06.12-.07.1-.1.1-.1.06-.13.06-.13.03-.14v-.14l.03-.15.03-.14.06-.13.08-.12.1-.1.1-.1.12-.08.13-.05.13-.03.15-.03h10.85" stroke="#3a414a" fill="none"/><path d="M521 620.5h-.53l.03-.5-.02-.5h.53z" stroke="#3a414a" stroke-width=".05" fill="#3a414a"/><path d="M544.52 618.17h.5M846 222.33h128a6 6 0 0 1 6 6V499.5M846 222.33h-.5M980 499.5v.5M531.54 500H979.5M979.5 500h.5M691.24 500.5v69.07a.18.18 0 0 0 .18.18.18.18 0 0 1 .18.18v53.2M691.24 500.5v-.5" stroke="#3a414a" fill="none"/><path d="M691.6 637.88l-4.64-14.26h9.27z" stroke="#3a414a" fill="#3a414a"/><path d="M1508 165c17.67 0 32 17.9 32 40s-14.33 40-32 40h-96c-17.67 0-32-17.9-32-40s14.33-40 32-40z" stroke="#3a414a" fill="#fff"/><use xlink:href="#G" transform="matrix(1,0,0,1,1385,170) translate(10.251913580246915 26.52777777777778)"/><use xlink:href="#H" transform="matrix(1,0,0,1,1385,170) translate(96.60993827160495 26.52777777777778)"/><use xlink:href="#f" transform="matrix(1,0,0,1,1385,170) translate(36.11611111111111 53.19444444444445)"/><path d="M1508 320c17.67 0 32 17.9 32 40s-14.33 40-32 40h-96c-17.67 0-32-17.9-32-40s14.33-40 32-40z" stroke="#3a414a" fill="#fff"/><use xlink:href="#G" transform="matrix(1,0,0,1,1385,325) translate(10.251913580246915 26.52777777777778)"/><use xlink:href="#H" transform="matrix(1,0,0,1,1385,325) translate(96.60993827160495 26.52777777777778)"/><use xlink:href="#I" transform="matrix(1,0,0,1,1385,325) translate(47.87537037037037 53.19444444444445)"/><path d="M1498 492.4c17.67 0 32 17.9 32 40s-14.33 40-32 40h-96c-17.67 0-32-17.9-32-40s14.33-40 32-40z" stroke="#3a414a" fill="#fff"/><use xlink:href="#J" transform="matrix(1,0,0,1,1375,497.4000000000001) translate(34.9124074074074 26.52777777777778)"/><use xlink:href="#B" transform="matrix(1,0,0,1,1375,497.4000000000001) translate(34.325987654320976 53.19444444444445)"/><path d="M1280 330c16.57 0 30 13.43 30 30s-13.43 30-30 30h-90c-16.57 0-30-13.43-30-30s13.43-30 30-30z" stroke="#3a414a" fill="#fff"/><use xlink:href="#K" transform="matrix(1,0,0,1,1165,335) translate(34.85067901234567 20.90277777777778)"/><use xlink:href="#L" transform="matrix(1,0,0,1,1165,335) translate(16.39388888888888 47.56944444444444)"/><path d="M1235.5 313.12h-1v-11.35h1zm0-22.7h-1v-22.7h1zm0-34.04h-1v-22.7h1zm2.74-50.12l-.47.3-.66.55-.55.67-.45.73-.33.8-.2.84-.07.88v11.33h-1v-11.37l.08-1 .24-1 .4-.93.52-.87.66-.78.78-.66.87-.53.2-.07zm122.36-.76h-18.4v-1h18.4zm18.4 0h-9.2v-1h9.2zm-46 0h-11.94v-1H1333z" stroke="#3a414a" stroke-width=".05" fill="#3a414a"/><path d="M1235 327.88l-4.63-14.26h9.27z" fill="#3a414a"/><path d="M1235 329.5l-5.32-16.38h10.64zm-3.95-15.38l3.95 12.14 3.95-12.14z" stroke="#3a414a" stroke-width=".05" fill="#3a414a"/><path d="M1379.5 205l.02.5h-.53v-1h.53z" fill="#3a414a"/><path d="M1379.52 205l.02.53h-.58v-1.06h.6zm-.5-.47v.94h.47l-.03-.48.03-.47z" stroke="#3a414a" stroke-width=".05" fill="#3a414a"/><use xlink:href="#p" transform="matrix(1,0,0,1,1238.2404637089026,194.33333333333334) translate(0 14.222222222222223)"/><path d="M1380 370.5h-.1v-1h.1z" stroke="#3a414a" stroke-width=".05" fill="#3a414a"/><path fill="#3a414a"/><path stroke="#3a414a" stroke-width=".05" fill="#3a414a"/><path d="M1380.45 369.75l.2.75h-.65v-1h.4z" fill="#3a414a"/><path d="M1380.47 369.75l.2.77h-.7v-1.04h.46zm-.45-.23v.96h.6l-.2-.72-.03-.24z" stroke="#3a414a" stroke-width=".05" fill="#3a414a"/><use xlink:href="#p" transform="matrix(1,0,0,1,1297.0988379543192,349.3333333333333) translate(0 14.222222222222223)"/><path d="M1235.5 526.38l.07.88.2.84.33.8.45.73.56.66.67.55.73.45.8.33.84.2.88.07h10.65v1h-10.7l-1-.08-.98-.24-.95-.4-.87-.52-.78-.66-.66-.78-.53-.87-.38-.94-.24-.98-.08-1v-9.98h1zm48.17 6.52h-21.34v-1h21.34zm32 0h-21.34v-1h21.34zm32 0h-21.34v-1h21.34zm21.33 0h-10.67v-1H1369zm-133.5-38.46h-1v-7.88h1zm0-17.84h-1v-19.92h1zm0-29.88h-1V426.8h1zm0-29.88h-1v-9.96h1z" stroke="#3a414a" stroke-width=".05" fill="#3a414a"/><path d="M1239.63 406.38h-9.27l4.64-14.26z" fill="#3a414a"/><path d="M1240.32 406.88h-10.64l5.32-16.38zm-9.27-1h7.9l-3.95-12.14z" stroke="#3a414a" stroke-width=".05" fill="#3a414a"/><path d="M1369.5 532.4l.02.5h-.53v-1h.53z" fill="#3a414a"/><path d="M1369.52 532.4l.02.52h-.58v-1.04h.6zm-.5-.48v.96h.47l-.03-.5.03-.46z" stroke="#3a414a" stroke-width=".05" fill="#3a414a"/><use xlink:href="#p" transform="matrix(1,0,0,1,1193.5925925925926,494.44328145178014) translate(0 14.222222222222223)"/><path d="M1751.75 472.25c0 6.76-5.48 12.25-12.25 12.25s-12.25-5.5-12.25-12.25c0-6.76 5.48-12.25 12.25-12.25s12.25 5.5 12.25 12.25z" stroke="#3a414a" fill="#fff"/><path d="M1739.5 484.5v28.3a14.28 14.28 0 0 0 4.3 10.2l35.7 35m-40-39.2l-40 39.2m0-61.25h80" stroke="#3a414a" fill="none"/><path d="M1699.5 466a6 6 0 0 1 6-6h68a6 6 0 0 1 6 6v108a6 6 0 0 1-6 6h-68a6 6 0 0 1-6-6z" fill="none"/><use xlink:href="#M" transform="matrix(1,0,0,1,1619.4996888907363,558) translate(54.72222222222223 17.77777777777778)"/><path d="M1738.5 508.98h-92.75a6 6 0 0 1-6-6V211a6 6 0 0 0-6-6H1541M1738.5 508.98h3.5" stroke="#3a414a" fill="none"/><path d="M1541 205.5h-.53l.03-.5-.02-.5h.53z" stroke="#3a414a" stroke-width=".05" fill="#3a414a"/><path d="M1738.5 508.98h-92.75a6 6 0 0 1-6-6V366a6 6 0 0 0-6-6H1541M1738.5 508.98h3.5" stroke="#3a414a" fill="none"/><path d="M1541 360.5h-.53l.03-.5-.02-.5h.53z" stroke="#3a414a" stroke-width=".05" fill="#3a414a"/><path d="M1738.5 508.98h-97.75a6 6 0 0 0-6 6v11.42a6 6 0 0 1-6 6H1531M1738.5 508.98h3.5" stroke="#3a414a" fill="none"/><path d="M1531 532.9h-.53l.03-.5-.02-.5h.53zM1476.12 800.5h-379.24v-1h379.24zm263.88-6.48l-.08 1-.24 1-.4.93-.52.87-.66.78-.78.66-.87.53-.94.38-.98.24-1 .08h-169.64v-1h169.6l.88-.07.84-.2.8-.33.73-.45.66-.56.55-.67.45-.73.33-.8.2-.84.07-.88V580.5h1z" stroke="#3a414a" stroke-width=".05" fill="#3a414a"/><path d="M1096.38 804.63l-14.26-4.63 14.26-4.63z" fill="#3a414a"/><path d="M1096.88 805.32L1080.5 800l16.38-5.32zm-13.14-5.32l12.14 3.95v-7.9z" stroke="#3a414a" stroke-width=".05" fill="#3a414a"/><path d="M1740 580.5h-1V577h1z" fill="#3a414a"/><path d="M1740.03 580.54h-1.06v-3.56h1.06zm-1-3.5v3.45h.94V577z" stroke="#3a414a" stroke-width=".05" fill="#3a414a"/><g><use xlink:href="#h" transform="matrix(1,0,0,1,1476.1234567901236,789.3333333333334) translate(0 14.222222222222223)"/></g><path d="M139.3 793.98l.07.88.2.84.33.8.45.73.56.66.67.55.73.45.8.33.84.2.88.07h131.42v1H144.78l-1-.08-1-.24-.93-.4-.87-.52-.78-.66-.66-.78-.53-.87-.38-.94-.24-.98-.08-1V552.9h1zm763.82 5.52v1H364v-1zM139.3 552.9h-1v-.5h1z" stroke="#3a414a" stroke-width=".05" fill="#3a414a"/><path d="M917.88 800l-14.26 4.63v-9.26z" fill="#3a414a"/><path d="M919.5 800l-16.38 5.32v-10.64zm-15.38 3.95l12.14-3.95-12.14-3.95z" stroke="#3a414a" stroke-width=".05" fill="#3a414a"/><g><use xlink:href="#h" transform="matrix(1,0,0,1,276.2389999983151,789.3333333333334) translate(0 14.222222222222223)"/></g><path d="M1159.03 361.3h-33.48l-.88.07-.84.2-.8.33-.73.45-.66.56-.56.67-.45.73-.33.8-.2.84-.07.88v226.66l.07.88.2.84.33.8.45.73.56.66.66.55.73.45.8.33.84.2.88.07h108.47l1 .08 1 .24.93.4.87.52.78.66.66.78.53.87.38.94.24.98.08 1v17.64h-1v-17.6l-.07-.88-.2-.84-.33-.8-.45-.73-.56-.66-.67-.55-.73-.45-.8-.33-.84-.2-.88-.07H1125.5l-1-.08-.98-.24-.94-.4-.87-.52-.77-.66-.66-.78-.54-.87-.38-.94-.24-.98-.07-1V366.78l.08-1 .25-1 .38-.93.54-.87.66-.78.78-.66.88-.53.94-.38 1-.24 1-.08h33.5z" stroke="#3a414a" stroke-width=".05" fill="#3a414a"/><path d="M1240 637.88l-4.63-14.26h9.27z" fill="#3a414a"/><path d="M1240 639.5l-5.32-16.38h10.64zm-3.95-15.38l3.95 12.14 3.95-12.14z" stroke="#3a414a" stroke-width=".05" fill="#3a414a"/><path d="M1159.55 361.3h-.53v-1h.5z" fill="#3a414a"/><path d="M1159.57 361.32h-.58v-1.05h.53zm-.53-1v.95h.48l-.03-.94z" stroke="#3a414a" stroke-width=".05" fill="#3a414a"/><defs><path fill="#3a414a" d="M764-137c215-118 232-634 88-861-52-83-127-162-248-162-247 0-296 255-296 519 0 222 74 401 204 495 73 53 173 53 252 9zm295-954c108 134 178 390 117 620C1115-240 973-70 755 5 628 49 478 35 371-23 179-126 55-328 55-612c0-306 150-515 359-623 138-71 341-75 475-1 67 36 123 86 170 145" id="N"/><path fill="#3a414a" d="M814-960c151 0 221 99 221 256v570c8 28 38 30 68 42 17 7 39 12 65 19V0H663v-73c48-13 82-24 102-33s30-19 30-28v-454c-3-102-4-195-105-190-125 7-188 76-270 139v505c0 10 11 20 34 31s56 21 99 30V0H48v-73c44-11 77-22 99-31s33-19 33-30c-1-205 6-414-2-617-2-64-63-55-130-67v-70c119-13 221-35 315-72l42 42 11 144c121-102 230-186 398-186" id="O"/><path fill="#3a414a" d="M63-1470c123-17 231-39 329-80l43 41v1375c9 30 42 35 75 46 18 6 41 10 68 15V0H53v-73c57-11 103-17 136-45 4-5 6-11 6-16v-1132c0-71-5-115-64-124-17-3-40-7-68-10v-70" id="P"/><path fill="#3a414a" d="M63-888c112-16 215-38 308-72h64v826c0 8 10 18 30 30s54 22 103 31V0H63v-73c45-9 79-20 100-31s32-21 32-30c-1-198 2-400-1-596-1-77-54-79-131-88v-70zm272-483c78 0 138 32 138 110 0 98-68 152-168 152-79 0-137-33-137-111 0-98 69-151 167-151" id="Q"/><path fill="#3a414a" d="M687-616c0-120-53-224-176-224-146 0-179 124-195 260h333c31-1 38-6 38-36zm233 421C797-79 706 34 480 30 277 26 159-94 98-249c-51-132-43-317 18-435 76-147 214-276 431-276 252 0 370 162 379 410-35 35-91 61-140 82H313c10 180 71 330 251 330 142 0 208-61 304-121 21 14 39 43 52 64" id="R"/><g id="a"><use transform="matrix(0.014105902777777776,0,0,0.014105902777777776,0,0)" xlink:href="#N"/><use transform="matrix(0.014105902777777776,0,0,0.014105902777777776,17.970920138888886,0)" xlink:href="#O"/><use transform="matrix(0.014105902777777776,0,0,0.014105902777777776,34.75694444444444,0)" xlink:href="#P"/><use transform="matrix(0.014105902777777776,0,0,0.014105902777777776,43.43207465277777,0)" xlink:href="#Q"/><use transform="matrix(0.014105902777777776,0,0,0.014105902777777776,52.1072048611111,0)" xlink:href="#O"/><use transform="matrix(0.014105902777777776,0,0,0.014105902777777776,68.89322916666666,0)" xlink:href="#R"/></g><path fill="#3a414a" d="M1018-1020c-3 161-94 257-228 297 153 26 262 111 314 237 37 89 33 204-10 284C1014-55 841 14 612 14 418 14 240 0 43 0v-73c45-9 80-20 103-31s34-21 34-30v-1031c-47 5-95 12-137 19l-13-84c290-64 798-126 954 97 22 33 34 71 34 113zM867-337c0-192-103-300-302-302-57 0-90 6-135 13v499c0 5 2 9 5 13 38 16 86 21 140 21 178 3 292-80 292-244zM765-971c2-183-146-218-335-212v443c197 2 333-46 335-231" id="S"/><path fill="#3a414a" d="M319-259c0 68 31 114 93 114 98 0 147-56 211-105v-221c-153 26-304 50-304 212zm584 99c38 0 59-16 91-27l22 75C927-56 834 9 717 30c-65-8-88-81-93-159C538-47 445 30 293 30 154 30 65-56 65-201c0-127 64-194 141-247 107-73 248-95 417-121v-118c9-110-74-169-178-134-46 15-82 54-78 119-52 44-150 61-229 78-15 2-26 3-31 2l-21-54c84-172 266-284 511-284 166 0 266 79 266 240v482c0 44 7 78 40 78" id="T"/><path fill="#3a414a" d="M1137-33c-109 17-285 88-359-10L420-517v383c3 28 26 30 51 41 14 6 34 12 59 20V0H48v-73c44-11 77-21 99-30s33-19 33-31v-1132c0-72-3-116-63-125-17-3-40-6-69-9v-70c124-19 232-37 328-80l44 41v975l263-235c22-20 37-35 43-47 22-42-32-40-71-41v-73h447v73c-71 9-125 31-175 69L623-558l361 409c28 39 78 50 147 43" id="U"/><path fill="#3a414a" d="M522-415c101 0 146-78 146-185 0-142-66-245-207-245-97 0-146 80-146 186 0 144 63 244 207 244zm53 765c133-2 230-54 230-178 0-69-58-86-121-106-79-25-213-31-297-54-63 50-124 78-132 171 13 95 103 130 193 153 39 10 82 14 127 14zM854-792c51 72 59 207 10 292-71 123-201 204-391 205-35 33-49 49-59 84 3 21 11 28 34 35 189 59 495 33 572 193 50 103-10 216-63 273-120 128-305 228-561 196-155-20-294-66-359-177-38-65-21-150 27-193 58-53 118-95 202-141-87-42-137-66-104-127 37-68 103-114 172-162C198-355 85-434 85-602c0-179 131-276 271-330 132-52 312-27 404 42 96-10 198-45 269-70l28 37c-14 41-34 82-57 115-48 8-91 13-146 16" id="V"/><g id="b"><use transform="matrix(0.014105902777777776,0,0,0.014105902777777776,0,0)" xlink:href="#S"/><use transform="matrix(0.014105902777777776,0,0,0.014105902777777776,17.364366319444443,0)" xlink:href="#T"/><use transform="matrix(0.014105902777777776,0,0,0.014105902777777776,31.794704861111107,0)" xlink:href="#O"/><use transform="matrix(0.014105902777777776,0,0,0.014105902777777776,48.58072916666666,0)" xlink:href="#U"/><use transform="matrix(0.014105902777777776,0,0,0.014105902777777776,64.50629340277777,0)" xlink:href="#Q"/><use transform="matrix(0.014105902777777776,0,0,0.014105902777777776,73.1814236111111,0)" xlink:href="#O"/><use transform="matrix(0.014105902777777776,0,0,0.014105902777777776,89.96744791666666,0)" xlink:href="#V"/></g><path fill="#3a414a" d="M835-895c0-223-165-306-405-287v1048c11 29 46 34 83 44 22 6 50 11 85 17V0H43v-73c45-9 80-20 103-31s34-21 34-30v-1024c-47 6-93 13-137 20l-13-92c266-56 702-113 915 31 82 54 142 136 142 263 0 233-144 351-331 404-86 24-194 10-261-18l-31-105c48 22 79 30 139 30 154 0 232-108 232-270" id="W"/><path fill="#3a414a" d="M480-153c90 0 143-40 212-75l44 73C647-91 572-44 511-14S401 30 366 30C216 30 155-87 155-244v-561H34L5-841l78-89h72v-209l202-149 38 33v325h305l36 36c-27 45-62 92-101 124-61-29-146-39-240-35v468c3 90 5 184 85 184" id="X"/><path fill="#3a414a" d="M711-894c-26 44-61 91-98 124-49-23-101-36-188-35v673c6 15 21 18 43 24 49 14 96 23 159 35V0H53v-73c46-8 80-17 101-29s31-22 31-30v-673H66l-28-36 78-89h69c-10-311 117-483 323-587 113-57 285-18 362 38 42 31 5 63-13 85-35 43-83 82-131 111-48-60-94-101-170-112-90 11-103 95-120 190-12 65-12 183-11 275h249" id="Y"/><path fill="#3a414a" d="M547-95c182-3 211-159 211-345 0-159-46-293-136-363-28-21-59-32-93-32-183 0-211 174-211 362 0 156 53 282 142 349 28 20 56 29 87 29zm197-829c193 78 317 304 248 570C945-174 822-46 648 10 468 68 279-10 189-105 84-216 25-453 102-636c75-177 215-324 456-324 68 0 130 13 186 36" id="Z"/><path fill="#3a414a" d="M418-773c69-91 151-187 299-187 60 0 116 20 158 44 4 3 6 12 6 26 0 113-38 223-71 311h-73c-7-74-23-146-67-181-43-34-105-7-137 22-48 43-80 95-113 167v437c0 10 14 20 42 31s72 21 135 30V0H48v-73c88-20 132-40 132-61-1-195-2-395-2-586 0-82-49-99-130-98v-70c121-16 215-37 315-72l42 42" id="aa"/><path fill="#3a414a" d="M1328-960c158 0 237 93 237 256v570c0 9 10 19 31 28s57 20 110 33V0h-497v-73c47-13 83-21 111-47 3-4 5-9 5-14v-469c-3-102-2-192-105-185-95 7-161 63-227 125v529c7 28 33 31 62 42 16 6 38 12 64 19V0H636v-73c47-13 85-21 112-47 3-4 5-9 5-14v-469c-3-100 4-193-98-185s-158 61-235 125v529c0 10 10 20 30 31s52 21 95 30V0H48v-73c44-11 77-22 99-31s33-19 33-30c-1-205 9-417-2-618-3-61-66-54-130-66v-70c120-13 219-36 315-72l42 42 11 124c100-81 183-166 347-166 125 0 197 59 215 166 101-81 185-166 350-166" id="ab"/><g id="c"><use transform="matrix(0.014105902777777776,0,0,0.014105902777777776,0,0)" xlink:href="#W"/><use transform="matrix(0.014105902777777776,0,0,0.014105902777777776,16.376953124999996,0)" xlink:href="#P"/><use transform="matrix(0.014105902777777776,0,0,0.014105902777777776,25.05208333333333,0)" xlink:href="#T"/><use transform="matrix(0.014105902777777776,0,0,0.014105902777777776,39.48242187499999,0)" xlink:href="#X"/><use transform="matrix(0.014105902777777776,0,0,0.014105902777777776,50.17469618055554,0)" xlink:href="#Y"/><use transform="matrix(0.014105902777777776,0,0,0.014105902777777776,59.99240451388887,0)" xlink:href="#Z"/><use transform="matrix(0.014105902777777776,0,0,0.014105902777777776,75.15624999999999,0)" xlink:href="#aa"/><use transform="matrix(0.014105902777777776,0,0,0.014105902777777776,87.97851562499999,0)" xlink:href="#ab"/></g><path fill="#3a414a" d="M232-93c-1 65-40 97-104 97C67 4 28-28 28-90v-158h33c8 89-33 224 67 224 102 0 64-133 71-224h33v155" id="ac"/><path fill="#3a414a" d="M135-143c-3-34-86-38-87 0 15 53 115 12 119 90S17 21 10-45l28-5c4 36 97 45 98 0-10-56-113-15-118-90-4-57 82-63 122-42 12 7 21 19 24 35" id="ad"/><path fill="#3a414a" d="M100-194c63 0 86 42 84 106H49c0 40 14 67 53 68 26 1 43-12 49-29l28 8c-11 28-37 45-77 45C44 4 14-33 15-96c1-61 26-98 85-98zm52 81c6-60-76-77-97-28-3 7-6 17-6 28h103" id="ae"/><path fill="#3a414a" d="M114-163C36-179 61-72 57 0H25l-1-190h30c1 12-1 29 2 39 6-27 23-49 58-41v29" id="af"/><g id="d"><use transform="matrix(0.06172839506172839,0,0,0.06172839506172839,0,0)" xlink:href="#ac"/><use transform="matrix(0.06172839506172839,0,0,0.06172839506172839,15.987654320987653,0)" xlink:href="#ad"/><use transform="matrix(0.06172839506172839,0,0,0.06172839506172839,27.098765432098766,0)" xlink:href="#ae"/><use transform="matrix(0.06172839506172839,0,0,0.06172839506172839,39.44444444444444,0)" xlink:href="#af"/></g><path fill="#3a414a" d="M212-179c-10-28-35-45-73-45-59 0-87 40-87 99 0 60 29 101 89 101 43 0 62-24 78-52l27 14C228-24 195 4 139 4 59 4 22-46 18-125c-6-104 99-153 187-111 19 9 31 26 39 46" id="ag"/><path fill="#3a414a" d="M141-36C126-15 110 5 73 4 37 3 15-17 15-53c-1-64 63-63 125-63 3-35-9-54-41-54-24 1-41 7-42 31l-33-3c5-37 33-52 76-52 45 0 72 20 72 64v82c-1 20 7 32 28 27v20c-31 9-61-2-59-35zM48-53c0 20 12 33 32 33 41-3 63-29 60-74-43 2-92-5-92 41" id="ah"/><path fill="#3a414a" d="M59-47c-2 24 18 29 38 22v24C64 9 27 4 27-40v-127H5v-23h24l9-43h21v43h35v23H59v120" id="ai"/><g id="e"><use transform="matrix(0.06172839506172839,0,0,0.06172839506172839,0,0)" xlink:href="#ag"/><use transform="matrix(0.06172839506172839,0,0,0.06172839506172839,15.987654320987653,0)" xlink:href="#af"/><use transform="matrix(0.06172839506172839,0,0,0.06172839506172839,23.333333333333332,0)" xlink:href="#ae"/><use transform="matrix(0.06172839506172839,0,0,0.06172839506172839,35.67901234567901,0)" xlink:href="#ah"/><use transform="matrix(0.06172839506172839,0,0,0.06172839506172839,48.02469135802469,0)" xlink:href="#ai"/><use transform="matrix(0.06172839506172839,0,0,0.06172839506172839,54.19753086419753,0)" xlink:href="#ae"/></g><path fill="#3a414a" d="M96-169c-40 0-48 33-48 73s9 75 48 75c24 0 41-14 43-38l32 2c-6 37-31 61-74 61-59 0-76-41-82-99-10-93 101-131 147-64 4 7 5 14 7 22l-32 3c-4-21-16-35-41-35" id="aj"/><path fill="#3a414a" d="M100-194c62-1 85 37 85 99 1 63-27 99-86 99S16-35 15-95c0-66 28-99 85-99zM99-20c44 1 53-31 53-75 0-43-8-75-51-75s-53 32-53 75 10 74 51 75" id="ak"/><path fill="#3a414a" d="M84 4C-5 8 30-112 23-190h32v120c0 31 7 50 39 49 72-2 45-101 50-169h31l1 190h-30c-1-10 1-25-2-33-11 22-28 36-60 37" id="al"/><path fill="#3a414a" d="M117-194c89-4 53 116 60 194h-32v-121c0-31-8-49-39-48C34-167 62-67 57 0H25l-1-190h30c1 10-1 24 2 32 11-22 29-35 61-36" id="am"/><g id="f"><use transform="matrix(0.06172839506172839,0,0,0.06172839506172839,0,0)" xlink:href="#ah"/><use transform="matrix(0.06172839506172839,0,0,0.06172839506172839,12.345679012345679,0)" xlink:href="#aj"/><use transform="matrix(0.06172839506172839,0,0,0.06172839506172839,23.45679012345679,0)" xlink:href="#aj"/><use transform="matrix(0.06172839506172839,0,0,0.06172839506172839,34.5679012345679,0)" xlink:href="#ak"/><use transform="matrix(0.06172839506172839,0,0,0.06172839506172839,46.913580246913575,0)" xlink:href="#al"/><use transform="matrix(0.06172839506172839,0,0,0.06172839506172839,59.25925925925925,0)" xlink:href="#am"/><use transform="matrix(0.06172839506172839,0,0,0.06172839506172839,71.60493827160494,0)" xlink:href="#ai"/></g><path fill="#3a414a" d="M30 0v-248h33v221h125V0H30" id="an"/><path fill="#3a414a" d="M177-190C167-65 218 103 67 71c-23-6-38-20-44-43l32-5c15 47 100 32 89-28v-30C133-14 115 1 83 1 29 1 15-40 15-95c0-56 16-97 71-98 29-1 48 16 59 35 1-10 0-23 2-32h30zM94-22c36 0 50-32 50-73 0-42-14-75-50-75-39 0-46 34-46 75s6 73 46 73" id="ao"/><path fill="#3a414a" d="M24-231v-30h32v30H24zM24 0v-190h32V0H24" id="ap"/><g id="g"><use transform="matrix(0.06172839506172839,0,0,0.06172839506172839,0,0)" xlink:href="#an"/><use transform="matrix(0.06172839506172839,0,0,0.06172839506172839,12.345679012345679,0)" xlink:href="#ak"/><use transform="matrix(0.06172839506172839,0,0,0.06172839506172839,24.691358024691358,0)" xlink:href="#ao"/><use transform="matrix(0.06172839506172839,0,0,0.06172839506172839,37.03703703703704,0)" xlink:href="#ap"/><use transform="matrix(0.06172839506172839,0,0,0.06172839506172839,41.91358024691358,0)" xlink:href="#am"/></g><path fill="#333" d="M15-91v-56l181-69v40L49-119l147 57v40" id="aq"/><path fill="#333" d="M185-48c-13 30-37 53-82 52C43 2 14-33 14-96s30-98 90-98c62 0 83 45 84 108H66c0 31 8 55 39 56 18 0 30-7 34-22zm-45-69c5-46-57-63-70-21-2 6-4 13-4 21h74" id="ar"/><path fill="#333" d="M144 0l-44-69L55 0H2l70-98-66-92h53l41 62 40-62h54l-67 91 71 99h-54" id="as"/><path fill="#333" d="M115-3C79 11 28 4 28-45v-112H4v-33h27l15-45h31v45h36v33H77v99c-1 23 16 31 38 25v30" id="at"/><path fill="#333" d="M135-194c87-1 58 113 63 194h-50c-7-57 23-157-34-157-59 0-34 97-39 157H25l-1-190h47c2 12-1 28 3 38 12-26 28-41 61-42" id="au"/><path fill="#333" d="M88-194c31-1 46 15 58 34l-1-101h50l1 261h-48c-2-10 0-23-3-31C134-8 116 4 84 4 32 4 16-41 15-95c0-56 19-97 73-99zm17 164c33 0 40-30 41-66 1-37-9-64-41-64s-38 30-39 65c0 43 13 65 39 65" id="av"/><path fill="#333" d="M137-138c1-29-70-34-71-4 15 46 118 7 119 86 1 83-164 76-172 9l43-7c4 19 20 25 44 25 33 8 57-30 24-41C81-84 22-81 20-136c-2-80 154-74 161-7" id="aw"/><path fill="#333" d="M15-22v-40l146-57-146-57v-40l181 69v56" id="ax"/><g id="h"><use transform="matrix(0.04938271604938272,0,0,0.04938271604938272,0,0)" xlink:href="#aq"/><use transform="matrix(0.04938271604938272,0,0,0.04938271604938272,10.370370370370372,0)" xlink:href="#ar"/><use transform="matrix(0.04938271604938272,0,0,0.04938271604938272,20.24691358024692,0)" xlink:href="#as"/><use transform="matrix(0.04938271604938272,0,0,0.04938271604938272,30.123456790123466,0)" xlink:href="#at"/><use transform="matrix(0.04938271604938272,0,0,0.04938271604938272,36.00000000000001,0)" xlink:href="#ar"/><use transform="matrix(0.04938271604938272,0,0,0.04938271604938272,45.87654320987655,0)" xlink:href="#au"/><use transform="matrix(0.04938271604938272,0,0,0.04938271604938272,56.69135802469136,0)" xlink:href="#av"/><use transform="matrix(0.04938271604938272,0,0,0.04938271604938272,67.50617283950618,0)" xlink:href="#aw"/><use transform="matrix(0.04938271604938272,0,0,0.04938271604938272,77.38271604938272,0)" xlink:href="#ax"/></g><path fill="#3a414a" d="M30 0v-248h187v28H63v79h144v27H63v87h162V0H30" id="ay"/><g id="i"><use transform="matrix(0.06172839506172839,0,0,0.06172839506172839,0,0)" xlink:href="#ay"/><use transform="matrix(0.06172839506172839,0,0,0.06172839506172839,14.814814814814813,0)" xlink:href="#am"/><use transform="matrix(0.06172839506172839,0,0,0.06172839506172839,27.160493827160494,0)" xlink:href="#ai"/><use transform="matrix(0.06172839506172839,0,0,0.06172839506172839,33.333333333333336,0)" xlink:href="#ae"/><use transform="matrix(0.06172839506172839,0,0,0.06172839506172839,45.67901234567901,0)" xlink:href="#af"/></g><path fill="#3a414a" d="M210-169c-67 3-38 105-44 169h-31v-121c0-29-5-50-35-48C34-165 62-65 56 0H25l-1-190h30c1 10-1 24 2 32 10-44 99-50 107 0 11-21 27-35 58-36 85-2 47 119 55 194h-31v-121c0-29-5-49-35-48" id="az"/><g id="j"><use transform="matrix(0.06172839506172839,0,0,0.06172839506172839,0,0)" xlink:href="#al"/><use transform="matrix(0.06172839506172839,0,0,0.06172839506172839,12.345679012345679,0)" xlink:href="#ad"/><use transform="matrix(0.06172839506172839,0,0,0.06172839506172839,23.45679012345679,0)" xlink:href="#ae"/><use transform="matrix(0.06172839506172839,0,0,0.06172839506172839,35.80246913580247,0)" xlink:href="#af"/><use transform="matrix(0.06172839506172839,0,0,0.06172839506172839,43.148148148148145,0)" xlink:href="#am"/><use transform="matrix(0.06172839506172839,0,0,0.06172839506172839,55.49382716049382,0)" xlink:href="#ah"/><use transform="matrix(0.06172839506172839,0,0,0.06172839506172839,67.8395061728395,0)" xlink:href="#az"/><use transform="matrix(0.06172839506172839,0,0,0.06172839506172839,86.29629629629629,0)" xlink:href="#ae"/></g><path fill="#3a414a" d="M115-194c55 1 70 41 70 98S169 2 115 4C84 4 66-9 55-30l1 105H24l-1-265h31l2 30c10-21 28-34 59-34zm-8 174c40 0 45-34 45-75s-6-73-45-74c-42 0-51 32-51 76 0 43 10 73 51 73" id="aA"/><path fill="#3a414a" d="M206 0h-36l-40-164L89 0H53L-1-190h32L70-26l43-164h34l41 164 42-164h31" id="aB"/><path fill="#3a414a" d="M85-194c31 0 48 13 60 33l-1-100h32l1 261h-30c-2-10 0-23-3-31C134-8 116 4 85 4 32 4 16-35 15-94c0-66 23-100 70-100zm9 24c-40 0-46 34-46 75 0 40 6 74 45 74 42 0 51-32 51-76 0-42-9-74-50-73" id="aC"/><g id="k"><use transform="matrix(0.06172839506172839,0,0,0.06172839506172839,0,0)" xlink:href="#aA"/><use transform="matrix(0.06172839506172839,0,0,0.06172839506172839,12.345679012345679,0)" xlink:href="#ah"/><use transform="matrix(0.06172839506172839,0,0,0.06172839506172839,24.691358024691358,0)" xlink:href="#ad"/><use transform="matrix(0.06172839506172839,0,0,0.06172839506172839,35.80246913580247,0)" xlink:href="#ad"/><use transform="matrix(0.06172839506172839,0,0,0.06172839506172839,46.91358024691358,0)" xlink:href="#aB"/><use transform="matrix(0.06172839506172839,0,0,0.06172839506172839,62.901234567901234,0)" xlink:href="#ak"/><use transform="matrix(0.06172839506172839,0,0,0.06172839506172839,75.24691358024691,0)" xlink:href="#af"/><use transform="matrix(0.06172839506172839,0,0,0.06172839506172839,82.5925925925926,0)" xlink:href="#aC"/></g><g id="l"><use transform="matrix(0.06172839506172839,0,0,0.06172839506172839,0,0)" xlink:href="#ay"/><use transform="matrix(0.06172839506172839,0,0,0.06172839506172839,14.814814814814813,0)" xlink:href="#am"/><use transform="matrix(0.06172839506172839,0,0,0.06172839506172839,27.160493827160494,0)" xlink:href="#ai"/><use transform="matrix(0.06172839506172839,0,0,0.06172839506172839,33.333333333333336,0)" xlink:href="#ae"/><use transform="matrix(0.06172839506172839,0,0,0.06172839506172839,45.67901234567901,0)" xlink:href="#af"/></g><path fill="#3a414a" d="M24 0v-261h32V0H24" id="aD"/><g id="m"><use transform="matrix(0.06172839506172839,0,0,0.06172839506172839,0,0)" xlink:href="#ae"/><use transform="matrix(0.06172839506172839,0,0,0.06172839506172839,12.345679012345679,0)" xlink:href="#az"/><use transform="matrix(0.06172839506172839,0,0,0.06172839506172839,30.80246913580247,0)" xlink:href="#ah"/><use transform="matrix(0.06172839506172839,0,0,0.06172839506172839,43.148148148148145,0)" xlink:href="#ap"/><use transform="matrix(0.06172839506172839,0,0,0.06172839506172839,48.02469135802469,0)" xlink:href="#aD"/></g><path fill="#3a414a" d="M106-169C34-169 62-67 57 0H25v-261h32l-1 103c12-21 28-36 61-36 89 0 53 116 60 194h-32v-121c2-32-8-49-39-48" id="aE"/><g id="n"><use transform="matrix(0.06172839506172839,0,0,0.06172839506172839,0,0)" xlink:href="#aA"/><use transform="matrix(0.06172839506172839,0,0,0.06172839506172839,12.345679012345679,0)" xlink:href="#aE"/><use transform="matrix(0.06172839506172839,0,0,0.06172839506172839,24.691358024691358,0)" xlink:href="#ak"/><use transform="matrix(0.06172839506172839,0,0,0.06172839506172839,37.03703703703704,0)" xlink:href="#am"/><use transform="matrix(0.06172839506172839,0,0,0.06172839506172839,49.382716049382715,0)" xlink:href="#ae"/></g><path fill="#3a414a" d="M115-194c53 0 69 39 70 98 0 66-23 100-70 100C84 3 66-7 56-30L54 0H23l1-261h32v101c10-23 28-34 59-34zm-8 174c40 0 45-34 45-75 0-40-5-75-45-74-42 0-51 32-51 76 0 43 10 73 51 73" id="aF"/><g id="o"><use transform="matrix(0.06172839506172839,0,0,0.06172839506172839,0,0)" xlink:href="#am"/><use transform="matrix(0.06172839506172839,0,0,0.06172839506172839,12.345679012345679,0)" xlink:href="#al"/><use transform="matrix(0.06172839506172839,0,0,0.06172839506172839,24.691358024691358,0)" xlink:href="#az"/><use transform="matrix(0.06172839506172839,0,0,0.06172839506172839,43.148148148148145,0)" xlink:href="#aF"/><use transform="matrix(0.06172839506172839,0,0,0.06172839506172839,55.49382716049382,0)" xlink:href="#ae"/><use transform="matrix(0.06172839506172839,0,0,0.06172839506172839,67.8395061728395,0)" xlink:href="#af"/></g><path fill="#333" d="M25-224v-37h50v37H25zM25 0v-190h50V0H25" id="aG"/><path fill="#333" d="M190-63c-7 42-38 67-86 67-59 0-84-38-90-98-12-110 154-137 174-36l-49 2c-2-19-15-32-35-32-30 0-35 28-38 64-6 74 65 87 74 30" id="aH"/><path fill="#333" d="M25 0v-261h50V0H25" id="aI"/><path fill="#333" d="M85 4C-2 5 27-109 22-190h50c7 57-23 150 33 157 60-5 35-97 40-157h50l1 190h-47c-2-12 1-28-3-38-12 25-28 42-61 42" id="aJ"/><g id="p"><use transform="matrix(0.04938271604938272,0,0,0.04938271604938272,0,0)" xlink:href="#aq"/><use transform="matrix(0.04938271604938272,0,0,0.04938271604938272,10.370370370370372,0)" xlink:href="#aG"/><use transform="matrix(0.04938271604938272,0,0,0.04938271604938272,15.308641975308642,0)" xlink:href="#au"/><use transform="matrix(0.04938271604938272,0,0,0.04938271604938272,26.12345679012346,0)" xlink:href="#aH"/><use transform="matrix(0.04938271604938272,0,0,0.04938271604938272,36,0)" xlink:href="#aI"/><use transform="matrix(0.04938271604938272,0,0,0.04938271604938272,40.93827160493827,0)" xlink:href="#aJ"/><use transform="matrix(0.04938271604938272,0,0,0.04938271604938272,51.75308641975309,0)" xlink:href="#av"/><use transform="matrix(0.04938271604938272,0,0,0.04938271604938272,62.567901234567906,0)" xlink:href="#ar"/><use transform="matrix(0.04938271604938272,0,0,0.04938271604938272,72.44444444444446,0)" xlink:href="#ax"/></g><path fill="#3a414a" d="M30-248c118-7 216 8 213 122C240-48 200 0 122 0H30v-248zM63-27c89 8 146-16 146-99s-60-101-146-95v194" id="aK"/><g id="q"><use transform="matrix(0.06172839506172839,0,0,0.06172839506172839,0,0)" xlink:href="#aK"/><use transform="matrix(0.06172839506172839,0,0,0.06172839506172839,15.987654320987653,0)" xlink:href="#ak"/><use transform="matrix(0.06172839506172839,0,0,0.06172839506172839,28.333333333333332,0)" xlink:href="#al"/><use transform="matrix(0.06172839506172839,0,0,0.06172839506172839,40.67901234567901,0)" xlink:href="#aF"/><use transform="matrix(0.06172839506172839,0,0,0.06172839506172839,53.02469135802469,0)" xlink:href="#aD"/><use transform="matrix(0.06172839506172839,0,0,0.06172839506172839,57.901234567901234,0)" xlink:href="#ae"/></g><path fill="#3a414a" d="M101-234c-31-9-42 10-38 44h38v23H63V0H32v-167H5v-23h27c-7-52 17-82 69-68v24" id="aL"/><g id="r"><use transform="matrix(0.06172839506172839,0,0,0.06172839506172839,0,0)" xlink:href="#aL"/><use transform="matrix(0.06172839506172839,0,0,0.06172839506172839,6.172839506172839,0)" xlink:href="#ah"/><use transform="matrix(0.06172839506172839,0,0,0.06172839506172839,18.51851851851852,0)" xlink:href="#aj"/><use transform="matrix(0.06172839506172839,0,0,0.06172839506172839,29.62962962962963,0)" xlink:href="#ai"/><use transform="matrix(0.06172839506172839,0,0,0.06172839506172839,35.80246913580247,0)" xlink:href="#ak"/><use transform="matrix(0.06172839506172839,0,0,0.06172839506172839,48.148148148148145,0)" xlink:href="#af"/></g><g id="s"><use transform="matrix(0.06172839506172839,0,0,0.06172839506172839,0,0)" xlink:href="#ah"/><use transform="matrix(0.06172839506172839,0,0,0.06172839506172839,12.345679012345679,0)" xlink:href="#al"/><use transform="matrix(0.06172839506172839,0,0,0.06172839506172839,24.691358024691358,0)" xlink:href="#ai"/><use transform="matrix(0.06172839506172839,0,0,0.06172839506172839,30.864197530864196,0)" xlink:href="#aE"/><use transform="matrix(0.06172839506172839,0,0,0.06172839506172839,43.20987654320987,0)" xlink:href="#ae"/><use transform="matrix(0.06172839506172839,0,0,0.06172839506172839,55.55555555555555,0)" xlink:href="#am"/><use transform="matrix(0.06172839506172839,0,0,0.06172839506172839,67.90123456790123,0)" xlink:href="#ai"/><use transform="matrix(0.06172839506172839,0,0,0.06172839506172839,74.07407407407406,0)" xlink:href="#ap"/><use transform="matrix(0.06172839506172839,0,0,0.06172839506172839,78.9506172839506,0)" xlink:href="#aj"/><use transform="matrix(0.06172839506172839,0,0,0.06172839506172839,90.06172839506172,0)" xlink:href="#ah"/><use transform="matrix(0.06172839506172839,0,0,0.06172839506172839,102.4074074074074,0)" xlink:href="#ai"/><use transform="matrix(0.06172839506172839,0,0,0.06172839506172839,108.58024691358024,0)" xlink:href="#ae"/></g><g id="t"><use transform="matrix(0.06172839506172839,0,0,0.06172839506172839,0,0)" xlink:href="#ag"/><use transform="matrix(0.06172839506172839,0,0,0.06172839506172839,15.987654320987653,0)" xlink:href="#af"/><use transform="matrix(0.06172839506172839,0,0,0.06172839506172839,23.333333333333332,0)" xlink:href="#ae"/><use transform="matrix(0.06172839506172839,0,0,0.06172839506172839,35.67901234567901,0)" xlink:href="#ah"/><use transform="matrix(0.06172839506172839,0,0,0.06172839506172839,48.02469135802469,0)" xlink:href="#ai"/><use transform="matrix(0.06172839506172839,0,0,0.06172839506172839,54.19753086419753,0)" xlink:href="#ae"/></g><path fill="#3a414a" d="M108 0H70L1-190h34L89-25l56-165h34" id="aM"/><g id="u"><use transform="matrix(0.06172839506172839,0,0,0.06172839506172839,0,0)" xlink:href="#ad"/><use transform="matrix(0.06172839506172839,0,0,0.06172839506172839,11.11111111111111,0)" xlink:href="#ah"/><use transform="matrix(0.06172839506172839,0,0,0.06172839506172839,23.45679012345679,0)" xlink:href="#aM"/><use transform="matrix(0.06172839506172839,0,0,0.06172839506172839,34.5679012345679,0)" xlink:href="#ap"/><use transform="matrix(0.06172839506172839,0,0,0.06172839506172839,39.44444444444444,0)" xlink:href="#am"/><use transform="matrix(0.06172839506172839,0,0,0.06172839506172839,51.79012345679012,0)" xlink:href="#ao"/><use transform="matrix(0.06172839506172839,0,0,0.06172839506172839,64.1358024691358,0)" xlink:href="#ad"/></g><path fill="#3a414a" d="M240 0l2-218c-23 76-54 145-80 218h-23L58-218 59 0H30v-248h44l77 211c21-75 51-140 76-211h43V0h-30" id="aN"/><path fill="#3a414a" d="M143 0L79-87 56-68V0H24v-261h32v163l83-92h37l-77 82L181 0h-38" id="aO"/><g id="v"><use transform="matrix(0.06172839506172839,0,0,0.06172839506172839,0,0)" xlink:href="#aN"/><use transform="matrix(0.06172839506172839,0,0,0.06172839506172839,18.456790123456788,0)" xlink:href="#ah"/><use transform="matrix(0.06172839506172839,0,0,0.06172839506172839,30.80246913580247,0)" xlink:href="#aO"/><use transform="matrix(0.06172839506172839,0,0,0.06172839506172839,41.91358024691358,0)" xlink:href="#ae"/></g><g id="w"><use transform="matrix(0.06172839506172839,0,0,0.06172839506172839,0,0)" xlink:href="#ai"/><use transform="matrix(0.06172839506172839,0,0,0.06172839506172839,6.172839506172839,0)" xlink:href="#af"/><use transform="matrix(0.06172839506172839,0,0,0.06172839506172839,13.518518518518519,0)" xlink:href="#ah"/><use transform="matrix(0.06172839506172839,0,0,0.06172839506172839,25.864197530864196,0)" xlink:href="#am"/><use transform="matrix(0.06172839506172839,0,0,0.06172839506172839,38.20987654320987,0)" xlink:href="#ad"/><use transform="matrix(0.06172839506172839,0,0,0.06172839506172839,49.32098765432099,0)" xlink:href="#ah"/><use transform="matrix(0.06172839506172839,0,0,0.06172839506172839,61.666666666666664,0)" xlink:href="#aj"/><use transform="matrix(0.06172839506172839,0,0,0.06172839506172839,72.77777777777777,0)" xlink:href="#ai"/><use transform="matrix(0.06172839506172839,0,0,0.06172839506172839,78.9506172839506,0)" xlink:href="#ap"/><use transform="matrix(0.06172839506172839,0,0,0.06172839506172839,83.82716049382715,0)" xlink:href="#ak"/><use transform="matrix(0.06172839506172839,0,0,0.06172839506172839,96.17283950617283,0)" xlink:href="#am"/><use transform="matrix(0.06172839506172839,0,0,0.06172839506172839,108.51851851851852,0)" xlink:href="#ad"/></g><path fill="#3a414a" d="M137 0h-34L2-248h35l83 218 83-218h36" id="aP"/><g id="x"><use transform="matrix(0.06172839506172839,0,0,0.06172839506172839,0,0)" xlink:href="#aP"/><use transform="matrix(0.06172839506172839,0,0,0.06172839506172839,14.382716049382715,0)" xlink:href="#ap"/><use transform="matrix(0.06172839506172839,0,0,0.06172839506172839,19.25925925925926,0)" xlink:href="#ae"/><use transform="matrix(0.06172839506172839,0,0,0.06172839506172839,31.604938271604937,0)" xlink:href="#aB"/></g><g id="y"><use transform="matrix(0.06172839506172839,0,0,0.06172839506172839,0,0)" xlink:href="#ah"/><use transform="matrix(0.06172839506172839,0,0,0.06172839506172839,12.345679012345679,0)" xlink:href="#aj"/><use transform="matrix(0.06172839506172839,0,0,0.06172839506172839,23.45679012345679,0)" xlink:href="#aj"/><use transform="matrix(0.06172839506172839,0,0,0.06172839506172839,34.5679012345679,0)" xlink:href="#ak"/><use transform="matrix(0.06172839506172839,0,0,0.06172839506172839,46.913580246913575,0)" xlink:href="#al"/><use transform="matrix(0.06172839506172839,0,0,0.06172839506172839,59.25925925925925,0)" xlink:href="#am"/><use transform="matrix(0.06172839506172839,0,0,0.06172839506172839,71.60493827160494,0)" xlink:href="#ai"/></g><g id="z"><use transform="matrix(0.06172839506172839,0,0,0.06172839506172839,0,0)" xlink:href="#ad"/><use transform="matrix(0.06172839506172839,0,0,0.06172839506172839,11.11111111111111,0)" xlink:href="#ai"/><use transform="matrix(0.06172839506172839,0,0,0.06172839506172839,17.28395061728395,0)" xlink:href="#ah"/><use transform="matrix(0.06172839506172839,0,0,0.06172839506172839,29.629629629629626,0)" xlink:href="#ai"/><use transform="matrix(0.06172839506172839,0,0,0.06172839506172839,35.80246913580247,0)" xlink:href="#ae"/><use transform="matrix(0.06172839506172839,0,0,0.06172839506172839,48.148148148148145,0)" xlink:href="#az"/><use transform="matrix(0.06172839506172839,0,0,0.06172839506172839,66.60493827160494,0)" xlink:href="#ae"/><use transform="matrix(0.06172839506172839,0,0,0.06172839506172839,78.95061728395062,0)" xlink:href="#am"/><use transform="matrix(0.06172839506172839,0,0,0.06172839506172839,91.2962962962963,0)" xlink:href="#ai"/></g><path fill="#3a414a" d="M30-248c87 1 191-15 191 75 0 78-77 80-158 76V0H30v-248zm33 125c57 0 124 11 124-50 0-59-68-47-124-48v98" id="aQ"/><path fill="#3a414a" d="M179-190L93 31C79 59 56 82 12 73V49c39 6 53-20 64-50L1-190h34L92-34l54-156h33" id="aR"/><g id="A"><use transform="matrix(0.06172839506172839,0,0,0.06172839506172839,0,0)" xlink:href="#aQ"/><use transform="matrix(0.06172839506172839,0,0,0.06172839506172839,14.814814814814813,0)" xlink:href="#ah"/><use transform="matrix(0.06172839506172839,0,0,0.06172839506172839,27.160493827160494,0)" xlink:href="#aR"/></g><g id="B"><use transform="matrix(0.06172839506172839,0,0,0.06172839506172839,0,0)" xlink:href="#ad"/><use transform="matrix(0.06172839506172839,0,0,0.06172839506172839,11.11111111111111,0)" xlink:href="#ae"/><use transform="matrix(0.06172839506172839,0,0,0.06172839506172839,23.45679012345679,0)" xlink:href="#af"/><use transform="matrix(0.06172839506172839,0,0,0.06172839506172839,30.80246913580247,0)" xlink:href="#aM"/><use transform="matrix(0.06172839506172839,0,0,0.06172839506172839,41.91358024691358,0)" xlink:href="#ap"/><use transform="matrix(0.06172839506172839,0,0,0.06172839506172839,46.79012345679013,0)" xlink:href="#aj"/><use transform="matrix(0.06172839506172839,0,0,0.06172839506172839,57.90123456790124,0)" xlink:href="#ae"/><use transform="matrix(0.06172839506172839,0,0,0.06172839506172839,70.24691358024693,0)" xlink:href="#ad"/></g><g id="C"><use transform="matrix(0.06172839506172839,0,0,0.06172839506172839,0,0)" xlink:href="#ac"/><use transform="matrix(0.06172839506172839,0,0,0.06172839506172839,15.987654320987653,0)" xlink:href="#ad"/><use transform="matrix(0.06172839506172839,0,0,0.06172839506172839,27.098765432098766,0)" xlink:href="#ae"/><use transform="matrix(0.06172839506172839,0,0,0.06172839506172839,39.44444444444444,0)" xlink:href="#af"/></g><g id="D"><use transform="matrix(0.06172839506172839,0,0,0.06172839506172839,0,0)" xlink:href="#ak"/><use transform="matrix(0.06172839506172839,0,0,0.06172839506172839,12.345679012345679,0)" xlink:href="#aA"/></g><path fill="#3a414a" d="M205 0l-28-72H64L36 0H1l101-248h38L239 0h-34zm-38-99l-47-123c-12 45-31 82-46 123h93" id="aS"/><g id="E"><use transform="matrix(0.06172839506172839,0,0,0.06172839506172839,0,0)" xlink:href="#aS"/><use transform="matrix(0.06172839506172839,0,0,0.06172839506172839,14.814814814814813,0)" xlink:href="#aC"/><use transform="matrix(0.06172839506172839,0,0,0.06172839506172839,27.160493827160494,0)" xlink:href="#az"/><use transform="matrix(0.06172839506172839,0,0,0.06172839506172839,45.61728395061728,0)" xlink:href="#ap"/><use transform="matrix(0.06172839506172839,0,0,0.06172839506172839,50.49382716049382,0)" xlink:href="#am"/><use transform="matrix(0.06172839506172839,0,0,0.06172839506172839,62.8395061728395,0)" xlink:href="#ap"/><use transform="matrix(0.06172839506172839,0,0,0.06172839506172839,67.71604938271604,0)" xlink:href="#ad"/><use transform="matrix(0.06172839506172839,0,0,0.06172839506172839,78.82716049382715,0)" xlink:href="#ai"/><use transform="matrix(0.06172839506172839,0,0,0.06172839506172839,84.99999999999999,0)" xlink:href="#ah"/><use transform="matrix(0.06172839506172839,0,0,0.06172839506172839,97.34567901234567,0)" xlink:href="#af"/><use transform="matrix(0.06172839506172839,0,0,0.06172839506172839,104.69135802469135,0)" xlink:href="#ai"/><use transform="matrix(0.06172839506172839,0,0,0.06172839506172839,110.86419753086419,0)" xlink:href="#ak"/><use transform="matrix(0.06172839506172839,0,0,0.06172839506172839,123.20987654320987,0)" xlink:href="#af"/></g><g id="F"><use transform="matrix(0.06172839506172839,0,0,0.06172839506172839,0,0)" xlink:href="#ak"/><use transform="matrix(0.06172839506172839,0,0,0.06172839506172839,12.345679012345679,0)" xlink:href="#aA"/></g><g id="G"><use transform="matrix(0.06172839506172839,0,0,0.06172839506172839,0,0)" xlink:href="#aN"/><use transform="matrix(0.06172839506172839,0,0,0.06172839506172839,18.456790123456788,0)" xlink:href="#ah"/><use transform="matrix(0.06172839506172839,0,0,0.06172839506172839,30.80246913580247,0)" xlink:href="#am"/><use transform="matrix(0.06172839506172839,0,0,0.06172839506172839,43.148148148148145,0)" xlink:href="#ah"/><use transform="matrix(0.06172839506172839,0,0,0.06172839506172839,55.49382716049382,0)" xlink:href="#ao"/><use transform="matrix(0.06172839506172839,0,0,0.06172839506172839,67.8395061728395,0)" xlink:href="#ae"/></g><g id="H"><use transform="matrix(0.06172839506172839,0,0,0.06172839506172839,0,0)" xlink:href="#al"/><use transform="matrix(0.06172839506172839,0,0,0.06172839506172839,12.345679012345679,0)" xlink:href="#ad"/><use transform="matrix(0.06172839506172839,0,0,0.06172839506172839,23.45679012345679,0)" xlink:href="#ae"/><use transform="matrix(0.06172839506172839,0,0,0.06172839506172839,35.80246913580247,0)" xlink:href="#af"/></g><g id="I"><use transform="matrix(0.06172839506172839,0,0,0.06172839506172839,0,0)" xlink:href="#aj"/><use transform="matrix(0.06172839506172839,0,0,0.06172839506172839,11.11111111111111,0)" xlink:href="#ah"/><use transform="matrix(0.06172839506172839,0,0,0.06172839506172839,23.45679012345679,0)" xlink:href="#af"/><use transform="matrix(0.06172839506172839,0,0,0.06172839506172839,30.80246913580247,0)" xlink:href="#aC"/><use transform="matrix(0.06172839506172839,0,0,0.06172839506172839,43.148148148148145,0)" xlink:href="#ad"/></g><g id="J"><use transform="matrix(0.06172839506172839,0,0,0.06172839506172839,0,0)" xlink:href="#aN"/><use transform="matrix(0.06172839506172839,0,0,0.06172839506172839,18.456790123456788,0)" xlink:href="#ah"/><use transform="matrix(0.06172839506172839,0,0,0.06172839506172839,30.80246913580247,0)" xlink:href="#am"/><use transform="matrix(0.06172839506172839,0,0,0.06172839506172839,43.148148148148145,0)" xlink:href="#ah"/><use transform="matrix(0.06172839506172839,0,0,0.06172839506172839,55.49382716049382,0)" xlink:href="#ao"/><use transform="matrix(0.06172839506172839,0,0,0.06172839506172839,67.8395061728395,0)" xlink:href="#ae"/></g><path fill="#3a414a" d="M185-189c-5-48-123-54-124 2 14 75 158 14 163 119 3 78-121 87-175 55-17-10-28-26-33-46l33-7c5 56 141 63 141-1 0-78-155-14-162-118-5-82 145-84 179-34 5 7 8 16 11 25" id="aT"/><g id="K"><use transform="matrix(0.06172839506172839,0,0,0.06172839506172839,0,0)" xlink:href="#aT"/><use transform="matrix(0.06172839506172839,0,0,0.06172839506172839,14.814814814814813,0)" xlink:href="#ae"/><use transform="matrix(0.06172839506172839,0,0,0.06172839506172839,27.160493827160494,0)" xlink:href="#ah"/><use transform="matrix(0.06172839506172839,0,0,0.06172839506172839,39.50617283950617,0)" xlink:href="#af"/><use transform="matrix(0.06172839506172839,0,0,0.06172839506172839,46.85185185185185,0)" xlink:href="#aj"/><use transform="matrix(0.06172839506172839,0,0,0.06172839506172839,57.96296296296296,0)" xlink:href="#aE"/></g><g id="L"><use transform="matrix(0.06172839506172839,0,0,0.06172839506172839,0,0)" xlink:href="#aj"/><use transform="matrix(0.06172839506172839,0,0,0.06172839506172839,11.11111111111111,0)" xlink:href="#af"/><use transform="matrix(0.06172839506172839,0,0,0.06172839506172839,18.45679012345679,0)" xlink:href="#ae"/><use transform="matrix(0.06172839506172839,0,0,0.06172839506172839,30.80246913580247,0)" xlink:href="#aC"/><use transform="matrix(0.06172839506172839,0,0,0.06172839506172839,43.148148148148145,0)" xlink:href="#ae"/><use transform="matrix(0.06172839506172839,0,0,0.06172839506172839,55.49382716049382,0)" xlink:href="#am"/><use transform="matrix(0.06172839506172839,0,0,0.06172839506172839,67.8395061728395,0)" xlink:href="#ai"/><use transform="matrix(0.06172839506172839,0,0,0.06172839506172839,74.01234567901234,0)" xlink:href="#ap"/><use transform="matrix(0.06172839506172839,0,0,0.06172839506172839,78.88888888888889,0)" xlink:href="#ah"/><use transform="matrix(0.06172839506172839,0,0,0.06172839506172839,91.23456790123457,0)" xlink:href="#aD"/><use transform="matrix(0.06172839506172839,0,0,0.06172839506172839,96.11111111111111,0)" xlink:href="#ad"/></g><g id="M"><use transform="matrix(0.06172839506172839,0,0,0.06172839506172839,0,0)" xlink:href="#aS"/><use transform="matrix(0.06172839506172839,0,0,0.06172839506172839,14.814814814814813,0)" xlink:href="#aC"/><use transform="matrix(0.06172839506172839,0,0,0.06172839506172839,27.160493827160494,0)" xlink:href="#az"/><use transform="matrix(0.06172839506172839,0,0,0.06172839506172839,45.61728395061728,0)" xlink:href="#ap"/><use transform="matrix(0.06172839506172839,0,0,0.06172839506172839,50.49382716049382,0)" xlink:href="#am"/><use transform="matrix(0.06172839506172839,0,0,0.06172839506172839,62.8395061728395,0)" xlink:href="#ap"/><use transform="matrix(0.06172839506172839,0,0,0.06172839506172839,67.71604938271604,0)" xlink:href="#ad"/><use transform="matrix(0.06172839506172839,0,0,0.06172839506172839,78.82716049382715,0)" xlink:href="#ai"/><use transform="matrix(0.06172839506172839,0,0,0.06172839506172839,84.99999999999999,0)" xlink:href="#af"/><use transform="matrix(0.06172839506172839,0,0,0.06172839506172839,92.34567901234567,0)" xlink:href="#ah"/><use transform="matrix(0.06172839506172839,0,0,0.06172839506172839,104.69135802469135,0)" xlink:href="#ai"/><use transform="matrix(0.06172839506172839,0,0,0.06172839506172839,110.86419753086419,0)" xlink:href="#ak"/><use transform="matrix(0.06172839506172839,0,0,0.06172839506172839,123.20987654320987,0)" xlink:href="#af"/></g></defs></g></svg>