<?xml version="1.0" encoding="UTF-8" standalone="no"?><svg xmlns="http://www.w3.org/2000/svg" xmlns:xlink="http://www.w3.org/1999/xlink" contentStyleType="text/css" height="673px" preserveAspectRatio="none" style="width:865px;height:673px;background:#FFFFFF;" version="1.1" viewBox="0 0 865 673" width="865px" zoomAndPan="magnify"><defs/><g><!--MD5=[f55d592c5130daf0ceebcd2d990036d6]
class Bank--><g id="elem_Bank"><rect codeLine="1" fill="#F1F1F1" height="113.9531" id="Bank" rx="2.5" ry="2.5" style="stroke:#181818;stroke-width:0.5;" width="197" x="65.5" y="321"/><ellipse cx="143.25" cy="337" fill="#ADD1B2" rx="11" ry="11" style="stroke:#181818;stroke-width:1.0;"/><path d="M145.7231,343.1431 Q145.1421,343.4419 144.5029,343.5913 Q143.8638,343.7407 143.1582,343.7407 Q140.6514,343.7407 139.3315,342.0889 Q138.0117,340.437 138.0117,337.3159 Q138.0117,334.1865 139.3315,332.5347 Q140.6514,330.8828 143.1582,330.8828 Q143.8638,330.8828 144.5112,331.0322 Q145.1587,331.1816 145.7231,331.4805 L145.7231,334.2031 Q145.0923,333.6221 144.4988,333.3523 Q143.9053,333.0825 143.2744,333.0825 Q141.9297,333.0825 141.2449,334.1492 Q140.5601,335.2158 140.5601,337.3159 Q140.5601,339.4077 141.2449,340.4744 Q141.9297,341.541 143.2744,341.541 Q143.9053,341.541 144.4988,341.2712 Q145.0923,341.0015 145.7231,340.4204 Z " fill="#000000"/><text fill="#000000" font-family="sans-serif" font-size="14" lengthAdjust="spacing" textLength="33" x="163.75" y="342.291">Bank</text><line style="stroke:#181818;stroke-width:0.5;" x1="66.5" x2="261.5" y1="353" y2="353"/><ellipse cx="76.5" cy="366.7441" fill="none" rx="3" ry="3" style="stroke:#038048;stroke-width:1.0;"/><text fill="#000000" font-family="sans-serif" font-size="14" lengthAdjust="spacing" textLength="76" x="85.5" y="370.5352">int bank_id</text><ellipse cx="76.5" cy="383.2324" fill="none" rx="3" ry="3" style="stroke:#038048;stroke-width:1.0;"/><text fill="#000000" font-family="sans-serif" font-size="14" lengthAdjust="spacing" textLength="82" x="85.5" y="387.0234">string name</text><line style="stroke:#181818;stroke-width:0.5;" x1="66.5" x2="261.5" y1="393.9766" y2="393.9766"/><ellipse cx="76.5" cy="407.7207" fill="#84BE84" rx="3" ry="3" style="stroke:#038048;stroke-width:1.0;"/><text fill="#000000" font-family="sans-serif" font-size="14" lengthAdjust="spacing" textLength="156" x="85.5" y="411.5117">List&lt;User&gt; get_users()</text><ellipse cx="76.5" cy="424.209" fill="#84BE84" rx="3" ry="3" style="stroke:#038048;stroke-width:1.0;"/><text fill="#000000" font-family="sans-serif" font-size="14" lengthAdjust="spacing" textLength="171" x="85.5" y="428">void add_user(User user)</text></g><!--MD5=[f9a29335b499db729be669fd1bd54958]
class Account--><g id="elem_Account"><rect codeLine="8" fill="#F1F1F1" height="196.3945" id="Account" rx="2.5" ry="2.5" style="stroke:#181818;stroke-width:0.5;" width="279" x="369.5" y="280"/><ellipse cx="476.75" cy="296" fill="#ADD1B2" rx="11" ry="11" style="stroke:#181818;stroke-width:1.0;"/><path d="M479.2231,302.1431 Q478.6421,302.4419 478.0029,302.5913 Q477.3638,302.7407 476.6582,302.7407 Q474.1514,302.7407 472.8315,301.0889 Q471.5117,299.437 471.5117,296.3159 Q471.5117,293.1865 472.8315,291.5347 Q474.1514,289.8828 476.6582,289.8828 Q477.3638,289.8828 478.0112,290.0322 Q478.6587,290.1816 479.2231,290.4805 L479.2231,293.2031 Q478.5923,292.6221 477.9988,292.3523 Q477.4053,292.0825 476.7744,292.0825 Q475.4297,292.0825 474.7449,293.1492 Q474.0601,294.2158 474.0601,296.3159 Q474.0601,298.4077 474.7449,299.4744 Q475.4297,300.541 476.7744,300.541 Q477.4053,300.541 477.9988,300.2712 Q478.5923,300.0015 479.2231,299.4204 Z " fill="#000000"/><text fill="#000000" font-family="sans-serif" font-size="14" lengthAdjust="spacing" textLength="56" x="497.25" y="301.291">Account</text><line style="stroke:#181818;stroke-width:0.5;" x1="370.5" x2="647.5" y1="312" y2="312"/><ellipse cx="380.5" cy="325.7441" fill="none" rx="3" ry="3" style="stroke:#038048;stroke-width:1.0;"/><text fill="#000000" font-family="sans-serif" font-size="14" lengthAdjust="spacing" textLength="96" x="389.5" y="329.5352">int account_id</text><ellipse cx="380.5" cy="342.2324" fill="none" rx="3" ry="3" style="stroke:#038048;stroke-width:1.0;"/><text fill="#000000" font-family="sans-serif" font-size="14" lengthAdjust="spacing" textLength="73" x="389.5" y="346.0234">string type</text><ellipse cx="380.5" cy="358.7207" fill="none" rx="3" ry="3" style="stroke:#038048;stroke-width:1.0;"/><text fill="#000000" font-family="sans-serif" font-size="14" lengthAdjust="spacing" textLength="88" x="389.5" y="362.5117">float balance</text><ellipse cx="380.5" cy="375.209" fill="none" rx="3" ry="3" style="stroke:#038048;stroke-width:1.0;"/><text fill="#000000" font-family="sans-serif" font-size="14" lengthAdjust="spacing" textLength="153" x="389.5" y="379">string customer_name</text><line style="stroke:#181818;stroke-width:0.5;" x1="370.5" x2="647.5" y1="385.9531" y2="385.9531"/><ellipse cx="380.5" cy="399.6973" fill="#84BE84" rx="3" ry="3" style="stroke:#038048;stroke-width:1.0;"/><text fill="#000000" font-family="sans-serif" font-size="14" lengthAdjust="spacing" textLength="182" x="389.5" y="403.4883">void deposit(float amount)</text><ellipse cx="380.5" cy="416.1855" fill="#84BE84" rx="3" ry="3" style="stroke:#038048;stroke-width:1.0;"/><text fill="#000000" font-family="sans-serif" font-size="14" lengthAdjust="spacing" textLength="194" x="389.5" y="419.9766">void withdraw(float amount)</text><ellipse cx="380.5" cy="432.6738" fill="#84BE84" rx="3" ry="3" style="stroke:#038048;stroke-width:1.0;"/><text fill="#000000" font-family="sans-serif" font-size="14" lengthAdjust="spacing" textLength="253" x="389.5" y="436.4648">List&lt;Transaction&gt; get_transactions()</text><ellipse cx="380.5" cy="449.1621" fill="#84BE84" rx="3" ry="3" style="stroke:#038048;stroke-width:1.0;"/><text fill="#000000" font-family="sans-serif" font-size="14" lengthAdjust="spacing" textLength="158" x="389.5" y="452.9531">List&lt;Card&gt; get_cards()</text><ellipse cx="380.5" cy="465.6504" fill="#84BE84" rx="3" ry="3" style="stroke:#038048;stroke-width:1.0;"/><text fill="#000000" font-family="sans-serif" font-size="14" lengthAdjust="spacing" textLength="156" x="389.5" y="469.4414">List&lt;User&gt; get_users()</text></g><!--MD5=[4555bb1b0911a5adf28ce6dbe60fed2e]
class Transaction--><g id="elem_Transaction"><rect codeLine="20" fill="#F1F1F1" height="113.9531" id="Transaction" rx="2.5" ry="2.5" style="stroke:#181818;stroke-width:0.5;" width="145" x="412.5" y="544"/><ellipse cx="441.9" cy="560" fill="#ADD1B2" rx="11" ry="11" style="stroke:#181818;stroke-width:1.0;"/><path d="M444.3731,566.1431 Q443.7921,566.4419 443.1529,566.5913 Q442.5138,566.7407 441.8082,566.7407 Q439.3014,566.7407 437.9815,565.0889 Q436.6617,563.437 436.6617,560.3159 Q436.6617,557.1865 437.9815,555.5347 Q439.3014,553.8828 441.8082,553.8828 Q442.5138,553.8828 443.1612,554.0322 Q443.8087,554.1816 444.3731,554.4805 L444.3731,557.2031 Q443.7423,556.6221 443.1488,556.3523 Q442.5553,556.0825 441.9244,556.0825 Q440.5797,556.0825 439.8949,557.1492 Q439.2101,558.2158 439.2101,560.3159 Q439.2101,562.4077 439.8949,563.4744 Q440.5797,564.541 441.9244,564.541 Q442.5553,564.541 443.1488,564.2712 Q443.7423,564.0015 444.3731,563.4204 Z " fill="#000000"/><text fill="#000000" font-family="sans-serif" font-size="14" lengthAdjust="spacing" textLength="81" x="459.1" y="565.291">Transaction</text><line style="stroke:#181818;stroke-width:0.5;" x1="413.5" x2="556.5" y1="576" y2="576"/><ellipse cx="423.5" cy="589.7441" fill="none" rx="3" ry="3" style="stroke:#038048;stroke-width:1.0;"/><text fill="#000000" font-family="sans-serif" font-size="14" lengthAdjust="spacing" textLength="119" x="432.5" y="593.5352">int transaction_id</text><ellipse cx="423.5" cy="606.2324" fill="none" rx="3" ry="3" style="stroke:#038048;stroke-width:1.0;"/><text fill="#000000" font-family="sans-serif" font-size="14" lengthAdjust="spacing" textLength="88" x="432.5" y="610.0234">float amount</text><ellipse cx="423.5" cy="622.7207" fill="none" rx="3" ry="3" style="stroke:#038048;stroke-width:1.0;"/><text fill="#000000" font-family="sans-serif" font-size="14" lengthAdjust="spacing" textLength="73" x="432.5" y="626.5117">string type</text><ellipse cx="423.5" cy="639.209" fill="none" rx="3" ry="3" style="stroke:#038048;stroke-width:1.0;"/><text fill="#000000" font-family="sans-serif" font-size="14" lengthAdjust="spacing" textLength="96" x="432.5" y="643">int account_id</text><line style="stroke:#181818;stroke-width:0.5;" x1="413.5" x2="556.5" y1="649.9531" y2="649.9531"/></g><!--MD5=[5e305716458bbdabbd2d7f572ed2bae2]
class Card--><g id="elem_Card"><rect codeLine="27" fill="#F1F1F1" height="130.4414" id="Card" rx="2.5" ry="2.5" style="stroke:#181818;stroke-width:0.5;" width="150" x="593" y="536"/><ellipse cx="647.25" cy="552" fill="#ADD1B2" rx="11" ry="11" style="stroke:#181818;stroke-width:1.0;"/><path d="M649.7231,558.1431 Q649.1421,558.4419 648.5029,558.5913 Q647.8638,558.7407 647.1582,558.7407 Q644.6514,558.7407 643.3315,557.0889 Q642.0117,555.437 642.0117,552.3159 Q642.0117,549.1865 643.3315,547.5347 Q644.6514,545.8828 647.1582,545.8828 Q647.8638,545.8828 648.5112,546.0322 Q649.1587,546.1816 649.7231,546.4805 L649.7231,549.2031 Q649.0923,548.6221 648.4988,548.3523 Q647.9053,548.0825 647.2744,548.0825 Q645.9297,548.0825 645.2449,549.1492 Q644.5601,550.2158 644.5601,552.3159 Q644.5601,554.4077 645.2449,555.4744 Q645.9297,556.541 647.2744,556.541 Q647.9053,556.541 648.4988,556.2712 Q649.0923,556.0015 649.7231,555.4204 Z " fill="#000000"/><text fill="#000000" font-family="sans-serif" font-size="14" lengthAdjust="spacing" textLength="33" x="667.75" y="557.291">Card</text><line style="stroke:#181818;stroke-width:0.5;" x1="594" x2="742" y1="568" y2="568"/><ellipse cx="604" cy="581.7441" fill="none" rx="3" ry="3" style="stroke:#038048;stroke-width:1.0;"/><text fill="#000000" font-family="sans-serif" font-size="14" lengthAdjust="spacing" textLength="72" x="613" y="585.5352">int card_id</text><ellipse cx="604" cy="598.2324" fill="none" rx="3" ry="3" style="stroke:#038048;stroke-width:1.0;"/><text fill="#000000" font-family="sans-serif" font-size="14" lengthAdjust="spacing" textLength="73" x="613" y="602.0234">string type</text><ellipse cx="604" cy="614.7207" fill="none" rx="3" ry="3" style="stroke:#038048;stroke-width:1.0;"/><text fill="#000000" font-family="sans-serif" font-size="14" lengthAdjust="spacing" textLength="98" x="613" y="618.5117">string number</text><ellipse cx="604" cy="631.209" fill="none" rx="3" ry="3" style="stroke:#038048;stroke-width:1.0;"/><text fill="#000000" font-family="sans-serif" font-size="14" lengthAdjust="spacing" textLength="65" x="613" y="635">string cvv</text><ellipse cx="604" cy="647.6973" fill="none" rx="3" ry="3" style="stroke:#038048;stroke-width:1.0;"/><text fill="#000000" font-family="sans-serif" font-size="14" lengthAdjust="spacing" textLength="124" x="613" y="651.4883">string expiry_date</text><line style="stroke:#181818;stroke-width:0.5;" x1="594" x2="742" y1="658.4414" y2="658.4414"/></g><!--MD5=[3fd616f346a44cd59a91eb10b19e157c]
class User--><g id="elem_User"><rect codeLine="35" fill="#F1F1F1" height="212.8828" id="User" rx="2.5" ry="2.5" style="stroke:#181818;stroke-width:0.5;" width="231" x="296.5" y="7"/><ellipse cx="392.25" cy="23" fill="#ADD1B2" rx="11" ry="11" style="stroke:#181818;stroke-width:1.0;"/><path d="M394.7231,29.1431 Q394.1421,29.4419 393.5029,29.5913 Q392.8638,29.7407 392.1582,29.7407 Q389.6514,29.7407 388.3315,28.0889 Q387.0117,26.437 387.0117,23.3159 Q387.0117,20.1865 388.3315,18.5347 Q389.6514,16.8828 392.1582,16.8828 Q392.8638,16.8828 393.5112,17.0322 Q394.1587,17.1816 394.7231,17.4805 L394.7231,20.2031 Q394.0923,19.6221 393.4988,19.3523 Q392.9053,19.0825 392.2744,19.0825 Q390.9297,19.0825 390.2449,20.1492 Q389.5601,21.2158 389.5601,23.3159 Q389.5601,25.4077 390.2449,26.4744 Q390.9297,27.541 392.2744,27.541 Q392.9053,27.541 393.4988,27.2712 Q394.0923,27.0015 394.7231,26.4204 Z " fill="#000000"/><text fill="#000000" font-family="sans-serif" font-size="14" lengthAdjust="spacing" textLength="31" x="412.75" y="28.291">User</text><line style="stroke:#181818;stroke-width:0.5;" x1="297.5" x2="526.5" y1="39" y2="39"/><ellipse cx="307.5" cy="52.7441" fill="none" rx="3" ry="3" style="stroke:#038048;stroke-width:1.0;"/><text fill="#000000" font-family="sans-serif" font-size="14" lengthAdjust="spacing" textLength="72" x="316.5" y="56.5352">int user_id</text><ellipse cx="307.5" cy="69.2324" fill="none" rx="3" ry="3" style="stroke:#038048;stroke-width:1.0;"/><text fill="#000000" font-family="sans-serif" font-size="14" lengthAdjust="spacing" textLength="82" x="316.5" y="73.0234">string name</text><ellipse cx="307.5" cy="85.7207" fill="none" rx="3" ry="3" style="stroke:#038048;stroke-width:1.0;"/><text fill="#000000" font-family="sans-serif" font-size="14" lengthAdjust="spacing" textLength="81" x="316.5" y="89.5117">string email</text><ellipse cx="307.5" cy="102.209" fill="none" rx="3" ry="3" style="stroke:#038048;stroke-width:1.0;"/><text fill="#000000" font-family="sans-serif" font-size="14" lengthAdjust="spacing" textLength="88" x="316.5" y="106">string phone</text><ellipse cx="307.5" cy="118.6973" fill="none" rx="3" ry="3" style="stroke:#038048;stroke-width:1.0;"/><text fill="#000000" font-family="sans-serif" font-size="14" lengthAdjust="spacing" textLength="98" x="316.5" y="122.4883">string address</text><ellipse cx="307.5" cy="135.1855" fill="none" rx="3" ry="3" style="stroke:#038048;stroke-width:1.0;"/><text fill="#000000" font-family="sans-serif" font-size="14" lengthAdjust="spacing" textLength="110" x="316.5" y="138.9766">string password</text><ellipse cx="307.5" cy="151.6738" fill="none" rx="3" ry="3" style="stroke:#038048;stroke-width:1.0;"/><text fill="#000000" font-family="sans-serif" font-size="14" lengthAdjust="spacing" textLength="71" x="316.5" y="155.4648">string role</text><ellipse cx="307.5" cy="168.1621" fill="none" rx="3" ry="3" style="stroke:#038048;stroke-width:1.0;"/><text fill="#000000" font-family="sans-serif" font-size="14" lengthAdjust="spacing" textLength="71" x="316.5" y="171.9531">Bank bank</text><line style="stroke:#181818;stroke-width:0.5;" x1="297.5" x2="526.5" y1="178.9063" y2="178.9063"/><ellipse cx="307.5" cy="192.6504" fill="#84BE84" rx="3" ry="3" style="stroke:#038048;stroke-width:1.0;"/><text fill="#000000" font-family="sans-serif" font-size="14" lengthAdjust="spacing" textLength="177" x="316.5" y="196.4414">List&lt;Token&gt; get_tokens()</text><ellipse cx="307.5" cy="209.1387" fill="#84BE84" rx="3" ry="3" style="stroke:#038048;stroke-width:1.0;"/><text fill="#000000" font-family="sans-serif" font-size="14" lengthAdjust="spacing" textLength="205" x="316.5" y="212.9297">List&lt;Account&gt; get_accounts()</text></g><!--MD5=[6c7c076a3639db4dd37a17a6395e0557]
class AccountUser--><g id="elem_AccountUser"><rect codeLine="48" fill="#F1F1F1" height="97.4648" id="AccountUser" rx="2.5" ry="2.5" style="stroke:#181818;stroke-width:0.5;" width="122" x="255" y="552.5"/><ellipse cx="271.35" cy="568.5" fill="#ADD1B2" rx="11" ry="11" style="stroke:#181818;stroke-width:1.0;"/><path d="M273.8231,574.6431 Q273.2421,574.9419 272.6029,575.0913 Q271.9638,575.2407 271.2582,575.2407 Q268.7514,575.2407 267.4315,573.5889 Q266.1117,571.937 266.1117,568.8159 Q266.1117,565.6865 267.4315,564.0347 Q268.7514,562.3828 271.2582,562.3828 Q271.9638,562.3828 272.6112,562.5322 Q273.2587,562.6816 273.8231,562.9805 L273.8231,565.7031 Q273.1923,565.1221 272.5988,564.8523 Q272.0053,564.5825 271.3744,564.5825 Q270.0297,564.5825 269.3449,565.6492 Q268.6601,566.7158 268.6601,568.8159 Q268.6601,570.9077 269.3449,571.9744 Q270.0297,573.041 271.3744,573.041 Q272.0053,573.041 272.5988,572.7712 Q273.1923,572.5015 273.8231,571.9204 Z " fill="#000000"/><text fill="#000000" font-family="sans-serif" font-size="14" lengthAdjust="spacing" textLength="87" x="285.65" y="573.791">AccountUser</text><line style="stroke:#181818;stroke-width:0.5;" x1="256" x2="376" y1="584.5" y2="584.5"/><ellipse cx="266" cy="598.2441" fill="none" rx="3" ry="3" style="stroke:#038048;stroke-width:1.0;"/><text fill="#000000" font-family="sans-serif" font-size="14" lengthAdjust="spacing" textLength="96" x="275" y="602.0352">int account_id</text><ellipse cx="266" cy="614.7324" fill="none" rx="3" ry="3" style="stroke:#038048;stroke-width:1.0;"/><text fill="#000000" font-family="sans-serif" font-size="14" lengthAdjust="spacing" textLength="72" x="275" y="618.5234">int user_id</text><ellipse cx="266" cy="631.2207" fill="none" rx="3" ry="3" style="stroke:#038048;stroke-width:1.0;"/><text fill="#000000" font-family="sans-serif" font-size="14" lengthAdjust="spacing" textLength="73" x="275" y="635.0117">string type</text><line style="stroke:#181818;stroke-width:0.5;" x1="256" x2="376" y1="641.9648" y2="641.9648"/></g><g id="elem_GMN8"><path d="M6,580.5 L6,621.1211 A0,0 0 0 0 6,621.1211 L220,621.1211 A0,0 0 0 0 220,621.1211 L220,605 L254.79,601 L220,597 L220,590.5 L210,580.5 L6,580.5 A0,0 0 0 0 6,580.5 " fill="#FEFFDD" style="stroke:#181818;stroke-width:0.5;"/><path d="M210,580.5 L210,590.5 L220,590.5 L210,580.5 " fill="#FEFFDD" style="stroke:#181818;stroke-width:0.5;"/><text fill="#000000" font-family="sans-serif" font-size="13" lengthAdjust="spacing" textLength="183" x="12" y="598.0684">Used to link a single account</text><text fill="#000000" font-family="sans-serif" font-size="13" lengthAdjust="spacing" textLength="189" x="16" y="613.3789">to multiple users (family plan)</text></g><!--MD5=[d8c8cfd5ca149094f5b67f9f607a5ec7]
class Token--><g id="elem_Token"><rect codeLine="56" fill="#F1F1F1" height="146.9297" id="Token" rx="2.5" ry="2.5" style="stroke:#181818;stroke-width:0.5;" width="175" x="683.5" y="304.5"/><ellipse cx="745.25" cy="320.5" fill="#ADD1B2" rx="11" ry="11" style="stroke:#181818;stroke-width:1.0;"/><path d="M747.7231,326.6431 Q747.1421,326.9419 746.5029,327.0913 Q745.8638,327.2407 745.1582,327.2407 Q742.6514,327.2407 741.3315,325.5889 Q740.0117,323.937 740.0117,320.8159 Q740.0117,317.6865 741.3315,316.0347 Q742.6514,314.3828 745.1582,314.3828 Q745.8638,314.3828 746.5112,314.5322 Q747.1587,314.6816 747.7231,314.9805 L747.7231,317.7031 Q747.0923,317.1221 746.4988,316.8523 Q745.9053,316.5825 745.2744,316.5825 Q743.9297,316.5825 743.2449,317.6492 Q742.5601,318.7158 742.5601,320.8159 Q742.5601,322.9077 743.2449,323.9744 Q743.9297,325.041 745.2744,325.041 Q745.9053,325.041 746.4988,324.7712 Q747.0923,324.5015 747.7231,323.9204 Z " fill="#000000"/><text fill="#000000" font-family="sans-serif" font-size="14" lengthAdjust="spacing" textLength="43" x="765.75" y="325.791">Token</text><line style="stroke:#181818;stroke-width:0.5;" x1="684.5" x2="857.5" y1="336.5" y2="336.5"/><ellipse cx="694.5" cy="350.2441" fill="none" rx="3" ry="3" style="stroke:#038048;stroke-width:1.0;"/><text fill="#000000" font-family="sans-serif" font-size="14" lengthAdjust="spacing" textLength="81" x="703.5" y="354.0352">int token_id</text><ellipse cx="694.5" cy="366.7324" fill="none" rx="3" ry="3" style="stroke:#038048;stroke-width:1.0;"/><text fill="#000000" font-family="sans-serif" font-size="14" lengthAdjust="spacing" textLength="134" x="703.5" y="370.5234">string access_token</text><ellipse cx="694.5" cy="383.2207" fill="none" rx="3" ry="3" style="stroke:#038048;stroke-width:1.0;"/><text fill="#000000" font-family="sans-serif" font-size="14" lengthAdjust="spacing" textLength="72" x="703.5" y="387.0117">int user_id</text><ellipse cx="694.5" cy="399.709" fill="none" rx="3" ry="3" style="stroke:#038048;stroke-width:1.0;"/><text fill="#000000" font-family="sans-serif" font-size="14" lengthAdjust="spacing" textLength="87" x="703.5" y="403.5">string device</text><ellipse cx="694.5" cy="416.1973" fill="none" rx="3" ry="3" style="stroke:#038048;stroke-width:1.0;"/><text fill="#000000" font-family="sans-serif" font-size="14" lengthAdjust="spacing" textLength="149" x="703.5" y="419.9883">DateTime expiry_date</text><line style="stroke:#181818;stroke-width:0.5;" x1="684.5" x2="857.5" y1="426.9414" y2="426.9414"/><ellipse cx="694.5" cy="440.6855" fill="#84BE84" rx="3" ry="3" style="stroke:#038048;stroke-width:1.0;"/><text fill="#000000" font-family="sans-serif" font-size="14" lengthAdjust="spacing" textLength="141" x="703.5" y="444.4766">boolean is_expired()</text></g><!--MD5=[bf338e8c392cde906fdc9c9645df02f4]
link Bank to User--><g id="link_Bank_User"><path codeLine="65" d="M228.67,320.54 C257.12,292.38 290.9,257.33 321.73,224.17 " fill="none" id="Bank-to-User" style="stroke:#181818;stroke-width:1.0;"/><polygon fill="#181818" points="324.47,221.13,315.4124,224.9979,321.0656,224.7919,321.2715,230.445,324.47,221.13" style="stroke:#181818;stroke-width:1.0;"/></g><!--MD5=[108e8a30db9a7e53d9f56ff8db8cb47a]
link User to Bank--><g id="link_User_Bank"><path codeLine="66" d="M299.67,220.13 C268.19,252.86 235.71,287.79 210.34,316.37 " fill="none" id="User-to-Bank" style="stroke:#181818;stroke-width:1.0;"/><polygon fill="#181818" points="207.65,319.54,216.6112,315.4538,210.9647,315.7967,210.6218,310.1502,207.65,319.54" style="stroke:#181818;stroke-width:1.0;"/></g><!--MD5=[c4ec09675a95d26efab9abb1f3e98009]
link User to Token--><g id="link_User_Token"><path codeLine="67" d="M527.92,194.61 C567.25,220.51 610.8,250.25 649,280 C658.76,287.6 668.71,295.92 678.52,304.4 " fill="none" id="User-to-Token" style="stroke:#181818;stroke-width:1.0;"/><polygon fill="#181818" points="682.01,308.3,677.8324,299.3811,678.233,305.0237,672.5903,305.4243,682.01,308.3" style="stroke:#181818;stroke-width:1.0;"/></g><!--MD5=[8c82605f4711d0cf484c57b1ff57c7fa]
link Token to User--><g id="link_Token_User"><path codeLine="74" d="M713.05,304.21 C703.56,295.8 693.69,287.55 684,280 C638.92,244.9 586.41,209.81 539.49,181.03 " fill="none" id="Token-to-User" style="stroke:#181818;stroke-width:1.0;"/><polygon fill="none" points="528.69,173.85,531.7389,180.3849,538.9437,180.0839,535.8948,173.5491,528.69,173.85" style="stroke:#181818;stroke-width:1.0;"/></g><!--MD5=[87e802f94dff5db0b14b612664619da8]
link User to Account--><g id="link_User_Account"><path codeLine="68" d="M451.03,220.13 C457.62,237.95 464.44,256.42 471,274.17 " fill="none" id="User-to-Account" style="stroke:#181818;stroke-width:1.0;"/><polygon fill="#181818" points="473.03,278.65,473.6513,268.8208,471.2916,273.9619,466.1504,271.6022,473.03,278.65" style="stroke:#181818;stroke-width:1.0;"/></g><!--MD5=[a7484e496f3241119f42e3e6d33ca200]
link Account to AccountUser--><g id="link_Account_AccountUser"><path codeLine="69" d="M424.07,476.26 C404.61,498.54 384.51,521.55 367,541.6 " fill="none" id="Account-to-AccountUser" style="stroke:#181818;stroke-width:1.0;"/><polygon fill="none" points="357.84,551.09,364.8008,549.2064,365.7393,542.0566,358.7785,543.9402,357.84,551.09" style="stroke:#181818;stroke-width:1.0;"/></g><!--MD5=[b7c12de7070d526d66ad22a29145f2d5]
link User to AccountUser--><g id="link_User_AccountUser"><path codeLine="70" d="M369.5,220.21 C362.81,239.85 356.6,260.36 352,280 C331.29,368.5 322.36,473.64 318.61,538.61 " fill="none" id="User-to-AccountUser" style="stroke:#181818;stroke-width:1.0;"/><polygon fill="none" points="317.86,551.23,322.1835,545.4587,318.5191,539.2481,314.1956,545.0194,317.86,551.23" style="stroke:#181818;stroke-width:1.0;"/></g><!--MD5=[6bd399dd209ecb8775ea4fbe013b111a]
link Account to Transaction--><g id="link_Account_Transaction"><path codeLine="71" d="M498.44,476.26 C496.17,497.14 493.83,518.66 491.76,537.79 " fill="none" id="Account-to-Transaction" style="stroke:#181818;stroke-width:1.0;"/><polygon fill="#181818" points="491.12,542.64,496.0733,534.1274,491.6628,537.6695,488.1206,533.259,491.12,542.64" style="stroke:#181818;stroke-width:1.0;"/></g><!--MD5=[7fa6a7f22f2e4e6680ba7c261f55701f]
link Account to Card--><g id="link_Account_Card"><path codeLine="72" d="M566.3,476.26 C579.44,494.83 593.42,513.91 606.72,531.36 " fill="none" id="Account-to-Card" style="stroke:#181818;stroke-width:1.0;"/><polygon fill="#181818" points="610.08,534.76,607.8032,525.1779,607.0481,530.7842,601.4418,530.029,610.08,534.76" style="stroke:#181818;stroke-width:1.0;"/></g><!--MD5=[8cb61bf298896ded34663568dd8cbfb1]
link Card to Account--><g id="link_Card_Account"><path codeLine="73" d="M634.17,535.76 C623.97,520.5 612.32,503.79 600.31,487.16 " fill="none" id="Card-to-Account" style="stroke:#181818;stroke-width:1.0;"/><polygon fill="none" points="592.38,477.26,592.6787,484.4649,599.4443,486.9603,599.1456,479.7554,592.38,477.26" style="stroke:#181818;stroke-width:1.0;"/></g><!--MD5=[84ce51acc40d7559e0752ab261085c87]
@startuml database-schema
class Bank {
  +int bank_id
  +string name
  +List<User> get_users()
  +void add_user(User user)
}

class Account {
  +int account_id
  +string type
  +float balance
  +string customer_name
  +void deposit(float amount)
  +void withdraw(float amount)
  +List<Transaction> get_transactions()
  +List<Card> get_cards()
  +List<User> get_users()
}

class Transaction {
  +int transaction_id
  +float amount
  +string type
  +int account_id
}

class Card {
  +int card_id
  +string type
  +string number
  +string cvv
  +string expiry_date
}

class User {
  +int user_id
  +string name
  +string email
  +string phone
  +string address
  +string password
  +string role
  +List<Token> get_tokens()
  +List<Account> get_accounts()
  +Bank bank
}

class AccountUser {
  +int account_id
  +int user_id
  +string type
}

note left: Used to link a single account\n to multiple users (family plan) 

class Token {
  +int token_id
  +string access_token
  +int user_id
  +string device
  +DateTime expiry_date
  +boolean is_expired()
}

Bank - -> User
User - -> Bank
User - -> Token
User - -> Account
Account - -o AccountUser
User - -o AccountUser
Account - -> Transaction
Account - -> Card
Card - -o Account
Token - -o User

@enduml

PlantUML version 1.2022.7(Mon Aug 22 20:01:30 EEST 2022)
(GPL source distribution)
Java Runtime: OpenJDK Runtime Environment
JVM: OpenJDK 64-Bit Server VM
Default Encoding: UTF-8
Language: en
Country: RO
--></g></svg>