<svg xmlns="http://www.w3.org/2000/svg" xmlns:xlink="http://www.w3.org/1999/xlink" xmlns:lucid="lucid" width="1950.58" height="900"><g transform="translate(-249.42011922659321 -60)" lucid:page-tab-id="0_0"><path d="M0 0h3677.73v1322.84H0z" fill="#fff"/><path d="M812.5 172a12.8 12.8 0 0 1 4.62-9.84l93.98-78.32A16.57 16.57 0 0 1 921.7 80H2174a6 6 0 0 1 6 6v744.8a16.57 16.57 0 0 1-3.84 10.6l-78.32 94a12.8 12.8 0 0 1-9.84 4.6H818.5a6 6 0 0 1-6-6z" stroke="#3a414a" fill="#fff"/><path d="M818.5 166a2.17 2.17 0 0 1-1.38-3.84l93.98-78.32A16.57 16.57 0 0 1 921.7 80H2174a2.48 2.48 0 0 1 1.76 4.24l-77.52 77.52A14.48 14.48 0 0 1 2088 166z" stroke="#3a414a" fill="#e6e6e6"/><path d="M2094 172a14.48 14.48 0 0 1 4.24-10.24l77.52-77.52A2.48 2.48 0 0 1 2180 86v744.8a16.57 16.57 0 0 1-3.84 10.6l-78.32 94a2.17 2.17 0 0 1-3.84-1.4z" stroke="#3a414a" fill="#ccc"/><use xlink:href="#a" transform="matrix(1,0,0,1,820.5067853036978,174) translate(0 17.77777777777778)"/><path d="M269.42 202a12.8 12.8 0 0 1 4.6-9.84l34-28.32a16.57 16.57 0 0 1 10.6-3.84h304.8a6 6 0 0 1 6 6v304.8a16.57 16.57 0 0 1-3.84 10.6l-28.32 34a12.8 12.8 0 0 1-9.84 4.6h-312a6 6 0 0 1-6-6z" stroke="#3a414a" fill="#fff"/><path d="M275.42 196a2.17 2.17 0 0 1-1.4-3.84l34-28.32a16.57 16.57 0 0 1 10.6-3.84h304.8a2.48 2.48 0 0 1 1.76 4.24l-27.52 27.52a14.48 14.48 0 0 1-10.24 4.24z" stroke="#3a414a" fill="#e6e6e6"/><path d="M593.42 202a14.48 14.48 0 0 1 4.24-10.24l27.52-27.52a2.48 2.48 0 0 1 4.24 1.76v304.8a16.57 16.57 0 0 1-3.84 10.6l-28.32 34a2.17 2.17 0 0 1-3.84-1.4z" stroke="#3a414a" fill="#ccc"/><use xlink:href="#b" transform="matrix(1,0,0,1,277.4201192265933,204) translate(0 17.77777777777778)"/><path d="M291.15 308a12.8 12.8 0 0 1 4.6-9.84l17.2-14.32a16.57 16.57 0 0 1 10.6-3.84h241.6a6 6 0 0 1 6 6v181.6a16.57 16.57 0 0 1-3.84 10.6L553 495.4a12.8 12.8 0 0 1-9.85 4.6h-246a6 6 0 0 1-6-6z" stroke="#3a414a" fill="#fff"/><path d="M297.15 302a2.17 2.17 0 0 1-1.4-3.84l17.2-14.32a16.57 16.57 0 0 1 10.6-3.84h241.6a2.48 2.48 0 0 1 1.76 4.24l-13.5 13.52a14.48 14.48 0 0 1-10.25 4.24z" stroke="#3a414a" fill="#e6e6e6"/><path d="M549.15 308a14.48 14.48 0 0 1 4.24-10.24l13.5-13.52a2.48 2.48 0 0 1 4.25 1.76v181.6a16.57 16.57 0 0 1-3.84 10.6L553 495.4a2.17 2.17 0 0 1-3.85-1.4z" stroke="#3a414a" fill="#ccc"/><use xlink:href="#c" transform="matrix(1,0,0,1,299.1507144752164,310) translate(0 17.77777777777778)"/><path d="M309.42 347.02h168l12 12v48h-180z" stroke="#3a414a" fill="#fff"/><path d="M477.42 347.5v11.52h11.52" stroke="#3a414a" fill="#fff"/><use xlink:href="#d" transform="matrix(1,0,0,1,314.4201192265933,352.02053563532644) translate(0 30.27777777777778)"/><path d="M309.42 420h168l12 12v48h-180z" stroke="#3a414a" fill="#fff"/><path d="M477.42 420.48V432h11.52" stroke="#3a414a" fill="#fff"/><use xlink:href="#e" transform="matrix(1,0,0,1,314.4201192265933,425) translate(0 30.27777777777778)"/><path d="M269.42 606.42a12.8 12.8 0 0 1 4.6-9.84l34-28.3a16.57 16.57 0 0 1 10.6-3.86h304.8a6 6 0 0 1 6 6v304.8a16.57 16.57 0 0 1-3.84 10.6l-28.32 34a12.8 12.8 0 0 1-9.84 4.6h-312a6 6 0 0 1-6-6z" stroke="#3a414a" fill="#fff"/><path d="M275.42 600.42a2.17 2.17 0 0 1-1.4-3.84l34-28.3a16.57 16.57 0 0 1 10.6-3.86h304.8a2.48 2.48 0 0 1 1.76 4.25l-27.52 27.5a14.48 14.48 0 0 1-10.24 4.25z" stroke="#3a414a" fill="#e6e6e6"/><path d="M593.42 606.42a14.48 14.48 0 0 1 4.24-10.24l27.52-27.5a2.48 2.48 0 0 1 4.24 1.75v304.8a16.57 16.57 0 0 1-3.84 10.6l-28.32 34a2.17 2.17 0 0 1-3.84-1.4z" stroke="#3a414a" fill="#ccc"/><use xlink:href="#f" transform="matrix(1,0,0,1,277.4201192265932,608.4246427623917) translate(0 17.77777777777778)"/><path d="M291.15 708.96a12.8 12.8 0 0 1 4.6-9.84l17.2-14.32a16.57 16.57 0 0 1 10.6-3.84h241.6a6 6 0 0 1 6 6v181.6a16.57 16.57 0 0 1-3.84 10.6l-14.3 17.2a12.8 12.8 0 0 1-9.85 4.6h-246a6 6 0 0 1-6-6z" stroke="#3a414a" fill="#fff"/><path d="M297.15 702.96a2.17 2.17 0 0 1-1.4-3.84l17.2-14.32a16.57 16.57 0 0 1 10.6-3.84h241.6a2.48 2.48 0 0 1 1.76 4.25l-13.5 13.52a14.48 14.48 0 0 1-10.25 4.24z" stroke="#3a414a" fill="#e6e6e6"/><path d="M549.15 708.96a14.48 14.48 0 0 1 4.24-10.24l13.5-13.5a2.48 2.48 0 0 1 4.25 1.74v181.6a16.57 16.57 0 0 1-3.84 10.6l-14.3 17.2a2.17 2.17 0 0 1-3.85-1.4z" stroke="#3a414a" fill="#ccc"/><use xlink:href="#c" transform="matrix(1,0,0,1,299.15071447521643,710.9634522651454) translate(0 17.77777777777778)"/><path d="M309.42 752.1h168l12 12v48h-180z" stroke="#3a414a" fill="#fff"/><path d="M477.42 752.6v11.5h11.52" stroke="#3a414a" fill="#fff"/><use xlink:href="#d" transform="matrix(1,0,0,1,314.4201192265933,757.1141667403618) translate(0 30.27777777777778)"/><path d="M309.42 829.8h168l12 12v48h-180z" stroke="#3a414a" fill="#fff"/><path d="M477.42 830.27v11.52h11.52" stroke="#3a414a" fill="#fff"/><use xlink:href="#e" transform="matrix(1,0,0,1,314.4201192265933,834.794643646735) translate(0 30.27777777777778)"/><path d="M854.24 250a12.8 12.8 0 0 1 4.6-9.84l19.6-16.32a16.57 16.57 0 0 1 10.6-3.84h279.2a6 6 0 0 1 6 6v199.2a16.57 16.57 0 0 1-3.84 10.6l-16.32 19.6a12.8 12.8 0 0 1-9.84 4.6h-284a6 6 0 0 1-6-6z" stroke="#3a414a" fill="#fff"/><path d="M860.24 244a2.17 2.17 0 0 1-1.4-3.84l19.6-16.32a16.57 16.57 0 0 1 10.6-3.84h279.2a2.48 2.48 0 0 1 1.75 4.24l-15.52 15.52a14.48 14.48 0 0 1-10.24 4.24z" stroke="#3a414a" fill="#e6e6e6"/><path d="M1150.24 250a14.48 14.48 0 0 1 4.24-10.24l15.5-15.52a2.48 2.48 0 0 1 4.26 1.76v199.2a16.57 16.57 0 0 1-3.84 10.6l-16.32 19.6a2.17 2.17 0 0 1-3.84-1.4z" stroke="#3a414a" fill="#ccc"/><use xlink:href="#g" transform="matrix(1,0,0,1,862.2373805523209,252) translate(0 17.77777777777778)"/><use xlink:href="#h" transform="matrix(1,0,0,1,862.2373805523209,252) translate(6.172839506172839 17.77777777777778)"/><path d="M878.47 326.85a12.8 12.8 0 0 1 4.6-9.84l5.2-4.3a16.57 16.57 0 0 1 10.6-3.85h213.6a6 6 0 0 1 6 6v93.6a16.57 16.57 0 0 1-3.85 10.6l-4.3 5.2a12.8 12.8 0 0 1-9.85 4.6h-216a6 6 0 0 1-6-6z" stroke="#3a414a" fill="#fff"/><path d="M884.47 320.85a2.17 2.17 0 0 1-1.4-3.84l5.2-4.3a16.57 16.57 0 0 1 10.6-3.85h213.6a2.48 2.48 0 0 1 1.75 4.24l-3.5 3.5a14.48 14.48 0 0 1-10.25 4.25z" stroke="#3a414a" fill="#e6e6e6"/><path d="M1106.47 326.85a14.48 14.48 0 0 1 4.24-10.24l3.52-3.5a2.48 2.48 0 0 1 4.25 1.75v93.6a16.57 16.57 0 0 1-3.85 10.6l-4.3 5.2a2.17 2.17 0 0 1-3.85-1.4z" stroke="#3a414a" fill="#ccc"/><use xlink:href="#i" transform="matrix(1,0,0,1,886.4657140330448,328.84928552478357) translate(0 17.77777777777778)"/><use xlink:href="#j" transform="matrix(1,0,0,1,886.4657140330448,328.84928552478357) translate(52.96296296296296 17.77777777777778)"/><path d="M854.24 529.35a12.8 12.8 0 0 1 4.6-9.84l23.2-19.3a16.57 16.57 0 0 1 10.6-3.85h275.6a6 6 0 0 1 6 6v225.6a16.57 16.57 0 0 1-3.84 10.6l-19.32 23.2a12.8 12.8 0 0 1-9.84 4.6h-281a6 6 0 0 1-6-6z" stroke="#3a414a" fill="#fff"/><path d="M860.24 523.35a2.17 2.17 0 0 1-1.4-3.84l23.2-19.3a16.57 16.57 0 0 1 10.6-3.85h275.6a2.48 2.48 0 0 1 1.75 4.24l-18.52 18.5a14.48 14.48 0 0 1-10.24 4.25z" stroke="#3a414a" fill="#e6e6e6"/><path d="M1147.24 529.35a14.48 14.48 0 0 1 4.24-10.24l18.5-18.5a2.48 2.48 0 0 1 4.26 1.75v225.6a16.57 16.57 0 0 1-3.84 10.6l-19.32 23.2a2.17 2.17 0 0 1-3.84-1.4z" stroke="#3a414a" fill="#ccc"/><use xlink:href="#k" transform="matrix(1,0,0,1,862.2373805523209,531.3515472926828) translate(0 17.77777777777778)"/><use xlink:href="#l" transform="matrix(1,0,0,1,862.2373805523209,531.3515472926828) translate(114.62962962962963 17.77777777777778)"/><use xlink:href="#m" transform="matrix(1,0,0,1,862.2373805523209,531.3515472926828) translate(0 44.44444444444444)"/><path d="M870.78 620a12.8 12.8 0 0 1 4.6-9.84l7.6-6.32a16.57 16.57 0 0 1 10.6-3.84h211.2a6 6 0 0 1 6 6v111.2a16.57 16.57 0 0 1-3.85 10.6l-6.3 7.6a12.8 12.8 0 0 1-9.85 4.6h-214a6 6 0 0 1-6-6z" stroke="#3a414a" fill="#fff"/><path d="M876.78 614a2.17 2.17 0 0 1-1.4-3.84l7.6-6.32a16.57 16.57 0 0 1 10.6-3.84h211.2a2.48 2.48 0 0 1 1.75 4.24l-5.5 5.52a14.48 14.48 0 0 1-10.25 4.24z" stroke="#3a414a" fill="#e6e6e6"/><path d="M1096.78 620a14.48 14.48 0 0 1 4.24-10.24l5.5-5.52a2.48 2.48 0 0 1 4.26 1.76v111.2a16.57 16.57 0 0 1-3.85 10.6l-6.3 7.6a2.17 2.17 0 0 1-3.85-1.4z" stroke="#3a414a" fill="#ccc"/><use xlink:href="#n" transform="matrix(1,0,0,1,878.7761900550747,622) translate(0 17.77777777777778)"/><use xlink:href="#m" transform="matrix(1,0,0,1,878.7761900550747,622) translate(55.55555555555556 17.77777777777778)"/><path d="M1296.54 258a12.8 12.8 0 0 1 4.6-9.84l29.2-24.32a16.57 16.57 0 0 1 10.6-3.84h269.6a6 6 0 0 1 6 6v495.95a16.57 16.57 0 0 1-3.84 10.6l-24.32 29.2a12.8 12.8 0 0 1-9.84 4.6h-276a6 6 0 0 1-6-6z" stroke="#3a414a" fill="#fff"/><path d="M1302.54 252a2.17 2.17 0 0 1-1.4-3.84l29.2-24.32a16.57 16.57 0 0 1 10.6-3.84h269.6a2.48 2.48 0 0 1 1.76 4.24l-23.52 23.52a14.48 14.48 0 0 1-10.24 4.24z" stroke="#3a414a" fill="#e6e6e6"/><path d="M1584.54 258a14.48 14.48 0 0 1 4.24-10.24l23.52-23.52a2.48 2.48 0 0 1 4.24 1.76v495.95a16.57 16.57 0 0 1-3.84 10.6l-24.32 29.2a2.17 2.17 0 0 1-3.84-1.4z" stroke="#3a414a" fill="#ccc"/><use xlink:href="#o" transform="matrix(1,0,0,1,1304.5388095027536,260) translate(0 17.77777777777778)"/><use xlink:href="#p" transform="matrix(1,0,0,1,1304.5388095027536,260) translate(51.79012345679012 17.77777777777778)"/><path d="M1320 331.96a12.8 12.8 0 0 1 4.6-9.84l11.33-9.43a16.57 16.57 0 0 1 10.6-3.85H1554a6 6 0 0 1 6 6v138.6a16.57 16.57 0 0 1-3.84 10.62l-9.43 11.32a12.8 12.8 0 0 1-9.85 4.6H1326a6 6 0 0 1-6-6z" stroke="#3a414a" fill="#fff"/><path d="M1326 325.96a2.17 2.17 0 0 1-1.4-3.84l11.33-9.43a16.57 16.57 0 0 1 10.6-3.85H1554a2.48 2.48 0 0 1 1.76 4.24l-8.63 8.62a14.48 14.48 0 0 1-10.25 4.24z" stroke="#3a414a" fill="#e6e6e6"/><path d="M1542.88 331.96a14.48 14.48 0 0 1 4.25-10.24l8.63-8.63a2.48 2.48 0 0 1 4.24 1.75v138.6a16.57 16.57 0 0 1-3.84 10.62l-9.43 11.32a2.17 2.17 0 0 1-3.85-1.4z" stroke="#3a414a" fill="#ccc"/><use xlink:href="#q" transform="matrix(1,0,0,1,1328,333.9643569723052) translate(0 17.77777777777778)"/><use xlink:href="#r" transform="matrix(1,0,0,1,1328,333.9643569723052) translate(94.69135802469137 17.77777777777778)"/><path d="M1320 572.48a12.8 12.8 0 0 1 4.6-9.84L1337.4 552a16.57 16.57 0 0 1 10.6-3.85H1554a6 6 0 0 1 6 6v149.28a16.57 16.57 0 0 1-3.84 10.6l-10.64 12.78a12.8 12.8 0 0 1-9.85 4.62H1326a6 6 0 0 1-6-6z" stroke="#3a414a" fill="#fff"/><path d="M1326 566.48a2.17 2.17 0 0 1-1.4-3.84L1337.4 552a16.57 16.57 0 0 1 10.6-3.85H1554a2.48 2.48 0 0 1 1.76 4.25l-9.84 9.84a14.48 14.48 0 0 1-10.25 4.24z" stroke="#3a414a" fill="#e6e6e6"/><path d="M1541.67 572.48a14.48 14.48 0 0 1 4.25-10.24l9.84-9.85a2.48 2.48 0 0 1 4.24 1.75v149.28a16.57 16.57 0 0 1-3.84 10.6l-10.64 12.78a2.17 2.17 0 0 1-3.85-1.38z" stroke="#3a414a" fill="#ccc"/><use xlink:href="#s" transform="matrix(1,0,0,1,1328,574.4789297406252) translate(0 17.77777777777778)"/><use xlink:href="#t" transform="matrix(1,0,0,1,1328,574.4789297406252) translate(92.5925925925926 17.77777777777778)"/><path d="M1753.45 253a12.8 12.8 0 0 1 4.6-9.84l23.2-19.32a16.57 16.57 0 0 1 10.6-3.84h275.6a6 6 0 0 1 6 6v225.6a16.57 16.57 0 0 1-3.84 10.6l-19.3 23.2a12.8 12.8 0 0 1-9.85 4.6h-281a6 6 0 0 1-6-6z" stroke="#3a414a" fill="#fff"/><path d="M1759.45 247a2.17 2.17 0 0 1-1.4-3.84l23.2-19.32a16.57 16.57 0 0 1 10.6-3.84h275.6a2.48 2.48 0 0 1 1.76 4.24l-18.5 18.52a14.48 14.48 0 0 1-10.25 4.24z" stroke="#3a414a" fill="#e6e6e6"/><path d="M2046.45 253a14.48 14.48 0 0 1 4.25-10.24l18.5-18.52a2.48 2.48 0 0 1 4.25 1.76v225.6a16.57 16.57 0 0 1-3.84 10.6l-19.3 23.2a2.17 2.17 0 0 1-3.85-1.4z" stroke="#3a414a" fill="#ccc"/><use xlink:href="#u" transform="matrix(1,0,0,1,1761.4521434256492,255) translate(0 17.77777777777778)"/><path d="M1778.64 316.64a12.8 12.8 0 0 1 4.6-9.84l10.7-8.92a16.57 16.57 0 0 1 10.62-3.84h208.08a6 6 0 0 1 6 6v134.04a16.57 16.57 0 0 1-3.84 10.6l-8.9 10.7a12.8 12.8 0 0 1-9.85 4.62h-211.4a6 6 0 0 1-6-6z" stroke="#3a414a" fill="#fff"/><path d="M1784.64 310.64a2.17 2.17 0 0 1-1.4-3.84l10.7-8.92a16.57 16.57 0 0 1 10.62-3.84h208.08a2.48 2.48 0 0 1 1.76 4.24l-8.1 8.1a14.48 14.48 0 0 1-10.25 4.26z" stroke="#3a414a" fill="#e6e6e6"/><path d="M2002.05 316.64a14.48 14.48 0 0 1 4.24-10.25l8.1-8.12a2.48 2.48 0 0 1 4.24 1.76v134.04a16.57 16.57 0 0 1-3.84 10.6l-8.9 10.7a2.17 2.17 0 0 1-3.85-1.38z" stroke="#3a414a" fill="#ccc"/><use xlink:href="#v" transform="matrix(1,0,0,1,1786.6439291715187,318.63696414358765) translate(0 17.77777777777778)"/><use xlink:href="#j" transform="matrix(1,0,0,1,1786.6439291715187,318.63696414358765) translate(67.77777777777777 17.77777777777778)"/><path d="M1753.45 545.24a12.8 12.8 0 0 1 4.6-9.84l20.96-17.45a16.57 16.57 0 0 1 10.6-3.84h277.85a6 6 0 0 1 6 6v209.2a16.57 16.57 0 0 1-3.84 10.6l-17.44 20.95a12.8 12.8 0 0 1-9.84 4.6h-282.87a6 6 0 0 1-6-6z" stroke="#3a414a" fill="#fff"/><path d="M1759.45 539.24a2.17 2.17 0 0 1-1.4-3.84l20.96-17.45a16.57 16.57 0 0 1 10.6-3.84h277.85a2.48 2.48 0 0 1 1.76 4.25L2052.57 535a14.48 14.48 0 0 1-10.24 4.24z" stroke="#3a414a" fill="#e6e6e6"/><path d="M2048.32 545.24a14.48 14.48 0 0 1 4.24-10.24l16.65-16.65a2.48 2.48 0 0 1 4.25 1.76v209.2a16.57 16.57 0 0 1-3.84 10.6l-17.44 20.95a2.17 2.17 0 0 1-3.84-1.4z" stroke="#3a414a" fill="#ccc"/><use xlink:href="#w" transform="matrix(1,0,0,1,1761.4521434256492,547.2442633097834) translate(0 17.77777777777778)"/><path d="M1778.64 620a12.8 12.8 0 0 1 4.6-9.84l7.6-6.32a16.57 16.57 0 0 1 10.6-3.84h211.2a6 6 0 0 1 6 6v111.2a16.57 16.57 0 0 1-3.84 10.6l-6.32 7.6a12.8 12.8 0 0 1-9.84 4.6h-214a6 6 0 0 1-6-6z" stroke="#3a414a" fill="#fff"/><path d="M1784.64 614a2.17 2.17 0 0 1-1.4-3.84l7.6-6.32a16.57 16.57 0 0 1 10.6-3.84h211.2a2.48 2.48 0 0 1 1.76 4.24l-5.5 5.52a14.48 14.48 0 0 1-10.26 4.24z" stroke="#3a414a" fill="#e6e6e6"/><path d="M2004.64 620a14.48 14.48 0 0 1 4.25-10.24l5.5-5.52a2.48 2.48 0 0 1 4.24 1.76v111.2a16.57 16.57 0 0 1-3.84 10.6l-6.32 7.6a2.17 2.17 0 0 1-3.84-1.4z" stroke="#3a414a" fill="#ccc"/><use xlink:href="#x" transform="matrix(1,0,0,1,1786.6439291715187,622) translate(0 17.77777777777778)"/><use xlink:href="#j" transform="matrix(1,0,0,1,1786.6439291715187,622) translate(67.34567901234567 17.77777777777778)"/><path d="M1562 639.8h101.32a6 6 0 0 0 6-6V383a6 6 0 0 1 6-6h82.2" stroke="#3a414a" stroke-width="3" fill="none"/><path d="M1562.04 641.3h-1.54v-3h1.54z" stroke="#3a414a" stroke-width=".05" fill="#3a414a"/><path d="M1773.3 377.02l-14.28 4.64v-9.28z" stroke="#3a414a" stroke-width="3" fill="#3a414a"/><path d="M1562 639.8h101.32a6 6 0 0 1 6 6V664a6 6 0 0 0 6 6h82.2" stroke="#3a414a" stroke-width="3" fill="none"/><path d="M1562.04 641.3h-1.54v-3h1.54z" stroke="#3a414a" stroke-width=".05" fill="#3a414a"/><path d="M1773.3 670l-14.28 4.63v-9.26z" stroke="#3a414a" stroke-width="3" fill="#3a414a"/><path d="M1112.78 670h96.6a6 6 0 0 0 6-6v-18.22a6 6 0 0 1 6-6h77.5" stroke="#3a414a" stroke-width="3" fill="none"/><path d="M1112.82 671.5h-1.54v-3h1.54z" stroke="#3a414a" stroke-width=".05" fill="#3a414a"/><path d="M1314.65 639.8l-14.27 4.62v-9.27z" stroke="#3a414a" stroke-width="3" fill="#3a414a"/><path d="M631.42 340h201.7" stroke="#1071e5" stroke-width="3" fill="none"/><path d="M631.46 341.5h-1.54v-3h1.54z" stroke="#1071e5" stroke-width=".05" fill="#1071e5"/><path d="M848.88 340l-14.26 4.63v-9.26z" stroke="#1071e5" stroke-width="3" fill="#1071e5"/><path d="M631.42 744.42h104.4a6 6 0 0 0 6-6V346a6 6 0 0 1 6-6h85.3" stroke="#1071e5" stroke-width="3" fill="none"/><path d="M631.46 745.92h-1.54v-3h1.54z" stroke="#1071e5" stroke-width=".05" fill="#1071e5"/><path d="M848.88 340l-14.26 4.63v-9.26z" stroke="#1071e5" stroke-width="3" fill="#1071e5"/><path d="M573.15 390h141.8a6 6 0 0 1 6 6v268a6 6 0 0 0 6 6h122.7" stroke="#008a0e" stroke-width="3" fill="none"/><path d="M573.2 391.5h-1.55v-3h1.54z" stroke="#008a0e" stroke-width=".05" fill="#008a0e"/><path d="M865.42 670l-14.26 4.63v-9.26z" stroke="#008a0e" stroke-width="3" fill="#008a0e"/><path d="M573.15 790.96h141.8a6 6 0 0 0 6-6V676a6 6 0 0 1 6-6h122.7" stroke="#008a0e" stroke-width="3" fill="none"/><path d="M573.2 792.46h-1.55v-3h1.54z" stroke="#008a0e" stroke-width=".05" fill="#008a0e"/><path d="M865.42 670l-14.26 4.63v-9.26z" stroke="#008a0e" stroke-width="3" fill="#008a0e"/><path d="M1112.78 670h96.6a6 6 0 0 0 6-6V400.43a6 6 0 0 1 6-6h77.5" stroke="#3a414a" stroke-width="3" fill="none"/><path d="M1112.82 671.5h-1.54v-3h1.54z" stroke="#3a414a" stroke-width=".05" fill="#3a414a"/><path d="M1314.65 394.43l-14.27 4.63v-9.27z" stroke="#3a414a" stroke-width="3" fill="#3a414a"/><path d="M1440 482v45.03" stroke="#3a414a" stroke-width="3" fill="none"/><path d="M1441.5 482.04h-3v-1.54h3z" stroke="#3a414a" stroke-width=".05" fill="#3a414a"/><path d="M1440 542.8l-4.63-14.27h9.27z" stroke="#3a414a" stroke-width="3" fill="#3a414a"/><defs><path fill="#3a414a" d="M205 0l-28-72H64L36 0H1l101-248h38L239 0h-34zm-38-99l-47-123c-12 45-31 82-46 123h93" id="y"/><path fill="#3a414a" d="M266 0h-40l-56-210L115 0H75L2-248h35L96-30l15-64 43-154h32l59 218 59-218h35" id="z"/><path fill="#3a414a" d="M185-189c-5-48-123-54-124 2 14 75 158 14 163 119 3 78-121 87-175 55-17-10-28-26-33-46l33-7c5 56 141 63 141-1 0-78-155-14-162-118-5-82 145-84 179-34 5 7 8 16 11 25" id="A"/><g id="a"><use transform="matrix(0.06172839506172839,0,0,0.06172839506172839,0,0)" xlink:href="#y"/><use transform="matrix(0.06172839506172839,0,0,0.06172839506172839,14.012345679012345,0)" xlink:href="#z"/><use transform="matrix(0.06172839506172839,0,0,0.06172839506172839,34.938271604938265,0)" xlink:href="#A"/></g><path fill="#3a414a" d="M30-248c118-7 216 8 213 122C240-48 200 0 122 0H30v-248zM63-27c89 8 146-16 146-99s-60-101-146-95v194" id="B"/><path fill="#3a414a" d="M100-194c63 0 86 42 84 106H49c0 40 14 67 53 68 26 1 43-12 49-29l28 8c-11 28-37 45-77 45C44 4 14-33 15-96c1-61 26-98 85-98zm52 81c6-60-76-77-97-28-3 7-6 17-6 28h103" id="C"/><path fill="#3a414a" d="M108 0H70L1-190h34L89-25l56-165h34" id="D"/><path fill="#3a414a" d="M24-231v-30h32v30H24zM24 0v-190h32V0H24" id="E"/><path fill="#3a414a" d="M96-169c-40 0-48 33-48 73s9 75 48 75c24 0 41-14 43-38l32 2c-6 37-31 61-74 61-59 0-76-41-82-99-10-93 101-131 147-64 4 7 5 14 7 22l-32 3c-4-21-16-35-41-35" id="F"/><path fill="#3a414a" d="M87 75C49 33 22-17 22-94c0-76 28-126 65-167h31c-38 41-64 92-64 168S80 34 118 75H87" id="G"/><path fill="#3a414a" d="M240 0l2-218c-23 76-54 145-80 218h-23L58-218 59 0H30v-248h44l77 211c21-75 51-140 76-211h43V0h-30" id="H"/><path fill="#3a414a" d="M100-194c62-1 85 37 85 99 1 63-27 99-86 99S16-35 15-95c0-66 28-99 85-99zM99-20c44 1 53-31 53-75 0-43-8-75-51-75s-53 32-53 75 10 74 51 75" id="I"/><path fill="#3a414a" d="M115-194c53 0 69 39 70 98 0 66-23 100-70 100C84 3 66-7 56-30L54 0H23l1-261h32v101c10-23 28-34 59-34zm-8 174c40 0 45-34 45-75 0-40-5-75-45-74-42 0-51 32-51 76 0 43 10 73 51 73" id="J"/><path fill="#3a414a" d="M24 0v-261h32V0H24" id="K"/><path fill="#3a414a" d="M33-261c38 41 65 92 65 168S71 34 33 75H2C39 34 66-17 66-93S39-220 2-261h31" id="L"/><g id="b"><use transform="matrix(0.06172839506172839,0,0,0.06172839506172839,0,0)" xlink:href="#B"/><use transform="matrix(0.06172839506172839,0,0,0.06172839506172839,15.987654320987653,0)" xlink:href="#C"/><use transform="matrix(0.06172839506172839,0,0,0.06172839506172839,28.333333333333332,0)" xlink:href="#D"/><use transform="matrix(0.06172839506172839,0,0,0.06172839506172839,39.44444444444444,0)" xlink:href="#E"/><use transform="matrix(0.06172839506172839,0,0,0.06172839506172839,44.32098765432099,0)" xlink:href="#F"/><use transform="matrix(0.06172839506172839,0,0,0.06172839506172839,55.4320987654321,0)" xlink:href="#C"/><use transform="matrix(0.06172839506172839,0,0,0.06172839506172839,67.77777777777779,0)" xlink:href="#G"/><use transform="matrix(0.06172839506172839,0,0,0.06172839506172839,75.12345679012347,0)" xlink:href="#H"/><use transform="matrix(0.06172839506172839,0,0,0.06172839506172839,93.58024691358025,0)" xlink:href="#I"/><use transform="matrix(0.06172839506172839,0,0,0.06172839506172839,105.92592592592594,0)" xlink:href="#J"/><use transform="matrix(0.06172839506172839,0,0,0.06172839506172839,118.27160493827162,0)" xlink:href="#E"/><use transform="matrix(0.06172839506172839,0,0,0.06172839506172839,123.14814814814817,0)" xlink:href="#K"/><use transform="matrix(0.06172839506172839,0,0,0.06172839506172839,128.0246913580247,0)" xlink:href="#C"/><use transform="matrix(0.06172839506172839,0,0,0.06172839506172839,140.37037037037038,0)" xlink:href="#L"/></g><path fill="#3a414a" d="M160-131c35 5 61 23 61 61C221 17 115-2 30 0v-248c76 3 177-17 177 60 0 33-19 50-47 57zm-97-11c50-1 110 9 110-42 0-47-63-36-110-37v79zm0 115c55-2 124 14 124-45 0-56-70-42-124-44v89" id="M"/><path fill="#3a414a" d="M114-163C36-179 61-72 57 0H25l-1-190h30c1 12-1 29 2 39 6-27 23-49 58-41v29" id="N"/><path fill="#3a414a" d="M206 0h-36l-40-164L89 0H53L-1-190h32L70-26l43-164h34l41 164 42-164h31" id="O"/><path fill="#3a414a" d="M135-143c-3-34-86-38-87 0 15 53 115 12 119 90S17 21 10-45l28-5c4 36 97 45 98 0-10-56-113-15-118-90-4-57 82-63 122-42 12 7 21 19 24 35" id="P"/><g id="c"><use transform="matrix(0.06172839506172839,0,0,0.06172839506172839,0,0)" xlink:href="#M"/><use transform="matrix(0.06172839506172839,0,0,0.06172839506172839,14.814814814814813,0)" xlink:href="#N"/><use transform="matrix(0.06172839506172839,0,0,0.06172839506172839,22.160493827160494,0)" xlink:href="#I"/><use transform="matrix(0.06172839506172839,0,0,0.06172839506172839,34.50617283950617,0)" xlink:href="#O"/><use transform="matrix(0.06172839506172839,0,0,0.06172839506172839,50.49382716049382,0)" xlink:href="#P"/><use transform="matrix(0.06172839506172839,0,0,0.06172839506172839,61.60493827160494,0)" xlink:href="#C"/><use transform="matrix(0.06172839506172839,0,0,0.06172839506172839,73.95061728395062,0)" xlink:href="#N"/></g><path fill="#3a414a" d="M117-194c89-4 53 116 60 194h-32v-121c0-31-8-49-39-48C34-167 62-67 57 0H25l-1-190h30c1 10-1 24 2 32 11-22 29-35 61-36" id="Q"/><path fill="#3a414a" d="M85-194c31 0 48 13 60 33l-1-100h32l1 261h-30c-2-10 0-23-3-31C134-8 116 4 85 4 32 4 16-35 15-94c0-66 23-100 70-100zm9 24c-40 0-46 34-46 75 0 40 6 74 45 74 42 0 51-32 51-76 0-42-9-74-50-73" id="R"/><path fill="#3a414a" d="M141 0L90-78 38 0H4l68-98-65-92h35l48 74 47-74h35l-64 92 68 98h-35" id="S"/><path fill="#3a414a" d="M33 0v-38h34V0H33" id="T"/><path fill="#3a414a" d="M106-169C34-169 62-67 57 0H25v-261h32l-1 103c12-21 28-36 61-36 89 0 53 116 60 194h-32v-121c2-32-8-49-39-48" id="U"/><path fill="#3a414a" d="M59-47c-2 24 18 29 38 22v24C64 9 27 4 27-40v-127H5v-23h24l9-43h21v43h35v23H59v120" id="V"/><path fill="#3a414a" d="M210-169c-67 3-38 105-44 169h-31v-121c0-29-5-50-35-48C34-165 62-65 56 0H25l-1-190h30c1 10-1 24 2 32 10-44 99-50 107 0 11-21 27-35 58-36 85-2 47 119 55 194h-31v-121c0-29-5-49-35-48" id="W"/><g id="d"><use transform="matrix(0.06172839506172839,0,0,0.06172839506172839,0,0)" xlink:href="#E"/><use transform="matrix(0.06172839506172839,0,0,0.06172839506172839,4.876543209876543,0)" xlink:href="#Q"/><use transform="matrix(0.06172839506172839,0,0,0.06172839506172839,17.22222222222222,0)" xlink:href="#R"/><use transform="matrix(0.06172839506172839,0,0,0.06172839506172839,29.5679012345679,0)" xlink:href="#C"/><use transform="matrix(0.06172839506172839,0,0,0.06172839506172839,41.913580246913575,0)" xlink:href="#S"/><use transform="matrix(0.06172839506172839,0,0,0.06172839506172839,53.02469135802468,0)" xlink:href="#T"/><use transform="matrix(0.06172839506172839,0,0,0.06172839506172839,59.197530864197525,0)" xlink:href="#U"/><use transform="matrix(0.06172839506172839,0,0,0.06172839506172839,71.5432098765432,0)" xlink:href="#V"/><use transform="matrix(0.06172839506172839,0,0,0.06172839506172839,77.71604938271604,0)" xlink:href="#W"/><use transform="matrix(0.06172839506172839,0,0,0.06172839506172839,96.17283950617282,0)" xlink:href="#K"/></g><path fill="#3a414a" d="M24-231v-30h32v30H24zM-9 49c24 4 33-6 33-30v-209h32V24c2 40-23 58-65 49V49" id="X"/><g id="e"><use transform="matrix(0.06172839506172839,0,0,0.06172839506172839,0,0)" xlink:href="#E"/><use transform="matrix(0.06172839506172839,0,0,0.06172839506172839,4.876543209876543,0)" xlink:href="#Q"/><use transform="matrix(0.06172839506172839,0,0,0.06172839506172839,17.22222222222222,0)" xlink:href="#R"/><use transform="matrix(0.06172839506172839,0,0,0.06172839506172839,29.5679012345679,0)" xlink:href="#C"/><use transform="matrix(0.06172839506172839,0,0,0.06172839506172839,41.913580246913575,0)" xlink:href="#S"/><use transform="matrix(0.06172839506172839,0,0,0.06172839506172839,53.02469135802468,0)" xlink:href="#T"/><use transform="matrix(0.06172839506172839,0,0,0.06172839506172839,59.197530864197525,0)" xlink:href="#X"/><use transform="matrix(0.06172839506172839,0,0,0.06172839506172839,64.07407407407406,0)" xlink:href="#P"/></g><path fill="#3a414a" d="M143 0L79-87 56-68V0H24v-261h32v163l83-92h37l-77 82L181 0h-38" id="Y"/><path fill="#3a414a" d="M115-194c55 1 70 41 70 98S169 2 115 4C84 4 66-9 55-30l1 105H24l-1-265h31l2 30c10-21 28-34 59-34zm-8 174c40 0 45-34 45-75s-6-73-45-74c-42 0-51 32-51 76 0 43 10 73 51 73" id="Z"/><g id="f"><use transform="matrix(0.06172839506172839,0,0,0.06172839506172839,0,0)" xlink:href="#B"/><use transform="matrix(0.06172839506172839,0,0,0.06172839506172839,15.987654320987653,0)" xlink:href="#C"/><use transform="matrix(0.06172839506172839,0,0,0.06172839506172839,28.333333333333332,0)" xlink:href="#D"/><use transform="matrix(0.06172839506172839,0,0,0.06172839506172839,39.44444444444444,0)" xlink:href="#E"/><use transform="matrix(0.06172839506172839,0,0,0.06172839506172839,44.32098765432099,0)" xlink:href="#F"/><use transform="matrix(0.06172839506172839,0,0,0.06172839506172839,55.4320987654321,0)" xlink:href="#C"/><use transform="matrix(0.06172839506172839,0,0,0.06172839506172839,67.77777777777779,0)" xlink:href="#G"/><use transform="matrix(0.06172839506172839,0,0,0.06172839506172839,75.12345679012347,0)" xlink:href="#B"/><use transform="matrix(0.06172839506172839,0,0,0.06172839506172839,91.11111111111113,0)" xlink:href="#C"/><use transform="matrix(0.06172839506172839,0,0,0.06172839506172839,103.45679012345681,0)" xlink:href="#P"/><use transform="matrix(0.06172839506172839,0,0,0.06172839506172839,114.56790123456793,0)" xlink:href="#Y"/><use transform="matrix(0.06172839506172839,0,0,0.06172839506172839,125.67901234567904,0)" xlink:href="#V"/><use transform="matrix(0.06172839506172839,0,0,0.06172839506172839,131.85185185185188,0)" xlink:href="#I"/><use transform="matrix(0.06172839506172839,0,0,0.06172839506172839,144.19753086419755,0)" xlink:href="#Z"/><use transform="matrix(0.06172839506172839,0,0,0.06172839506172839,156.54320987654322,0)" xlink:href="#L"/></g><path fill="#3a414a" d="M233-177c-1 41-23 64-60 70L243 0h-38l-65-103H63V0H30v-248c88 3 205-21 203 71zM63-129c60-2 137 13 137-47 0-61-80-42-137-45v92" id="aa"/><path fill="#3a414a" d="M84 4C-5 8 30-112 23-190h32v120c0 31 7 50 39 49 72-2 45-101 50-169h31l1 190h-30c-1-10 1-25-2-33-11 22-28 36-60 37" id="ab"/><path fill="#3a414a" d="M54-142c48-35 137-8 131 61C196 18 31 33 14-55l32-4c7 23 22 37 52 37 35-1 51-22 54-58 4-55-73-65-99-34H22l8-134h141v27H59" id="ac"/><path fill="#3a414a" d="M126-127c33 6 58 20 58 59 0 88-139 92-164 29-3-8-5-16-6-25l32-3c6 27 21 44 54 44 32 0 52-15 52-46 0-38-36-46-79-43v-28c39 1 72-4 72-42 0-27-17-43-46-43-28 0-47 15-49 41l-32-3c6-42 35-63 81-64 48-1 79 21 79 65 0 36-21 52-52 59" id="ad"/><g id="h"><use transform="matrix(0.06172839506172839,0,0,0.06172839506172839,0,0)" xlink:href="#aa"/><use transform="matrix(0.06172839506172839,0,0,0.06172839506172839,15.987654320987653,0)" xlink:href="#I"/><use transform="matrix(0.06172839506172839,0,0,0.06172839506172839,28.333333333333332,0)" xlink:href="#ab"/><use transform="matrix(0.06172839506172839,0,0,0.06172839506172839,40.67901234567901,0)" xlink:href="#V"/><use transform="matrix(0.06172839506172839,0,0,0.06172839506172839,46.851851851851855,0)" xlink:href="#C"/><use transform="matrix(0.06172839506172839,0,0,0.06172839506172839,59.19753086419753,0)" xlink:href="#ac"/><use transform="matrix(0.06172839506172839,0,0,0.06172839506172839,71.54320987654322,0)" xlink:href="#ad"/></g><path fill="#3a414a" d="M190 0L58-211 59 0H30v-248h39L202-35l-2-213h31V0h-41" id="ae"/><g id="i"><use transform="matrix(0.06172839506172839,0,0,0.06172839506172839,0,0)" xlink:href="#B"/><use transform="matrix(0.06172839506172839,0,0,0.06172839506172839,15.987654320987653,0)" xlink:href="#ae"/><use transform="matrix(0.06172839506172839,0,0,0.06172839506172839,31.975308641975307,0)" xlink:href="#A"/></g><g id="j"><use transform="matrix(0.06172839506172839,0,0,0.06172839506172839,0,0)" xlink:href="#A"/><use transform="matrix(0.06172839506172839,0,0,0.06172839506172839,14.814814814814813,0)" xlink:href="#C"/><use transform="matrix(0.06172839506172839,0,0,0.06172839506172839,27.160493827160494,0)" xlink:href="#N"/><use transform="matrix(0.06172839506172839,0,0,0.06172839506172839,34.50617283950617,0)" xlink:href="#D"/><use transform="matrix(0.06172839506172839,0,0,0.06172839506172839,45.61728395061728,0)" xlink:href="#C"/><use transform="matrix(0.06172839506172839,0,0,0.06172839506172839,57.962962962962955,0)" xlink:href="#N"/></g><path fill="#3a414a" d="M141-36C126-15 110 5 73 4 37 3 15-17 15-53c-1-64 63-63 125-63 3-35-9-54-41-54-24 1-41 7-42 31l-33-3c5-37 33-52 76-52 45 0 72 20 72 64v82c-1 20 7 32 28 27v20c-31 9-61-2-59-35zM48-53c0 20 12 33 32 33 41-3 63-29 60-74-43 2-92-5-92 41" id="af"/><g id="k"><use transform="matrix(0.06172839506172839,0,0,0.06172839506172839,0,0)" xlink:href="#y"/><use transform="matrix(0.06172839506172839,0,0,0.06172839506172839,14.814814814814813,0)" xlink:href="#Z"/><use transform="matrix(0.06172839506172839,0,0,0.06172839506172839,27.160493827160494,0)" xlink:href="#Z"/><use transform="matrix(0.06172839506172839,0,0,0.06172839506172839,39.50617283950617,0)" xlink:href="#K"/><use transform="matrix(0.06172839506172839,0,0,0.06172839506172839,44.382716049382715,0)" xlink:href="#E"/><use transform="matrix(0.06172839506172839,0,0,0.06172839506172839,49.25925925925926,0)" xlink:href="#F"/><use transform="matrix(0.06172839506172839,0,0,0.06172839506172839,60.37037037037037,0)" xlink:href="#af"/><use transform="matrix(0.06172839506172839,0,0,0.06172839506172839,72.71604938271605,0)" xlink:href="#V"/><use transform="matrix(0.06172839506172839,0,0,0.06172839506172839,78.88888888888889,0)" xlink:href="#E"/><use transform="matrix(0.06172839506172839,0,0,0.06172839506172839,83.76543209876543,0)" xlink:href="#I"/><use transform="matrix(0.06172839506172839,0,0,0.06172839506172839,96.11111111111111,0)" xlink:href="#Q"/></g><path fill="#3a414a" d="M30 0v-248h33v221h125V0H30" id="ag"/><g id="l"><use transform="matrix(0.06172839506172839,0,0,0.06172839506172839,0,0)" xlink:href="#ag"/><use transform="matrix(0.06172839506172839,0,0,0.06172839506172839,12.345679012345679,0)" xlink:href="#I"/><use transform="matrix(0.06172839506172839,0,0,0.06172839506172839,24.691358024691358,0)" xlink:href="#af"/><use transform="matrix(0.06172839506172839,0,0,0.06172839506172839,37.03703703703704,0)" xlink:href="#R"/></g><g id="m"><use transform="matrix(0.06172839506172839,0,0,0.06172839506172839,0,0)" xlink:href="#M"/><use transform="matrix(0.06172839506172839,0,0,0.06172839506172839,14.814814814814813,0)" xlink:href="#af"/><use transform="matrix(0.06172839506172839,0,0,0.06172839506172839,27.160493827160494,0)" xlink:href="#K"/><use transform="matrix(0.06172839506172839,0,0,0.06172839506172839,32.03703703703704,0)" xlink:href="#af"/><use transform="matrix(0.06172839506172839,0,0,0.06172839506172839,44.382716049382715,0)" xlink:href="#Q"/><use transform="matrix(0.06172839506172839,0,0,0.06172839506172839,56.72839506172839,0)" xlink:href="#F"/><use transform="matrix(0.06172839506172839,0,0,0.06172839506172839,67.8395061728395,0)" xlink:href="#C"/><use transform="matrix(0.06172839506172839,0,0,0.06172839506172839,80.18518518518519,0)" xlink:href="#N"/></g><g id="n"><use transform="matrix(0.06172839506172839,0,0,0.06172839506172839,0,0)" xlink:href="#ag"/><use transform="matrix(0.06172839506172839,0,0,0.06172839506172839,12.345679012345679,0)" xlink:href="#I"/><use transform="matrix(0.06172839506172839,0,0,0.06172839506172839,24.691358024691358,0)" xlink:href="#af"/><use transform="matrix(0.06172839506172839,0,0,0.06172839506172839,37.03703703703704,0)" xlink:href="#R"/></g><path fill="#3a414a" d="M30 0v-248h187v28H63v79h144v27H63v87h162V0H30" id="ah"/><path fill="#3a414a" d="M212-179c-10-28-35-45-73-45-59 0-87 40-87 99 0 60 29 101 89 101 43 0 62-24 78-52l27 14C228-24 195 4 139 4 59 4 22-46 18-125c-6-104 99-153 187-111 19 9 31 26 39 46" id="ai"/><g id="o"><use transform="matrix(0.06172839506172839,0,0,0.06172839506172839,0,0)" xlink:href="#ah"/><use transform="matrix(0.06172839506172839,0,0,0.06172839506172839,14.814814814814813,0)" xlink:href="#ai"/><use transform="matrix(0.06172839506172839,0,0,0.06172839506172839,30.80246913580247,0)" xlink:href="#A"/></g><g id="p"><use transform="matrix(0.06172839506172839,0,0,0.06172839506172839,0,0)" xlink:href="#ai"/><use transform="matrix(0.06172839506172839,0,0,0.06172839506172839,15.987654320987653,0)" xlink:href="#K"/><use transform="matrix(0.06172839506172839,0,0,0.06172839506172839,20.864197530864196,0)" xlink:href="#ab"/><use transform="matrix(0.06172839506172839,0,0,0.06172839506172839,33.20987654320987,0)" xlink:href="#P"/><use transform="matrix(0.06172839506172839,0,0,0.06172839506172839,44.32098765432099,0)" xlink:href="#V"/><use transform="matrix(0.06172839506172839,0,0,0.06172839506172839,50.49382716049383,0)" xlink:href="#C"/><use transform="matrix(0.06172839506172839,0,0,0.06172839506172839,62.839506172839506,0)" xlink:href="#N"/></g><path fill="#3a414a" d="M63-220v92h138v28H63V0H30v-248h175v28H63" id="aj"/><g id="q"><use transform="matrix(0.06172839506172839,0,0,0.06172839506172839,0,0)" xlink:href="#aj"/><use transform="matrix(0.06172839506172839,0,0,0.06172839506172839,13.518518518518517,0)" xlink:href="#N"/><use transform="matrix(0.06172839506172839,0,0,0.06172839506172839,20.864197530864196,0)" xlink:href="#I"/><use transform="matrix(0.06172839506172839,0,0,0.06172839506172839,33.20987654320987,0)" xlink:href="#Q"/><use transform="matrix(0.06172839506172839,0,0,0.06172839506172839,45.55555555555555,0)" xlink:href="#V"/><use transform="matrix(0.06172839506172839,0,0,0.06172839506172839,51.72839506172839,0)" xlink:href="#C"/><use transform="matrix(0.06172839506172839,0,0,0.06172839506172839,64.07407407407408,0)" xlink:href="#Q"/><use transform="matrix(0.06172839506172839,0,0,0.06172839506172839,76.41975308641976,0)" xlink:href="#R"/></g><path d="M185-189c-5-48-123-54-124 2 14 75 158 14 163 119 3 78-121 87-175 55-17-10-28-26-33-46l33-7c5 56 141 63 141-1 0-78-155-14-162-118-5-82 145-84 179-34 5 7 8 16 11 25" id="ak"/><path d="M100-194c63 0 86 42 84 106H49c0 40 14 67 53 68 26 1 43-12 49-29l28 8c-11 28-37 45-77 45C44 4 14-33 15-96c1-61 26-98 85-98zm52 81c6-60-76-77-97-28-3 7-6 17-6 28h103" id="al"/><path d="M114-163C36-179 61-72 57 0H25l-1-190h30c1 12-1 29 2 39 6-27 23-49 58-41v29" id="am"/><path d="M108 0H70L1-190h34L89-25l56-165h34" id="an"/><path d="M24-231v-30h32v30H24zM24 0v-190h32V0H24" id="ao"/><path d="M96-169c-40 0-48 33-48 73s9 75 48 75c24 0 41-14 43-38l32 2c-6 37-31 61-74 61-59 0-76-41-82-99-10-93 101-131 147-64 4 7 5 14 7 22l-32 3c-4-21-16-35-41-35" id="ap"/><g id="r"><use transform="matrix(0.05925925925925927,0,0,0.05925925925925927,0,0)" xlink:href="#ak"/><use transform="matrix(0.05925925925925927,0,0,0.05925925925925927,14.222222222222225,0)" xlink:href="#al"/><use transform="matrix(0.05925925925925927,0,0,0.05925925925925927,26.074074074074076,0)" xlink:href="#am"/><use transform="matrix(0.05925925925925927,0,0,0.05925925925925927,33.12592592592593,0)" xlink:href="#an"/><use transform="matrix(0.05925925925925927,0,0,0.05925925925925927,43.7925925925926,0)" xlink:href="#ao"/><use transform="matrix(0.05925925925925927,0,0,0.05925925925925927,48.47407407407408,0)" xlink:href="#ap"/><use transform="matrix(0.05925925925925927,0,0,0.05925925925925927,59.14074074074075,0)" xlink:href="#al"/></g><g id="s"><use transform="matrix(0.06172839506172839,0,0,0.06172839506172839,0,0)" xlink:href="#M"/><use transform="matrix(0.06172839506172839,0,0,0.06172839506172839,14.814814814814813,0)" xlink:href="#af"/><use transform="matrix(0.06172839506172839,0,0,0.06172839506172839,27.160493827160494,0)" xlink:href="#F"/><use transform="matrix(0.06172839506172839,0,0,0.06172839506172839,38.27160493827161,0)" xlink:href="#Y"/><use transform="matrix(0.06172839506172839,0,0,0.06172839506172839,49.38271604938272,0)" xlink:href="#C"/><use transform="matrix(0.06172839506172839,0,0,0.06172839506172839,61.7283950617284,0)" xlink:href="#Q"/><use transform="matrix(0.06172839506172839,0,0,0.06172839506172839,74.07407407407408,0)" xlink:href="#R"/></g><g id="t"><use transform="matrix(0.06172839506172839,0,0,0.06172839506172839,0,0)" xlink:href="#A"/><use transform="matrix(0.06172839506172839,0,0,0.06172839506172839,14.814814814814813,0)" xlink:href="#C"/><use transform="matrix(0.06172839506172839,0,0,0.06172839506172839,27.160493827160494,0)" xlink:href="#N"/><use transform="matrix(0.06172839506172839,0,0,0.06172839506172839,34.50617283950617,0)" xlink:href="#D"/><use transform="matrix(0.06172839506172839,0,0,0.06172839506172839,45.61728395061728,0)" xlink:href="#E"/><use transform="matrix(0.06172839506172839,0,0,0.06172839506172839,50.49382716049382,0)" xlink:href="#F"/><use transform="matrix(0.06172839506172839,0,0,0.06172839506172839,61.60493827160494,0)" xlink:href="#C"/></g><g id="u"><use transform="matrix(0.06172839506172839,0,0,0.06172839506172839,0,0)" xlink:href="#aa"/><use transform="matrix(0.06172839506172839,0,0,0.06172839506172839,15.987654320987653,0)" xlink:href="#B"/><use transform="matrix(0.06172839506172839,0,0,0.06172839506172839,31.975308641975307,0)" xlink:href="#A"/></g><path fill="#3a414a" d="M179-190L93 31C79 59 56 82 12 73V49c39 6 53-20 64-50L1-190h34L92-34l54-156h33" id="aq"/><path fill="#3a414a" d="M145-31C134-9 116 4 85 4 32 4 16-35 15-94c0-59 17-99 70-100 32-1 48 14 60 33 0-11-1-24 2-32h30l-1 268h-32zM93-21c41 0 51-33 51-76s-8-73-50-73c-40 0-46 35-46 75s5 74 45 74" id="ar"/><g id="v"><use transform="matrix(0.06172839506172839,0,0,0.06172839506172839,0,0)" xlink:href="#H"/><use transform="matrix(0.06172839506172839,0,0,0.06172839506172839,18.456790123456788,0)" xlink:href="#aq"/><use transform="matrix(0.06172839506172839,0,0,0.06172839506172839,29.5679012345679,0)" xlink:href="#A"/><use transform="matrix(0.06172839506172839,0,0,0.06172839506172839,44.38271604938271,0)" xlink:href="#ar"/><use transform="matrix(0.06172839506172839,0,0,0.06172839506172839,56.728395061728385,0)" xlink:href="#K"/></g><g id="w"><use transform="matrix(0.06172839506172839,0,0,0.06172839506172839,0,0)" xlink:href="#A"/><use transform="matrix(0.06172839506172839,0,0,0.06172839506172839,14.814814814814813,0)" xlink:href="#ah"/><use transform="matrix(0.06172839506172839,0,0,0.06172839506172839,29.629629629629626,0)" xlink:href="#A"/></g><path fill="#3a414a" d="M127-220V0H93v-220H8v-28h204v28h-85" id="as"/><path fill="#3a414a" d="M30-248c87 1 191-15 191 75 0 78-77 80-158 76V0H30v-248zm33 125c57 0 124 11 124-50 0-59-68-47-124-48v98" id="at"/><g id="x"><use transform="matrix(0.06172839506172839,0,0,0.06172839506172839,0,0)" xlink:href="#A"/><use transform="matrix(0.06172839506172839,0,0,0.06172839506172839,14.814814814814813,0)" xlink:href="#H"/><use transform="matrix(0.06172839506172839,0,0,0.06172839506172839,33.2716049382716,0)" xlink:href="#as"/><use transform="matrix(0.06172839506172839,0,0,0.06172839506172839,46.79012345679012,0)" xlink:href="#at"/></g></defs></g></svg>