<?xml version="1.0" encoding="UTF-8" standalone="no"?><svg xmlns="http://www.w3.org/2000/svg" xmlns:xlink="http://www.w3.org/1999/xlink" contentStyleType="text/css" height="2856px" preserveAspectRatio="none" style="width:1238px;height:2856px;background:#FFFFFF;" version="1.1" viewBox="0 0 1238 2856" width="1238px" zoomAndPan="magnify"><defs/><g><!--MD5=[fca8240bc233c06068545f9c8883ae88]
cluster Frontend--><g id="cluster_Frontend"><path d="M8.5,6 L73.5,6 A3.75,3.75 0 0 1 76,8.5 L83,28.4883 L753,28.4883 A2.5,2.5 0 0 1 755.5,30.9883 L755.5,1098.5 A2.5,2.5 0 0 1 753,1101 L8.5,1101 A2.5,2.5 0 0 1 6,1098.5 L6,8.5 A2.5,2.5 0 0 1 8.5,6 " fill="none" style="stroke:#000000;stroke-width:1.5;"/><line style="stroke:#000000;stroke-width:1.5;" x1="6" x2="83" y1="28.4883" y2="28.4883"/><text fill="#000000" font-family="sans-serif" font-size="14" font-weight="bold" lengthAdjust="spacing" textLength="64" x="10" y="21.5352">Frontend</text></g><!--MD5=[a3a458535fdcfbbb6367078bc381dc55]
cluster Clients--><g id="cluster_Clients"><path d="M539.5,239 L591.5,239 A3.75,3.75 0 0 1 594,241.5 L601,261.4883 L711.5,261.4883 A2.5,2.5 0 0 1 714,263.9883 L714,370.5 A2.5,2.5 0 0 1 711.5,373 L539.5,373 A2.5,2.5 0 0 1 537,370.5 L537,241.5 A2.5,2.5 0 0 1 539.5,239 " fill="none" style="stroke:#000000;stroke-width:1.5;"/><line style="stroke:#000000;stroke-width:1.5;" x1="537" x2="601" y1="261.4883" y2="261.4883"/><text fill="#000000" font-family="sans-serif" font-size="14" font-weight="bold" lengthAdjust="spacing" textLength="51" x="541" y="254.5352">Clients</text></g><!--MD5=[18aa53e380567176bdb7d8f55004763e]
cluster Pages--><g id="cluster_Pages"><path d="M48.5,753 L91.5,753 A3.75,3.75 0 0 1 94,755.5 L101,775.4883 L426,775.4883 A2.5,2.5 0 0 1 428.5,777.9883 L428.5,1050.5 A2.5,2.5 0 0 1 426,1053 L48.5,1053 A2.5,2.5 0 0 1 46,1050.5 L46,755.5 A2.5,2.5 0 0 1 48.5,753 " fill="none" style="stroke:#000000;stroke-width:1.5;"/><line style="stroke:#000000;stroke-width:1.5;" x1="46" x2="101" y1="775.4883" y2="775.4883"/><text fill="#000000" font-family="sans-serif" font-size="14" font-weight="bold" lengthAdjust="spacing" textLength="42" x="50" y="768.5352">Pages</text></g><!--MD5=[c33db22cd91d622c105bbe7bf67b0931]
cluster Components--><g id="cluster_Components"><path d="M266.5,413 L358.5,413 A3.75,3.75 0 0 1 361,415.5 L368,435.4883 L713,435.4883 A2.5,2.5 0 0 1 715.5,437.9883 L715.5,710.5 A2.5,2.5 0 0 1 713,713 L266.5,713 A2.5,2.5 0 0 1 264,710.5 L264,415.5 A2.5,2.5 0 0 1 266.5,413 " fill="none" style="stroke:#000000;stroke-width:1.5;"/><line style="stroke:#000000;stroke-width:1.5;" x1="264" x2="368" y1="435.4883" y2="435.4883"/><text fill="#000000" font-family="sans-serif" font-size="14" font-weight="bold" lengthAdjust="spacing" textLength="91" x="268" y="428.5352">Components</text></g><!--MD5=[7ce1723ddb6e6233854253973eae5a71]
cluster Store--><g id="cluster_Store"><path d="M544,65 L582,65 A3.75,3.75 0 0 1 584.5,67.5 L591.5,87.4883 L707,87.4883 A2.5,2.5 0 0 1 709.5,89.9883 L709.5,196.5 A2.5,2.5 0 0 1 707,199 L544,199 A2.5,2.5 0 0 1 541.5,196.5 L541.5,67.5 A2.5,2.5 0 0 1 544,65 " fill="none" style="stroke:#000000;stroke-width:1.5;"/><line style="stroke:#000000;stroke-width:1.5;" x1="541.5" x2="591.5" y1="87.4883" y2="87.4883"/><text fill="#000000" font-family="sans-serif" font-size="14" font-weight="bold" lengthAdjust="spacing" textLength="37" x="545.5" y="80.5352">Store</text></g><!--MD5=[b4e09d266be9964199f2622adcc056fa]
cluster Backend--><g id="cluster_Backend"><path d="M184.5,1141 L244.5,1141 A3.75,3.75 0 0 1 247,1143.5 L254,1163.4883 L1229,1163.4883 A2.5,2.5 0 0 1 1231.5,1165.9883 L1231.5,2059.5 A2.5,2.5 0 0 1 1229,2062 L184.5,2062 A2.5,2.5 0 0 1 182,2059.5 L182,1143.5 A2.5,2.5 0 0 1 184.5,1141 " fill="none" style="stroke:#000000;stroke-width:1.5;"/><line style="stroke:#000000;stroke-width:1.5;" x1="182" x2="254" y1="1163.4883" y2="1163.4883"/><text fill="#000000" font-family="sans-serif" font-size="14" font-weight="bold" lengthAdjust="spacing" textLength="59" x="186" y="1156.5352">Backend</text></g><!--MD5=[999f80192410ad58725ac6d158b21eb2]
cluster Views--><g id="cluster_Views"><path d="M224.5,1457 L268.5,1457 A3.75,3.75 0 0 1 271,1459.5 L278,1479.4883 L701.5,1479.4883 A2.5,2.5 0 0 1 704,1481.9883 L704,1671.5 A2.5,2.5 0 0 1 701.5,1674 L224.5,1674 A2.5,2.5 0 0 1 222,1671.5 L222,1459.5 A2.5,2.5 0 0 1 224.5,1457 " fill="none" style="stroke:#000000;stroke-width:1.5;"/><line style="stroke:#000000;stroke-width:1.5;" x1="222" x2="278" y1="1479.4883" y2="1479.4883"/><text fill="#000000" font-family="sans-serif" font-size="14" font-weight="bold" lengthAdjust="spacing" textLength="43" x="226" y="1472.5352">Views</text></g><!--MD5=[ed1d20ea533a2a0e7df5ba3c35e56ced]
cluster Controllers--><g id="cluster_Controllers"><path d="M502.5,1200 L584.5,1200 A3.75,3.75 0 0 1 587,1202.5 L594,1222.4883 L992,1222.4883 A2.5,2.5 0 0 1 994.5,1224.9883 L994.5,1414.5 A2.5,2.5 0 0 1 992,1417 L502.5,1417 A2.5,2.5 0 0 1 500,1414.5 L500,1202.5 A2.5,2.5 0 0 1 502.5,1200 " fill="none" style="stroke:#000000;stroke-width:1.5;"/><line style="stroke:#000000;stroke-width:1.5;" x1="500" x2="594" y1="1222.4883" y2="1222.4883"/><text fill="#000000" font-family="sans-serif" font-size="14" font-weight="bold" lengthAdjust="spacing" textLength="81" x="504" y="1215.5352">Controllers</text></g><!--MD5=[027ebfd53c01aea08f474edbf35d0797]
cluster Models--><g id="cluster_Models"><path d="M798,1714 L851,1714 A3.75,3.75 0 0 1 853.5,1716.5 L860.5,1736.4883 L1189,1736.4883 A2.5,2.5 0 0 1 1191.5,1738.9883 L1191.5,2011.5 A2.5,2.5 0 0 1 1189,2014 L798,2014 A2.5,2.5 0 0 1 795.5,2011.5 L795.5,1716.5 A2.5,2.5 0 0 1 798,1714 " fill="none" style="stroke:#000000;stroke-width:1.5;"/><line style="stroke:#000000;stroke-width:1.5;" x1="795.5" x2="860.5" y1="1736.4883" y2="1736.4883"/><text fill="#000000" font-family="sans-serif" font-size="14" font-weight="bold" lengthAdjust="spacing" textLength="52" x="799.5" y="1729.5352">Models</text></g><!--MD5=[cdfd548b3455e70392372b1f27091970]
cluster Services--><g id="cluster_Services"><path d="M798.5,1457 L857.5,1457 A3.75,3.75 0 0 1 860,1459.5 L867,1479.4883 L995.5,1479.4883 A2.5,2.5 0 0 1 998,1481.9883 L998,1671.5 A2.5,2.5 0 0 1 995.5,1674 L798.5,1674 A2.5,2.5 0 0 1 796,1671.5 L796,1459.5 A2.5,2.5 0 0 1 798.5,1457 " fill="none" style="stroke:#000000;stroke-width:1.5;"/><line style="stroke:#000000;stroke-width:1.5;" x1="796" x2="867" y1="1479.4883" y2="1479.4883"/><text fill="#000000" font-family="sans-serif" font-size="14" font-weight="bold" lengthAdjust="spacing" textLength="58" x="800" y="1472.5352">Services</text></g><!--MD5=[8c0ca36b487a1139fa98b4454da8ec70]
cluster MySqlDao--><g id="cluster_MySqlDao"><path d="M471,2102 L543,2102 A3.75,3.75 0 0 1 545.5,2104.5 L552.5,2124.4883 L1227,2124.4883 A2.5,2.5 0 0 1 1229.5,2126.9883 L1229.5,2846.5 A2.5,2.5 0 0 1 1227,2849 L471,2849 A2.5,2.5 0 0 1 468.5,2846.5 L468.5,2104.5 A2.5,2.5 0 0 1 471,2102 " fill="none" style="stroke:#000000;stroke-width:1.5;"/><line style="stroke:#000000;stroke-width:1.5;" x1="468.5" x2="552.5" y1="2124.4883" y2="2124.4883"/><text fill="#000000" font-family="sans-serif" font-size="14" font-weight="bold" lengthAdjust="spacing" textLength="71" x="472.5" y="2117.5352">MySqlDao</text></g><!--MD5=[114f4823940f317c08f5bedd633c9afd]
cluster Entities--><g id="cluster_Entities"><path d="M800,2161 L856,2161 A3.75,3.75 0 0 1 858.5,2163.5 L865.5,2183.4883 L1187,2183.4883 A2.5,2.5 0 0 1 1189.5,2185.9883 L1189.5,2458.5 A2.5,2.5 0 0 1 1187,2461 L800,2461 A2.5,2.5 0 0 1 797.5,2458.5 L797.5,2163.5 A2.5,2.5 0 0 1 800,2161 " fill="none" style="stroke:#000000;stroke-width:1.5;"/><line style="stroke:#000000;stroke-width:1.5;" x1="797.5" x2="865.5" y1="2183.4883" y2="2183.4883"/><text fill="#000000" font-family="sans-serif" font-size="14" font-weight="bold" lengthAdjust="spacing" textLength="55" x="801.5" y="2176.5352">Entities</text></g><!--MD5=[600c2d25b6889bd4e9f6b335204b22ae]
cluster Repositories--><g id="cluster_Repositories"><path d="M511,2501 L603,2501 A3.75,3.75 0 0 1 605.5,2503.5 L612.5,2523.4883 L999,2523.4883 A2.5,2.5 0 0 1 1001.5,2525.9883 L1001.5,2798.5 A2.5,2.5 0 0 1 999,2801 L511,2801 A2.5,2.5 0 0 1 508.5,2798.5 L508.5,2503.5 A2.5,2.5 0 0 1 511,2501 " fill="none" style="stroke:#000000;stroke-width:1.5;"/><line style="stroke:#000000;stroke-width:1.5;" x1="508.5" x2="612.5" y1="2523.4883" y2="2523.4883"/><text fill="#000000" font-family="sans-serif" font-size="14" font-weight="bold" lengthAdjust="spacing" textLength="91" x="512.5" y="2516.5352">Repositories</text></g><!--MD5=[cd7a20135a2d810d4d725a487db1eabe]
class BackendClient--><g id="elem_BackendClient"><rect codeLine="7" fill="#F1F1F1" height="48" id="BackendClient" rx="2.5" ry="2.5" style="stroke:#181818;stroke-width:0.5;" width="129" x="561" y="282"/><ellipse cx="576" cy="298" fill="#ADD1B2" rx="11" ry="11" style="stroke:#181818;stroke-width:1.0;"/><path d="M578.4731,304.1431 Q577.8921,304.4419 577.2529,304.5913 Q576.6138,304.7407 575.9082,304.7407 Q573.4014,304.7407 572.0815,303.0889 Q570.7617,301.437 570.7617,298.3159 Q570.7617,295.1865 572.0815,293.5347 Q573.4014,291.8828 575.9082,291.8828 Q576.6138,291.8828 577.2612,292.0322 Q577.9087,292.1816 578.4731,292.4805 L578.4731,295.2031 Q577.8423,294.6221 577.2488,294.3523 Q576.6553,294.0825 576.0244,294.0825 Q574.6797,294.0825 573.9949,295.1492 Q573.3101,296.2158 573.3101,298.3159 Q573.3101,300.4077 573.9949,301.4744 Q574.6797,302.541 576.0244,302.541 Q576.6553,302.541 577.2488,302.2712 Q577.8423,302.0015 578.4731,301.4204 Z " fill="#000000"/><text fill="#000000" font-family="sans-serif" font-size="14" lengthAdjust="spacing" textLength="97" x="590" y="303.291">BackendClient</text><line style="stroke:#181818;stroke-width:0.5;" x1="562" x2="689" y1="314" y2="314"/><line style="stroke:#181818;stroke-width:0.5;" x1="562" x2="689" y1="322" y2="322"/></g><!--MD5=[5b90e4d4f77308a929aa4d17d3ae3119]
class Login--><g id="elem_Login"><rect codeLine="12" fill="#F1F1F1" height="48" id="Login" rx="2.5" ry="2.5" style="stroke:#181818;stroke-width:0.5;" width="70" x="79" y="981"/><ellipse cx="94" cy="997" fill="#ADD1B2" rx="11" ry="11" style="stroke:#181818;stroke-width:1.0;"/><path d="M96.4731,1003.1431 Q95.8921,1003.4419 95.2529,1003.5913 Q94.6138,1003.7407 93.9082,1003.7407 Q91.4014,1003.7407 90.0815,1002.0889 Q88.7617,1000.437 88.7617,997.3159 Q88.7617,994.1865 90.0815,992.5347 Q91.4014,990.8828 93.9082,990.8828 Q94.6138,990.8828 95.2612,991.0322 Q95.9087,991.1816 96.4731,991.4805 L96.4731,994.2031 Q95.8423,993.6221 95.2488,993.3523 Q94.6553,993.0825 94.0244,993.0825 Q92.6797,993.0825 91.9949,994.1492 Q91.3101,995.2158 91.3101,997.3159 Q91.3101,999.4077 91.9949,1000.4744 Q92.6797,1001.541 94.0244,1001.541 Q94.6553,1001.541 95.2488,1001.2712 Q95.8423,1001.0015 96.4731,1000.4204 Z " fill="#000000"/><text fill="#000000" font-family="sans-serif" font-size="14" lengthAdjust="spacing" textLength="38" x="108" y="1002.291">Login</text><line style="stroke:#181818;stroke-width:0.5;" x1="80" x2="148" y1="1013" y2="1013"/><line style="stroke:#181818;stroke-width:0.5;" x1="80" x2="148" y1="1021" y2="1021"/></g><!--MD5=[8a8146ff89b20cc2efd6e16e3c0a6394]
class Register--><g id="elem_Register"><rect codeLine="13" fill="#F1F1F1" height="48" id="Register" rx="2.5" ry="2.5" style="stroke:#181818;stroke-width:0.5;" width="88" x="70" y="898"/><ellipse cx="85" cy="914" fill="#ADD1B2" rx="11" ry="11" style="stroke:#181818;stroke-width:1.0;"/><path d="M87.4731,920.1431 Q86.8921,920.4419 86.2529,920.5913 Q85.6138,920.7407 84.9082,920.7407 Q82.4014,920.7407 81.0815,919.0889 Q79.7617,917.437 79.7617,914.3159 Q79.7617,911.1865 81.0815,909.5347 Q82.4014,907.8828 84.9082,907.8828 Q85.6138,907.8828 86.2612,908.0322 Q86.9087,908.1816 87.4731,908.4805 L87.4731,911.2031 Q86.8423,910.6221 86.2488,910.3523 Q85.6553,910.0825 85.0244,910.0825 Q83.6797,910.0825 82.9949,911.1492 Q82.3101,912.2158 82.3101,914.3159 Q82.3101,916.4077 82.9949,917.4744 Q83.6797,918.541 85.0244,918.541 Q85.6553,918.541 86.2488,918.2712 Q86.8423,918.0015 87.4731,917.4204 Z " fill="#000000"/><text fill="#000000" font-family="sans-serif" font-size="14" lengthAdjust="spacing" textLength="56" x="99" y="919.291">Register</text><line style="stroke:#181818;stroke-width:0.5;" x1="71" x2="157" y1="930" y2="930"/><line style="stroke:#181818;stroke-width:0.5;" x1="71" x2="157" y1="938" y2="938"/></g><!--MD5=[85bae912d113bb0b86a623a745020199]
class Home--><g id="elem_Home"><rect codeLine="14" fill="#F1F1F1" height="48" id="Home" rx="2.5" ry="2.5" style="stroke:#181818;stroke-width:0.5;" width="72" x="78" y="815"/><ellipse cx="93" cy="831" fill="#ADD1B2" rx="11" ry="11" style="stroke:#181818;stroke-width:1.0;"/><path d="M95.4731,837.1431 Q94.8921,837.4419 94.2529,837.5913 Q93.6138,837.7407 92.9082,837.7407 Q90.4014,837.7407 89.0815,836.0889 Q87.7617,834.437 87.7617,831.3159 Q87.7617,828.1865 89.0815,826.5347 Q90.4014,824.8828 92.9082,824.8828 Q93.6138,824.8828 94.2612,825.0322 Q94.9087,825.1816 95.4731,825.4805 L95.4731,828.2031 Q94.8423,827.6221 94.2488,827.3523 Q93.6553,827.0825 93.0244,827.0825 Q91.6797,827.0825 90.9949,828.1492 Q90.3101,829.2158 90.3101,831.3159 Q90.3101,833.4077 90.9949,834.4744 Q91.6797,835.541 93.0244,835.541 Q93.6553,835.541 94.2488,835.2712 Q94.8423,835.0015 95.4731,834.4204 Z " fill="#000000"/><text fill="#000000" font-family="sans-serif" font-size="14" lengthAdjust="spacing" textLength="40" x="107" y="836.291">Home</text><line style="stroke:#181818;stroke-width:0.5;" x1="79" x2="149" y1="847" y2="847"/><line style="stroke:#181818;stroke-width:0.5;" x1="79" x2="149" y1="855" y2="855"/></g><!--MD5=[28fb550210604fc71206642d59aeec14]
class AccountInfo--><g id="elem_AccountInfo"><rect codeLine="15" fill="#F1F1F1" height="48" id="AccountInfo" rx="2.5" ry="2.5" style="stroke:#181818;stroke-width:0.5;" width="115" x="271" y="981"/><ellipse cx="286" cy="997" fill="#ADD1B2" rx="11" ry="11" style="stroke:#181818;stroke-width:1.0;"/><path d="M288.4731,1003.1431 Q287.8921,1003.4419 287.2529,1003.5913 Q286.6138,1003.7407 285.9082,1003.7407 Q283.4014,1003.7407 282.0815,1002.0889 Q280.7617,1000.437 280.7617,997.3159 Q280.7617,994.1865 282.0815,992.5347 Q283.4014,990.8828 285.9082,990.8828 Q286.6138,990.8828 287.2612,991.0322 Q287.9087,991.1816 288.4731,991.4805 L288.4731,994.2031 Q287.8423,993.6221 287.2488,993.3523 Q286.6553,993.0825 286.0244,993.0825 Q284.6797,993.0825 283.9949,994.1492 Q283.3101,995.2158 283.3101,997.3159 Q283.3101,999.4077 283.9949,1000.4744 Q284.6797,1001.541 286.0244,1001.541 Q286.6553,1001.541 287.2488,1001.2712 Q287.8423,1001.0015 288.4731,1000.4204 Z " fill="#000000"/><text fill="#000000" font-family="sans-serif" font-size="14" lengthAdjust="spacing" textLength="83" x="300" y="1002.291">AccountInfo</text><line style="stroke:#181818;stroke-width:0.5;" x1="272" x2="385" y1="1013" y2="1013"/><line style="stroke:#181818;stroke-width:0.5;" x1="272" x2="385" y1="1021" y2="1021"/></g><!--MD5=[4555bb1b0911a5adf28ce6dbe60fed2e]
class Transaction--><g id="elem_Transaction"><rect codeLine="16" fill="#F1F1F1" height="48" id="Transaction" rx="2.5" ry="2.5" style="stroke:#181818;stroke-width:0.5;" width="113" x="272" y="898"/><ellipse cx="287" cy="914" fill="#ADD1B2" rx="11" ry="11" style="stroke:#181818;stroke-width:1.0;"/><path d="M289.4731,920.1431 Q288.8921,920.4419 288.2529,920.5913 Q287.6138,920.7407 286.9082,920.7407 Q284.4014,920.7407 283.0815,919.0889 Q281.7617,917.437 281.7617,914.3159 Q281.7617,911.1865 283.0815,909.5347 Q284.4014,907.8828 286.9082,907.8828 Q287.6138,907.8828 288.2612,908.0322 Q288.9087,908.1816 289.4731,908.4805 L289.4731,911.2031 Q288.8423,910.6221 288.2488,910.3523 Q287.6553,910.0825 287.0244,910.0825 Q285.6797,910.0825 284.9949,911.1492 Q284.3101,912.2158 284.3101,914.3159 Q284.3101,916.4077 284.9949,917.4744 Q285.6797,918.541 287.0244,918.541 Q287.6553,918.541 288.2488,918.2712 Q288.8423,918.0015 289.4731,917.4204 Z " fill="#000000"/><text fill="#000000" font-family="sans-serif" font-size="14" lengthAdjust="spacing" textLength="81" x="301" y="919.291">Transaction</text><line style="stroke:#181818;stroke-width:0.5;" x1="273" x2="384" y1="930" y2="930"/><line style="stroke:#181818;stroke-width:0.5;" x1="273" x2="384" y1="938" y2="938"/></g><!--MD5=[826fd8daa534d37fbbcc6ca92ea625c8]
class AdminDashboard--><g id="elem_AdminDashboard"><rect codeLine="17" fill="#F1F1F1" height="48" id="AdminDashboard" rx="2.5" ry="2.5" style="stroke:#181818;stroke-width:0.5;" width="152" x="252.5" y="815"/><ellipse cx="267.5" cy="831" fill="#ADD1B2" rx="11" ry="11" style="stroke:#181818;stroke-width:1.0;"/><path d="M269.9731,837.1431 Q269.3921,837.4419 268.7529,837.5913 Q268.1138,837.7407 267.4082,837.7407 Q264.9014,837.7407 263.5815,836.0889 Q262.2617,834.437 262.2617,831.3159 Q262.2617,828.1865 263.5815,826.5347 Q264.9014,824.8828 267.4082,824.8828 Q268.1138,824.8828 268.7612,825.0322 Q269.4087,825.1816 269.9731,825.4805 L269.9731,828.2031 Q269.3423,827.6221 268.7488,827.3523 Q268.1553,827.0825 267.5244,827.0825 Q266.1797,827.0825 265.4949,828.1492 Q264.8101,829.2158 264.8101,831.3159 Q264.8101,833.4077 265.4949,834.4744 Q266.1797,835.541 267.5244,835.541 Q268.1553,835.541 268.7488,835.2712 Q269.3423,835.0015 269.9731,834.4204 Z " fill="#000000"/><text fill="#000000" font-family="sans-serif" font-size="14" lengthAdjust="spacing" textLength="120" x="281.5" y="836.291">AdminDashboard</text><line style="stroke:#181818;stroke-width:0.5;" x1="253.5" x2="403.5" y1="847" y2="847"/><line style="stroke:#181818;stroke-width:0.5;" x1="253.5" x2="403.5" y1="855" y2="855"/></g><!--MD5=[d10018d7374cb536a2ec2f77e731452b]
class Header--><g id="elem_Header"><rect codeLine="21" fill="#F1F1F1" height="48" id="Header" rx="2.5" ry="2.5" style="stroke:#181818;stroke-width:0.5;" width="81" x="288" y="641"/><ellipse cx="303" cy="657" fill="#ADD1B2" rx="11" ry="11" style="stroke:#181818;stroke-width:1.0;"/><path d="M305.4731,663.1431 Q304.8921,663.4419 304.2529,663.5913 Q303.6138,663.7407 302.9082,663.7407 Q300.4014,663.7407 299.0815,662.0889 Q297.7617,660.437 297.7617,657.3159 Q297.7617,654.1865 299.0815,652.5347 Q300.4014,650.8828 302.9082,650.8828 Q303.6138,650.8828 304.2612,651.0322 Q304.9087,651.1816 305.4731,651.4805 L305.4731,654.2031 Q304.8423,653.6221 304.2488,653.3523 Q303.6553,653.0825 303.0244,653.0825 Q301.6797,653.0825 300.9949,654.1492 Q300.3101,655.2158 300.3101,657.3159 Q300.3101,659.4077 300.9949,660.4744 Q301.6797,661.541 303.0244,661.541 Q303.6553,661.541 304.2488,661.2712 Q304.8423,661.0015 305.4731,660.4204 Z " fill="#000000"/><text fill="#000000" font-family="sans-serif" font-size="14" lengthAdjust="spacing" textLength="49" x="317" y="662.291">Header</text><line style="stroke:#181818;stroke-width:0.5;" x1="289" x2="368" y1="673" y2="673"/><line style="stroke:#181818;stroke-width:0.5;" x1="289" x2="368" y1="681" y2="681"/></g><!--MD5=[026c1e9a4dc23b57e6998280acb2cb32]
class Footer--><g id="elem_Footer"><rect codeLine="22" fill="#F1F1F1" height="48" id="Footer" rx="2.5" ry="2.5" style="stroke:#181818;stroke-width:0.5;" width="77" x="290" y="558"/><ellipse cx="305" cy="574" fill="#ADD1B2" rx="11" ry="11" style="stroke:#181818;stroke-width:1.0;"/><path d="M307.4731,580.1431 Q306.8921,580.4419 306.2529,580.5913 Q305.6138,580.7407 304.9082,580.7407 Q302.4014,580.7407 301.0815,579.0889 Q299.7617,577.437 299.7617,574.3159 Q299.7617,571.1865 301.0815,569.5347 Q302.4014,567.8828 304.9082,567.8828 Q305.6138,567.8828 306.2612,568.0322 Q306.9087,568.1816 307.4731,568.4805 L307.4731,571.2031 Q306.8423,570.6221 306.2488,570.3523 Q305.6553,570.0825 305.0244,570.0825 Q303.6797,570.0825 302.9949,571.1492 Q302.3101,572.2158 302.3101,574.3159 Q302.3101,576.4077 302.9949,577.4744 Q303.6797,578.541 305.0244,578.541 Q305.6553,578.541 306.2488,578.2712 Q306.8423,578.0015 307.4731,577.4204 Z " fill="#000000"/><text fill="#000000" font-family="sans-serif" font-size="14" lengthAdjust="spacing" textLength="45" x="319" y="579.291">Footer</text><line style="stroke:#181818;stroke-width:0.5;" x1="291" x2="366" y1="590" y2="590"/><line style="stroke:#181818;stroke-width:0.5;" x1="291" x2="366" y1="598" y2="598"/></g><!--MD5=[1e45380c90959740d49d8a512f801749]
class Navbar--><g id="elem_Navbar"><rect codeLine="23" fill="#F1F1F1" height="48" id="Navbar" rx="2.5" ry="2.5" style="stroke:#181818;stroke-width:0.5;" width="80" x="288.5" y="475"/><ellipse cx="303.5" cy="491" fill="#ADD1B2" rx="11" ry="11" style="stroke:#181818;stroke-width:1.0;"/><path d="M305.9731,497.1431 Q305.3921,497.4419 304.7529,497.5913 Q304.1138,497.7407 303.4082,497.7407 Q300.9014,497.7407 299.5815,496.0889 Q298.2617,494.437 298.2617,491.3159 Q298.2617,488.1865 299.5815,486.5347 Q300.9014,484.8828 303.4082,484.8828 Q304.1138,484.8828 304.7612,485.0322 Q305.4087,485.1816 305.9731,485.4805 L305.9731,488.2031 Q305.3423,487.6221 304.7488,487.3523 Q304.1553,487.0825 303.5244,487.0825 Q302.1797,487.0825 301.4949,488.1492 Q300.8101,489.2158 300.8101,491.3159 Q300.8101,493.4077 301.4949,494.4744 Q302.1797,495.541 303.5244,495.541 Q304.1553,495.541 304.7488,495.2712 Q305.3423,495.0015 305.9731,494.4204 Z " fill="#000000"/><text fill="#000000" font-family="sans-serif" font-size="14" lengthAdjust="spacing" textLength="48" x="317.5" y="496.291">Navbar</text><line style="stroke:#181818;stroke-width:0.5;" x1="289.5" x2="367.5" y1="507" y2="507"/><line style="stroke:#181818;stroke-width:0.5;" x1="289.5" x2="367.5" y1="515" y2="515"/></g><!--MD5=[08af97d315e64befeddaa1c629309945]
class ConfirmDialog--><g id="elem_ConfirmDialog"><rect codeLine="24" fill="#F1F1F1" height="48" id="ConfirmDialog" rx="2.5" ry="2.5" style="stroke:#181818;stroke-width:0.5;" width="132" x="559.5" y="641"/><ellipse cx="574.5" cy="657" fill="#ADD1B2" rx="11" ry="11" style="stroke:#181818;stroke-width:1.0;"/><path d="M576.9731,663.1431 Q576.3921,663.4419 575.7529,663.5913 Q575.1138,663.7407 574.4082,663.7407 Q571.9014,663.7407 570.5815,662.0889 Q569.2617,660.437 569.2617,657.3159 Q569.2617,654.1865 570.5815,652.5347 Q571.9014,650.8828 574.4082,650.8828 Q575.1138,650.8828 575.7612,651.0322 Q576.4087,651.1816 576.9731,651.4805 L576.9731,654.2031 Q576.3423,653.6221 575.7488,653.3523 Q575.1553,653.0825 574.5244,653.0825 Q573.1797,653.0825 572.4949,654.1492 Q571.8101,655.2158 571.8101,657.3159 Q571.8101,659.4077 572.4949,660.4744 Q573.1797,661.541 574.5244,661.541 Q575.1553,661.541 575.7488,661.2712 Q576.3423,661.0015 576.9731,660.4204 Z " fill="#000000"/><text fill="#000000" font-family="sans-serif" font-size="14" lengthAdjust="spacing" textLength="100" x="588.5" y="662.291">ConfirmDialog</text><line style="stroke:#181818;stroke-width:0.5;" x1="560.5" x2="690.5" y1="673" y2="673"/><line style="stroke:#181818;stroke-width:0.5;" x1="560.5" x2="690.5" y1="681" y2="681"/></g><!--MD5=[90ba54f54370e77ef24813dec6818fa3]
class Button--><g id="elem_Button"><rect codeLine="25" fill="#F1F1F1" height="48" id="Button" rx="2.5" ry="2.5" style="stroke:#181818;stroke-width:0.5;" width="77" x="587" y="558"/><ellipse cx="602" cy="574" fill="#ADD1B2" rx="11" ry="11" style="stroke:#181818;stroke-width:1.0;"/><path d="M604.4731,580.1431 Q603.8921,580.4419 603.2529,580.5913 Q602.6138,580.7407 601.9082,580.7407 Q599.4014,580.7407 598.0815,579.0889 Q596.7617,577.437 596.7617,574.3159 Q596.7617,571.1865 598.0815,569.5347 Q599.4014,567.8828 601.9082,567.8828 Q602.6138,567.8828 603.2612,568.0322 Q603.9087,568.1816 604.4731,568.4805 L604.4731,571.2031 Q603.8423,570.6221 603.2488,570.3523 Q602.6553,570.0825 602.0244,570.0825 Q600.6797,570.0825 599.9949,571.1492 Q599.3101,572.2158 599.3101,574.3159 Q599.3101,576.4077 599.9949,577.4744 Q600.6797,578.541 602.0244,578.541 Q602.6553,578.541 603.2488,578.2712 Q603.8423,578.0015 604.4731,577.4204 Z " fill="#000000"/><text fill="#000000" font-family="sans-serif" font-size="14" lengthAdjust="spacing" textLength="45" x="616" y="579.291">Button</text><line style="stroke:#181818;stroke-width:0.5;" x1="588" x2="663" y1="590" y2="590"/><line style="stroke:#181818;stroke-width:0.5;" x1="588" x2="663" y1="598" y2="598"/></g><!--MD5=[3cab58e622330109321580dbb0b85605]
class Input--><g id="elem_Input"><rect codeLine="26" fill="#F1F1F1" height="48" id="Input" rx="2.5" ry="2.5" style="stroke:#181818;stroke-width:0.5;" width="68" x="591.5" y="475"/><ellipse cx="606.5" cy="491" fill="#ADD1B2" rx="11" ry="11" style="stroke:#181818;stroke-width:1.0;"/><path d="M608.9731,497.1431 Q608.3921,497.4419 607.7529,497.5913 Q607.1138,497.7407 606.4082,497.7407 Q603.9014,497.7407 602.5815,496.0889 Q601.2617,494.437 601.2617,491.3159 Q601.2617,488.1865 602.5815,486.5347 Q603.9014,484.8828 606.4082,484.8828 Q607.1138,484.8828 607.7612,485.0322 Q608.4087,485.1816 608.9731,485.4805 L608.9731,488.2031 Q608.3423,487.6221 607.7488,487.3523 Q607.1553,487.0825 606.5244,487.0825 Q605.1797,487.0825 604.4949,488.1492 Q603.8101,489.2158 603.8101,491.3159 Q603.8101,493.4077 604.4949,494.4744 Q605.1797,495.541 606.5244,495.541 Q607.1553,495.541 607.7488,495.2712 Q608.3423,495.0015 608.9731,494.4204 Z " fill="#000000"/><text fill="#000000" font-family="sans-serif" font-size="14" lengthAdjust="spacing" textLength="36" x="620.5" y="496.291">Input</text><line style="stroke:#181818;stroke-width:0.5;" x1="592.5" x2="658.5" y1="507" y2="507"/><line style="stroke:#181818;stroke-width:0.5;" x1="592.5" x2="658.5" y1="515" y2="515"/></g><!--MD5=[5c923f9addd6e96d0989d8d9d9b17800]
class LocalStorage--><g id="elem_LocalStorage"><rect codeLine="30" fill="#F1F1F1" height="48" id="LocalStorage" rx="2.5" ry="2.5" style="stroke:#181818;stroke-width:0.5;" width="120" x="565.5" y="108"/><ellipse cx="580.5" cy="124" fill="#ADD1B2" rx="11" ry="11" style="stroke:#181818;stroke-width:1.0;"/><path d="M582.9731,130.1431 Q582.3921,130.4419 581.7529,130.5913 Q581.1138,130.7407 580.4082,130.7407 Q577.9014,130.7407 576.5815,129.0889 Q575.2617,127.437 575.2617,124.3159 Q575.2617,121.1865 576.5815,119.5347 Q577.9014,117.8828 580.4082,117.8828 Q581.1138,117.8828 581.7612,118.0322 Q582.4087,118.1816 582.9731,118.4805 L582.9731,121.2031 Q582.3423,120.6221 581.7488,120.3523 Q581.1553,120.0825 580.5244,120.0825 Q579.1797,120.0825 578.4949,121.1492 Q577.8101,122.2158 577.8101,124.3159 Q577.8101,126.4077 578.4949,127.4744 Q579.1797,128.541 580.5244,128.541 Q581.1553,128.541 581.7488,128.2712 Q582.3423,128.0015 582.9731,127.4204 Z " fill="#000000"/><text fill="#000000" font-family="sans-serif" font-size="14" lengthAdjust="spacing" textLength="88" x="594.5" y="129.291">LocalStorage</text><line style="stroke:#181818;stroke-width:0.5;" x1="566.5" x2="684.5" y1="140" y2="140"/><line style="stroke:#181818;stroke-width:0.5;" x1="566.5" x2="684.5" y1="148" y2="148"/></g><!--MD5=[3c48ef3d48443c7ff4f9f4b7d506922b]
class AuthenticationView--><g id="elem_AuthenticationView"><rect codeLine="38" fill="#F1F1F1" height="48" id="AuthenticationView" rx="2.5" ry="2.5" style="stroke:#181818;stroke-width:0.5;" width="165" x="246" y="1602"/><ellipse cx="261" cy="1618" fill="#ADD1B2" rx="11" ry="11" style="stroke:#181818;stroke-width:1.0;"/><path d="M263.4731,1624.1431 Q262.8921,1624.4419 262.2529,1624.5913 Q261.6138,1624.7407 260.9082,1624.7407 Q258.4014,1624.7407 257.0815,1623.0889 Q255.7617,1621.437 255.7617,1618.3159 Q255.7617,1615.1865 257.0815,1613.5347 Q258.4014,1611.8828 260.9082,1611.8828 Q261.6138,1611.8828 262.2612,1612.0322 Q262.9087,1612.1816 263.4731,1612.4805 L263.4731,1615.2031 Q262.8423,1614.6221 262.2488,1614.3523 Q261.6553,1614.0825 261.0244,1614.0825 Q259.6797,1614.0825 258.9949,1615.1492 Q258.3101,1616.2158 258.3101,1618.3159 Q258.3101,1620.4077 258.9949,1621.4744 Q259.6797,1622.541 261.0244,1622.541 Q261.6553,1622.541 262.2488,1622.2712 Q262.8423,1622.0015 263.4731,1621.4204 Z " fill="#000000"/><text fill="#000000" font-family="sans-serif" font-size="14" lengthAdjust="spacing" textLength="133" x="275" y="1623.291">AuthenticationView</text><line style="stroke:#181818;stroke-width:0.5;" x1="247" x2="410" y1="1634" y2="1634"/><line style="stroke:#181818;stroke-width:0.5;" x1="247" x2="410" y1="1642" y2="1642"/></g><!--MD5=[43b1fe43534ff97be8a6ec8dfc181e70]
class TransactionView--><g id="elem_TransactionView"><rect codeLine="39" fill="#F1F1F1" height="48" id="TransactionView" rx="2.5" ry="2.5" style="stroke:#181818;stroke-width:0.5;" width="145" x="256" y="1519"/><ellipse cx="271" cy="1535" fill="#ADD1B2" rx="11" ry="11" style="stroke:#181818;stroke-width:1.0;"/><path d="M273.4731,1541.1431 Q272.8921,1541.4419 272.2529,1541.5913 Q271.6138,1541.7407 270.9082,1541.7407 Q268.4014,1541.7407 267.0815,1540.0889 Q265.7617,1538.437 265.7617,1535.3159 Q265.7617,1532.1865 267.0815,1530.5347 Q268.4014,1528.8828 270.9082,1528.8828 Q271.6138,1528.8828 272.2612,1529.0322 Q272.9087,1529.1816 273.4731,1529.4805 L273.4731,1532.2031 Q272.8423,1531.6221 272.2488,1531.3523 Q271.6553,1531.0825 271.0244,1531.0825 Q269.6797,1531.0825 268.9949,1532.1492 Q268.3101,1533.2158 268.3101,1535.3159 Q268.3101,1537.4077 268.9949,1538.4744 Q269.6797,1539.541 271.0244,1539.541 Q271.6553,1539.541 272.2488,1539.2712 Q272.8423,1539.0015 273.4731,1538.4204 Z " fill="#000000"/><text fill="#000000" font-family="sans-serif" font-size="14" lengthAdjust="spacing" textLength="113" x="285" y="1540.291">TransactionView</text><line style="stroke:#181818;stroke-width:0.5;" x1="257" x2="400" y1="1551" y2="1551"/><line style="stroke:#181818;stroke-width:0.5;" x1="257" x2="400" y1="1559" y2="1559"/></g><!--MD5=[85c34399a5c698d8ba010b21b979f516]
class UserView--><g id="elem_UserView"><rect codeLine="40" fill="#F1F1F1" height="48" id="UserView" rx="2.5" ry="2.5" style="stroke:#181818;stroke-width:0.5;" width="95" x="578" y="1602"/><ellipse cx="593" cy="1618" fill="#ADD1B2" rx="11" ry="11" style="stroke:#181818;stroke-width:1.0;"/><path d="M595.4731,1624.1431 Q594.8921,1624.4419 594.2529,1624.5913 Q593.6138,1624.7407 592.9082,1624.7407 Q590.4014,1624.7407 589.0815,1623.0889 Q587.7617,1621.437 587.7617,1618.3159 Q587.7617,1615.1865 589.0815,1613.5347 Q590.4014,1611.8828 592.9082,1611.8828 Q593.6138,1611.8828 594.2612,1612.0322 Q594.9087,1612.1816 595.4731,1612.4805 L595.4731,1615.2031 Q594.8423,1614.6221 594.2488,1614.3523 Q593.6553,1614.0825 593.0244,1614.0825 Q591.6797,1614.0825 590.9949,1615.1492 Q590.3101,1616.2158 590.3101,1618.3159 Q590.3101,1620.4077 590.9949,1621.4744 Q591.6797,1622.541 593.0244,1622.541 Q593.6553,1622.541 594.2488,1622.2712 Q594.8423,1622.0015 595.4731,1621.4204 Z " fill="#000000"/><text fill="#000000" font-family="sans-serif" font-size="14" lengthAdjust="spacing" textLength="63" x="607" y="1623.291">UserView</text><line style="stroke:#181818;stroke-width:0.5;" x1="579" x2="672" y1="1634" y2="1634"/><line style="stroke:#181818;stroke-width:0.5;" x1="579" x2="672" y1="1642" y2="1642"/></g><!--MD5=[3619aed0a9365106b961d1f7bef4eaff]
class AdminView--><g id="elem_AdminView"><rect codeLine="41" fill="#F1F1F1" height="48" id="AdminView" rx="2.5" ry="2.5" style="stroke:#181818;stroke-width:0.5;" width="109" x="571" y="1519"/><ellipse cx="586" cy="1535" fill="#ADD1B2" rx="11" ry="11" style="stroke:#181818;stroke-width:1.0;"/><path d="M588.4731,1541.1431 Q587.8921,1541.4419 587.2529,1541.5913 Q586.6138,1541.7407 585.9082,1541.7407 Q583.4014,1541.7407 582.0815,1540.0889 Q580.7617,1538.437 580.7617,1535.3159 Q580.7617,1532.1865 582.0815,1530.5347 Q583.4014,1528.8828 585.9082,1528.8828 Q586.6138,1528.8828 587.2612,1529.0322 Q587.9087,1529.1816 588.4731,1529.4805 L588.4731,1532.2031 Q587.8423,1531.6221 587.2488,1531.3523 Q586.6553,1531.0825 586.0244,1531.0825 Q584.6797,1531.0825 583.9949,1532.1492 Q583.3101,1533.2158 583.3101,1535.3159 Q583.3101,1537.4077 583.9949,1538.4744 Q584.6797,1539.541 586.0244,1539.541 Q586.6553,1539.541 587.2488,1539.2712 Q587.8423,1539.0015 588.4731,1538.4204 Z " fill="#000000"/><text fill="#000000" font-family="sans-serif" font-size="14" lengthAdjust="spacing" textLength="77" x="600" y="1540.291">AdminView</text><line style="stroke:#181818;stroke-width:0.5;" x1="572" x2="679" y1="1551" y2="1551"/><line style="stroke:#181818;stroke-width:0.5;" x1="572" x2="679" y1="1559" y2="1559"/></g><!--MD5=[2c8b070088f9e9a5dfda32644ea219c6]
class AuthenticationController--><g id="elem_AuthenticationController"><rect codeLine="45" fill="#F1F1F1" height="48" id="AuthenticationController" rx="2.5" ry="2.5" style="stroke:#181818;stroke-width:0.5;" width="203" x="524" y="1326"/><ellipse cx="539" cy="1342" fill="#ADD1B2" rx="11" ry="11" style="stroke:#181818;stroke-width:1.0;"/><path d="M541.4731,1348.1431 Q540.8921,1348.4419 540.2529,1348.5913 Q539.6138,1348.7407 538.9082,1348.7407 Q536.4014,1348.7407 535.0815,1347.0889 Q533.7617,1345.437 533.7617,1342.3159 Q533.7617,1339.1865 535.0815,1337.5347 Q536.4014,1335.8828 538.9082,1335.8828 Q539.6138,1335.8828 540.2612,1336.0322 Q540.9087,1336.1816 541.4731,1336.4805 L541.4731,1339.2031 Q540.8423,1338.6221 540.2488,1338.3523 Q539.6553,1338.0825 539.0244,1338.0825 Q537.6797,1338.0825 536.9949,1339.1492 Q536.3101,1340.2158 536.3101,1342.3159 Q536.3101,1344.4077 536.9949,1345.4744 Q537.6797,1346.541 539.0244,1346.541 Q539.6553,1346.541 540.2488,1346.2712 Q540.8423,1346.0015 541.4731,1345.4204 Z " fill="#000000"/><text fill="#000000" font-family="sans-serif" font-size="14" lengthAdjust="spacing" textLength="171" x="553" y="1347.291">AuthenticationController</text><line style="stroke:#181818;stroke-width:0.5;" x1="525" x2="726" y1="1358" y2="1358"/><line style="stroke:#181818;stroke-width:0.5;" x1="525" x2="726" y1="1366" y2="1366"/></g><!--MD5=[73ad5e1502ea164349990f756202b7f3]
class TransactionController--><g id="elem_TransactionController"><rect codeLine="46" fill="#F1F1F1" height="48" id="TransactionController" rx="2.5" ry="2.5" style="stroke:#181818;stroke-width:0.5;" width="183" x="534" y="1243"/><ellipse cx="549" cy="1259" fill="#ADD1B2" rx="11" ry="11" style="stroke:#181818;stroke-width:1.0;"/><path d="M551.4731,1265.1431 Q550.8921,1265.4419 550.2529,1265.5913 Q549.6138,1265.7407 548.9082,1265.7407 Q546.4014,1265.7407 545.0815,1264.0889 Q543.7617,1262.437 543.7617,1259.3159 Q543.7617,1256.1865 545.0815,1254.5347 Q546.4014,1252.8828 548.9082,1252.8828 Q549.6138,1252.8828 550.2612,1253.0322 Q550.9087,1253.1816 551.4731,1253.4805 L551.4731,1256.2031 Q550.8423,1255.6221 550.2488,1255.3523 Q549.6553,1255.0825 549.0244,1255.0825 Q547.6797,1255.0825 546.9949,1256.1492 Q546.3101,1257.2158 546.3101,1259.3159 Q546.3101,1261.4077 546.9949,1262.4744 Q547.6797,1263.541 549.0244,1263.541 Q549.6553,1263.541 550.2488,1263.2712 Q550.8423,1263.0015 551.4731,1262.4204 Z " fill="#000000"/><text fill="#000000" font-family="sans-serif" font-size="14" lengthAdjust="spacing" textLength="151" x="563" y="1264.291">TransactionController</text><line style="stroke:#181818;stroke-width:0.5;" x1="535" x2="716" y1="1275" y2="1275"/><line style="stroke:#181818;stroke-width:0.5;" x1="535" x2="716" y1="1283" y2="1283"/></g><!--MD5=[29f97d496cbdc4ec81664c6d94dc9bf6]
class UserController--><g id="elem_UserController"><rect codeLine="47" fill="#F1F1F1" height="48" id="UserController" rx="2.5" ry="2.5" style="stroke:#181818;stroke-width:0.5;" width="133" x="830.5" y="1326"/><ellipse cx="845.5" cy="1342" fill="#ADD1B2" rx="11" ry="11" style="stroke:#181818;stroke-width:1.0;"/><path d="M847.9731,1348.1431 Q847.3921,1348.4419 846.7529,1348.5913 Q846.1138,1348.7407 845.4082,1348.7407 Q842.9014,1348.7407 841.5815,1347.0889 Q840.2617,1345.437 840.2617,1342.3159 Q840.2617,1339.1865 841.5815,1337.5347 Q842.9014,1335.8828 845.4082,1335.8828 Q846.1138,1335.8828 846.7612,1336.0322 Q847.4087,1336.1816 847.9731,1336.4805 L847.9731,1339.2031 Q847.3423,1338.6221 846.7488,1338.3523 Q846.1553,1338.0825 845.5244,1338.0825 Q844.1797,1338.0825 843.4949,1339.1492 Q842.8101,1340.2158 842.8101,1342.3159 Q842.8101,1344.4077 843.4949,1345.4744 Q844.1797,1346.541 845.5244,1346.541 Q846.1553,1346.541 846.7488,1346.2712 Q847.3423,1346.0015 847.9731,1345.4204 Z " fill="#000000"/><text fill="#000000" font-family="sans-serif" font-size="14" lengthAdjust="spacing" textLength="101" x="859.5" y="1347.291">UserController</text><line style="stroke:#181818;stroke-width:0.5;" x1="831.5" x2="962.5" y1="1358" y2="1358"/><line style="stroke:#181818;stroke-width:0.5;" x1="831.5" x2="962.5" y1="1366" y2="1366"/></g><!--MD5=[4b10d7a6977b22f9b7afa06230f82a98]
class AdminController--><g id="elem_AdminController"><rect codeLine="48" fill="#F1F1F1" height="48" id="AdminController" rx="2.5" ry="2.5" style="stroke:#181818;stroke-width:0.5;" width="147" x="823.5" y="1243"/><ellipse cx="838.5" cy="1259" fill="#ADD1B2" rx="11" ry="11" style="stroke:#181818;stroke-width:1.0;"/><path d="M840.9731,1265.1431 Q840.3921,1265.4419 839.7529,1265.5913 Q839.1138,1265.7407 838.4082,1265.7407 Q835.9014,1265.7407 834.5815,1264.0889 Q833.2617,1262.437 833.2617,1259.3159 Q833.2617,1256.1865 834.5815,1254.5347 Q835.9014,1252.8828 838.4082,1252.8828 Q839.1138,1252.8828 839.7612,1253.0322 Q840.4087,1253.1816 840.9731,1253.4805 L840.9731,1256.2031 Q840.3423,1255.6221 839.7488,1255.3523 Q839.1553,1255.0825 838.5244,1255.0825 Q837.1797,1255.0825 836.4949,1256.1492 Q835.8101,1257.2158 835.8101,1259.3159 Q835.8101,1261.4077 836.4949,1262.4744 Q837.1797,1263.541 838.5244,1263.541 Q839.1553,1263.541 839.7488,1263.2712 Q840.3423,1263.0015 840.9731,1262.4204 Z " fill="#000000"/><text fill="#000000" font-family="sans-serif" font-size="14" lengthAdjust="spacing" textLength="115" x="852.5" y="1264.291">AdminController</text><line style="stroke:#181818;stroke-width:0.5;" x1="824.5" x2="969.5" y1="1275" y2="1275"/><line style="stroke:#181818;stroke-width:0.5;" x1="824.5" x2="969.5" y1="1283" y2="1283"/></g><!--MD5=[36c7abe6f2a81abc2dc70bf57210d682]
class BankModel--><g id="elem_BankModel"><rect codeLine="52" fill="#F1F1F1" height="48" id="BankModel" rx="2.5" ry="2.5" style="stroke:#181818;stroke-width:0.5;" width="107" x="843.5" y="1942"/><ellipse cx="858.5" cy="1958" fill="#ADD1B2" rx="11" ry="11" style="stroke:#181818;stroke-width:1.0;"/><path d="M860.9731,1964.1431 Q860.3921,1964.4419 859.7529,1964.5913 Q859.1138,1964.7407 858.4082,1964.7407 Q855.9014,1964.7407 854.5815,1963.0889 Q853.2617,1961.437 853.2617,1958.3159 Q853.2617,1955.1865 854.5815,1953.5347 Q855.9014,1951.8828 858.4082,1951.8828 Q859.1138,1951.8828 859.7612,1952.0322 Q860.4087,1952.1816 860.9731,1952.4805 L860.9731,1955.2031 Q860.3423,1954.6221 859.7488,1954.3523 Q859.1553,1954.0825 858.5244,1954.0825 Q857.1797,1954.0825 856.4949,1955.1492 Q855.8101,1956.2158 855.8101,1958.3159 Q855.8101,1960.4077 856.4949,1961.4744 Q857.1797,1962.541 858.5244,1962.541 Q859.1553,1962.541 859.7488,1962.2712 Q860.3423,1962.0015 860.9731,1961.4204 Z " fill="#000000"/><text fill="#000000" font-family="sans-serif" font-size="14" lengthAdjust="spacing" textLength="75" x="872.5" y="1963.291">BankModel</text><line style="stroke:#181818;stroke-width:0.5;" x1="844.5" x2="949.5" y1="1974" y2="1974"/><line style="stroke:#181818;stroke-width:0.5;" x1="844.5" x2="949.5" y1="1982" y2="1982"/></g><!--MD5=[c2d105e52fbb731d58293327cfa51995]
class UserModel--><g id="elem_UserModel"><rect codeLine="53" fill="#F1F1F1" height="48" id="UserModel" rx="2.5" ry="2.5" style="stroke:#181818;stroke-width:0.5;" width="105" x="844.5" y="1859"/><ellipse cx="859.5" cy="1875" fill="#ADD1B2" rx="11" ry="11" style="stroke:#181818;stroke-width:1.0;"/><path d="M861.9731,1881.1431 Q861.3921,1881.4419 860.7529,1881.5913 Q860.1138,1881.7407 859.4082,1881.7407 Q856.9014,1881.7407 855.5815,1880.0889 Q854.2617,1878.437 854.2617,1875.3159 Q854.2617,1872.1865 855.5815,1870.5347 Q856.9014,1868.8828 859.4082,1868.8828 Q860.1138,1868.8828 860.7612,1869.0322 Q861.4087,1869.1816 861.9731,1869.4805 L861.9731,1872.2031 Q861.3423,1871.6221 860.7488,1871.3523 Q860.1553,1871.0825 859.5244,1871.0825 Q858.1797,1871.0825 857.4949,1872.1492 Q856.8101,1873.2158 856.8101,1875.3159 Q856.8101,1877.4077 857.4949,1878.4744 Q858.1797,1879.541 859.5244,1879.541 Q860.1553,1879.541 860.7488,1879.2712 Q861.3423,1879.0015 861.9731,1878.4204 Z " fill="#000000"/><text fill="#000000" font-family="sans-serif" font-size="14" lengthAdjust="spacing" textLength="73" x="873.5" y="1880.291">UserModel</text><line style="stroke:#181818;stroke-width:0.5;" x1="845.5" x2="948.5" y1="1891" y2="1891"/><line style="stroke:#181818;stroke-width:0.5;" x1="845.5" x2="948.5" y1="1899" y2="1899"/></g><!--MD5=[bc37253095e176f87b2d8a6e2092c70f]
class TransactionModel--><g id="elem_TransactionModel"><rect codeLine="54" fill="#F1F1F1" height="48" id="TransactionModel" rx="2.5" ry="2.5" style="stroke:#181818;stroke-width:0.5;" width="155" x="819.5" y="1776"/><ellipse cx="834.5" cy="1792" fill="#ADD1B2" rx="11" ry="11" style="stroke:#181818;stroke-width:1.0;"/><path d="M836.9731,1798.1431 Q836.3921,1798.4419 835.7529,1798.5913 Q835.1138,1798.7407 834.4082,1798.7407 Q831.9014,1798.7407 830.5815,1797.0889 Q829.2617,1795.437 829.2617,1792.3159 Q829.2617,1789.1865 830.5815,1787.5347 Q831.9014,1785.8828 834.4082,1785.8828 Q835.1138,1785.8828 835.7612,1786.0322 Q836.4087,1786.1816 836.9731,1786.4805 L836.9731,1789.2031 Q836.3423,1788.6221 835.7488,1788.3523 Q835.1553,1788.0825 834.5244,1788.0825 Q833.1797,1788.0825 832.4949,1789.1492 Q831.8101,1790.2158 831.8101,1792.3159 Q831.8101,1794.4077 832.4949,1795.4744 Q833.1797,1796.541 834.5244,1796.541 Q835.1553,1796.541 835.7488,1796.2712 Q836.3423,1796.0015 836.9731,1795.4204 Z " fill="#000000"/><text fill="#000000" font-family="sans-serif" font-size="14" lengthAdjust="spacing" textLength="123" x="848.5" y="1797.291">TransactionModel</text><line style="stroke:#181818;stroke-width:0.5;" x1="820.5" x2="973.5" y1="1808" y2="1808"/><line style="stroke:#181818;stroke-width:0.5;" x1="820.5" x2="973.5" y1="1816" y2="1816"/></g><!--MD5=[cbe55c958fa3cb99d0cd31c3f83fd92c]
class TokenModel--><g id="elem_TokenModel"><rect codeLine="55" fill="#F1F1F1" height="48" id="TokenModel" rx="2.5" ry="2.5" style="stroke:#181818;stroke-width:0.5;" width="117" x="1044" y="1942"/><ellipse cx="1059" cy="1958" fill="#ADD1B2" rx="11" ry="11" style="stroke:#181818;stroke-width:1.0;"/><path d="M1061.4731,1964.1431 Q1060.8921,1964.4419 1060.2529,1964.5913 Q1059.6138,1964.7407 1058.9082,1964.7407 Q1056.4014,1964.7407 1055.0815,1963.0889 Q1053.7617,1961.437 1053.7617,1958.3159 Q1053.7617,1955.1865 1055.0815,1953.5347 Q1056.4014,1951.8828 1058.9082,1951.8828 Q1059.6138,1951.8828 1060.2612,1952.0322 Q1060.9087,1952.1816 1061.4731,1952.4805 L1061.4731,1955.2031 Q1060.8423,1954.6221 1060.2488,1954.3523 Q1059.6553,1954.0825 1059.0244,1954.0825 Q1057.6797,1954.0825 1056.9949,1955.1492 Q1056.3101,1956.2158 1056.3101,1958.3159 Q1056.3101,1960.4077 1056.9949,1961.4744 Q1057.6797,1962.541 1059.0244,1962.541 Q1059.6553,1962.541 1060.2488,1962.2712 Q1060.8423,1962.0015 1061.4731,1961.4204 Z " fill="#000000"/><text fill="#000000" font-family="sans-serif" font-size="14" lengthAdjust="spacing" textLength="85" x="1073" y="1963.291">TokenModel</text><line style="stroke:#181818;stroke-width:0.5;" x1="1045" x2="1160" y1="1974" y2="1974"/><line style="stroke:#181818;stroke-width:0.5;" x1="1045" x2="1160" y1="1982" y2="1982"/></g><!--MD5=[f720432d5153d5a1ba79a87a0bebba0f]
class AccountModel--><g id="elem_AccountModel"><rect codeLine="56" fill="#F1F1F1" height="48" id="AccountModel" rx="2.5" ry="2.5" style="stroke:#181818;stroke-width:0.5;" width="130" x="1037.5" y="1859"/><ellipse cx="1052.5" cy="1875" fill="#ADD1B2" rx="11" ry="11" style="stroke:#181818;stroke-width:1.0;"/><path d="M1054.9731,1881.1431 Q1054.3921,1881.4419 1053.7529,1881.5913 Q1053.1138,1881.7407 1052.4082,1881.7407 Q1049.9014,1881.7407 1048.5815,1880.0889 Q1047.2617,1878.437 1047.2617,1875.3159 Q1047.2617,1872.1865 1048.5815,1870.5347 Q1049.9014,1868.8828 1052.4082,1868.8828 Q1053.1138,1868.8828 1053.7612,1869.0322 Q1054.4087,1869.1816 1054.9731,1869.4805 L1054.9731,1872.2031 Q1054.3423,1871.6221 1053.7488,1871.3523 Q1053.1553,1871.0825 1052.5244,1871.0825 Q1051.1797,1871.0825 1050.4949,1872.1492 Q1049.8101,1873.2158 1049.8101,1875.3159 Q1049.8101,1877.4077 1050.4949,1878.4744 Q1051.1797,1879.541 1052.5244,1879.541 Q1053.1553,1879.541 1053.7488,1879.2712 Q1054.3423,1879.0015 1054.9731,1878.4204 Z " fill="#000000"/><text fill="#000000" font-family="sans-serif" font-size="14" lengthAdjust="spacing" textLength="98" x="1066.5" y="1880.291">AccountModel</text><line style="stroke:#181818;stroke-width:0.5;" x1="1038.5" x2="1166.5" y1="1891" y2="1891"/><line style="stroke:#181818;stroke-width:0.5;" x1="1038.5" x2="1166.5" y1="1899" y2="1899"/></g><!--MD5=[01632ccb838a58e988d8c5c49aed9151]
class CardModel--><g id="elem_CardModel"><rect codeLine="57" fill="#F1F1F1" height="48" id="CardModel" rx="2.5" ry="2.5" style="stroke:#181818;stroke-width:0.5;" width="107" x="1049" y="1776"/><ellipse cx="1064" cy="1792" fill="#ADD1B2" rx="11" ry="11" style="stroke:#181818;stroke-width:1.0;"/><path d="M1066.4731,1798.1431 Q1065.8921,1798.4419 1065.2529,1798.5913 Q1064.6138,1798.7407 1063.9082,1798.7407 Q1061.4014,1798.7407 1060.0815,1797.0889 Q1058.7617,1795.437 1058.7617,1792.3159 Q1058.7617,1789.1865 1060.0815,1787.5347 Q1061.4014,1785.8828 1063.9082,1785.8828 Q1064.6138,1785.8828 1065.2612,1786.0322 Q1065.9087,1786.1816 1066.4731,1786.4805 L1066.4731,1789.2031 Q1065.8423,1788.6221 1065.2488,1788.3523 Q1064.6553,1788.0825 1064.0244,1788.0825 Q1062.6797,1788.0825 1061.9949,1789.1492 Q1061.3101,1790.2158 1061.3101,1792.3159 Q1061.3101,1794.4077 1061.9949,1795.4744 Q1062.6797,1796.541 1064.0244,1796.541 Q1064.6553,1796.541 1065.2488,1796.2712 Q1065.8423,1796.0015 1066.4731,1795.4204 Z " fill="#000000"/><text fill="#000000" font-family="sans-serif" font-size="14" lengthAdjust="spacing" textLength="75" x="1078" y="1797.291">CardModel</text><line style="stroke:#181818;stroke-width:0.5;" x1="1050" x2="1155" y1="1808" y2="1808"/><line style="stroke:#181818;stroke-width:0.5;" x1="1050" x2="1155" y1="1816" y2="1816"/></g><!--MD5=[8675006e04d44dfbeabfcb15f973faab]
class 2FAService--><g id="elem_2FAService"><rect codeLine="61" fill="#F1F1F1" height="48" id="2FAService" rx="2.5" ry="2.5" style="stroke:#181818;stroke-width:0.5;" width="107" x="843.5" y="1500"/><ellipse cx="858.5" cy="1516" fill="#ADD1B2" rx="11" ry="11" style="stroke:#181818;stroke-width:1.0;"/><path d="M860.9731,1522.1431 Q860.3921,1522.4419 859.7529,1522.5913 Q859.1138,1522.7407 858.4082,1522.7407 Q855.9014,1522.7407 854.5815,1521.0889 Q853.2617,1519.437 853.2617,1516.3159 Q853.2617,1513.1865 854.5815,1511.5347 Q855.9014,1509.8828 858.4082,1509.8828 Q859.1138,1509.8828 859.7612,1510.0322 Q860.4087,1510.1816 860.9731,1510.4805 L860.9731,1513.2031 Q860.3423,1512.6221 859.7488,1512.3523 Q859.1553,1512.0825 858.5244,1512.0825 Q857.1797,1512.0825 856.4949,1513.1492 Q855.8101,1514.2158 855.8101,1516.3159 Q855.8101,1518.4077 856.4949,1519.4744 Q857.1797,1520.541 858.5244,1520.541 Q859.1553,1520.541 859.7488,1520.2712 Q860.3423,1520.0015 860.9731,1519.4204 Z " fill="#000000"/><text fill="#000000" font-family="sans-serif" font-size="14" lengthAdjust="spacing" textLength="75" x="872.5" y="1521.291">2FAService</text><line style="stroke:#181818;stroke-width:0.5;" x1="844.5" x2="949.5" y1="1532" y2="1532"/><line style="stroke:#181818;stroke-width:0.5;" x1="844.5" x2="949.5" y1="1540" y2="1540"/></g><!--MD5=[f9c70461bc4e58cf9d0df385b8c33186]
class SMTPEmailService--><g id="elem_SMTPEmailService"><rect codeLine="62" fill="#F1F1F1" height="48" id="SMTPEmailService" rx="2.5" ry="2.5" style="stroke:#181818;stroke-width:0.5;" width="154" x="820" y="1583"/><ellipse cx="835" cy="1599" fill="#ADD1B2" rx="11" ry="11" style="stroke:#181818;stroke-width:1.0;"/><path d="M837.4731,1605.1431 Q836.8921,1605.4419 836.2529,1605.5913 Q835.6138,1605.7407 834.9082,1605.7407 Q832.4014,1605.7407 831.0815,1604.0889 Q829.7617,1602.437 829.7617,1599.3159 Q829.7617,1596.1865 831.0815,1594.5347 Q832.4014,1592.8828 834.9082,1592.8828 Q835.6138,1592.8828 836.2612,1593.0322 Q836.9087,1593.1816 837.4731,1593.4805 L837.4731,1596.2031 Q836.8423,1595.6221 836.2488,1595.3523 Q835.6553,1595.0825 835.0244,1595.0825 Q833.6797,1595.0825 832.9949,1596.1492 Q832.3101,1597.2158 832.3101,1599.3159 Q832.3101,1601.4077 832.9949,1602.4744 Q833.6797,1603.541 835.0244,1603.541 Q835.6553,1603.541 836.2488,1603.2712 Q836.8423,1603.0015 837.4731,1602.4204 Z " fill="#000000"/><text fill="#000000" font-family="sans-serif" font-size="14" lengthAdjust="spacing" textLength="122" x="849" y="1604.291">SMTPEmailService</text><line style="stroke:#181818;stroke-width:0.5;" x1="821" x2="973" y1="1615" y2="1615"/><line style="stroke:#181818;stroke-width:0.5;" x1="821" x2="973" y1="1623" y2="1623"/></g><!--MD5=[238bc72f247186edf941605b653daba6]
class BankEntity--><g id="elem_BankEntity"><rect codeLine="68" fill="#F1F1F1" height="48" id="BankEntity" rx="2.5" ry="2.5" style="stroke:#181818;stroke-width:0.5;" width="103" x="845.5" y="2370"/><ellipse cx="860.5" cy="2386" fill="#ADD1B2" rx="11" ry="11" style="stroke:#181818;stroke-width:1.0;"/><path d="M862.9731,2392.1431 Q862.3921,2392.4419 861.7529,2392.5913 Q861.1138,2392.7407 860.4082,2392.7407 Q857.9014,2392.7407 856.5815,2391.0889 Q855.2617,2389.437 855.2617,2386.3159 Q855.2617,2383.1865 856.5815,2381.5347 Q857.9014,2379.8828 860.4082,2379.8828 Q861.1138,2379.8828 861.7612,2380.0322 Q862.4087,2380.1816 862.9731,2380.4805 L862.9731,2383.2031 Q862.3423,2382.6221 861.7488,2382.3523 Q861.1553,2382.0825 860.5244,2382.0825 Q859.1797,2382.0825 858.4949,2383.1492 Q857.8101,2384.2158 857.8101,2386.3159 Q857.8101,2388.4077 858.4949,2389.4744 Q859.1797,2390.541 860.5244,2390.541 Q861.1553,2390.541 861.7488,2390.2712 Q862.3423,2390.0015 862.9731,2389.4204 Z " fill="#000000"/><text fill="#000000" font-family="sans-serif" font-size="14" lengthAdjust="spacing" textLength="71" x="874.5" y="2391.291">BankEntity</text><line style="stroke:#181818;stroke-width:0.5;" x1="846.5" x2="947.5" y1="2402" y2="2402"/><line style="stroke:#181818;stroke-width:0.5;" x1="846.5" x2="947.5" y1="2410" y2="2410"/></g><!--MD5=[c23d9781ab907d98e153c7f0d747c66c]
class UserEntity--><g id="elem_UserEntity"><rect codeLine="69" fill="#F1F1F1" height="48" id="UserEntity" rx="2.5" ry="2.5" style="stroke:#181818;stroke-width:0.5;" width="101" x="846.5" y="2287"/><ellipse cx="861.5" cy="2303" fill="#ADD1B2" rx="11" ry="11" style="stroke:#181818;stroke-width:1.0;"/><path d="M863.9731,2309.1431 Q863.3921,2309.4419 862.7529,2309.5913 Q862.1138,2309.7407 861.4082,2309.7407 Q858.9014,2309.7407 857.5815,2308.0889 Q856.2617,2306.437 856.2617,2303.3159 Q856.2617,2300.1865 857.5815,2298.5347 Q858.9014,2296.8828 861.4082,2296.8828 Q862.1138,2296.8828 862.7612,2297.0322 Q863.4087,2297.1816 863.9731,2297.4805 L863.9731,2300.2031 Q863.3423,2299.6221 862.7488,2299.3523 Q862.1553,2299.0825 861.5244,2299.0825 Q860.1797,2299.0825 859.4949,2300.1492 Q858.8101,2301.2158 858.8101,2303.3159 Q858.8101,2305.4077 859.4949,2306.4744 Q860.1797,2307.541 861.5244,2307.541 Q862.1553,2307.541 862.7488,2307.2712 Q863.3423,2307.0015 863.9731,2306.4204 Z " fill="#000000"/><text fill="#000000" font-family="sans-serif" font-size="14" lengthAdjust="spacing" textLength="69" x="875.5" y="2308.291">UserEntity</text><line style="stroke:#181818;stroke-width:0.5;" x1="847.5" x2="946.5" y1="2319" y2="2319"/><line style="stroke:#181818;stroke-width:0.5;" x1="847.5" x2="946.5" y1="2327" y2="2327"/></g><!--MD5=[d1c2d716d2d72c2b42f19691579c4b3b]
class TransactionEntity--><g id="elem_TransactionEntity"><rect codeLine="70" fill="#F1F1F1" height="48" id="TransactionEntity" rx="2.5" ry="2.5" style="stroke:#181818;stroke-width:0.5;" width="151" x="821.5" y="2204"/><ellipse cx="836.5" cy="2220" fill="#ADD1B2" rx="11" ry="11" style="stroke:#181818;stroke-width:1.0;"/><path d="M838.9731,2226.1431 Q838.3921,2226.4419 837.7529,2226.5913 Q837.1138,2226.7407 836.4082,2226.7407 Q833.9014,2226.7407 832.5815,2225.0889 Q831.2617,2223.437 831.2617,2220.3159 Q831.2617,2217.1865 832.5815,2215.5347 Q833.9014,2213.8828 836.4082,2213.8828 Q837.1138,2213.8828 837.7612,2214.0322 Q838.4087,2214.1816 838.9731,2214.4805 L838.9731,2217.2031 Q838.3423,2216.6221 837.7488,2216.3523 Q837.1553,2216.0825 836.5244,2216.0825 Q835.1797,2216.0825 834.4949,2217.1492 Q833.8101,2218.2158 833.8101,2220.3159 Q833.8101,2222.4077 834.4949,2223.4744 Q835.1797,2224.541 836.5244,2224.541 Q837.1553,2224.541 837.7488,2224.2712 Q838.3423,2224.0015 838.9731,2223.4204 Z " fill="#000000"/><text fill="#000000" font-family="sans-serif" font-size="14" lengthAdjust="spacing" textLength="119" x="850.5" y="2225.291">TransactionEntity</text><line style="stroke:#181818;stroke-width:0.5;" x1="822.5" x2="971.5" y1="2236" y2="2236"/><line style="stroke:#181818;stroke-width:0.5;" x1="822.5" x2="971.5" y1="2244" y2="2244"/></g><!--MD5=[cdf5d490efe98fa47de3b622ba66dbf5]
class TokenEntity--><g id="elem_TokenEntity"><rect codeLine="71" fill="#F1F1F1" height="48" id="TokenEntity" rx="2.5" ry="2.5" style="stroke:#181818;stroke-width:0.5;" width="113" x="1046" y="2370"/><ellipse cx="1061" cy="2386" fill="#ADD1B2" rx="11" ry="11" style="stroke:#181818;stroke-width:1.0;"/><path d="M1063.4731,2392.1431 Q1062.8921,2392.4419 1062.2529,2392.5913 Q1061.6138,2392.7407 1060.9082,2392.7407 Q1058.4014,2392.7407 1057.0815,2391.0889 Q1055.7617,2389.437 1055.7617,2386.3159 Q1055.7617,2383.1865 1057.0815,2381.5347 Q1058.4014,2379.8828 1060.9082,2379.8828 Q1061.6138,2379.8828 1062.2612,2380.0322 Q1062.9087,2380.1816 1063.4731,2380.4805 L1063.4731,2383.2031 Q1062.8423,2382.6221 1062.2488,2382.3523 Q1061.6553,2382.0825 1061.0244,2382.0825 Q1059.6797,2382.0825 1058.9949,2383.1492 Q1058.3101,2384.2158 1058.3101,2386.3159 Q1058.3101,2388.4077 1058.9949,2389.4744 Q1059.6797,2390.541 1061.0244,2390.541 Q1061.6553,2390.541 1062.2488,2390.2712 Q1062.8423,2390.0015 1063.4731,2389.4204 Z " fill="#000000"/><text fill="#000000" font-family="sans-serif" font-size="14" lengthAdjust="spacing" textLength="81" x="1075" y="2391.291">TokenEntity</text><line style="stroke:#181818;stroke-width:0.5;" x1="1047" x2="1158" y1="2402" y2="2402"/><line style="stroke:#181818;stroke-width:0.5;" x1="1047" x2="1158" y1="2410" y2="2410"/></g><!--MD5=[7704216921a6ef65c9bbfc8bcc59ede3]
class AccountEntity--><g id="elem_AccountEntity"><rect codeLine="72" fill="#F1F1F1" height="48" id="AccountEntity" rx="2.5" ry="2.5" style="stroke:#181818;stroke-width:0.5;" width="126" x="1039.5" y="2287"/><ellipse cx="1054.5" cy="2303" fill="#ADD1B2" rx="11" ry="11" style="stroke:#181818;stroke-width:1.0;"/><path d="M1056.9731,2309.1431 Q1056.3921,2309.4419 1055.7529,2309.5913 Q1055.1138,2309.7407 1054.4082,2309.7407 Q1051.9014,2309.7407 1050.5815,2308.0889 Q1049.2617,2306.437 1049.2617,2303.3159 Q1049.2617,2300.1865 1050.5815,2298.5347 Q1051.9014,2296.8828 1054.4082,2296.8828 Q1055.1138,2296.8828 1055.7612,2297.0322 Q1056.4087,2297.1816 1056.9731,2297.4805 L1056.9731,2300.2031 Q1056.3423,2299.6221 1055.7488,2299.3523 Q1055.1553,2299.0825 1054.5244,2299.0825 Q1053.1797,2299.0825 1052.4949,2300.1492 Q1051.8101,2301.2158 1051.8101,2303.3159 Q1051.8101,2305.4077 1052.4949,2306.4744 Q1053.1797,2307.541 1054.5244,2307.541 Q1055.1553,2307.541 1055.7488,2307.2712 Q1056.3423,2307.0015 1056.9731,2306.4204 Z " fill="#000000"/><text fill="#000000" font-family="sans-serif" font-size="14" lengthAdjust="spacing" textLength="94" x="1068.5" y="2308.291">AccountEntity</text><line style="stroke:#181818;stroke-width:0.5;" x1="1040.5" x2="1164.5" y1="2319" y2="2319"/><line style="stroke:#181818;stroke-width:0.5;" x1="1040.5" x2="1164.5" y1="2327" y2="2327"/></g><!--MD5=[33ec9e5cc1c4328b1dfad9f8961aefe5]
class CardEntity--><g id="elem_CardEntity"><rect codeLine="73" fill="#F1F1F1" height="48" id="CardEntity" rx="2.5" ry="2.5" style="stroke:#181818;stroke-width:0.5;" width="103" x="1051" y="2204"/><ellipse cx="1066" cy="2220" fill="#ADD1B2" rx="11" ry="11" style="stroke:#181818;stroke-width:1.0;"/><path d="M1068.4731,2226.1431 Q1067.8921,2226.4419 1067.2529,2226.5913 Q1066.6138,2226.7407 1065.9082,2226.7407 Q1063.4014,2226.7407 1062.0815,2225.0889 Q1060.7617,2223.437 1060.7617,2220.3159 Q1060.7617,2217.1865 1062.0815,2215.5347 Q1063.4014,2213.8828 1065.9082,2213.8828 Q1066.6138,2213.8828 1067.2612,2214.0322 Q1067.9087,2214.1816 1068.4731,2214.4805 L1068.4731,2217.2031 Q1067.8423,2216.6221 1067.2488,2216.3523 Q1066.6553,2216.0825 1066.0244,2216.0825 Q1064.6797,2216.0825 1063.9949,2217.1492 Q1063.3101,2218.2158 1063.3101,2220.3159 Q1063.3101,2222.4077 1063.9949,2223.4744 Q1064.6797,2224.541 1066.0244,2224.541 Q1066.6553,2224.541 1067.2488,2224.2712 Q1067.8423,2224.0015 1068.4731,2223.4204 Z " fill="#000000"/><text fill="#000000" font-family="sans-serif" font-size="14" lengthAdjust="spacing" textLength="71" x="1080" y="2225.291">CardEntity</text><line style="stroke:#181818;stroke-width:0.5;" x1="1052" x2="1153" y1="2236" y2="2236"/><line style="stroke:#181818;stroke-width:0.5;" x1="1052" x2="1153" y1="2244" y2="2244"/></g><!--MD5=[5bd44818010ad972200fe182db3a19ce]
class BankRepository--><g id="elem_BankRepository"><rect codeLine="77" fill="#F1F1F1" height="48" id="BankRepository" rx="2.5" ry="2.5" style="stroke:#181818;stroke-width:0.5;" width="138" x="556.5" y="2729"/><ellipse cx="571.5" cy="2745" fill="#ADD1B2" rx="11" ry="11" style="stroke:#181818;stroke-width:1.0;"/><path d="M573.9731,2751.1431 Q573.3921,2751.4419 572.7529,2751.5913 Q572.1138,2751.7407 571.4082,2751.7407 Q568.9014,2751.7407 567.5815,2750.0889 Q566.2617,2748.437 566.2617,2745.3159 Q566.2617,2742.1865 567.5815,2740.5347 Q568.9014,2738.8828 571.4082,2738.8828 Q572.1138,2738.8828 572.7612,2739.0322 Q573.4087,2739.1816 573.9731,2739.4805 L573.9731,2742.2031 Q573.3423,2741.6221 572.7488,2741.3523 Q572.1553,2741.0825 571.5244,2741.0825 Q570.1797,2741.0825 569.4949,2742.1492 Q568.8101,2743.2158 568.8101,2745.3159 Q568.8101,2747.4077 569.4949,2748.4744 Q570.1797,2749.541 571.5244,2749.541 Q572.1553,2749.541 572.7488,2749.2712 Q573.3423,2749.0015 573.9731,2748.4204 Z " fill="#000000"/><text fill="#000000" font-family="sans-serif" font-size="14" lengthAdjust="spacing" textLength="106" x="585.5" y="2750.291">BankRepository</text><line style="stroke:#181818;stroke-width:0.5;" x1="557.5" x2="693.5" y1="2761" y2="2761"/><line style="stroke:#181818;stroke-width:0.5;" x1="557.5" x2="693.5" y1="2769" y2="2769"/></g><!--MD5=[093c210125347143eef5bb9199eae634]
class UserRepository--><g id="elem_UserRepository"><rect codeLine="78" fill="#F1F1F1" height="48" id="UserRepository" rx="2.5" ry="2.5" style="stroke:#181818;stroke-width:0.5;" width="136" x="557.5" y="2646"/><ellipse cx="572.5" cy="2662" fill="#ADD1B2" rx="11" ry="11" style="stroke:#181818;stroke-width:1.0;"/><path d="M574.9731,2668.1431 Q574.3921,2668.4419 573.7529,2668.5913 Q573.1138,2668.7407 572.4082,2668.7407 Q569.9014,2668.7407 568.5815,2667.0889 Q567.2617,2665.437 567.2617,2662.3159 Q567.2617,2659.1865 568.5815,2657.5347 Q569.9014,2655.8828 572.4082,2655.8828 Q573.1138,2655.8828 573.7612,2656.0322 Q574.4087,2656.1816 574.9731,2656.4805 L574.9731,2659.2031 Q574.3423,2658.6221 573.7488,2658.3523 Q573.1553,2658.0825 572.5244,2658.0825 Q571.1797,2658.0825 570.4949,2659.1492 Q569.8101,2660.2158 569.8101,2662.3159 Q569.8101,2664.4077 570.4949,2665.4744 Q571.1797,2666.541 572.5244,2666.541 Q573.1553,2666.541 573.7488,2666.2712 Q574.3423,2666.0015 574.9731,2665.4204 Z " fill="#000000"/><text fill="#000000" font-family="sans-serif" font-size="14" lengthAdjust="spacing" textLength="104" x="586.5" y="2667.291">UserRepository</text><line style="stroke:#181818;stroke-width:0.5;" x1="558.5" x2="692.5" y1="2678" y2="2678"/><line style="stroke:#181818;stroke-width:0.5;" x1="558.5" x2="692.5" y1="2686" y2="2686"/></g><!--MD5=[ce600397174d7f850fc7cbf9b3c8f274]
class TransactionRepository--><g id="elem_TransactionRepository"><rect codeLine="79" fill="#F1F1F1" height="48" id="TransactionRepository" rx="2.5" ry="2.5" style="stroke:#181818;stroke-width:0.5;" width="186" x="532.5" y="2563"/><ellipse cx="547.5" cy="2579" fill="#ADD1B2" rx="11" ry="11" style="stroke:#181818;stroke-width:1.0;"/><path d="M549.9731,2585.1431 Q549.3921,2585.4419 548.7529,2585.5913 Q548.1138,2585.7407 547.4082,2585.7407 Q544.9014,2585.7407 543.5815,2584.0889 Q542.2617,2582.437 542.2617,2579.3159 Q542.2617,2576.1865 543.5815,2574.5347 Q544.9014,2572.8828 547.4082,2572.8828 Q548.1138,2572.8828 548.7612,2573.0322 Q549.4087,2573.1816 549.9731,2573.4805 L549.9731,2576.2031 Q549.3423,2575.6221 548.7488,2575.3523 Q548.1553,2575.0825 547.5244,2575.0825 Q546.1797,2575.0825 545.4949,2576.1492 Q544.8101,2577.2158 544.8101,2579.3159 Q544.8101,2581.4077 545.4949,2582.4744 Q546.1797,2583.541 547.5244,2583.541 Q548.1553,2583.541 548.7488,2583.2712 Q549.3423,2583.0015 549.9731,2582.4204 Z " fill="#000000"/><text fill="#000000" font-family="sans-serif" font-size="14" lengthAdjust="spacing" textLength="154" x="561.5" y="2584.291">TransactionRepository</text><line style="stroke:#181818;stroke-width:0.5;" x1="533.5" x2="717.5" y1="2595" y2="2595"/><line style="stroke:#181818;stroke-width:0.5;" x1="533.5" x2="717.5" y1="2603" y2="2603"/></g><!--MD5=[da6d1acf87fa2025a2be26b438e1a8dc]
class TokenRepository--><g id="elem_TokenRepository"><rect codeLine="80" fill="#F1F1F1" height="48" id="TokenRepository" rx="2.5" ry="2.5" style="stroke:#181818;stroke-width:0.5;" width="148" x="823" y="2729"/><ellipse cx="838" cy="2745" fill="#ADD1B2" rx="11" ry="11" style="stroke:#181818;stroke-width:1.0;"/><path d="M840.4731,2751.1431 Q839.8921,2751.4419 839.2529,2751.5913 Q838.6138,2751.7407 837.9082,2751.7407 Q835.4014,2751.7407 834.0815,2750.0889 Q832.7617,2748.437 832.7617,2745.3159 Q832.7617,2742.1865 834.0815,2740.5347 Q835.4014,2738.8828 837.9082,2738.8828 Q838.6138,2738.8828 839.2612,2739.0322 Q839.9087,2739.1816 840.4731,2739.4805 L840.4731,2742.2031 Q839.8423,2741.6221 839.2488,2741.3523 Q838.6553,2741.0825 838.0244,2741.0825 Q836.6797,2741.0825 835.9949,2742.1492 Q835.3101,2743.2158 835.3101,2745.3159 Q835.3101,2747.4077 835.9949,2748.4744 Q836.6797,2749.541 838.0244,2749.541 Q838.6553,2749.541 839.2488,2749.2712 Q839.8423,2749.0015 840.4731,2748.4204 Z " fill="#000000"/><text fill="#000000" font-family="sans-serif" font-size="14" lengthAdjust="spacing" textLength="116" x="852" y="2750.291">TokenRepository</text><line style="stroke:#181818;stroke-width:0.5;" x1="824" x2="970" y1="2761" y2="2761"/><line style="stroke:#181818;stroke-width:0.5;" x1="824" x2="970" y1="2769" y2="2769"/></g><!--MD5=[cae670f37f0a73eebccd9c2f0814df11]
class AccountRepository--><g id="elem_AccountRepository"><rect codeLine="81" fill="#F1F1F1" height="48" id="AccountRepository" rx="2.5" ry="2.5" style="stroke:#181818;stroke-width:0.5;" width="161" x="816.5" y="2646"/><ellipse cx="831.5" cy="2662" fill="#ADD1B2" rx="11" ry="11" style="stroke:#181818;stroke-width:1.0;"/><path d="M833.9731,2668.1431 Q833.3921,2668.4419 832.7529,2668.5913 Q832.1138,2668.7407 831.4082,2668.7407 Q828.9014,2668.7407 827.5815,2667.0889 Q826.2617,2665.437 826.2617,2662.3159 Q826.2617,2659.1865 827.5815,2657.5347 Q828.9014,2655.8828 831.4082,2655.8828 Q832.1138,2655.8828 832.7612,2656.0322 Q833.4087,2656.1816 833.9731,2656.4805 L833.9731,2659.2031 Q833.3423,2658.6221 832.7488,2658.3523 Q832.1553,2658.0825 831.5244,2658.0825 Q830.1797,2658.0825 829.4949,2659.1492 Q828.8101,2660.2158 828.8101,2662.3159 Q828.8101,2664.4077 829.4949,2665.4744 Q830.1797,2666.541 831.5244,2666.541 Q832.1553,2666.541 832.7488,2666.2712 Q833.3423,2666.0015 833.9731,2665.4204 Z " fill="#000000"/><text fill="#000000" font-family="sans-serif" font-size="14" lengthAdjust="spacing" textLength="129" x="845.5" y="2667.291">AccountRepository</text><line style="stroke:#181818;stroke-width:0.5;" x1="817.5" x2="976.5" y1="2678" y2="2678"/><line style="stroke:#181818;stroke-width:0.5;" x1="817.5" x2="976.5" y1="2686" y2="2686"/></g><!--MD5=[ae44d734625e1c5464234d05e28d102f]
class CardRepository--><g id="elem_CardRepository"><rect codeLine="82" fill="#F1F1F1" height="48" id="CardRepository" rx="2.5" ry="2.5" style="stroke:#181818;stroke-width:0.5;" width="138" x="828" y="2563"/><ellipse cx="843" cy="2579" fill="#ADD1B2" rx="11" ry="11" style="stroke:#181818;stroke-width:1.0;"/><path d="M845.4731,2585.1431 Q844.8921,2585.4419 844.2529,2585.5913 Q843.6138,2585.7407 842.9082,2585.7407 Q840.4014,2585.7407 839.0815,2584.0889 Q837.7617,2582.437 837.7617,2579.3159 Q837.7617,2576.1865 839.0815,2574.5347 Q840.4014,2572.8828 842.9082,2572.8828 Q843.6138,2572.8828 844.2612,2573.0322 Q844.9087,2573.1816 845.4731,2573.4805 L845.4731,2576.2031 Q844.8423,2575.6221 844.2488,2575.3523 Q843.6553,2575.0825 843.0244,2575.0825 Q841.6797,2575.0825 840.9949,2576.1492 Q840.3101,2577.2158 840.3101,2579.3159 Q840.3101,2581.4077 840.9949,2582.4744 Q841.6797,2583.541 843.0244,2583.541 Q843.6553,2583.541 844.2488,2583.2712 Q844.8423,2583.0015 845.4731,2582.4204 Z " fill="#000000"/><text fill="#000000" font-family="sans-serif" font-size="14" lengthAdjust="spacing" textLength="106" x="857" y="2584.291">CardRepository</text><line style="stroke:#181818;stroke-width:0.5;" x1="829" x2="965" y1="2595" y2="2595"/><line style="stroke:#181818;stroke-width:0.5;" x1="829" x2="965" y1="2603" y2="2603"/></g><!--MD5=[2c52bf2a9f4c69e755a5015cfec4aff1]
link Frontend to Backend--><g id="link_Frontend_Backend"><path d="M114.8038,1101.1176 C114.7946,1101.5593 114.7853,1102.0182 114.7758,1102.4942 C114.738,1104.3983 114.6983,1106.5757 114.6591,1109.0144 C114.5024,1118.7692 114.3545,1132.7056 114.3709,1150.0581 C114.4038,1184.7631 115.0938,1233.1325 117.685,1289.0425 C122.8675,1400.8625 135.655,1542.845 166,1666 C168.7494,1677.1581 171.7718,1688.4119 175.0231,1699.7074 C176.6488,1705.3551 178.3318,1711.0132 180.0665,1716.675 C180.5002,1718.0905 180.9371,1719.5062 181.3771,1720.922 " fill="none" id="Frontend-to-Backend" style="stroke:#181818;stroke-width:1.0;"/><polygon fill="#181818" points="181.3771,1720.922,182.5256,1711.1403,179.8931,1716.1473,174.8861,1713.5148,181.3771,1720.922" style="stroke:#181818;stroke-width:1.0;"/></g><!--MD5=[372f24fb1646b30df6cf0ca7ea46eb74]
link Backend to MySqlDao--><g id="link_Backend_MySqlDao"><path d="M329.7001,2062.6186 C329.8286,2067.6111 330.0259,2074.6721 330.3128,2083.5377 C330.8867,2101.2688 331.8194,2126.2183 333.2781,2156.2753 C336.1956,2216.3894 341.2175,2296.9338 349.6825,2381.0225 C366.6125,2549.2 397.315,2731.555 452.5,2793 C455.7625,2796.6325 459.2746,2799.9997 462.9933,2803.1206 C463.9229,2803.9008 464.8655,2804.6656 465.8203,2805.4153 C466.2977,2805.7902 466.7782,2806.1612 467.2616,2806.5286 C467.5033,2806.7122 467.7458,2806.895 467.989,2807.0768 " fill="none" id="Backend-to-MySqlDao" style="stroke:#181818;stroke-width:1.0;"/><polygon fill="#181818" points="467.989,2807.0768,463.1756,2798.4843,463.9843,2804.083,458.3856,2804.8918,467.989,2807.0768" style="stroke:#181818;stroke-width:1.0;"/></g><!--MD5=[899c6fa40e3fcf73a7a8966db494f84b]
link Pages to Components--><g id="link_Pages_Components"><path d="M115.2926,752.022 C115.2991,751.6812 115.3058,751.3378 115.3126,750.9919 C115.3263,750.3 115.3406,749.5978 115.3555,748.8854 C115.3853,747.4608 115.4175,745.9958 115.4525,744.4922 C115.5223,741.4851 115.6028,738.3238 115.6956,735.023 C116.4381,708.6166 117.9675,673.2819 121.1125,636.5263 C127.4025,563.015 140.155,483.82 166,459 C178.8275,446.68 195.1225,439.2731 212.4014,435.1073 C221.0409,433.0245 229.9263,431.7518 238.7472,431.0805 C243.1577,430.7448 247.5521,430.5595 251.8915,430.4983 C254.0612,430.4677 256.2172,430.4682 258.3546,430.4964 C259.4233,430.5105 260.4874,430.5316 261.5462,430.5592 C262.0756,430.573 262.6037,430.5885 263.1304,430.6055 C263.3937,430.614 263.6567,430.6229 263.9194,430.6322 " fill="none" id="Pages-to-Components" style="stroke:#181818;stroke-width:1.0;"/><polygon fill="#181818" points="263.9194,430.6322,255.0665,426.3164,258.9225,430.4553,254.7835,434.3114,263.9194,430.6322" style="stroke:#181818;stroke-width:1.0;"/></g><!--MD5=[104185d6c66e6db128432f81c08b7c3e]
link Components to Store--><g id="link_Components_Store"><path d="M342.8421,412.4464 C343.274,411.6106 343.7158,410.7601 344.1673,409.8954 C345.9733,406.4368 347.9356,402.7523 350.048,398.8811 C354.273,391.1386 359.0988,382.6494 364.4775,373.7275 C385.9925,338.04 416.355,295.43 452.5,266 C484.33,240.085 526.495,221.5125 561.11,209.3325 C569.7637,206.2875 577.9456,203.642 585.3762,201.3813 C587.2338,200.8161 589.0445,200.2749 590.8038,199.7576 C591.2437,199.6282 591.6803,199.5004 592.1137,199.374 C592.3303,199.3108 592.5462,199.248 592.7612,199.1856 " fill="none" id="Components-to-Store" style="stroke:#181818;stroke-width:1.0;"/><polygon fill="#181818" points="592.7612,199.1856,583.0028,197.854,587.9596,200.5799,585.2337,205.5366,592.7612,199.1856" style="stroke:#181818;stroke-width:1.0;"/></g><!--MD5=[6b3c60a3be35dc5ce5f909403db3f9d0]
link Components to Clients--><g id="link_Components_Clients"><path d="M436.6393,412.7615 C441.0225,411.6471 445.4572,410.5196 449.9262,409.3834 C458.8643,407.111 467.9397,404.8036 477.015,402.4963 C513.3163,393.2669 549.6163,384.0378 577.1203,377.0448 C580.5583,376.1707 583.8589,375.3315 587.0048,374.5317 C588.5778,374.1317 590.1122,373.7416 591.6057,373.3619 C591.9791,373.2669 592.3499,373.1727 592.7181,373.079 " fill="none" id="Components-to-Clients" style="stroke:#181818;stroke-width:1.0;"/><polygon fill="#181818" points="592.7181,373.079,583.01,371.4201,587.8723,374.3111,584.9813,379.1734,592.7181,373.079" style="stroke:#181818;stroke-width:1.0;"/></g><!--MD5=[925ab9a538a08a1e98b60985b23e0ae1]
link Views to Controllers--><g id="link_Views_Controllers"><path d="M436.6393,1456.7615 C441.0225,1455.6471 445.4572,1454.5196 449.9262,1453.3834 C458.8643,1451.111 467.9397,1448.8036 477.015,1446.4963 C513.3163,1437.2669 549.6163,1428.0378 577.1203,1421.0448 C580.5583,1420.1707 583.8589,1419.3315 587.0048,1418.5317 C588.5778,1418.1317 590.1122,1417.7416 591.6057,1417.3619 C591.9791,1417.2669 592.3499,1417.1727 592.7181,1417.079 " fill="none" id="Views-to-Controllers" style="stroke:#181818;stroke-width:1.0;"/><polygon fill="#181818" points="592.7181,1417.079,583.01,1415.4201,587.8723,1418.3111,584.9813,1423.1734,592.7181,1417.079" style="stroke:#181818;stroke-width:1.0;"/></g><!--MD5=[424488e8f480e7d5928ef5318233d0af]
link Controllers to Models--><g id="link_Controllers_Models"><path d="M651.7558,1417.125 C652.5117,1417.4014 653.2801,1417.6852 654.0603,1417.9764 C657.1813,1419.1413 660.4919,1420.4242 663.9513,1421.8281 C670.8701,1424.6359 678.3841,1427.9275 686.1663,1431.725 C717.295,1446.915 752.715,1470.2 771.5,1503 C791.29,1537.55 757.9,1648.55 779.5,1682 C787.2475,1694 798.2375,1703.6669 810.4048,1711.4222 C811.1653,1711.9069 811.9304,1712.3841 812.6995,1712.854 C813.0841,1713.0889 813.4697,1713.322 813.8563,1713.5533 C814.0495,1713.6689 814.2431,1713.7841 814.4368,1713.8988 " fill="none" id="Controllers-to-Models" style="stroke:#181818;stroke-width:1.0;"/><polygon fill="#181818" points="814.4368,1713.8988,808.7305,1705.8715,810.1344,1711.3514,804.6546,1712.7553,814.4368,1713.8988" style="stroke:#181818;stroke-width:1.0;"/></g><!--MD5=[51fd03a715e9c0574671de59319eb649]
link Controllers to Services--><g id="link_Controllers_Services"><path d="M651.6845,1417.1665 C652.4385,1417.4441 653.205,1417.7289 653.9834,1418.0212 C657.0968,1419.1901 660.3999,1420.4773 663.852,1421.8853 C670.7561,1424.7012 678.2563,1428.0003 686.0275,1431.8038 C717.1125,1447.0175 752.535,1470.3 771.5,1503 C779.54,1516.86 768.79,1635.08 779.5,1647 C783.8163,1651.8 788.8342,1655.7064 794.3159,1658.8664 C794.6585,1659.0639 795.0029,1659.2585 795.349,1659.4502 C795.5221,1659.5461 795.6956,1659.6412 795.8696,1659.7356 " fill="none" id="Controllers-to-Services" style="stroke:#181818;stroke-width:1.0;"/><polygon fill="#181818" points="795.8696,1659.7356,789.8678,1651.9268,791.4752,1657.3504,786.0515,1658.9578,795.8696,1659.7356" style="stroke:#181818;stroke-width:1.0;"/></g><!--MD5=[37f8d31a46744c4c9a2adbd6781ba5c0]
link Repositories to Entities--><g id="link_Repositories_Entities"><path d="M724.3761,2500.7615 C728.3803,2499.6471 732.4316,2498.5196 736.5143,2497.3834 C744.6796,2495.111 752.9705,2492.8036 761.2613,2490.4963 C794.4244,2481.2669 827.5866,2472.0378 852.713,2465.0448 C855.8538,2464.1707 858.869,2463.3315 861.743,2462.5317 C863.18,2462.1317 864.5817,2461.7416 865.9461,2461.3619 C866.2872,2461.2669 866.626,2461.1727 866.9624,2461.079 " fill="none" id="Repositories-to-Entities" style="stroke:#181818;stroke-width:1.0;"/><polygon fill="#181818" points="866.9624,2461.079,857.2194,2459.6386,862.1455,2462.4197,859.3644,2467.3457,866.9624,2461.079" style="stroke:#181818;stroke-width:1.0;"/></g><!--MD5=[f78dabb709b82f74564c5c52b0894579]
@startuml package-diagram
left to right direction

package "Frontend" {


    package "Clients" {
        class BackendClient
    }


    package "Pages" {
        class Login
        class Register
        class Home
        class AccountInfo
        class Transaction
        class AdminDashboard
    }

    package "Components" {
        class Header
        class Footer
        class Navbar
        class ConfirmDialog
        class Button
        class Input
    }

    package "Store" {
        class LocalStorage
    }

}


package "Backend" {
    package "Views" {
        class AuthenticationView
        class TransactionView
        class UserView
        class AdminView
    }

    package "Controllers" {
        class AuthenticationController
        class TransactionController
        class UserController
        class AdminController
    }

    package "Models" {
        class BankModel
        class UserModel
        class TransactionModel
        class TokenModel
        class AccountModel
        class CardModel
    }

    package "Services"{
        class 2FAService
        class SMTPEmailService
    }
}

package "MySqlDao" {
    package "Entities" {
        class BankEntity
        class UserEntity
        class TransactionEntity
        class TokenEntity
        class AccountEntity
        class CardEntity
    }

    package "Repositories" {
        class BankRepository
        class UserRepository
        class TransactionRepository
        class TokenRepository
        class AccountRepository
        class CardRepository
    }
}

"Frontend" -down-> "Backend"
"Backend" -down-> "MySqlDao"

"Pages" - -> "Components"
"Components" - -> "Store"
"Components" - -> "Clients"

"Views" - -> "Controllers"
"Controllers" - -> "Models"
"Controllers" - -> "Services"

"Repositories" - -> "Entities"

@enduml

PlantUML version 1.2022.7(Mon Aug 22 20:01:30 EEST 2022)
(GPL source distribution)
Java Runtime: OpenJDK Runtime Environment
JVM: OpenJDK 64-Bit Server VM
Default Encoding: UTF-8
Language: en
Country: RO
--></g></svg>