<?xml version="1.0" encoding="UTF-8" standalone="no"?><svg xmlns="http://www.w3.org/2000/svg" xmlns:xlink="http://www.w3.org/1999/xlink" contentStyleType="text/css" height="779px" preserveAspectRatio="none" style="width:723px;height:779px;background:#FFFFFF;" version="1.1" viewBox="0 0 723 779" width="723px" zoomAndPan="magnify"><defs/><g><rect fill="#FFFFFF" height="146.5527" style="stroke:#181818;stroke-width:1.0;" width="10" x="275" y="67.7988"/><rect fill="#FFFFFF" height="29.3105" style="stroke:#181818;stroke-width:1.0;" width="10" x="275" y="243.6621"/><rect fill="#FFFFFF" height="71.6211" style="stroke:#181818;stroke-width:1.0;" width="10" x="275" y="302.2832"/><rect fill="#FFFFFF" height="146.5527" style="stroke:#181818;stroke-width:1.0;" width="10" x="275" y="403.2148"/><rect fill="#FFFFFF" height="146.5527" style="stroke:#181818;stroke-width:1.0;" width="10" x="275" y="579.0781"/><rect fill="#FFFFFF" height="87.9316" style="stroke:#181818;stroke-width:1.0;" width="10" x="521" y="97.1094"/><rect fill="#FFFFFF" height="87.9316" style="stroke:#181818;stroke-width:1.0;" width="10" x="521" y="432.5254"/><rect fill="#FFFFFF" height="87.9316" style="stroke:#181818;stroke-width:1.0;" width="10" x="521" y="608.3887"/><rect fill="#FFFFFF" height="29.3105" style="stroke:#181818;stroke-width:1.0;" width="10" x="674" y="126.4199"/><rect fill="#FFFFFF" height="29.3105" style="stroke:#181818;stroke-width:1.0;" width="10" x="674" y="461.8359"/><rect fill="#FFFFFF" height="29.3105" style="stroke:#181818;stroke-width:1.0;" width="10" x="674" y="637.6992"/><line style="stroke:#181818;stroke-width:0.5;stroke-dasharray:5.0,5.0;" x1="32" x2="32" y1="36.4883" y2="743.6309"/><line style="stroke:#181818;stroke-width:0.5;stroke-dasharray:5.0,5.0;" x1="279.5" x2="279.5" y1="36.4883" y2="743.6309"/><line style="stroke:#181818;stroke-width:0.5;stroke-dasharray:5.0,5.0;" x1="525.5" x2="525.5" y1="36.4883" y2="743.6309"/><line style="stroke:#181818;stroke-width:0.5;stroke-dasharray:5.0,5.0;" x1="678.5" x2="678.5" y1="36.4883" y2="743.6309"/><rect fill="#E2E2F0" height="30.4883" rx="2.5" ry="2.5" style="stroke:#181818;stroke-width:0.5;" width="54" x="5" y="5"/><text fill="#000000" font-family="sans-serif" font-size="14" lengthAdjust="spacing" textLength="40" x="12" y="25.5352">Client</text><rect fill="#E2E2F0" height="30.4883" rx="2.5" ry="2.5" style="stroke:#181818;stroke-width:0.5;" width="54" x="5" y="742.6309"/><text fill="#000000" font-family="sans-serif" font-size="14" lengthAdjust="spacing" textLength="40" x="12" y="763.166">Client</text><rect fill="#E2E2F0" height="30.4883" rx="2.5" ry="2.5" style="stroke:#181818;stroke-width:0.5;" width="77" x="241.5" y="5"/><text fill="#000000" font-family="sans-serif" font-size="14" lengthAdjust="spacing" textLength="63" x="248.5" y="25.5352">Frontend</text><rect fill="#E2E2F0" height="30.4883" rx="2.5" ry="2.5" style="stroke:#181818;stroke-width:0.5;" width="77" x="241.5" y="742.6309"/><text fill="#000000" font-family="sans-serif" font-size="14" lengthAdjust="spacing" textLength="63" x="248.5" y="763.166">Frontend</text><rect fill="#E2E2F0" height="30.4883" rx="2.5" ry="2.5" style="stroke:#181818;stroke-width:0.5;" width="71" x="490.5" y="5"/><text fill="#000000" font-family="sans-serif" font-size="14" lengthAdjust="spacing" textLength="57" x="497.5" y="25.5352">Backend</text><rect fill="#E2E2F0" height="30.4883" rx="2.5" ry="2.5" style="stroke:#181818;stroke-width:0.5;" width="71" x="490.5" y="742.6309"/><text fill="#000000" font-family="sans-serif" font-size="14" lengthAdjust="spacing" textLength="57" x="497.5" y="763.166">Backend</text><rect fill="#E2E2F0" height="30.4883" rx="2.5" ry="2.5" style="stroke:#181818;stroke-width:0.5;" width="77" x="640.5" y="5"/><text fill="#000000" font-family="sans-serif" font-size="14" lengthAdjust="spacing" textLength="63" x="647.5" y="25.5352">Database</text><rect fill="#E2E2F0" height="30.4883" rx="2.5" ry="2.5" style="stroke:#181818;stroke-width:0.5;" width="77" x="640.5" y="742.6309"/><text fill="#000000" font-family="sans-serif" font-size="14" lengthAdjust="spacing" textLength="63" x="647.5" y="763.166">Database</text><rect fill="#FFFFFF" height="146.5527" style="stroke:#181818;stroke-width:1.0;" width="10" x="275" y="67.7988"/><rect fill="#FFFFFF" height="29.3105" style="stroke:#181818;stroke-width:1.0;" width="10" x="275" y="243.6621"/><rect fill="#FFFFFF" height="71.6211" style="stroke:#181818;stroke-width:1.0;" width="10" x="275" y="302.2832"/><rect fill="#FFFFFF" height="146.5527" style="stroke:#181818;stroke-width:1.0;" width="10" x="275" y="403.2148"/><rect fill="#FFFFFF" height="146.5527" style="stroke:#181818;stroke-width:1.0;" width="10" x="275" y="579.0781"/><rect fill="#FFFFFF" height="87.9316" style="stroke:#181818;stroke-width:1.0;" width="10" x="521" y="97.1094"/><rect fill="#FFFFFF" height="87.9316" style="stroke:#181818;stroke-width:1.0;" width="10" x="521" y="432.5254"/><rect fill="#FFFFFF" height="87.9316" style="stroke:#181818;stroke-width:1.0;" width="10" x="521" y="608.3887"/><rect fill="#FFFFFF" height="29.3105" style="stroke:#181818;stroke-width:1.0;" width="10" x="674" y="126.4199"/><rect fill="#FFFFFF" height="29.3105" style="stroke:#181818;stroke-width:1.0;" width="10" x="674" y="461.8359"/><rect fill="#FFFFFF" height="29.3105" style="stroke:#181818;stroke-width:1.0;" width="10" x="674" y="637.6992"/><polygon fill="#181818" points="263,63.7988,273,67.7988,263,71.7988,267,67.7988" style="stroke:#181818;stroke-width:1.0;"/><line style="stroke:#181818;stroke-width:1.0;" x1="32" x2="269" y1="67.7988" y2="67.7988"/><text fill="#000000" font-family="sans-serif" font-size="13" lengthAdjust="spacing" textLength="136" x="39" y="63.0566">get transactions page</text><polygon fill="#181818" points="509,93.1094,519,97.1094,509,101.1094,513,97.1094" style="stroke:#181818;stroke-width:1.0;"/><line style="stroke:#181818;stroke-width:1.0;" x1="285" x2="515" y1="97.1094" y2="97.1094"/><text fill="#000000" font-family="sans-serif" font-size="13" lengthAdjust="spacing" textLength="209" x="292" y="92.3672">HTTP request (GET /transactions)</text><polygon fill="#181818" points="662,122.4199,672,126.4199,662,130.4199,666,126.4199" style="stroke:#181818;stroke-width:1.0;"/><line style="stroke:#181818;stroke-width:1.0;" x1="531" x2="668" y1="126.4199" y2="126.4199"/><text fill="#000000" font-family="sans-serif" font-size="13" lengthAdjust="spacing" textLength="102" x="538" y="121.6777">get transactions</text><polygon fill="#181818" points="542,151.7305,532,155.7305,542,159.7305,538,155.7305" style="stroke:#181818;stroke-width:1.0;"/><line style="stroke:#181818;stroke-width:1.0;stroke-dasharray:2.0,2.0;" x1="536" x2="678" y1="155.7305" y2="155.7305"/><text fill="#000000" font-family="sans-serif" font-size="13" lengthAdjust="spacing" textLength="78" x="548" y="150.9883">transactions</text><polygon fill="#181818" points="296,181.041,286,185.041,296,189.041,292,185.041" style="stroke:#181818;stroke-width:1.0;"/><line style="stroke:#181818;stroke-width:1.0;stroke-dasharray:2.0,2.0;" x1="290" x2="525" y1="185.041" y2="185.041"/><text fill="#000000" font-family="sans-serif" font-size="13" lengthAdjust="spacing" textLength="130" x="302" y="180.2988">HTTP response (200)</text><polygon fill="#181818" points="43,210.3516,33,214.3516,43,218.3516,39,214.3516" style="stroke:#181818;stroke-width:1.0;"/><line style="stroke:#181818;stroke-width:1.0;stroke-dasharray:2.0,2.0;" x1="37" x2="279" y1="214.3516" y2="214.3516"/><text fill="#000000" font-family="sans-serif" font-size="13" lengthAdjust="spacing" textLength="160" x="49" y="209.6094">transactions page (HTML)</text><polygon fill="#181818" points="263,239.6621,273,243.6621,263,247.6621,267,243.6621" style="stroke:#181818;stroke-width:1.0;"/><line style="stroke:#181818;stroke-width:1.0;" x1="32" x2="269" y1="243.6621" y2="243.6621"/><text fill="#000000" font-family="sans-serif" font-size="13" lengthAdjust="spacing" textLength="209" x="39" y="238.9199">click on make transaction button</text><polygon fill="#181818" points="43,268.9727,33,272.9727,43,276.9727,39,272.9727" style="stroke:#181818;stroke-width:1.0;"/><line style="stroke:#181818;stroke-width:1.0;" x1="37" x2="279" y1="272.9727" y2="272.9727"/><text fill="#000000" font-family="sans-serif" font-size="13" lengthAdjust="spacing" textLength="192" x="49" y="268.2305">display make transaction form</text><polygon fill="#181818" points="263,298.2832,273,302.2832,263,306.2832,267,302.2832" style="stroke:#181818;stroke-width:1.0;"/><line style="stroke:#181818;stroke-width:1.0;" x1="32" x2="269" y1="302.2832" y2="302.2832"/><text fill="#000000" font-family="sans-serif" font-size="13" lengthAdjust="spacing" textLength="217" x="39" y="297.541">fill the form with the required data</text><line style="stroke:#181818;stroke-width:1.0;" x1="285" x2="327" y1="331.5938" y2="331.5938"/><line style="stroke:#181818;stroke-width:1.0;" x1="327" x2="327" y1="331.5938" y2="344.5938"/><line style="stroke:#181818;stroke-width:1.0;" x1="286" x2="327" y1="344.5938" y2="344.5938"/><polygon fill="#181818" points="296,340.5938,286,344.5938,296,348.5938,292,344.5938" style="stroke:#181818;stroke-width:1.0;"/><text fill="#000000" font-family="sans-serif" font-size="13" lengthAdjust="spacing" textLength="104" x="292" y="326.8516">validate the data</text><polygon fill="#181818" points="43,369.9043,33,373.9043,43,377.9043,39,373.9043" style="stroke:#181818;stroke-width:1.0;"/><line style="stroke:#181818;stroke-width:1.0;" x1="37" x2="279" y1="373.9043" y2="373.9043"/><text fill="#000000" font-family="sans-serif" font-size="13" lengthAdjust="spacing" textLength="125" x="49" y="369.1621">display errors if any</text><polygon fill="#181818" points="263,399.2148,273,403.2148,263,407.2148,267,403.2148" style="stroke:#181818;stroke-width:1.0;"/><line style="stroke:#181818;stroke-width:1.0;" x1="32" x2="269" y1="403.2148" y2="403.2148"/><text fill="#000000" font-family="sans-serif" font-size="13" lengthAdjust="spacing" textLength="209" x="39" y="398.4727">click on make transaction button</text><polygon fill="#181818" points="509,428.5254,519,432.5254,509,436.5254,513,432.5254" style="stroke:#181818;stroke-width:1.0;"/><line style="stroke:#181818;stroke-width:1.0;" x1="285" x2="515" y1="432.5254" y2="432.5254"/><text fill="#000000" font-family="sans-serif" font-size="13" lengthAdjust="spacing" textLength="217" x="292" y="427.7832">HTTP request (POST /transactions)</text><polygon fill="#181818" points="662,457.8359,672,461.8359,662,465.8359,666,461.8359" style="stroke:#181818;stroke-width:1.0;"/><line style="stroke:#181818;stroke-width:1.0;" x1="531" x2="668" y1="461.8359" y2="461.8359"/><text fill="#000000" font-family="sans-serif" font-size="13" lengthAdjust="spacing" textLength="124" x="538" y="457.0938">validate transaction</text><polygon fill="#181818" points="542,487.1465,532,491.1465,542,495.1465,538,491.1465" style="stroke:#181818;stroke-width:1.0;"/><line style="stroke:#181818;stroke-width:1.0;stroke-dasharray:2.0,2.0;" x1="536" x2="678" y1="491.1465" y2="491.1465"/><text fill="#000000" font-family="sans-serif" font-size="13" lengthAdjust="spacing" textLength="102" x="548" y="486.4043">validation result</text><polygon fill="#181818" points="296,516.457,286,520.457,296,524.457,292,520.457" style="stroke:#181818;stroke-width:1.0;"/><line style="stroke:#181818;stroke-width:1.0;stroke-dasharray:2.0,2.0;" x1="290" x2="525" y1="520.457" y2="520.457"/><text fill="#000000" font-family="sans-serif" font-size="13" lengthAdjust="spacing" textLength="130" x="302" y="515.7148">HTTP response (200)</text><polygon fill="#181818" points="43,545.7676,33,549.7676,43,553.7676,39,549.7676" style="stroke:#181818;stroke-width:1.0;"/><line style="stroke:#181818;stroke-width:1.0;" x1="37" x2="279" y1="549.7676" y2="549.7676"/><text fill="#000000" font-family="sans-serif" font-size="13" lengthAdjust="spacing" textLength="158" x="49" y="545.0254">display success message</text><polygon fill="#181818" points="263,575.0781,273,579.0781,263,583.0781,267,579.0781" style="stroke:#181818;stroke-width:1.0;"/><line style="stroke:#181818;stroke-width:1.0;" x1="32" x2="269" y1="579.0781" y2="579.0781"/><text fill="#000000" font-family="sans-serif" font-size="13" lengthAdjust="spacing" textLength="224" x="39" y="574.3359">click on confirm transaction button</text><polygon fill="#181818" points="509,604.3887,519,608.3887,509,612.3887,513,608.3887" style="stroke:#181818;stroke-width:1.0;"/><line style="stroke:#181818;stroke-width:1.0;" x1="285" x2="515" y1="608.3887" y2="608.3887"/><text fill="#000000" font-family="sans-serif" font-size="13" lengthAdjust="spacing" textLength="217" x="292" y="603.6465">HTTP request (POST /transactions)</text><polygon fill="#181818" points="662,633.6992,672,637.6992,662,641.6992,666,637.6992" style="stroke:#181818;stroke-width:1.0;"/><line style="stroke:#181818;stroke-width:1.0;" x1="531" x2="668" y1="637.6992" y2="637.6992"/><text fill="#000000" font-family="sans-serif" font-size="13" lengthAdjust="spacing" textLength="113" x="538" y="632.957">create transaction</text><polygon fill="#181818" points="542,663.0098,532,667.0098,542,671.0098,538,667.0098" style="stroke:#181818;stroke-width:1.0;"/><line style="stroke:#181818;stroke-width:1.0;stroke-dasharray:2.0,2.0;" x1="536" x2="678" y1="667.0098" y2="667.0098"/><text fill="#000000" font-family="sans-serif" font-size="13" lengthAdjust="spacing" textLength="71" x="548" y="662.2676">transaction</text><polygon fill="#181818" points="296,692.3203,286,696.3203,296,700.3203,292,696.3203" style="stroke:#181818;stroke-width:1.0;"/><line style="stroke:#181818;stroke-width:1.0;stroke-dasharray:2.0,2.0;" x1="290" x2="525" y1="696.3203" y2="696.3203"/><text fill="#000000" font-family="sans-serif" font-size="13" lengthAdjust="spacing" textLength="130" x="302" y="691.5781">HTTP response (200)</text><polygon fill="#181818" points="43,721.6309,33,725.6309,43,729.6309,39,725.6309" style="stroke:#181818;stroke-width:1.0;"/><line style="stroke:#181818;stroke-width:1.0;" x1="37" x2="279" y1="725.6309" y2="725.6309"/><text fill="#000000" font-family="sans-serif" font-size="13" lengthAdjust="spacing" textLength="181" x="49" y="720.8887">redirect to transactions page</text><!--MD5=[3303fef647f0e792117ffe84ec993037]
@startuml create-new-saving-account

Client -> Frontend: get transactions page
activate Frontend
Frontend -> Backend: HTTP request (GET /transactions)
activate Backend
Backend -> Database: get transactions
activate Database
Database - -> Backend: transactions
deactivate Database
Backend - -> Frontend: HTTP response (200)
deactivate Backend
Frontend - -> Client: transactions page (HTML)
deactivate Frontend
Client -> Frontend: click on make transaction button
activate Frontend
Frontend -> Client: display make transaction form
deactivate Frontend
Client -> Frontend: fill the form with the required data
activate Frontend
Frontend -> Frontend: validate the data
Frontend -> Client: display errors if any
deactivate Frontend
Client -> Frontend: click on make transaction button
activate Frontend
Frontend -> Backend: HTTP request (POST /transactions)
activate Backend
Backend -> Database: validate transaction
activate Database
Database - -> Backend: validation result
deactivate Database
Backend - -> Frontend: HTTP response (200)
deactivate Backend
Frontend -> Client: display success message
deactivate Frontend
Client -> Frontend: click on confirm transaction button
activate Frontend
Frontend -> Backend: HTTP request (POST /transactions)
activate Backend
Backend -> Database: create transaction
activate Database
Database - -> Backend: transaction
deactivate Database
Backend - -> Frontend: HTTP response (200)
deactivate Backend
Frontend -> Client: redirect to transactions page
deactivate Frontend

@enduml

PlantUML version 1.2022.7(Mon Aug 22 20:01:30 EEST 2022)
(GPL source distribution)
Java Runtime: OpenJDK Runtime Environment
JVM: OpenJDK 64-Bit Server VM
Default Encoding: UTF-8
Language: en
Country: RO
--></g></svg>