<?xml version="1.0" encoding="UTF-8" standalone="no"?><svg xmlns="http://www.w3.org/2000/svg" xmlns:xlink="http://www.w3.org/1999/xlink" contentStyleType="text/css" height="720px" preserveAspectRatio="none" style="width:767px;height:720px;background:#FFFFFF;" version="1.1" viewBox="0 0 767 720" width="767px" zoomAndPan="magnify"><defs/><g><rect fill="#FFFFFF" height="146.5527" style="stroke:#181818;stroke-width:1.0;" width="10" x="352.5" y="67.7988"/><rect fill="#FFFFFF" height="87.9316" style="stroke:#181818;stroke-width:1.0;" width="10" x="352.5" y="243.6621"/><rect fill="#FFFFFF" height="29.3105" style="stroke:#181818;stroke-width:1.0;" width="10" x="352.5" y="360.9043"/><rect fill="#FFFFFF" height="71.6211" style="stroke:#181818;stroke-width:1.0;" width="10" x="352.5" y="419.5254"/><rect fill="#FFFFFF" height="146.5527" style="stroke:#181818;stroke-width:1.0;" width="10" x="352.5" y="520.457"/><rect fill="#FFFFFF" height="87.9316" style="stroke:#181818;stroke-width:1.0;" width="10" x="614.5" y="97.1094"/><rect fill="#FFFFFF" height="29.3105" style="stroke:#181818;stroke-width:1.0;" width="10" x="614.5" y="272.9727"/><rect fill="#FFFFFF" height="87.9316" style="stroke:#181818;stroke-width:1.0;" width="10" x="614.5" y="549.7676"/><rect fill="#FFFFFF" height="29.3105" style="stroke:#181818;stroke-width:1.0;" width="10" x="717.5" y="126.4199"/><rect fill="#FFFFFF" height="29.3105" style="stroke:#181818;stroke-width:1.0;" width="10" x="717.5" y="579.0781"/><line style="stroke:#181818;stroke-width:0.5;stroke-dasharray:5.0,5.0;" x1="34" x2="34" y1="36.4883" y2="685.0098"/><line style="stroke:#181818;stroke-width:0.5;stroke-dasharray:5.0,5.0;" x1="357" x2="357" y1="36.4883" y2="685.0098"/><line style="stroke:#181818;stroke-width:0.5;stroke-dasharray:5.0,5.0;" x1="619" x2="619" y1="36.4883" y2="685.0098"/><line style="stroke:#181818;stroke-width:0.5;stroke-dasharray:5.0,5.0;" x1="722" x2="722" y1="36.4883" y2="685.0098"/><rect fill="#E2E2F0" height="30.4883" rx="2.5" ry="2.5" style="stroke:#181818;stroke-width:0.5;" width="59" x="5" y="5"/><text fill="#000000" font-family="sans-serif" font-size="14" lengthAdjust="spacing" textLength="45" x="12" y="25.5352">Admin</text><rect fill="#E2E2F0" height="30.4883" rx="2.5" ry="2.5" style="stroke:#181818;stroke-width:0.5;" width="59" x="5" y="684.0098"/><text fill="#000000" font-family="sans-serif" font-size="14" lengthAdjust="spacing" textLength="45" x="12" y="704.5449">Admin</text><rect fill="#E2E2F0" height="30.4883" rx="2.5" ry="2.5" style="stroke:#181818;stroke-width:0.5;" width="77" x="319" y="5"/><text fill="#000000" font-family="sans-serif" font-size="14" lengthAdjust="spacing" textLength="63" x="326" y="25.5352">Frontend</text><rect fill="#E2E2F0" height="30.4883" rx="2.5" ry="2.5" style="stroke:#181818;stroke-width:0.5;" width="77" x="319" y="684.0098"/><text fill="#000000" font-family="sans-serif" font-size="14" lengthAdjust="spacing" textLength="63" x="326" y="704.5449">Frontend</text><rect fill="#E2E2F0" height="30.4883" rx="2.5" ry="2.5" style="stroke:#181818;stroke-width:0.5;" width="71" x="584" y="5"/><text fill="#000000" font-family="sans-serif" font-size="14" lengthAdjust="spacing" textLength="57" x="591" y="25.5352">Backend</text><rect fill="#E2E2F0" height="30.4883" rx="2.5" ry="2.5" style="stroke:#181818;stroke-width:0.5;" width="71" x="584" y="684.0098"/><text fill="#000000" font-family="sans-serif" font-size="14" lengthAdjust="spacing" textLength="57" x="591" y="704.5449">Backend</text><rect fill="#E2E2F0" height="30.4883" rx="2.5" ry="2.5" style="stroke:#181818;stroke-width:0.5;" width="77" x="684" y="5"/><text fill="#000000" font-family="sans-serif" font-size="14" lengthAdjust="spacing" textLength="63" x="691" y="25.5352">Database</text><rect fill="#E2E2F0" height="30.4883" rx="2.5" ry="2.5" style="stroke:#181818;stroke-width:0.5;" width="77" x="684" y="684.0098"/><text fill="#000000" font-family="sans-serif" font-size="14" lengthAdjust="spacing" textLength="63" x="691" y="704.5449">Database</text><rect fill="#FFFFFF" height="146.5527" style="stroke:#181818;stroke-width:1.0;" width="10" x="352.5" y="67.7988"/><rect fill="#FFFFFF" height="87.9316" style="stroke:#181818;stroke-width:1.0;" width="10" x="352.5" y="243.6621"/><rect fill="#FFFFFF" height="29.3105" style="stroke:#181818;stroke-width:1.0;" width="10" x="352.5" y="360.9043"/><rect fill="#FFFFFF" height="71.6211" style="stroke:#181818;stroke-width:1.0;" width="10" x="352.5" y="419.5254"/><rect fill="#FFFFFF" height="146.5527" style="stroke:#181818;stroke-width:1.0;" width="10" x="352.5" y="520.457"/><rect fill="#FFFFFF" height="87.9316" style="stroke:#181818;stroke-width:1.0;" width="10" x="614.5" y="97.1094"/><rect fill="#FFFFFF" height="29.3105" style="stroke:#181818;stroke-width:1.0;" width="10" x="614.5" y="272.9727"/><rect fill="#FFFFFF" height="87.9316" style="stroke:#181818;stroke-width:1.0;" width="10" x="614.5" y="549.7676"/><rect fill="#FFFFFF" height="29.3105" style="stroke:#181818;stroke-width:1.0;" width="10" x="717.5" y="126.4199"/><rect fill="#FFFFFF" height="29.3105" style="stroke:#181818;stroke-width:1.0;" width="10" x="717.5" y="579.0781"/><polygon fill="#181818" points="340.5,63.7988,350.5,67.7988,340.5,71.7988,344.5,67.7988" style="stroke:#181818;stroke-width:1.0;"/><line style="stroke:#181818;stroke-width:1.0;" x1="34.5" x2="346.5" y1="67.7988" y2="67.7988"/><text fill="#000000" font-family="sans-serif" font-size="13" lengthAdjust="spacing" textLength="153" x="41.5" y="63.0566">get users accounts page</text><polygon fill="#181818" points="602.5,93.1094,612.5,97.1094,602.5,101.1094,606.5,97.1094" style="stroke:#181818;stroke-width:1.0;"/><line style="stroke:#181818;stroke-width:1.0;" x1="362.5" x2="608.5" y1="97.1094" y2="97.1094"/><text fill="#000000" font-family="sans-serif" font-size="13" lengthAdjust="spacing" textLength="165" x="369.5" y="92.3672">HTTP request (GET /users)</text><polygon fill="#181818" points="705.5,122.4199,715.5,126.4199,705.5,130.4199,709.5,126.4199" style="stroke:#181818;stroke-width:1.0;"/><line style="stroke:#181818;stroke-width:1.0;" x1="624.5" x2="711.5" y1="126.4199" y2="126.4199"/><text fill="#000000" font-family="sans-serif" font-size="13" lengthAdjust="spacing" textLength="58" x="631.5" y="121.6777">get users</text><polygon fill="#181818" points="635.5,151.7305,625.5,155.7305,635.5,159.7305,631.5,155.7305" style="stroke:#181818;stroke-width:1.0;"/><line style="stroke:#181818;stroke-width:1.0;stroke-dasharray:2.0,2.0;" x1="629.5" x2="721.5" y1="155.7305" y2="155.7305"/><text fill="#000000" font-family="sans-serif" font-size="13" lengthAdjust="spacing" textLength="34" x="641.5" y="150.9883">users</text><polygon fill="#181818" points="373.5,181.041,363.5,185.041,373.5,189.041,369.5,185.041" style="stroke:#181818;stroke-width:1.0;"/><line style="stroke:#181818;stroke-width:1.0;stroke-dasharray:2.0,2.0;" x1="367.5" x2="618.5" y1="185.041" y2="185.041"/><text fill="#000000" font-family="sans-serif" font-size="13" lengthAdjust="spacing" textLength="199" x="379.5" y="180.2988">HTTP response (200) with users</text><polygon fill="#181818" points="45.5,210.3516,35.5,214.3516,45.5,218.3516,41.5,214.3516" style="stroke:#181818;stroke-width:1.0;"/><line style="stroke:#181818;stroke-width:1.0;stroke-dasharray:2.0,2.0;" x1="39.5" x2="356.5" y1="214.3516" y2="214.3516"/><text fill="#000000" font-family="sans-serif" font-size="13" lengthAdjust="spacing" textLength="246" x="51.5" y="209.6094">users accounts page (HTML) with users</text><polygon fill="#181818" points="340.5,239.6621,350.5,243.6621,340.5,247.6621,344.5,243.6621" style="stroke:#181818;stroke-width:1.0;"/><line style="stroke:#181818;stroke-width:1.0;" x1="34.5" x2="346.5" y1="243.6621" y2="243.6621"/><text fill="#000000" font-family="sans-serif" font-size="13" lengthAdjust="spacing" textLength="94" x="41.5" y="238.9199">search for user</text><polygon fill="#181818" points="602.5,268.9727,612.5,272.9727,602.5,276.9727,606.5,272.9727" style="stroke:#181818;stroke-width:1.0;"/><line style="stroke:#181818;stroke-width:1.0;" x1="362.5" x2="608.5" y1="272.9727" y2="272.9727"/><text fill="#000000" font-family="sans-serif" font-size="13" lengthAdjust="spacing" textLength="233" x="369.5" y="268.2305">HTTP request (GET /users?search=...)</text><polygon fill="#181818" points="373.5,298.2832,363.5,302.2832,373.5,306.2832,369.5,302.2832" style="stroke:#181818;stroke-width:1.0;"/><line style="stroke:#181818;stroke-width:1.0;" x1="367.5" x2="618.5" y1="302.2832" y2="302.2832"/><text fill="#000000" font-family="sans-serif" font-size="13" lengthAdjust="spacing" textLength="199" x="379.5" y="297.541">HTTP response (200) with users</text><polygon fill="#181818" points="45.5,327.5938,35.5,331.5938,45.5,335.5938,41.5,331.5938" style="stroke:#181818;stroke-width:1.0;"/><line style="stroke:#181818;stroke-width:1.0;stroke-dasharray:2.0,2.0;" x1="39.5" x2="356.5" y1="331.5938" y2="331.5938"/><text fill="#000000" font-family="sans-serif" font-size="13" lengthAdjust="spacing" textLength="287" x="51.5" y="326.8516">users accounts page (HTML) with found users</text><polygon fill="#181818" points="340.5,356.9043,350.5,360.9043,340.5,364.9043,344.5,360.9043" style="stroke:#181818;stroke-width:1.0;"/><line style="stroke:#181818;stroke-width:1.0;" x1="34.5" x2="346.5" y1="360.9043" y2="360.9043"/><text fill="#000000" font-family="sans-serif" font-size="13" lengthAdjust="spacing" textLength="124" x="41.5" y="356.1621">click on edit button</text><polygon fill="#181818" points="45.5,386.2148,35.5,390.2148,45.5,394.2148,41.5,390.2148" style="stroke:#181818;stroke-width:1.0;"/><line style="stroke:#181818;stroke-width:1.0;" x1="39.5" x2="356.5" y1="390.2148" y2="390.2148"/><text fill="#000000" font-family="sans-serif" font-size="13" lengthAdjust="spacing" textLength="107" x="51.5" y="385.4727">display edit form</text><polygon fill="#181818" points="340.5,415.5254,350.5,419.5254,340.5,423.5254,344.5,419.5254" style="stroke:#181818;stroke-width:1.0;"/><line style="stroke:#181818;stroke-width:1.0;" x1="34.5" x2="346.5" y1="419.5254" y2="419.5254"/><text fill="#000000" font-family="sans-serif" font-size="13" lengthAdjust="spacing" textLength="86" x="41.5" y="414.7832">edit user data</text><line style="stroke:#181818;stroke-width:1.0;" x1="362.5" x2="404.5" y1="448.8359" y2="448.8359"/><line style="stroke:#181818;stroke-width:1.0;" x1="404.5" x2="404.5" y1="448.8359" y2="461.8359"/><line style="stroke:#181818;stroke-width:1.0;" x1="363.5" x2="404.5" y1="461.8359" y2="461.8359"/><polygon fill="#181818" points="373.5,457.8359,363.5,461.8359,373.5,465.8359,369.5,461.8359" style="stroke:#181818;stroke-width:1.0;"/><text fill="#000000" font-family="sans-serif" font-size="13" lengthAdjust="spacing" textLength="111" x="369.5" y="444.0938">validate user data</text><polygon fill="#181818" points="45.5,487.1465,35.5,491.1465,45.5,495.1465,41.5,491.1465" style="stroke:#181818;stroke-width:1.0;"/><line style="stroke:#181818;stroke-width:1.0;stroke-dasharray:2.0,2.0;" x1="39.5" x2="356.5" y1="491.1465" y2="491.1465"/><text fill="#000000" font-family="sans-serif" font-size="13" lengthAdjust="spacing" textLength="83" x="51.5" y="486.4043">confirm page</text><polygon fill="#181818" points="340.5,516.457,350.5,520.457,340.5,524.457,344.5,520.457" style="stroke:#181818;stroke-width:1.0;"/><line style="stroke:#181818;stroke-width:1.0;" x1="34.5" x2="346.5" y1="520.457" y2="520.457"/><text fill="#000000" font-family="sans-serif" font-size="13" lengthAdjust="spacing" textLength="128" x="41.5" y="515.7148">click on save button</text><polygon fill="#181818" points="602.5,545.7676,612.5,549.7676,602.5,553.7676,606.5,549.7676" style="stroke:#181818;stroke-width:1.0;"/><line style="stroke:#181818;stroke-width:1.0;" x1="362.5" x2="608.5" y1="549.7676" y2="549.7676"/><text fill="#000000" font-family="sans-serif" font-size="13" lengthAdjust="spacing" textLength="188" x="369.5" y="545.0254">HTTP request (PUT /users/:id)</text><polygon fill="#181818" points="705.5,575.0781,715.5,579.0781,705.5,583.0781,709.5,579.0781" style="stroke:#181818;stroke-width:1.0;"/><line style="stroke:#181818;stroke-width:1.0;" x1="624.5" x2="711.5" y1="579.0781" y2="579.0781"/><text fill="#000000" font-family="sans-serif" font-size="13" lengthAdjust="spacing" textLength="74" x="631.5" y="574.3359">update user</text><polygon fill="#181818" points="635.5,604.3887,625.5,608.3887,635.5,612.3887,631.5,608.3887" style="stroke:#181818;stroke-width:1.0;"/><line style="stroke:#181818;stroke-width:1.0;stroke-dasharray:2.0,2.0;" x1="629.5" x2="721.5" y1="608.3887" y2="608.3887"/><text fill="#000000" font-family="sans-serif" font-size="13" lengthAdjust="spacing" textLength="27" x="641.5" y="603.6465">user</text><polygon fill="#181818" points="373.5,633.6992,363.5,637.6992,373.5,641.6992,369.5,637.6992" style="stroke:#181818;stroke-width:1.0;"/><line style="stroke:#181818;stroke-width:1.0;stroke-dasharray:2.0,2.0;" x1="367.5" x2="618.5" y1="637.6992" y2="637.6992"/><text fill="#000000" font-family="sans-serif" font-size="13" lengthAdjust="spacing" textLength="192" x="379.5" y="632.957">HTTP response (200) with user</text><polygon fill="#181818" points="45.5,663.0098,35.5,667.0098,45.5,671.0098,41.5,667.0098" style="stroke:#181818;stroke-width:1.0;"/><line style="stroke:#181818;stroke-width:1.0;stroke-dasharray:2.0,2.0;" x1="39.5" x2="356.5" y1="667.0098" y2="667.0098"/><text fill="#000000" font-family="sans-serif" font-size="13" lengthAdjust="spacing" textLength="294" x="51.5" y="662.2676">users accounts page (HTML) with updated user</text><!--MD5=[554744dd00ff3ad7092fdf2ba10d99ab]
@startuml admin-manage-accounts

Admin -> Frontend: get users accounts page
activate Frontend
Frontend -> Backend: HTTP request (GET /users)
activate Backend
Backend -> Database: get users
activate Database
Database - -> Backend: users
deactivate Database
Backend - -> Frontend: HTTP response (200) with users
deactivate Backend
Frontend - -> Admin: users accounts page (HTML) with users
deactivate Frontend
Admin -> Frontend: search for user
activate Frontend
Frontend -> Backend: HTTP request (GET /users?search=...)
activate Backend
Backend -> Frontend: HTTP response (200) with users
deactivate Backend
Frontend - -> Admin: users accounts page (HTML) with found users
deactivate Frontend
Admin -> Frontend: click on edit button
activate Frontend
Frontend -> Admin: display edit form
deactivate Frontend

Admin -> Frontend: edit user data
activate Frontend
Frontend -> Frontend: validate user data
Frontend - -> Admin: confirm page
deactivate Frontend
Admin -> Frontend: click on save button
activate Frontend
Frontend -> Backend: HTTP request (PUT /users/:id)
activate Backend
Backend -> Database: update user
activate Database
Database - -> Backend: user
deactivate Database
Backend - -> Frontend: HTTP response (200) with user
deactivate Backend
Frontend - -> Admin: users accounts page (HTML) with updated user
deactivate Frontend


@enduml

PlantUML version 1.2022.7(Mon Aug 22 20:01:30 EEST 2022)
(GPL source distribution)
Java Runtime: OpenJDK Runtime Environment
JVM: OpenJDK 64-Bit Server VM
Default Encoding: UTF-8
Language: en
Country: RO
--></g></svg>